<svg id="Layer_1" data-name="Layer 1" xmlns="http://www.w3.org/2000/svg" xmlns:xlink="http://www.w3.org/1999/xlink" viewBox="0 0 2000 2000"><defs><linearGradient id="linear-gradient" x1="-692.69" y1="-1027.81" x2="167.66" y2="-196.42" gradientTransform="translate(1561.92 2426.96) scale(2.47)" gradientUnits="userSpaceOnUse"><stop offset="0" stop-color="#dff4ff"/><stop offset="0.1" stop-color="#d6eaf5"/><stop offset="0.27" stop-color="#bfd0d9"/><stop offset="0.49" stop-color="#98a5ac"/><stop offset="0.75" stop-color="#646b6e"/><stop offset="1" stop-color="#2b2b2b"/></linearGradient><radialGradient id="radial-gradient" cx="-638.39" cy="-957.27" r="576.09" gradientTransform="translate(1561.92 2426.96) scale(2.47)" gradientUnits="userSpaceOnUse"><stop offset="0" stop-color="#fff"/><stop offset="0.31" stop-color="#a8a8a8"/><stop offset="0.65" stop-color="#4f4f4f"/><stop offset="0.89" stop-color="#161616"/><stop offset="1"/></radialGradient><linearGradient id="linear-gradient-2" x1="332.77" y1="403.83" x2="880.72" y2="933.34" gradientTransform="translate(2550.79 2701.45) rotate(180) scale(2.47)" gradientUnits="userSpaceOnUse"><stop offset="0" stop-color="#dff4ff"/><stop offset="0.09" stop-color="#d6eaf5"/><stop offset="0.23" stop-color="#bed0d9"/><stop offset="0.42" stop-color="#96a4ac"/><stop offset="0.65" stop-color="#5f686d"/><stop offset="0.91" stop-color="#1a1d1e"/><stop offset="1"/></linearGradient><radialGradient id="radial-gradient-2" cx="-741.92" cy="-1015.94" r="1384.37" gradientTransform="translate(1561.92 2426.96) scale(2.47)" gradientUnits="userSpaceOnUse"><stop offset="0" stop-color="#fff"/><stop offset="0.31" stop-color="#fdfdfd"/><stop offset="0.45" stop-color="#f6f6f6"/><stop offset="0.56" stop-color="#e9e9e9"/><stop offset="0.65" stop-color="#d7d7d7"/><stop offset="0.72" stop-color="#bfbfbf"/><stop offset="0.79" stop-color="#a2a2a2"/><stop offset="0.86" stop-color="gray"/><stop offset="0.92" stop-color="#575757"/><stop offset="0.97" stop-color="#2b2b2b"/><stop offset="1" stop-color="#141414"/></radialGradient><radialGradient id="radial-gradient-3" cx="-267.62" cy="-78.52" r="3413.8" gradientTransform="matrix(1, 0, 0, 1, 0, 0)" xlink:href="#radial-gradient-2"/><radialGradient id="radial-gradient-4" cx="-741.99" cy="-1016.35" r="1385.43" xlink:href="#radial-gradient-2"/><radialGradient id="radial-gradient-5" cx="-493.94" cy="-824.03" r="373.37" gradientTransform="translate(1561.92 2426.96) scale(2.47)" gradientUnits="userSpaceOnUse"><stop offset="0" stop-color="#e6e6e6"/><stop offset="0.1" stop-color="#d6d6d6"/><stop offset="0.31" stop-color="#adadad"/><stop offset="0.59" stop-color="#6c6c6c"/><stop offset="0.93" stop-color="#121212"/><stop offset="1"/></radialGradient><radialGradient id="radial-gradient-6" cx="-391.81" cy="-773.81" r="542.99" gradientTransform="translate(1561.92 2426.96) scale(2.47)" gradientUnits="userSpaceOnUse"><stop offset="0" stop-color="#fff"/><stop offset="0.34" stop-color="#fdfdfd"/><stop offset="0.48" stop-color="#f6f6f6"/><stop offset="0.58" stop-color="#eaeaea"/><stop offset="0.67" stop-color="#d8d8d8"/><stop offset="0.74" stop-color="#c2c2c2"/><stop offset="0.8" stop-color="#a6a6a6"/><stop offset="0.86" stop-color="#848484"/><stop offset="0.91" stop-color="#5f5f5f"/><stop offset="0.95" stop-color="#404040"/><stop offset="0.96" stop-color="#404040"/><stop offset="1" stop-color="#404040"/><stop offset="1"/></radialGradient><radialGradient id="radial-gradient-7" cx="-551.24" cy="-979.64" r="961.65" gradientTransform="translate(1561.92 2426.96) scale(2.47)" gradientUnits="userSpaceOnUse"><stop offset="0.17" stop-color="#fff"/><stop offset="0.2" stop-color="#e0eff7"/><stop offset="0.24" stop-color="#b2d9ec"/><stop offset="0.29" stop-color="#8bc5e2"/><stop offset="0.34" stop-color="#6bb5da"/><stop offset="0.38" stop-color="#52a9d4"/><stop offset="0.44" stop-color="#41a0cf"/><stop offset="0.49" stop-color="#369bcd"/><stop offset="0.56" stop-color="#39c"/><stop offset="0.61" stop-color="#3396c8"/><stop offset="0.66" stop-color="#328ebc"/><stop offset="0.7" stop-color="#3180a8"/><stop offset="0.75" stop-color="#2f6d8c"/><stop offset="0.8" stop-color="#2d5468"/><stop offset="0.85" stop-color="#2a373d"/><stop offset="0.87" stop-color="#292929"/></radialGradient><radialGradient id="radial-gradient-8" cx="-551.24" cy="-979.65" r="961.63" xlink:href="#radial-gradient-7"/><radialGradient id="radial-gradient-9" cx="-488.84" cy="-819.33" r="366.22" xlink:href="#radial-gradient-5"/><linearGradient id="linear-gradient-3" x1="-275.87" y1="-910.77" x2="81.27" y2="-565.66" gradientTransform="translate(1561.92 2426.96) scale(2.47)" gradientUnits="userSpaceOnUse"><stop offset="0" stop-color="#f0f4ff"/><stop offset="0.11" stop-color="#ebeff9"/><stop offset="0.25" stop-color="#dce0ea"/><stop offset="0.4" stop-color="#c4c7cf"/><stop offset="0.57" stop-color="#a2a4ab"/><stop offset="0.75" stop-color="#76777c"/><stop offset="0.93" stop-color="#414243"/><stop offset="1" stop-color="#2b2b2b"/></linearGradient><linearGradient id="linear-gradient-4" x1="-565.75" y1="-619.4" x2="-208.61" y2="-274.28" xlink:href="#linear-gradient-3"/><linearGradient id="linear-gradient-5" x1="-392.97" y1="-742.46" x2="-207.78" y2="-563.5" gradientTransform="translate(1561.92 2426.96) scale(2.47)" gradientUnits="userSpaceOnUse"><stop offset="0" stop-color="#c2d7e8"/><stop offset="0.13" stop-color="#bacfe1"/><stop offset="0.34" stop-color="#a4bacd"/><stop offset="0.6" stop-color="#8098ac"/><stop offset="0.89" stop-color="#4e697f"/><stop offset="1" stop-color="#3a566d"/></linearGradient><linearGradient id="linear-gradient-6" x1="-485.72" y1="-698.61" x2="-132.17" y2="-356.97" gradientTransform="translate(1561.92 2426.96) scale(2.47)" gradientUnits="userSpaceOnUse"><stop offset="0" stop-color="#f0f4ff"/><stop offset="0.1" stop-color="#e8ebf6"/><stop offset="0.26" stop-color="#d1d4dd"/><stop offset="0.46" stop-color="#abaeb5"/><stop offset="0.69" stop-color="#78797d"/><stop offset="0.96" stop-color="#363637"/><stop offset="1" stop-color="#2b2b2b"/></linearGradient><linearGradient id="linear-gradient-7" x1="-225.13" y1="-571.88" x2="-101.12" y2="-452.04" gradientTransform="translate(1561.92 2426.96) scale(2.47)" gradientUnits="userSpaceOnUse"><stop offset="0" stop-color="#d9def0"/><stop offset="0.12" stop-color="#d4daec"/><stop offset="0.26" stop-color="#c7cfe2"/><stop offset="0.41" stop-color="#b0bcd1"/><stop offset="0.57" stop-color="#90a1b8"/><stop offset="0.72" stop-color="#677f99"/><stop offset="0.89" stop-color="#355674"/><stop offset="0.97" stop-color="#173d5d"/></linearGradient><linearGradient id="linear-gradient-8" x1="-351.99" y1="-828.27" x2="1.17" y2="-487" xlink:href="#linear-gradient-3"/></defs><title>bmw_logo</title><path d="M1000,0C447.74,0,0,447.71,0,1000S447.74,2000,1000,2000s1000-447.7,1000-1000S1552.31,0,1000,0Zm0,1950c-524.68,0-950-425.32-950-950S475.32,50,1000,50s950,425.33,950,950S1524.68,1950,1000,1950Z" fill="url(#linear-gradient)"/><path d="M1957.16,1000c0,528.58-428.58,957.14-957.16,957.14S42.89,1528.58,42.89,1000,471.42,42.86,1000,42.86,1957.16,471.39,1957.16,1000Z" fill="#333"/><path d="M1950,1000c0,524.66-425.31,950-950,950S50,1524.66,50,1000,475.32,50,1000,50,1950,475.34,1950,1000Z" fill="url(#radial-gradient)"/><path d="M1636.9,1000c0,351.73-285.15,636.87-636.89,636.87S363.11,1351.74,363.11,1000,648.25,363.11,1000,363.11,1636.9,648.25,1636.9,1000Z" fill="url(#linear-gradient-2)"/><g id="logo_letters"><path id="letters_shadow" d="M555.24,410.52C535,390.89,503.81,385,474.47,403.16c5.61-14.53,3.33-29.31.37-37.52-12.66-23-17.09-25.91-27.43-34.64-33.73-28.26-69.21-4.13-94.56,26.08L230.3,503.13,423,664.76l129.23-154c29.53-35.19,34.09-70.08,3-100.26ZM306,481l73.62-87.73c8.54-10.15,27.83-9.74,40.2.68,13.62,11.43,13.67,27.62,4.51,38.55l-72.79,86.71L306,481ZM509.1,495.54,432.36,587l-48.05-40.39,77.31-92.16C470.37,444,489.85,441,503,452c14.8,12.45,16.27,31.39,6.1,43.51Zm516.42-149.65,66.15-175.35V345.89h50.25V94.76h-75.51L997.72,274.57h.66L929.69,94.76H854.18V345.89h50.25V170.54l66.15,175.35ZM1715.1,458.5l-85.85,125.18,134.84-66.32,36.58,43.86L1588.44,667.78l-42.88-51.92,82.27-124-.49-.61L1490.5,549.78l-43.37-51.57,143.1-189.49,36.58,43.89-89.6,120.66,138.67-61.85Z" fill="#333"/><path id="letter_w" d="M1715.59,441.65l-85.81,125.18,134.84-66.34,36.54,43.88L1589,650.93,1546.08,599l82.27-124-.48-.62L1491,532.94l-43.33-51.6,143.1-189.46,36.58,43.86L1537.75,456.4l138.62-61.82Z" fill="url(#radial-gradient-2)"/><path id="letter_m" d="M1026.05,336.19l66.15-175.35V336.19h50.25V85.06h-75.52l-68.68,179.8h.65L930.22,85.06H854.7V336.19H905V160.84l66.17,175.35Z" fill="url(#radial-gradient-3)"/><path id="letter_b" d="M546.24,405.58C526.06,386,494.81,380,465.52,398.2c5.57-14.53,3.29-29.32.33-37.48-12.66-23.05-17.05-25.92-27.47-34.66-33.73-28.28-69.17-4.14-94.48,26.1l-122.6,146L414,659.82l129.23-154c29.5-35.2,34.1-70.07,3-100.24ZM297,476l73.6-87.7c8.51-10.17,27.79-9.76,40.2.63,13.64,11.45,13.68,27.67,4.48,38.55l-72.75,86.73L297,476ZM500.15,490.6l-76.74,91.45-48.14-40.39,77.35-92.18c8.75-10.39,28.2-13.42,41.34-2.39,14.89,12.46,16.36,31.36,6.19,43.51Z" fill="url(#radial-gradient-4)"/></g><path d="M384.3,1000C384.3,660,660,384.29,1000,384.29S1615.7,660,1615.7,1000,1340.07,1615.7,1000,1615.7,384.3,1340,384.3,1000Z" fill="url(#radial-gradient-5)"/><path d="M402,1000c0-330.27,267.73-598,598-598s598,267.75,598,598-267.77,598-598,598S402,1330.28,402,1000Z" fill="url(#radial-gradient-6)"/><path d="M401.07,1000H1000V401.07c-330.8,0-598.93,268.14-598.93,598.94Z" fill="url(#radial-gradient-7)"/><path d="M1000,1000V1599c330.8,0,598.94-268.19,598.94-598.94Z" fill="url(#radial-gradient-8)"/><path d="M1603.9,989.36H1010.62V396.09H989.38V989.36H396.1v21.25H989.38V1603.9h21.24V1010.61H1603.9Z" fill="url(#radial-gradient-9)"/><path d="M1010.62,412.89c315.95,5.62,570.9,260.55,576.56,576.47h10.57c-5.65-321.78-265.32-581.49-587.13-587.11Z" fill="url(#linear-gradient-3)"/><path d="M411.81,989.29C417.42,672.93,672.74,417.63,989.1,412V401.38C666.85,407,406.85,667.07,401.19,989.28Z" fill="#c2d7e8"/><path d="M989.38,1587.12c-316-5.62-570.9-260.57-576.51-576.51H402.25c5.65,321.8,265.33,581.52,587.13,587.13v-10.62Z" fill="url(#linear-gradient-4)"/><path d="M1587.18,1010.61c-5.66,315.94-260.61,570.89-576.56,576.51v10.62c321.81-5.61,581.52-265.33,587.14-587.13Z" fill="#12404f"/><path d="M978,401.38V977.71H401.72v11.37H989.38V401.38Z" fill="url(#linear-gradient-5)"/><path d="M977.06,1592.17v-569.4H406.48v-11.23H988.29v580.63Z" fill="url(#linear-gradient-6)"/><path d="M1022.79,1592.17v-569.4h569.39v-11.23H1011.6v580.63Z" fill="url(#linear-gradient-7)"/><path d="M1022.79,406.47V975.86h569.39v11.21H1011.6V406.47Z" fill="url(#linear-gradient-8)"/></svg>