<svg xmlns="http://www.w3.org/2000/svg" viewBox="0 0 180.49 39.49"><defs><style>.cls-1{fill:#c3182d;}</style></defs><title>huawei_logo</title><g id="Layer_2" data-name="Layer 2"><g id="Layer_1-2" data-name="Layer 1"><polygon points="75.43 21.04 66.31 21.04 66.31 13.01 62.28 13.01 62.28 32.91 66.31 32.91 66.31 24.83 75.43 24.83 75.43 32.91 79.47 32.91 79.47 13.01 75.43 13.01 75.43 21.04"/><path d="M98.17,24.4c0,3.24-1.61,5-4.52,5s-4.55-1.77-4.55-5.1V13h-4V24.4c0,5.6,3.11,8.81,8.53,8.81s8.62-3.27,8.62-9V13h-4Z"/><polygon points="144.83 26.7 140.31 13.01 137.01 13.01 132.5 26.7 128.1 13.02 123.81 13.02 130.74 32.91 134.08 32.91 138.61 19.85 143.13 32.91 146.5 32.91 153.42 13.02 149.23 13.02 144.83 26.7"/><polygon points="160.66 24.35 168 24.35 168 20.72 160.66 20.72 160.66 16.65 171.31 16.65 171.31 13.03 156.67 13.03 156.67 32.9 171.7 32.9 171.7 29.27 160.66 29.27 160.66 24.35"/><rect x="176.51" y="13.01" width="3.98" height="19.87"/><path d="M119.29,28.76l1.79,4.14h4.23l-8.68-19.77-.08-.12H113L104.25,32.9h4.12l1.69-3.85h0l.13-.29Zm-4.56-10.71,2.88,6.66h0l.19.46h-6.1l.19-.46h0Z"/><path class="cls-1" d="M22.53,30.8c-.06.09-.18.05-.21,0-2.25-1.12-11.91-6-15.9-9.93a7.72,7.72,0,0,1-2.66-5.25C3.44,11.31,8,7,8,7A119.31,119.31,0,0,1,22.58,30.61h0a.16.16,0,0,1,0,.19M21,34.13c0-.14-.21-.14-.21-.14h0l-16.09.56c1.75,3.12,4.69,5.54,7.75,4.79,2.11-.52,6.9-3.87,8.48-5h0c.12-.11.08-.2.08-.2m.24-1.45c.08-.12-.06-.23-.06-.23h0C14.16,27.67.46,20.34.46,20.34A9.55,9.55,0,0,0,6,32.13a9.82,9.82,0,0,0,3.08.67c.24.05,9.57,0,12.07,0a.21.21,0,0,0,.16-.11M22.35,0c-.7.06-2.59.49-2.59.49a7.47,7.47,0,0,0-5.27,5,9.93,9.93,0,0,0,0,5.11c1.43,6.32,8.42,16.7,9.93,18.88a.2.2,0,0,0,.19.07.21.21,0,0,0,.15-.21h0C27.09,6.14,22.35,0,22.35,0m5.33,29.51a.19.19,0,0,0,.23-.09h0c1.55-2.23,8.5-12.56,9.92-18.85a10.73,10.73,0,0,0,0-5.11,7.46,7.46,0,0,0-5.31-5S31.31.18,30,0c0,0-4.77,6.15-2.45,29.33h0a.2.2,0,0,0,.13.18M31.49,34s-.15,0-.18.12,0,.15.06.22h0c1.54,1.1,6.2,4.37,8.46,5,0,0,4.15,1.42,7.77-4.8L31.49,34ZM51.88,20.31S38.2,27.66,31.13,32.43h0a.21.21,0,0,0-.08.23s.07.12.17.12h0c2.53,0,12.11,0,12.35,0a9.77,9.77,0,0,0,2.77-.63,9.45,9.45,0,0,0,5.18-5,9.73,9.73,0,0,0,.36-6.85m-22,10.49a.22.22,0,0,0,.22,0h0c2.3-1.15,11.89-6,15.86-9.91a7.74,7.74,0,0,0,2.65-5.27C48.86,11.13,44.33,7,44.33,7A119.64,119.64,0,0,0,29.79,30.54h0a.23.23,0,0,0,.05.26"/></g></g></svg>