<svg id="Layer_1" data-name="Layer 1" xmlns="http://www.w3.org/2000/svg" xmlns:xlink="http://www.w3.org/1999/xlink" viewBox="0 0 2980 3820"><defs><linearGradient id="linear-gradient" x1="1469.68" y1="-2447.38" x2="2330.04" y2="-1615.99" gradientTransform="translate(-3280.86 6207.83) scale(2.47)" gradientUnits="userSpaceOnUse"><stop offset="0" stop-color="#dff4ff"/><stop offset="0.1" stop-color="#d6eaf5"/><stop offset="0.27" stop-color="#bfd0d9"/><stop offset="0.49" stop-color="#98a5ac"/><stop offset="0.75" stop-color="#646b6e"/><stop offset="1" stop-color="#2b2b2b"/></linearGradient><radialGradient id="radial-gradient" cx="1523.98" cy="-2376.84" r="576.09" gradientTransform="translate(-3280.86 6207.83) scale(2.47)" gradientUnits="userSpaceOnUse"><stop offset="0" stop-color="#fff"/><stop offset="0.31" stop-color="#a8a8a8"/><stop offset="0.65" stop-color="#4f4f4f"/><stop offset="0.89" stop-color="#161616"/><stop offset="1"/></radialGradient><linearGradient id="linear-gradient-2" x1="4776.43" y1="-3334.08" x2="5324.38" y2="-2804.57" gradientTransform="translate(13999.61 -6236.89) rotate(180) scale(2.47)" gradientUnits="userSpaceOnUse"><stop offset="0" stop-color="#dff4ff"/><stop offset="0.09" stop-color="#d6eaf5"/><stop offset="0.23" stop-color="#bed0d9"/><stop offset="0.42" stop-color="#96a4ac"/><stop offset="0.65" stop-color="#5f686d"/><stop offset="0.91" stop-color="#1a1d1e"/><stop offset="1"/></linearGradient><radialGradient id="radial-gradient-2" cx="1420.46" cy="-2435.5" r="1384.37" gradientTransform="translate(-3280.86 6207.83) scale(2.47)" gradientUnits="userSpaceOnUse"><stop offset="0" stop-color="#fff"/><stop offset="0.31" stop-color="#fdfdfd"/><stop offset="0.45" stop-color="#f6f6f6"/><stop offset="0.56" stop-color="#e9e9e9"/><stop offset="0.65" stop-color="#d7d7d7"/><stop offset="0.72" stop-color="#bfbfbf"/><stop offset="0.79" stop-color="#a2a2a2"/><stop offset="0.86" stop-color="gray"/><stop offset="0.92" stop-color="#575757"/><stop offset="0.97" stop-color="#2b2b2b"/><stop offset="1" stop-color="#141414"/></radialGradient><radialGradient id="radial-gradient-3" cx="222.38" cy="201.46" r="3413.8" gradientTransform="matrix(1, 0, 0, 1, 0, 0)" xlink:href="#radial-gradient-2"/><radialGradient id="radial-gradient-4" cx="1420.38" cy="-2435.91" r="1385.43" xlink:href="#radial-gradient-2"/><radialGradient id="radial-gradient-5" cx="1668.44" cy="-2243.6" r="373.37" gradientTransform="translate(-3280.86 6207.83) scale(2.47)" gradientUnits="userSpaceOnUse"><stop offset="0" stop-color="#e6e6e6"/><stop offset="0.1" stop-color="#d6d6d6"/><stop offset="0.31" stop-color="#adadad"/><stop offset="0.59" stop-color="#6c6c6c"/><stop offset="0.93" stop-color="#121212"/><stop offset="1"/></radialGradient><radialGradient id="radial-gradient-6" cx="1770.56" cy="-2193.38" r="542.99" gradientTransform="translate(-3280.86 6207.83) scale(2.47)" gradientUnits="userSpaceOnUse"><stop offset="0" stop-color="#fff"/><stop offset="0.34" stop-color="#fdfdfd"/><stop offset="0.48" stop-color="#f6f6f6"/><stop offset="0.58" stop-color="#eaeaea"/><stop offset="0.67" stop-color="#d8d8d8"/><stop offset="0.74" stop-color="#c2c2c2"/><stop offset="0.8" stop-color="#a6a6a6"/><stop offset="0.86" stop-color="#848484"/><stop offset="0.91" stop-color="#5f5f5f"/><stop offset="0.95" stop-color="#404040"/><stop offset="0.96" stop-color="#404040"/><stop offset="1" stop-color="#404040"/><stop offset="1"/></radialGradient><radialGradient id="radial-gradient-7" cx="1611.13" cy="-2399.21" r="961.65" gradientTransform="translate(-3280.86 6207.83) scale(2.47)" gradientUnits="userSpaceOnUse"><stop offset="0.17" stop-color="#fff"/><stop offset="0.2" stop-color="#e0eff7"/><stop offset="0.24" stop-color="#b2d9ec"/><stop offset="0.29" stop-color="#8bc5e2"/><stop offset="0.34" stop-color="#6bb5da"/><stop offset="0.38" stop-color="#52a9d4"/><stop offset="0.44" stop-color="#41a0cf"/><stop offset="0.49" stop-color="#369bcd"/><stop offset="0.56" stop-color="#39c"/><stop offset="0.61" stop-color="#3396c8"/><stop offset="0.66" stop-color="#328ebc"/><stop offset="0.7" stop-color="#3180a8"/><stop offset="0.75" stop-color="#2f6d8c"/><stop offset="0.8" stop-color="#2d5468"/><stop offset="0.85" stop-color="#2a373d"/><stop offset="0.87" stop-color="#292929"/></radialGradient><radialGradient id="radial-gradient-8" cx="1611.13" cy="-2399.21" r="961.63" xlink:href="#radial-gradient-7"/><radialGradient id="radial-gradient-9" cx="1673.54" cy="-2238.89" r="366.22" xlink:href="#radial-gradient-5"/><linearGradient id="linear-gradient-3" x1="1886.5" y1="-2330.33" x2="2243.64" y2="-1985.22" gradientTransform="translate(-3280.86 6207.83) scale(2.47)" gradientUnits="userSpaceOnUse"><stop offset="0" stop-color="#f0f4ff"/><stop offset="0.11" stop-color="#ebeff9"/><stop offset="0.25" stop-color="#dce0ea"/><stop offset="0.4" stop-color="#c4c7cf"/><stop offset="0.57" stop-color="#a2a4ab"/><stop offset="0.75" stop-color="#76777c"/><stop offset="0.93" stop-color="#414243"/><stop offset="1" stop-color="#2b2b2b"/></linearGradient><linearGradient id="linear-gradient-4" x1="1596.63" y1="-2038.96" x2="1953.77" y2="-1693.84" xlink:href="#linear-gradient-3"/><linearGradient id="linear-gradient-5" x1="1769.4" y1="-2162.02" x2="1954.6" y2="-1983.07" gradientTransform="translate(-3280.86 6207.83) scale(2.47)" gradientUnits="userSpaceOnUse"><stop offset="0" stop-color="#c2d7e8"/><stop offset="0.13" stop-color="#bacfe1"/><stop offset="0.34" stop-color="#a4bacd"/><stop offset="0.6" stop-color="#8098ac"/><stop offset="0.89" stop-color="#4e697f"/><stop offset="1" stop-color="#3a566d"/></linearGradient><linearGradient id="linear-gradient-6" x1="1676.66" y1="-2118.17" x2="2030.2" y2="-1776.53" gradientTransform="translate(-3280.86 6207.83) scale(2.47)" gradientUnits="userSpaceOnUse"><stop offset="0" stop-color="#f0f4ff"/><stop offset="0.1" stop-color="#e8ebf6"/><stop offset="0.26" stop-color="#d1d4dd"/><stop offset="0.46" stop-color="#abaeb5"/><stop offset="0.69" stop-color="#78797d"/><stop offset="0.96" stop-color="#363637"/><stop offset="1" stop-color="#2b2b2b"/></linearGradient><linearGradient id="linear-gradient-7" x1="1937.24" y1="-1991.44" x2="2061.26" y2="-1871.6" gradientTransform="translate(-3280.86 6207.83) scale(2.47)" gradientUnits="userSpaceOnUse"><stop offset="0" stop-color="#d9def0"/><stop offset="0.12" stop-color="#d4daec"/><stop offset="0.26" stop-color="#c7cfe2"/><stop offset="0.41" stop-color="#b0bcd1"/><stop offset="0.57" stop-color="#90a1b8"/><stop offset="0.72" stop-color="#677f99"/><stop offset="0.89" stop-color="#355674"/><stop offset="0.97" stop-color="#173d5d"/></linearGradient><linearGradient id="linear-gradient-8" x1="1810.38" y1="-2247.83" x2="2163.54" y2="-1906.56" xlink:href="#linear-gradient-3"/></defs><title>bmw_full</title><path d="M1490,280C937.74,280,490,727.69,490,1280S937.74,2280,1490,2280s1000-447.7,1000-1000S2042.31,280,1490,280Zm0,1950c-524.68,0-950-425.32-950-950s425.28-950,950-950,950,425.33,950,950S2014.68,2230,1490,2230Z" fill="url(#linear-gradient)"/><path d="M2447.16,1280c0,528.58-428.58,957.14-957.16,957.14S532.89,1808.56,532.89,1280,961.42,322.84,1490,322.84,2447.16,751.37,2447.16,1280Z" fill="#333"/><path d="M2440,1280c0,524.66-425.31,950-950,950s-950-425.32-950-950,425.28-950,950-950S2440,755.32,2440,1280Z" fill="url(#radial-gradient)"/><path d="M2126.9,1280c0,351.73-285.15,636.87-636.89,636.87S853.11,1631.72,853.11,1280,1138.25,643.09,1490,643.09,2126.9,928.23,2126.9,1280Z" fill="url(#linear-gradient-2)"/><g id="logo_letters"><path id="letters_shadow" d="M1045.24,690.51c-20.23-19.64-51.43-25.56-80.77-7.37,5.61-14.53,3.33-29.31.37-37.52-12.66-23-17.09-25.91-27.43-34.64-33.73-28.26-69.21-4.13-94.56,26.08L720.3,783.11,913,944.74l129.23-154c29.53-35.19,34.09-70.08,3-100.25ZM796,760.94l73.62-87.73c8.54-10.15,27.83-9.74,40.2.68,13.62,11.43,13.67,27.62,4.51,38.55l-72.79,86.71L796,760.94ZM999.1,775.52,922.36,867l-48.05-40.39,77.31-92.16C960.37,724,979.85,721,993,732c14.8,12.45,16.27,31.39,6.1,43.51Zm516.42-149.65,66.15-175.35V625.87h50.25V374.74h-75.51l-68.69,179.81h.66l-68.69-179.81h-75.51V625.87h50.25V450.52l66.15,175.35ZM2205.1,738.48l-85.85,125.18,134.84-66.32,36.58,43.86L2078.44,947.76l-42.88-51.92,82.27-124-.49-.61L1980.5,829.76l-43.37-51.57,143.1-189.49,36.58,43.89-89.6,120.66,138.67-61.85Z" fill="#333"/><path id="letter_w" d="M2205.59,721.63l-85.81,125.18,134.84-66.34,36.54,43.88L2079,930.91,2036.08,879l82.27-124-.48-.63L1981,812.92l-43.33-51.6,143.1-189.46,36.58,43.86-89.59,120.66,138.62-61.82Z" fill="url(#radial-gradient-2)"/><path id="letter_m" d="M1516.05,616.17l66.15-175.35V616.17h50.25V365h-75.52l-68.68,179.8h.65L1420.22,365H1344.7V616.17H1395V440.82l66.17,175.35Z" fill="url(#radial-gradient-3)"/><path id="letter_b" d="M1036.24,685.56c-20.18-19.63-51.43-25.55-80.72-7.38,5.57-14.53,3.29-29.32.33-37.48-12.66-23.05-17.05-25.92-27.47-34.66-33.73-28.28-69.17-4.14-94.48,26.1l-122.6,146L904,939.8l129.23-154c29.5-35.2,34.1-70.06,3-100.24ZM787,756l73.6-87.7c8.51-10.17,27.79-9.76,40.2.63,13.64,11.45,13.68,27.67,4.48,38.55L832.56,794.2,787,756Zm203.12,14.59L913.41,862l-48.14-40.39,77.35-92.18c8.75-10.39,28.2-13.42,41.34-2.39,14.89,12.46,16.36,31.37,6.19,43.51Z" fill="url(#radial-gradient-4)"/></g><path d="M874.3,1280c0-340,275.67-615.72,615.7-615.72S2105.7,939.94,2105.7,1280s-275.63,615.69-615.7,615.69S874.3,1620,874.3,1280Z" fill="url(#radial-gradient-5)"/><path d="M892,1280c0-330.27,267.73-598,598-598s598,267.75,598,598-267.77,598-598,598S892,1610.26,892,1280Z" fill="url(#radial-gradient-6)"/><path d="M891.07,1280H1490V681.05c-330.8,0-598.93,268.14-598.93,598.94Z" fill="url(#radial-gradient-7)"/><path d="M1490,1280v598.94c330.8,0,598.94-268.19,598.94-598.94Z" fill="url(#radial-gradient-8)"/><path d="M2093.9,1269.35H1500.62V676.07h-21.24v593.28H886.1v21.24h593.28v593.29h21.24V1290.59H2093.9Z" fill="url(#radial-gradient-9)"/><path d="M1500.62,692.87c316,5.62,570.9,260.55,576.56,576.48h10.57c-5.65-321.79-265.32-581.5-587.13-587.12Z" fill="url(#linear-gradient-3)"/><path d="M901.81,1269.27C907.42,952.91,1162.74,697.61,1479.1,692V681.36c-322.25,5.63-582.25,265.69-587.91,587.9Z" fill="#c2d7e8"/><path d="M1479.38,1867.1c-316-5.62-570.9-260.57-576.51-576.51H892.25c5.65,321.8,265.33,581.52,587.13,587.13V1867.1Z" fill="url(#linear-gradient-4)"/><path d="M2077.18,1290.59c-5.66,315.94-260.61,570.89-576.56,576.51v10.62c321.81-5.61,581.52-265.33,587.14-587.13Z" fill="#12404f"/><path d="M1468,681.36v576.33H891.72v11.37h587.66V681.36Z" fill="url(#linear-gradient-5)"/><path d="M1467.06,1872.15v-569.4H896.48v-11.23h581.81v580.63Z" fill="url(#linear-gradient-6)"/><path d="M1512.79,1872.15v-569.4h569.39v-11.23H1501.6v580.63Z" fill="url(#linear-gradient-7)"/><path d="M1512.79,686.45v569.39h569.39v11.21H1501.6V686.45Z" fill="url(#linear-gradient-8)"/></svg>