<svg id="hero_logo" xmlns="http://www.w3.org/2000/svg" viewBox="0 0 2980 3820">
    <rect id="rect1" width="2980" height="2560" fill="transparent" stroke="#fff" stroke-width="9" stroke-dasharray="45 45" stroke-alignment="inner"></rect>
    <rect id="rect2" y="2670" width="2980" height="1150" fill="transparent" stroke="#fff" stroke-width="9" stroke-dasharray="45 45" stroke-alignment="inner"></rect>
    <path id="outer_circle"
        d="M1490,280C937.74,280,490,727.69,490,1280S937.74,2280,1490,2280s1000-447.7,1000-1000S2042.31,280,1490,280Zm0,1950c-524.68,0-950-425.32-950-950s425.28-950,950-950,950,425.33,950,950S2014.68,2230,1490,2230Z"
        fill="transparent" stroke="#fff" stroke-linejoin="round" stroke-width="9">
    </path>
    <path id="inner_circle"
        d="M1490,643.09c-351.76,0-636.91,285.14-636.91,636.89s285.15,636.87,636.91,636.87S2126.9,1631.71,2126.9,1280,1841.75,643.08,1490,643.09Zm0,1252.59c-340,0-615.7-275.66-615.7-615.69h0c0-340,275.67-615.72,615.7-615.72S2105.7,939.94,2105.7,1280,1830.07,1895.68,1490,1895.68Z"
        fill="transparent" stroke="#fff" stroke-linejoin="round" stroke-width="9">
    </path>
    <g id="logo_letters">
        <path id="letter_w"
            d="M2205.59,721.63l-85.81,125.18,134.84-66.34,36.54,43.88L2079,930.91,2036.08,879l82.27-124-.48-.63L1981,812.92l-43.33-51.6,143.1-189.46,36.58,43.86-89.59,120.66,138.62-61.82Z"
            fill="transparent" stroke="#fff" stroke-linejoin="round" stroke-width="9">
        </path>
        <path id="letter_m"
            d="M1516.05,616.17l66.15-175.35V616.17h50.25V365h-75.52l-68.68,179.8h.65L1420.22,365H1344.7V616.17H1395V440.82l66.17,175.35Z"
            fill="transparent" stroke="#fff" stroke-linejoin="round" stroke-width="9">
        </path>
        <path id="letter_b"
            d="M1036.24,685.56c-20.18-19.63-51.43-25.55-80.72-7.38,5.57-14.53,3.29-29.32.33-37.48-12.66-23.05-17.05-25.92-27.47-34.66-33.73-28.28-69.17-4.14-94.48,26.1l-122.6,146L904,939.8l129.23-154c29.5-35.2,34.1-70.06,3-100.24ZM787,756l73.6-87.7c8.51-10.17,27.79-9.76,40.2.63,13.64,11.45,13.68,27.67,4.48,38.55L832.56,794.2,787,756Zm203.12,14.59L913.41,862l-48.14-40.39,77.35-92.18c8.75-10.39,28.2-13.42,41.34-2.39,14.89,12.46,16.36,31.37,6.19,43.51Z"
            fill="transparent" stroke="#fff" stroke-linejoin="round" stroke-width="9">
        </path>
    </g>
    <g id="sections">
        <path id="section_tl"
            d="M893.23,1267c5.65-321.79,264.34-579.13,586.15-584.75M893.23,1267c5.65-321.79,264.34-579.13,586.15-584.75v584.76Z"
            fill="transparent" stroke="#fff" stroke-linejoin="round" stroke-width="9">
        </path>
        <path id="section_tr"
            d="M2087.75,1267c-5.65-321.79-264.34-579.13-586.15-584.75M2087.75,1267c-5.65-321.79-264.34-579.13-586.15-584.75v584.76Z"
            fill="transparent" stroke="#fff" stroke-linejoin="round" stroke-width="9">
        </path>
        <path id="section_bl"
            d="M893.23,1291.79c5.65,321.78,264.34,579.13,586.15,584.75M893.23,1291.79c5.65,321.78,264.34,579.13,586.15,584.75V1291.78Z"
            fill="transparent" stroke="#fff" stroke-linejoin="round" stroke-width="9">
        </path>
        <path id="section_br" data-name="section?br"
            d="M2087.75,1291.79c-5.65,321.78-264.34,579.13-586.15,584.75m586.15-584.75c-5.65,321.78-264.34,579.13-586.15,584.75V1291.78Z"
            fill="transparent" stroke="#fff" stroke-linejoin="round" stroke-width="9">
        </path>
    </g>
    <g id="copy_letters">
        <path id="copy1_letters"
            d="M1031.4,2977a115.26,115.26,0,0,1,38.2,6.17,83.78,83.78,0,0,1,30.63,18.49,84.87,84.87,0,0,1,20.21,30.81q7.29,18.49,7.29,43.43a131.26,131.26,0,0,1-6,40.34,87.31,87.31,0,0,1-18,31.94,84.08,84.08,0,0,1-30,21.15q-18,7.71-42.37,7.7H939.83V2977Zm-3.27,163a63.13,63.13,0,0,0,19.62-3.08,43.52,43.52,0,0,0,17-10.23,50.92,50.92,0,0,0,11.89-18.63q4.46-11.47,4.46-28a110.3,110.3,0,0,0-3.12-27.32,53.11,53.11,0,0,0-10.26-20.87,45.53,45.53,0,0,0-18.88-13.31q-11.74-4.62-29-4.62H986.5v126.07Zm290.77-163v37H1206.81v42.87h102.87v34.17H1206.81v49h114.47v37H1160.13V2977Zm69.57,150.72a32.16,32.16,0,0,0,10.26,11.35,45.54,45.54,0,0,0,15,6.44,74.59,74.59,0,0,0,17.84,2.11,99.24,99.24,0,0,0,13.38-1,48.79,48.79,0,0,0,13.38-3.79,28.83,28.83,0,0,0,10.4-7.7q4.17-4.91,4.17-12.47a17.08,17.08,0,0,0-5.5-13.17,44.21,44.21,0,0,0-14.42-8.4,150.82,150.82,0,0,0-20.22-5.88q-11.31-2.52-22.89-5.61a210.12,210.12,0,0,1-23.19-6.86,81.23,81.23,0,0,1-20.22-10.5,50.31,50.31,0,0,1-14.42-16.11q-5.5-9.67-5.5-23.4,0-15.41,7-26.75a60.82,60.82,0,0,1,18.28-18.91,82.13,82.13,0,0,1,25.57-11.21,115.39,115.39,0,0,1,28.54-3.64,143.21,143.21,0,0,1,32,3.5,82.34,82.34,0,0,1,27.21,11.35,58.72,58.72,0,0,1,18.88,20q7,12.18,7,29.56h-45.19q-.6-9-4-14.85a25.39,25.39,0,0,0-9.07-9.25,40,40,0,0,0-12.93-4.76,84.72,84.72,0,0,0-15.91-1.4,58.43,58.43,0,0,0-11.3,1.12,31.57,31.57,0,0,0-10.26,3.92,25.11,25.11,0,0,0-7.58,7,18,18,0,0,0-3,10.64,17.15,17.15,0,0,0,2.38,9.53q2.37,3.64,9.36,6.72a123.7,123.7,0,0,0,19.33,6.16q12.33,3.09,32.26,7.85,5.94,1.13,16.5,4.06a81.58,81.58,0,0,1,21,9.38,61.92,61.92,0,0,1,18,17.23q7.57,10.8,7.58,27.6a58.19,58.19,0,0,1-5.65,25.49,56,56,0,0,1-16.8,20.31q-11.14,8.55-27.65,13.31t-38.2,4.76a141.82,141.82,0,0,1-34-4.06,87.85,87.85,0,0,1-29.13-12.74,64,64,0,0,1-20.07-22.14q-7.44-13.44-7.14-31.93h45.19Q1384.6,3120.75,1388.47,3127.75Zm204-150.72v200h-46.68V2977Zm166.79,198.49a82.27,82.27,0,0,1-30.62,6q-24.39,0-43.85-8a94,94,0,0,1-32.86-22,96.31,96.31,0,0,1-20.51-32.92,114.45,114.45,0,0,1-7.14-40.76,118.36,118.36,0,0,1,7.14-41.6,98.65,98.65,0,0,1,20.51-33.48,93.75,93.75,0,0,1,32.86-22.42q19.47-8.11,43.85-8.12a109,109,0,0,1,31.66,4.62,91.55,91.55,0,0,1,27.65,13.59,75.86,75.86,0,0,1,20.37,22.13,71.67,71.67,0,0,1,9.81,30.26h-44.6q-4.15-16.82-16-25.22t-28.84-8.4q-15.77,0-26.76,5.74A49.63,49.63,0,0,0,1684,3030.4a65.61,65.61,0,0,0-10,22,103.55,103.55,0,0,0-3.12,25.5,96.32,96.32,0,0,0,3.12,24.51,64.21,64.21,0,0,0,10,21.43,50.06,50.06,0,0,0,17.84,15.27q11,5.74,26.76,5.74,23.19,0,35.83-11.06t14.71-32.08h-47v-32.78h89.19v108.14h-29.73l-4.76-22.69Q1774.38,3169.51,1759.21,3175.52ZM1905.49,2977l88.6,134.2h.59V2977h43.71v200h-46.68l-88.3-133.91h-.6v133.91h-43.7V2977Z"
            fill="transparent" stroke="#fff" stroke-linejoin="round" stroke-width="9">
        </path>
        <path id="copy2_txt"
            d="M659.77,3313.22v37H557.19v46.22h88.9v34.18h-88.9v82.65H510.51v-200Zm141.51,0a72.15,72.15,0,0,1,25.72,4.34,59.66,59.66,0,0,1,19.62,11.91A51.7,51.7,0,0,1,859.11,3347a53.35,53.35,0,0,1,4.31,21.43q0,17.64-7.88,30.54t-25.72,19.61v.56A36.86,36.86,0,0,1,844.1,3426a38.52,38.52,0,0,1,9.21,10.93,48.87,48.87,0,0,1,5.2,13.86,112.94,112.94,0,0,1,2.23,15.13c.2,3.18.4,6.91.6,11.21s.54,8.68,1,13.17a82.91,82.91,0,0,0,2.38,12.74,28.64,28.64,0,0,0,4.9,10.23H823a73.4,73.4,0,0,1-4.76-22.69q-.9-13.17-2.68-25.22-2.38-15.69-10.11-23t-25.27-7.29H733.49v78.17H686.82v-200Zm-16.65,90.49q16.07,0,24.08-6.73t8-21.85q0-14.57-8-21.15t-24.08-6.58H733.49v56.31Zm222.69-90.49,79.38,200h-48.46l-16.06-44.55H942.8l-16.65,44.55h-47l80.28-200Zm2.67,122.71-26.76-73.4h-.59L955,3435.93Zm160.85-122.71,49.65,137.55h.59l47-137.55h65.7v200h-43.7V3371.49h-.6l-52,141.76h-36l-52-140.36h-.6v140.36h-43.7v-200Zm362.72,0v37H1421.47v42.86h102.87v34.18H1421.47v49h114.47v37H1374.79v-200Zm189.68,200-36-136.16h-.6l-35.38,136.16H1604l-56.19-200h46.67l33.6,136.15h.6l36.86-136.15h43.71l36.27,137.83h.59l34.79-137.83h45.79l-57.09,200ZM1846,3372.47a98.69,98.69,0,0,1,20.51-33.48,93.91,93.91,0,0,1,32.85-22.41q19.47-8.11,43.86-8.12,24.68,0,44,8.12A94.22,94.22,0,0,1,2020,3339a98.87,98.87,0,0,1,20.52,33.48,118.4,118.4,0,0,1,7.13,41.6,114.5,114.5,0,0,1-7.13,40.77,96.29,96.29,0,0,1-20.52,32.91,94.36,94.36,0,0,1-32.7,22q-19.34,8-44,8-24.39,0-43.86-8a94.06,94.06,0,0,1-32.85-22,96.12,96.12,0,0,1-20.51-32.91,114.5,114.5,0,0,1-7.14-40.77A118.4,118.4,0,0,1,1846,3372.47Zm42.66,66.12a64.31,64.31,0,0,0,10,21.43,50.07,50.07,0,0,0,17.84,15.27q11,5.74,26.76,5.74t26.76-5.74a50.12,50.12,0,0,0,17.83-15.27,64.31,64.31,0,0,0,10-21.43,95.9,95.9,0,0,0,3.13-24.52,103.06,103.06,0,0,0-3.13-25.49,65.43,65.43,0,0,0-10-22,49.5,49.5,0,0,0-17.83-15.41q-11-5.74-26.76-5.74t-26.76,5.74a49.45,49.45,0,0,0-17.84,15.41,65.43,65.43,0,0,0-10,22,103.53,103.53,0,0,0-3.12,25.49A96.34,96.34,0,0,0,1888.69,3438.59Zm305.19-125.37a72.15,72.15,0,0,1,25.72,4.34,59.66,59.66,0,0,1,19.62,11.91,51.7,51.7,0,0,1,12.49,17.51,53.35,53.35,0,0,1,4.31,21.43q0,17.64-7.88,30.54t-25.72,19.61v.56a36.74,36.74,0,0,1,14.27,6.86,38.39,38.39,0,0,1,9.22,10.93,48.87,48.87,0,0,1,5.2,13.86,114.58,114.58,0,0,1,2.23,15.13c.2,3.18.4,6.91.6,11.21s.54,8.68,1,13.17a82.91,82.91,0,0,0,2.38,12.74,28.47,28.47,0,0,0,4.9,10.23h-46.68a73.7,73.7,0,0,1-4.75-22.69q-.9-13.17-2.68-25.22-2.39-15.69-10.11-23t-25.27-7.29h-46.68v78.17h-46.67v-200Zm-16.65,90.49q16,0,24.08-6.73t8-21.85q0-14.57-8-21.15t-24.08-6.58h-51.14v56.31Zm163.52-90.49v82.92l82.95-82.92H2482l-82.95,79,91,121h-58.57l-63.92-89.93-26.76,25.49v64.44h-46.68v-200Z"
            fill="transparent" stroke="#fff" stroke-linejoin="round" stroke-width="9">
        </path>
    </g>
</svg>