 <svg width="320" height="31" viewBox="0 0 320 31" fill="none" xmlns="http://www.w3.org/2000/svg">
<g clip-path="url(#clip0_11_2809)">
<path d="M29.44 15.82C29.78 15.47 29.78 14.9 29.43 14.56L15.81 1.18C15.64 1.01 15.42 0.919998 15.18 0.929998C14.94 0.929998 14.72 1.03 14.55 1.2C14.54 1.2 1.17 14.82 1.17 14.82C1 14.99 0.910004 15.21 0.910004 15.45C0.910004 15.69 1.01 15.91 1.18 16.08L14.8 29.46C14.97 29.63 15.19 29.72 15.43 29.72C15.67 29.72 15.89 29.62 16.06 29.45L29.44 15.82ZM14.47 25.65L5 16.35C4.49 15.84 4.48 15.01 4.98 14.5L14.27 5.03C14.78 4.51 15.61 4.51 16.12 5.01L25.59 14.31C25.84 14.55 25.98 14.88 25.98 15.23C25.98 15.58 25.85 15.91 25.6 16.16L16.31 25.63C15.82 26.15 14.99 26.16 14.47 25.65Z" fill="white"/>
<path d="M30.07 13.9C30.07 13.9 16.44 0.52 16.45 0.52C16.11 0.18 15.65 0 15.17 0C14.69 0 14.23 0.2 13.9 0.54L0.52 14.18C0.18 14.52 0 14.97 0 15.46C0 15.95 0.2 16.39 0.54 16.73L14.16 30.11C14.5 30.45 14.96 30.63 15.44 30.63C15.92 30.63 16.38 30.43 16.71 30.09L30.08 16.46C30.79 15.75 30.78 14.6 30.08 13.9M14.81 29.46L1.18 16.08C1.01 15.91 0.91 15.69 0.91 15.45C0.91 15.21 1 14.99 1.16 14.82L14.53 1.19C14.7 1.02 14.92 0.92 15.16 0.92C15.4 0.92 15.62 1.01 15.79 1.17C15.79 1.17 29.42 14.55 29.41 14.55C29.76 14.9 29.77 15.46 29.42 15.81L16.07 29.44C15.9 29.61 15.68 29.7 15.44 29.71C15.2 29.71 14.97 29.62 14.8 29.46" fill="black"/>
<path d="M25.09 15.64C25.2 15.53 25.25 15.39 25.25 15.24C25.25 15.09 25.19 14.95 25.08 14.84L15.61 5.54C15.39 5.32 15.03 5.33 14.81 5.55L5.52 15.02C5.3 15.25 5.3 15.61 5.53 15.82L15 25.12C15.22 25.34 15.58 25.33 15.8 25.11C15.79 25.11 25.09 15.64 25.09 15.64ZM19.42 10.8L19.62 11.01L18.41 12.17L18.2 11.96L19.42 10.8ZM17.79 9.53L18.05 9.67L17.18 11.29L16.92 11.15L17.79 9.53ZM14.98 8.44H15.28V10.74H14.98V8.44ZM12.47 9.57L13.48 11.11L13.23 11.27L12.22 9.73L12.47 9.57ZM10.96 11.07L11.05 10.95L12.37 12L12.18 12.23L10.86 11.18L10.96 11.07ZM15.38 21.41C13.28 21.41 11.49 20.28 11.49 19.36V19.27C11.48 18.94 11.45 18.17 12.01 18.07L12.54 14.06C12.56 12.9 13.79 11.96 15.31 11.96C16.83 11.96 18.06 12.9 18.08 14.06L18.62 18.1C19.26 18.21 19.26 19.03 19.26 19.35V19.38C19.25 20.3 17.47 21.41 15.38 21.41Z" fill="#FBBA00"/>
<path d="M25.62 16.17C25.87 15.92 26 15.59 26 15.24C26 14.89 25.86 14.56 25.61 14.32L16.14 5.02C15.63 4.51 14.8 4.52 14.29 5.04L5 14.51C4.49 15.03 4.5 15.86 5.02 16.36L14.49 25.66C15 26.16 15.84 26.16 16.34 25.64C16.32 25.64 25.62 16.17 25.62 16.17ZM14.99 25.12L5.52 15.82C5.3 15.6 5.29 15.24 5.51 15.02L14.8 5.55C15.02 5.33 15.38 5.32 15.6 5.54L25.07 14.84C25.18 14.95 25.24 15.09 25.24 15.24C25.24 15.39 25.18 15.53 25.08 15.64L15.78 25.11C15.58 25.34 15.22 25.34 14.99 25.11" fill="black"/>
<path d="M15.3 19.61C16.23 19.61 17.04 19.43 17.59 19.14C17.38 19.23 17.21 14.54 17.17 13.93C17.13 13.32 16.42 12.67 16.14 12.53C16.14 12.53 16.28 12.55 16.47 12.62C16.13 12.48 15.74 12.4 15.32 12.4C14.03 12.4 12.98 13.16 12.98 14.1V14.12L12.41 18.47C12.76 19.01 13.87 19.61 15.3 19.61ZM13.42 14.49C13.45 14.01 14.1 13.6 14.1 13.6C14 14 14.02 14.55 14.02 14.55L13.92 18.22C13.09 18.19 12.99 17.9 12.99 17.9C12.99 17.9 13.39 14.97 13.42 14.49Z" fill="#3FA535"/>
<path d="M18.06 18.78L18 18.84C18 18.84 18.05 18.8 18.06 18.78Z" fill="#3FA535"/>
<path d="M18.15 18.68C18.15 18.68 18.12 18.72 18.1 18.74C18.12 18.72 18.13 18.7 18.15 18.68Z" fill="#3FA535"/>
<path d="M18.79 19.36C18.79 19.13 18.78 18.85 18.68 18.69C18.29 19.54 16.99 20.08 15.3 20.08C13.75 20.08 12.45 19.41 11.99 18.7C11.96 18.81 11.95 18.98 11.96 19.27V19.37C11.96 19.9 13.44 20.95 15.39 20.95C17.34 20.95 18.8 19.92 18.8 19.38V19.36H18.79Z" fill="#DADADA"/>
<path d="M19.25 19.38V19.35C19.25 19.04 19.25 18.21 18.61 18.1L18.07 14.06C18.05 12.9 16.82 11.96 15.3 11.96C13.78 11.96 12.55 12.9 12.53 14.06L12 18.06C11.44 18.16 11.47 18.93 11.48 19.26V19.35C11.48 20.27 13.28 21.4 15.37 21.4C17.47 21.41 19.25 20.3 19.25 19.38ZM15.38 20.95C13.43 20.95 11.95 19.89 11.95 19.37V19.27C11.94 18.98 11.96 18.81 11.98 18.7C12.44 19.42 13.74 20.08 15.29 20.08C16.98 20.08 18.28 19.53 18.67 18.68C18.76 18.84 18.78 19.12 18.78 19.35V19.38C18.79 19.92 17.35 20.95 15.38 20.95ZM12.96 14.11C12.96 13.16 14.01 12.4 15.3 12.4C15.72 12.4 16.11 12.48 16.45 12.62C16.84 12.76 17.46 13.1 17.68 13.92C17.77 14.24 18.22 18.56 18.22 18.56C18.22 18.56 18.19 18.61 18.13 18.69C18.11 18.71 18.1 18.73 18.08 18.75C18.07 18.76 18.06 18.77 18.05 18.79L17.99 18.85C17.89 18.95 17.75 19.06 17.57 19.15C17.02 19.45 16.22 19.63 15.28 19.63C13.85 19.63 12.74 19.02 12.37 18.49L12.94 14.14L12.96 14.11Z" fill="black"/>
<path d="M13.92 18.22L14.02 14.55C14.02 14.55 14 14 14.1 13.6C14.1 13.6 13.45 14.01 13.42 14.49C13.39 14.97 12.99 17.9 12.99 17.9C12.99 17.9 13.09 18.19 13.92 18.22Z" fill="white"/>
<path d="M15.28 8.44H14.98V10.74H15.28V8.44Z" fill="black"/>
<path d="M17.7871 9.53239L16.9223 11.1452L17.1867 11.2869L18.0515 9.67415L17.7871 9.53239Z" fill="black"/>
<path d="M19.4266 10.8012L18.2128 11.9627L18.4203 12.1794L19.634 11.0179L19.4266 10.8012Z" fill="black"/>
<path d="M12.4808 9.57211L12.2303 9.73721L13.2429 11.2735L13.4934 11.1084L12.4808 9.57211Z" fill="black"/>
<path d="M12.18 12.24L12.37 12.01L11.05 10.95L10.96 11.07L10.87 11.19L12.18 12.24Z" fill="black"/>
<path d="M17.16 13.93C17.2 14.54 17.37 19.23 17.58 19.14C17.76 19.05 17.9 18.94 18 18.84L18.06 18.78C18.06 18.78 18.08 18.75 18.09 18.74C18.11 18.72 18.13 18.7 18.14 18.68C18.2 18.6 18.23 18.55 18.23 18.55C18.23 18.55 17.77 14.23 17.69 13.91C17.47 13.09 16.84 12.75 16.46 12.61C16.27 12.54 16.13 12.52 16.13 12.52C16.41 12.67 17.12 13.32 17.16 13.93Z" fill="#306F32"/>
<path d="M43.24 23.65H40.66V21.1H45.79V28.76H45.01L44.48 27.82C43.54 28.58 42.39 29.02 41.26 29.02C37.56 29.02 35.05 25.46 35.05 21.11C35.05 16.76 37.56 13.18 41.26 13.18C43.08 13.18 44.96 14.35 46 16.12L44.48 17.55C43.49 16.29 42.5 15.73 41.42 15.73C39.49 15.73 37.86 17.78 37.86 21.11C37.86 24.44 39.49 26.47 41.42 26.47C42.04 26.47 42.64 26.29 43.24 25.87V23.66V23.65Z" fill="white"/>
<path d="M49.98 17.42H55.64V19.31H51.87V21.59H55.64V23.48H51.87V26.88H55.64V28.77H49.98V17.43V17.42Z" fill="white"/>
<path d="M59.43 17.42H65.09V19.31H61.32V21.59H65.09V23.48H61.32V26.88H65.09V28.77H59.43V17.43V17.42Z" fill="white"/>
<path d="M68.88 17.42H74.93V19.31H70.77V21.59H74.93V23.48H70.77V28.77H68.88V17.43V17.42Z" fill="white"/>
<path d="M87.03 28.94H86.66L82.12 17.42H84.16L86.85 24.27L89.54 17.42H91.58L87.04 28.94H87.03Z" fill="white"/>
<path d="M97.23 17.23C99.78 17.23 101.21 19.88 101.21 23.09C101.21 26.3 99.78 28.94 97.23 28.94C94.68 28.94 93.27 26.31 93.27 23.09C93.27 19.87 94.68 17.23 97.23 17.23ZM97.23 27.05C98.5 27.05 99.2 25.25 99.2 23.09C99.2 20.93 98.5 19.11 97.23 19.11C95.96 19.11 95.27 20.91 95.27 23.09C95.27 25.27 95.97 27.05 97.23 27.05Z" fill="white"/>
<path d="M108.57 17.23C111.12 17.23 112.55 19.88 112.55 23.09C112.55 26.3 111.12 28.94 108.57 28.94C106.02 28.94 104.61 26.31 104.61 23.09C104.61 19.87 106.02 17.23 108.57 17.23ZM108.57 27.05C109.84 27.05 110.54 25.25 110.54 23.09C110.54 20.93 109.84 19.11 108.57 19.11C107.3 19.11 106.61 20.91 106.61 23.09C106.61 25.27 107.31 27.05 108.57 27.05Z" fill="white"/>
<path d="M124.55 28.76H122.24L119.52 24.99H118.02V28.76H116.13V17.42H119.82C121.89 17.42 123.59 19.12 123.59 21.21C123.59 22.65 122.76 23.95 121.53 24.56L124.54 28.76H124.55ZM121.71 21.21C121.71 20.16 120.86 19.31 119.82 19.31H118.02V23.1H119.82C120.86 23.1 121.71 22.25 121.71 21.21Z" fill="white"/>
<path d="M135.89 28.76H133.58L130.86 24.99H129.36V28.76H127.47V17.42H131.16C133.23 17.42 134.93 19.12 134.93 21.21C134.93 22.65 134.1 23.95 132.87 24.56L135.88 28.76H135.89ZM133.05 21.21C133.05 20.16 132.2 19.31 131.16 19.31H129.36V23.1H131.16C132.2 23.1 133.05 22.25 133.05 21.21Z" fill="white"/>
<path d="M140.7 28.76H138.81V21.59C138.81 18.79 140.51 17.24 142.58 17.24C144.65 17.24 146.37 18.79 146.37 21.59V28.76H144.48V24.99H140.69V28.76H140.7ZM144.49 21.59C144.49 19.92 143.62 19.13 142.59 19.13C141.56 19.13 140.7 19.93 140.7 21.59V23.1H144.49V21.59Z" fill="white"/>
<path d="M156.02 17.42H157.72V28.76H156.29L151.85 21.52V28.76H150.15V17.42H151.56L156.01 24.66V17.42H156.02Z" fill="white"/>
<path d="M167.36 24.98H165.46V23.09H169.25V28.75H168.67L168.28 28.05C167.58 28.61 166.73 28.93 165.9 28.93C163.16 28.93 161.31 26.3 161.31 23.08C161.31 19.86 163.16 17.22 165.9 17.22C167.24 17.22 168.64 18.09 169.4 19.4L168.28 20.45C167.55 19.51 166.82 19.11 166.02 19.11C164.59 19.11 163.38 20.62 163.38 23.09C163.38 25.56 164.59 27.05 166.02 27.05C166.48 27.05 166.92 26.91 167.36 26.61V24.98Z" fill="white"/>
<path d="M180.39 28.76H178.5V21.59C178.5 18.79 180.2 17.24 182.27 17.24C184.34 17.24 186.06 18.79 186.06 21.59V28.76H184.17V24.99H180.38V28.76H180.39ZM184.18 21.59C184.18 19.92 183.31 19.13 182.28 19.13C181.25 19.13 180.39 19.93 180.39 21.59V23.1H184.18V21.59Z" fill="white"/>
<path d="M191.73 28.76H189.84V21.59C189.84 18.79 191.54 17.24 193.61 17.24C195.68 17.24 197.4 18.79 197.4 21.59V28.76H195.51V24.99H191.72V28.76H191.73ZM195.52 21.59C195.52 19.92 194.65 19.13 193.62 19.13C192.59 19.13 191.73 19.93 191.73 21.59V23.1H195.52V21.59Z" fill="white"/>
<path d="M207.05 17.42H208.75V28.76H207.32L202.88 21.52V28.76H201.18V17.42H202.59L207.04 24.66V17.42H207.05Z" fill="white"/>
<path d="M221.21 28.94H220.84L216.3 17.42H218.34L221.03 24.27L223.72 17.42H225.76L221.22 28.94H221.21Z" fill="white"/>
<path d="M227.64 17.42H233.3V19.31H229.53V21.59H233.3V23.48H229.53V26.88H233.3V28.77H227.64V17.43V17.42Z" fill="white"/>
<path d="M238.98 19.31H237.09V17.42H242.75V19.31H240.86V26.87H242.75V28.76H237.09V26.87H238.98V19.31Z" fill="white"/>
<path d="M248.44 26.87H251.65V28.76H246.55V17.42H248.44V26.87Z" fill="white"/>
<path d="M255.99 19.31H254.1V17.42H259.76V19.31H257.87V26.87H259.76V28.76H254.1V26.87H255.99V19.31Z" fill="white"/>
<path d="M269.42 24.98H267.52V23.09H271.31V28.75H270.73L270.34 28.05C269.64 28.61 268.79 28.93 267.96 28.93C265.22 28.93 263.37 26.3 263.37 23.08C263.37 19.86 265.22 17.22 267.96 17.22C269.3 17.22 270.7 18.09 271.46 19.4L270.34 20.45C269.61 19.51 268.88 19.11 268.08 19.11C266.65 19.11 265.45 20.62 265.45 23.09C265.45 25.56 266.66 27.05 268.08 27.05C268.54 27.05 268.98 26.91 269.42 26.61V24.98Z" fill="white"/>
<path d="M280.57 21.58V17.41H282.46V28.75H280.57V23.46H276.78V28.75H274.89V17.41H276.78V21.58H280.57Z" fill="white"/>
<path d="M286.23 17.42H291.89V19.31H288.12V21.59H291.89V23.48H288.12V26.88H291.89V28.77H286.23V17.43V17.42Z" fill="white"/>
<path d="M297.58 19.31H295.69V17.42H301.35V19.31H299.46V26.87H301.35V28.76H295.69V26.87H297.58V19.31Z" fill="white"/>
<path d="M305.14 17.42H307.79C310.59 17.42 312.87 19.95 312.87 23.1C312.87 26.25 310.59 28.76 307.79 28.76H305.14V17.42ZM307.03 26.87H307.79C309.44 26.87 310.8 25.17 310.8 23.1C310.8 21.03 309.44 19.31 307.79 19.31H307.03V26.87Z" fill="white"/>
<path d="M318.37 28.94C317.62 28.94 316.99 28.31 316.99 27.56C316.99 26.81 317.62 26.18 318.37 26.18C319.12 26.18 319.75 26.81 319.75 27.56C319.75 28.31 319.14 28.94 318.37 28.94Z" fill="white"/>
</g>
<defs>
<clipPath id="clip0_11_2809">
<rect width="320" height="31" fill="white"/>
</clipPath>
</defs>
</svg>
