<?xml version="1.0" encoding="utf-8"?>
<!-- Generator: Adobe Illustrator 27.7.0, SVG Export Plug-In . SVG Version: 6.00 Build 0)  -->
<svg version="1.1" id="Layer_1" xmlns="http://www.w3.org/2000/svg" xmlns:xlink="http://www.w3.org/1999/xlink" x="0px" y="0px"
	 viewBox="0 0 152.7 152.7" style="enable-background:new 0 0 152.7 152.7;" xml:space="preserve">
<style type="text/css">
	.st0{fill:#EDE3D1;}
	.st1{fill:#E92C00;}
	.st2{opacity:0.1;clip-path:url(#SVGID_00000031922505118788565220000012038989911970716855_);}
	.st3{clip-path:url(#SVGID_00000031922505118788565220000012038989911970716855_);}
	.st4{fill:#E2ECFF;}
	.st5{fill:#CFD8E5;}
	.st6{fill:#EFCEB9;}
	.st7{fill:none;stroke:#B5AA9A;stroke-width:1.04;stroke-linecap:round;stroke-linejoin:round;}
	.st8{fill:#3B4736;}
	.st9{fill:none;stroke:#E0D5C1;stroke-linecap:round;stroke-linejoin:round;}
	.st10{fill:#A51204;stroke:#000000;stroke-miterlimit:10;}
	.st11{fill:#A51204;}
	.st12{fill:#4F0600;}
	.st13{fill:none;}
	.st14{fill:none;stroke:#000000;stroke-miterlimit:10;}
	.st15{fill:#72662A;}
</style>
<path class="st0" d="M12.8,671.3"/>
<path class="st0" d="M12.8,671.3"/>
<g>
	<circle class="st1" cx="76.4" cy="76.4" r="76.4"/>
	<g>
		<defs>
			<circle id="SVGID_1_" cx="76.4" cy="76.4" r="76.4"/>
		</defs>
		<clipPath id="SVGID_00000024694435099128995300000012241940197451426202_">
			<use xlink:href="#SVGID_1_"  style="overflow:visible;"/>
		</clipPath>
		<g id="shadow" style="opacity:0.1;clip-path:url(#SVGID_00000024694435099128995300000012241940197451426202_);">
			<path d="M119.7,74.7c-0.1-4.7-4-8.5-8.8-8.4c0,0,0,0-0.1,0c-0.1,0-0.2,0-0.3,0l0,0v-6.6c0-14.9-12.1-27.1-27.1-27.1h-9.7
				c-14.9,0-27.1,12.1-27.1,27.1v6.6l0,0c-0.6-0.1-1.2-0.2-1.9-0.2c-0.1,0-0.1,0-0.2,0c-4.8-0.1-8.7,3.7-8.8,8.4
				c0.1,4.7,4,8.5,8.7,8.4c0,0,0.1,0,0.1,0c0.6,0,1.1,0,1.7-0.1l-0.2,6c0,3.1,0.5,6,1.4,8.7c2,9.9,11.3,16.9,21.8,18.4v8.4
				c0,0,0,0,0,0v3.8l-0.5-0.8l-2.3,4c-2.5,0.6-4.9,1.5-7.2,2.8c-2.2,1.2-4.4,2.8-6.4,4.6c-4.5,4.1-8.2,9.5-10.7,15.8
				c10.6,2.6,23.4,4.4,38,4.1c2.7-0.1,5.4-0.2,8.2-0.5c0.7-0.1,1.4-0.1,2.1-0.2c8.1-0.8,16.2-2.5,24.1-4.9c-2.2-5.3-5.3-9.9-9-13.6
				c-2.1-2.1-4.3-3.8-6.7-5.2c-2.6-1.5-5.3-2.6-8.1-3.2l-2.1-3.7l-0.3,0.4v-11.1c0-0.3,0-0.5,0-0.7c10.1-1.8,18.9-8.6,20.9-18.2
				c0.9-2.7,1.4-5.7,1.4-8.7l-0.1-5.8c0.1,0,0.2,0,0.3,0c0,0,0,0,0,0C115.8,83.2,119.6,79.4,119.7,74.7z"/>
			<path d="M111.5,146.1v-2.8h-2C110.2,144.1,110.9,145.1,111.5,146.1z"/>
		</g>
		<g id="xavi" style="clip-path:url(#SVGID_00000024694435099128995300000012241940197451426202_);">
			<path id="right_x5F_ear" class="st0" d="M118.2,72.9c-0.1,4.5-3.8,8.1-8.3,8.1c0,0,0,0,0,0c-4.6,0.1-8.4-3.5-8.5-8.1
				c0.1-4.5,3.8-8.1,8.4-8.1c0,0,0,0,0.1,0C114.3,64.8,118.1,68.4,118.2,72.9L118.2,72.9z"/>
			<path id="left_x5F_ear" class="st0" d="M37.3,72.8c0.1,4.5,3.8,8.1,8.4,8.1c0,0,0.1,0,0.1,0c4.6,0.1,8.4-3.5,8.5-8.1
				c-0.1-4.5-3.8-8.2-8.3-8.1c-0.1,0-0.1,0-0.2,0C41.2,64.6,37.5,68.3,37.3,72.8z"/>
			<g id="left_x5F_piercing">
				<path class="st4" d="M46.6,72.8C46.6,72.8,46.6,72.8,46.6,72.8L46.6,72.8l-1.7,0v0.4h1.7v0c0.1,0,0.2-0.1,0.2-0.1
					C46.8,72.9,46.7,72.8,46.6,72.8z"/>
				<path class="st4" d="M46.6,72.8C46.6,72.8,46.6,72.8,46.6,72.8L46.6,72.8l-1.7,0v0.4h1.7v0c0.1,0,0.2-0.1,0.2-0.1
					C46.8,72.9,46.7,72.8,46.6,72.8z"/>
				<circle class="st4" cx="44.9" cy="72.9" r="0.6"/>
				<g>
					<path class="st5" d="M45.5,72.8L45.5,72.8c0,0.1,0,0.1,0,0.2c0,0.1,0,0.2-0.1,0.2h0.1c0-0.1,0.1-0.2,0.1-0.2
						C45.5,72.9,45.5,72.8,45.5,72.8z"/>
				</g>
			</g>
			<g id="right_x5F_piercing">
				<path class="st4" d="M110.5,72.8C110.5,72.8,110.5,72.8,110.5,72.8L110.5,72.8l1.7,0v0.4h-1.7v0c-0.1,0-0.2-0.1-0.2-0.1
					C110.3,72.9,110.4,72.8,110.5,72.8z"/>
				<path class="st4" d="M110.5,72.8C110.5,72.8,110.5,72.8,110.5,72.8L110.5,72.8l1.7,0v0.4h-1.7v0c-0.1,0-0.2-0.1-0.2-0.1
					C110.3,72.9,110.4,72.8,110.5,72.8z"/>
				<circle class="st4" cx="112.2" cy="72.9" r="0.6"/>
				<g>
					<path class="st5" d="M111.6,72.8L111.6,72.8c0,0.1,0,0.1,0,0.2c0,0.1,0,0.2,0.1,0.2h-0.1c0-0.1-0.1-0.2-0.1-0.2
						C111.6,72.9,111.6,72.8,111.6,72.8z"/>
				</g>
			</g>
			<g id="neck">
				<path class="st0" d="M79.4,137.9c3.3,0,6.1-0.5,8.6-1.3v-9.8c0,0,0,0,0,0v-13.5c0.2-5.1-3.8-9.4-8.9-9.5
					c-5.1-0.2-9.4,3.8-9.5,8.9c0,0.2,0,0.4,0,0.6v14c0,0,0,0,0,0v9C72.4,137.3,75.6,137.9,79.4,137.9z"/>
			</g>
			<path id="neck_x5F_shadow" class="st6" d="M69.6,106.5h18.4v14.3c0,0-10.5,5.5-18.4,0L69.6,106.5z"/>
			<path id="head" class="st0" d="M83.3,112.9h-9.4c-14.4,0-26.1-11.7-26.1-26.1V58.4c0-14.4,11.7-26.1,26.1-26.1h9.4
				c14.4,0,26.1,11.7,26.1,26.1v28.3C109.4,101.2,97.7,112.9,83.3,112.9z"/>
			<path id="right_x5F_eyebrow" class="st7" d="M94.6,63.1c-1.2-0.7-2.6-1.1-4-1.2c-1.4,0-2.9,0.3-4.2,0.9"/>
			<path id="left_x5F_eyebrow" class="st7" d="M70.9,63.5c-1.2-0.7-2.6-1-4-1.1c-1.4,0-2.9,0.2-4.2,0.8"/>
			<path id="mouth" class="st7" d="M73.7,94.5c0,0,5.4,2.8,10.2,0.2"/>
			<path id="left_x5F_eye" class="st8" d="M63.3,71.5c-0.1,2.1,1.3,3.8,2.9,3.8s3.1-1.6,3.2-3.7s-1.2-3.8-2.9-3.8
				S63.4,69.4,63.3,71.5z"/>
			<path id="right_x5F_eye" class="st8" d="M87.5,71.5c-0.1,2.1,1.2,3.8,2.9,3.8s3.1-1.6,3.2-3.7s-1.2-3.8-2.9-3.8
				S87.6,69.4,87.5,71.5z"/>
			<path id="nose" class="st9" d="M76.2,82.2c0,0,3.1,1.6,5.8,0"/>
			<g id="shirt">
				<g>
					<path class="st10" d="M80.1,153.7c2.6-0.1,5.2-0.2,7.9-0.4V153L80.1,153.7z"/>
					<path class="st10" d="M98.1,130.3c-3.2-1.9-6.6-3.1-10.1-3.5v9.8c-2.5,0.8-5.3,1.3-8.6,1.3c-3.8,0-7-0.6-9.8-1.6V127
						c-3.4,0.4-6.6,1.5-9.6,3.1c-2.2,1.2-4.2,2.7-6.1,4.4c-4.3,3.9-7.9,9.2-10.3,15.2c10.2,2.5,22.6,4.3,36.6,3.9l7.9-0.7v0.2
						c0.7-0.1,1.3-0.1,2-0.2c7.8-0.8,15.6-2.4,23.2-4.7c-2.2-5.1-5.1-9.5-8.7-13.1C102.6,133.3,100.4,131.6,98.1,130.3z"/>
				</g>
				<g>
					<path class="st10" d="M80.1,153.7c2.6-0.1,5.2-0.2,7.9-0.4V153L80.1,153.7z"/>
					<path class="st10" d="M98.1,130.3c-3.2-1.9-6.6-3.1-10.1-3.5v9.8c-2.5,0.8-5.3,1.3-8.6,1.3c-3.8,0-7-0.6-9.8-1.6V127
						c-3.4,0.4-6.6,1.5-9.6,3.1c-2.2,1.2-4.2,2.7-6.1,4.4c-4.3,3.9-7.9,9.2-10.3,15.2c10.2,2.5,22.6,4.3,36.6,3.9l7.9-0.4l0,0
						c0.7-0.1,1.3-0.1,2-0.2c7.8-0.8,15.6-2.4,23.2-4.7c-2.2-5.1-5.1-9.5-8.7-13.1C102.6,133.3,100.4,131.6,98.1,130.3z"/>
				</g>
				<g>
					<rect x="89.9" y="139" class="st11" width="6.8" height="6.8"/>
					<path class="st11" d="M69.1,132.2v-4.6c-2.1,0.3-4.3,0.9-6.3,1.8v2.8H69.1z"/>
					<path class="st11" d="M89.9,145.7h-6.8v7.2l5.4-0.5v0.2l0.2,0c0.4,0,0.9-0.1,1.3-0.1c0.1,0,0.2,0,0.3,0h-0.4V145.7z"/>
					<rect x="62.8" y="139" class="st11" width="6.8" height="6.8"/>
					<path class="st11" d="M76.4,139v6.8h6.8V139h6.8v-6.8h6.8v-2.1c-2.6-1.4-5.4-2.3-8.2-2.7v9.6l-0.3,0.1
						c-2.7,0.9-5.7,1.3-8.8,1.3c-3.5,0-6.8-0.5-9.9-1.6v2.2H76.4z"/>
					<path class="st11" d="M46,145.7c-0.6,1.2-1.2,2.4-1.7,3.7c1.7,0.4,3.3,0.8,5,1.1v-4.7H46z"/>
					<path class="st11" d="M103.5,145.7h6.8v3c0.8-0.2,1.5-0.4,2.3-0.7c-1.5-3.3-3.3-6.4-5.5-9.1h-3.6V145.7z"/>
					<path class="st11" d="M62.8,139v-6.8h-5.1c-0.6,0.4-1.1,0.8-1.7,1.2v5.6H62.8z"/>
					<path class="st11" d="M96.7,139h6.8v-4c-1.1-1-2.2-2-3.4-2.8h-3.4V139z"/>
					<path class="st11" d="M96.7,145.7v5.9c2.3-0.4,4.5-0.8,6.8-1.3v-4.7H96.7z"/>
					<path class="st11" d="M56,145.7V139h-5.6c-0.4,0.5-0.8,1-1.2,1.6v5.2H56z"/>
					<path class="st11" d="M69.6,145.7v7.3c2.3,0.1,4.5,0.2,6.8,0.2v-7.5H69.6z"/>
					<path class="st11" d="M56,145.7v5.9c2.3,0.3,4.5,0.6,6.8,0.9v-6.8H56z"/>
					<polygon class="st11" points="83.1,152.9 83.1,153 88.6,152.7 88.6,152.4 					"/>
					<polygon points="107.8,139 107.8,139 107.8,139 					"/>
					<path d="M109,140.7C109.1,140.7,109.1,140.7,109,140.7C109.1,140.7,109.1,140.7,109,140.7z"/>
					<polygon points="49.8,139 49.8,139 49.8,139 					"/>
					<polygon points="49.2,139.7 49.2,139.7 49.2,139.7 					"/>
					<rect x="89.9" y="132.2" class="st11" width="6.8" height="6.8"/>
					<rect x="89.9" y="132.2" class="st12" width="6.8" height="6.8"/>
					<path class="st11" d="M103.5,135v4h3.6c-0.9-1.2-1.9-2.3-2.9-3.3C104,135.4,103.7,135.2,103.5,135z"/>
					<path class="st12" d="M103.5,135v4h3.6c-0.9-1.2-1.9-2.3-2.9-3.3C104,135.4,103.7,135.2,103.5,135z"/>
					<path d="M106.1,137c0.1,0.1,0.1,0.1,0.2,0.2C106.3,137.1,106.2,137.1,106.1,137z"/>
					<polygon points="107.8,139 107.8,139 107.8,139 					"/>
					<polygon class="st12" points="107.8,139 107.8,139 107.8,139 					"/>
					<path class="st11" d="M103.5,145.7v4.7c2.3-0.5,4.5-1.1,6.8-1.7v-3H103.5z"/>
					<path class="st12" d="M103.5,145.7v4.7c2.3-0.5,4.5-1.1,6.8-1.7v-3H103.5z"/>
					<polygon points="103.5,150.9 103.5,150.9 103.5,150.9 					"/>
					<polygon class="st12" points="103.5,150.9 103.5,150.9 103.5,150.9 					"/>
					<polygon points="110.3,149.3 110.3,149.3 110.3,149.3 					"/>
					<polygon class="st12" points="110.3,149.3 110.3,149.3 110.3,149.3 					"/>
					<path class="st11" d="M89.9,145.7v6.8h0.4c2.1-0.2,4.3-0.5,6.4-0.8v-5.9H89.9z"/>
					<path class="st12" d="M89.9,145.7v6.8h0.4c2.1-0.2,4.3-0.5,6.4-0.8v-5.9H89.9z"/>
					<polygon points="96.7,152.2 96.7,152.2 96.7,152.2 					"/>
					<polygon class="st12" points="96.7,152.2 96.7,152.2 96.7,152.2 					"/>
					<path class="st11" d="M49.2,145.7v4.7c2.3,0.5,4.5,0.8,6.8,1.2v-5.9H49.2z"/>
					<path class="st12" d="M49.2,145.7v4.7c2.3,0.5,4.5,0.8,6.8,1.2v-5.9H49.2z"/>
					<polygon points="56,152.2 56,152.2 56,152.2 					"/>
					<polygon class="st12" points="56,152.2 56,152.2 56,152.2 					"/>
					<path class="st12" d="M62.8,129.3c-0.9,0.4-1.7,0.8-2.6,1.2c-0.9,0.5-1.7,1-2.6,1.6h5.1V129.3z"/>
					<path class="st12" d="M58.3,131.1C58.4,131.1,58.4,131.1,58.3,131.1C58.4,131.1,58.4,131.1,58.3,131.1z"/>
					<path class="st11" d="M56,133.4c-0.6,0.5-1.2,1-1.8,1.5c-1.3,1.2-2.6,2.6-3.8,4H56V133.4z"/>
					<path class="st12" d="M56,133.4c-0.6,0.5-1.2,1-1.8,1.5c-1.3,1.2-2.6,2.6-3.8,4H56V133.4z"/>
					<polygon points="49.8,139 49.8,139 49.8,139 					"/>
					<polygon class="st12" points="49.8,139 49.8,139 49.8,139 					"/>
					<path class="st11" d="M62.8,139h6.8v-2.2c0,0-0.1,0-0.1,0l-0.3-0.1v-4.4h-6.3V139z"/>
					<path class="st12" d="M62.8,139h6.8v-2.2c0,0-0.1,0-0.1,0l-0.3-0.1v-4.4h-6.3V139z"/>
					<path class="st11" d="M62.8,145.7v6.8c2.3,0.2,4.5,0.4,6.8,0.5v-7.3H62.8z"/>
					<path class="st12" d="M62.8,145.7v6.8c2.3,0.2,4.5,0.4,6.8,0.5v-7.3H62.8z"/>
					<path class="st11" d="M83.1,145.7h-6.8v7.5c1.3,0,2.5,0,3.8,0l3-0.3V145.7z"/>
					<path class="st12" d="M83.1,145.7h-6.8v7.5c1.3,0,2.5,0,3.8,0l3-0.3V145.7z"/>
					<polygon class="st11" points="80.1,153.2 80.1,153.2 83.1,153 83.1,152.9 					"/>
					<polygon class="st12" points="80.1,153.2 80.1,153.2 83.1,153 83.1,152.9 					"/>
					<path class="st13" d="M110.3,139h-1.9c0.7,0.9,1.3,1.8,1.9,2.7V139z"/>
					<path class="st12" d="M49.2,140.5c-1.2,1.6-2.3,3.4-3.3,5.2h3.3V140.5z"/>
					<polygon class="st12" points="45.4,145.7 45.4,145.7 45.4,145.7 					"/>
					<rect x="56" y="139" class="st12" width="6.8" height="6.8"/>
					<path class="st12" d="M69.6,127L69.6,127C69.6,127,69.6,127,69.6,127C69.6,127,69.6,127,69.6,127z"/>
					<rect x="69.6" y="139" class="st12" width="6.8" height="6.8"/>
					<rect x="83.1" y="139" class="st12" width="6.8" height="6.8"/>
					<rect x="96.7" y="139" class="st12" width="6.8" height="6.8"/>
					<path class="st12" d="M100.1,132.2c-0.7-0.5-1.5-1-2.2-1.5c-0.4-0.2-0.8-0.4-1.2-0.7v2.1H100.1z"/>
					<polygon class="st12" points="96.7,129.5 96.7,129.5 96.7,129.5 					"/>
					<polygon class="st12" points="100.9,132.2 100.9,132.2 100.9,132.2 					"/>
				</g>
				<g>
					<polygon class="st10" points="69.1,123.6 78.7,138.4 72.8,144.3 64.6,131.4 					"/>
					<g>
						<polygon class="st12" points="67.4,134.8 70.7,139.9 76.2,135.5 72.1,129.2 						"/>
					</g>
				</g>
				<g>
					<polygon class="st10" points="88.3,123.6 78.8,138.4 84.6,144.3 92.8,131.4 					"/>
					<g>
						<polygon class="st12" points="85.3,129.2 81.3,135.5 86.8,139.9 90.1,134.8 						"/>
					</g>
				</g>
				<line class="st14" x1="78.7" y1="138.4" x2="78.7" y2="153.7"/>
			</g>
			<g id="beard">
				<path class="st15" d="M90.3,88.9c-1.8-2-6-4.4-7-4.4c-1-0.1-4.8-0.7-7.7,0s-6,1.6-7,2.9s-2.3,11.6-1.8,13.9c0,0,1.1-6.5,3.9-7.4
					l0,0c0,0,0.3-2.2,0.5-2.5c-0.1,0.8-0.1,1.6,0,2.3c1-0.3,2-0.5,3.1-0.7c-0.1-0.9,0-1.9,0.1-2.8c0,0.9,0.1,1.9,0.2,2.8
					c0.7-0.1,1.6-0.2,2.4-0.3l0,0c0,0,0.1-1,0.2-1.9c0,0,0.1,1.2,0.2,1.9c0.7,0,1.4-0.1,2.1-0.1c1.1,0,2.3,0,3.4,0.2
					c0-0.7,0-2.4-0.1-2.6c-0.1-0.2,0.4,0.7,0.6,2.6c1.1,0.1,2.2,0.4,3.3,0.7c0.1-0.8,0.2-2.1-0.1-2.7c0,0,0.8,1.7,0.7,2.9l0,0
					c3.1,1,4.2,7.6,4.2,7.6S92.1,90.9,90.3,88.9z"/>
				<path class="st15" d="M79.9,99.3l0.1-2l-0.2,0v-0.1l-1.4,0l-1.4,0v0.1l-0.2,0l0.1,2c-15.5,10.8-29.1-34.5-29.1-34.5l-0.5,21.7
					c0,2.9,0.5,5.8,1.4,8.4c2.2,10.8,13.4,18,25,18h4.1h1.3h4.1c11.6,0,22.8-7.2,25-18c0.9-2.6,1.4-5.5,1.4-8.4l-0.2-21.8
					C109.4,64.8,95.4,110.2,79.9,99.3z"/>
			</g>
		</g>
	</g>
</g>
</svg>
