<svg id="phones_front" class="phones" xmlns="http://www.w3.org/2000/svg" viewBox="0 0 400 840">
        <g id="front_phone">
          <path id="phone_front_mask" fill="black"
            d="M390.48,309.19c0-2-.21-3.55-2.87-3.11V272.84c2.4.27,2.87-1,2.87-3q-.08-46.68,0-93.36c0-2-.21-3.55-3-3.09v-2.64c0-36.74,0-69.56,0-106.3,0-5.26-.08-10.53-.44-15.77-.75-10.87-4.83-20.21-13.54-27.11-3.9-3.08-8.12-5.81-13.28-6.14-5.88-.37-11.77-.68-17.66-.68L200,14.68q-69,0-137.91,0c-7.58,0-15.17.19-22.75.41a17.33,17.33,0,0,0-5.55.93C23.22,20,16,27.38,12.45,38.15,9.78,46.3,9.53,54.79,9.53,63.28c0,235.24,0,466.56,0,701.81,0,9.11.38,18.23.79,27.34.38,8.77,3.15,16.74,9,23.42,4.46,5.1,9.81,9.24,16.64,10.22a126.62,126.62,0,0,0,17.86.91q73.08,0,146.18,0l143.35,0q6.86,0,13.69-.46a26.14,26.14,0,0,0,7.61-1.25A33.29,33.29,0,0,0,382.8,809c3.7-7.14,4.7-14.87,4.7-22.78q0-215.35,0-430.72v-3c2.4.27,3-.8,3-2.84Q390.39,329.42,390.48,309.19Z" />
        </g>
      </svg>