<?xml version="1.0" encoding="UTF-8"?>
<svg id="logo" xmlns="http://www.w3.org/2000/svg" version="1.1" viewBox="0 0 256 256">
  <!-- Generator: Adobe Illustrator 29.6.1, SVG Export Plug-In . SVG Version: 2.1.1 Build 9)  -->
  <g id="icon" fill="white">
    <path d="M217.6,36.9C193.2,12.9,161,0,126.9.2h0s0,0,0,0c-34.1.3-66.1,13.9-90,38.2C12.9,62.8,0,95,.2,129.1c.3,34.1,13.9,66.1,38.2,90,24.3,23.9,56.5,36.9,90.7,36.6,0,0,0,0,0,0,70.4-.6,127.2-58.4,126.6-128.9-.3-34.1-13.9-66.1-38.2-90ZM128.8,216.8s0,0,0,0c-23.7.2-46.1-8.8-63-25.5-16.9-16.6-26.3-38.8-26.5-62.5-.2-23.7,8.8-46.1,25.5-63,16.6-16.9,38.8-26.3,62.5-26.5,0,0,0,0,0,0h0c23.7-.2,46.1,8.8,63,25.5,16.9,16.6,26.3,38.8,26.5,62.6.4,48.9-39,89.1-88,89.5Z"/>
    <polygon points="184.8 98.7 157.2 71.2 128 100.4 98.7 71.2 71.2 98.7 100.4 128 100.4 128 91.8 136.6 71.2 157.2 98.7 184.8 117.1 166.4 117.1 166.4 128 155.6 157.2 184.8 184.8 157.2 155.6 128 184.8 98.7"/>
  </g>
</svg>