<?xml version="1.0" encoding="UTF-8"?>
<svg xmlns="http://www.w3.org/2000/svg" xmlns:xlink="http://www.w3.org/1999/xlink" viewBox="0 0 154 154">
  <defs>
    <clipPath id="clippath">
      <rect id="head-3" data-name="head" x="48.52" y="32.64" width="62.05" height="81.16" rx="26.3" ry="26.3" style="fill: none;"/>
    </clipPath>
    <clipPath id="clippath-1">
      <circle cx="77" cy="77" r="77" style="fill: none;"/>
    </clipPath>
  </defs>
  <g style="isolation: isolate;">
    <g id="Layer_1" data-name="Layer 1">
      <circle id="circle_bg" data-name="circle bg" cx="77" cy="77" r="77" style="fill: #e92c00;"/>
      <path id="helmet-back" d="M121.52,60.13c-.01-.19-.03-.39-.04-.58-1.94-1.79-20.33-3.2-42.75-3.2s-40.81,1.41-42.75,3.2c-.02.19-.03.39-.04.58,1.66,1.82,20.18,3.25,42.79,3.25s41.13-1.43,42.79-3.25Z" style="fill: #485654;"/>
      <g id="xavi">
        <path id="shadow" d="M111.99,83.77h-.35l.06,5.87c0,3.08-.51,6.04-1.44,8.81-1.98,9.7-10.88,16.59-21.06,18.36.01.25.02.5.01.75v11.24l.26-.4,2.14,3.72c2.82.62,5.55,1.72,8.12,3.24,2.39,1.41,4.65,3.19,6.73,5.26,3.72,3.71,6.84,8.39,9.1,13.68-7.9,2.41-16.06,4.08-24.25,4.89-.71.07-1.42.12-2.12.18-2.81.24-5.57.39-8.27.46-14.62.38-27.58-1.48-38.27-4.1,2.51-6.3,6.24-11.79,10.78-15.91,1.99-1.81,4.14-3.36,6.4-4.61,2.31-1.27,4.74-2.22,7.25-2.8l2.3-4.01.55.85v-3.82h-.01v-8.46c-10.55-1.5-19.93-8.52-21.97-18.51-.93-2.77-1.44-5.73-1.44-8.81l.15-6.1c-.54.09-1.1.14-1.66.13h-.13c-4.74.08-8.66-3.69-8.74-8.44.13-4.79,4.08-8.59,8.87-8.52h.21c.64,0,1.27.06,1.88.19h0v-6.72c0-15.07,12.22-27.29,27.29-27.29h9.81c15.07,0,27.29,12.22,27.29,27.29v6.68h.4c4.77-.06,8.71,3.71,8.85,8.48-.08,4.74-3.99,8.51-8.72,8.43h-.02Z"/>
        <g id="left_ear" data-name="left ear">
          <path d="M37.65,73.44c.08,4.57,3.85,8.21,8.42,8.13h.13c4.61.09,8.44-3.56,8.58-8.17-.06-4.57-3.81-8.23-8.38-8.17h-.2c-4.62-.07-8.43,3.59-8.55,8.21Z" style="fill: #ede3d1;"/>
          <g id="left_piercing" data-name="left piercing">
            <path d="M46.99,73.38h-1.75v.42h1.7c.09,0,.18-.06.2-.15.03-.11-.04-.23-.15-.26h0Z" style="fill: #d4dde8;"/>
            <circle cx="45.23" cy="73.54" r=".59" style="fill: #d4dde8;"/>
            <path d="M45.85,73.37h-.06c.02.05.03.11.03.17,0,.09-.02.17-.06.25h.06c.04-.08.06-.16.06-.25,0-.06-.02-.12-.03-.17Z" style="fill: #cfd8e5;"/>
          </g>
        </g>
        <g id="right_ear" data-name="right ear">
          <path d="M119.18,73.54c-.08,4.57-3.84,8.2-8.41,8.13h-.03c-4.62.09-8.44-3.55-8.58-8.17.08-4.57,3.85-8.21,8.43-8.13h.06c4.6-.06,8.39,3.57,8.53,8.17h0Z" style="fill: #ede3d1;"/>
          <g id="right_piercing" data-name="right piercing">
            <path d="M111.42,73.38h1.75v.42h-1.7c-.09,0-.18-.06-.2-.15-.03-.11.04-.23.15-.26h0Z" style="fill: #d4dde8;"/>
            <circle cx="113.18" cy="73.54" r=".59" style="fill: #d4dde8;"/>
            <path d="M112.57,73.37h.06c-.02.05-.03.11-.03.17,0,.09.02.17.06.25h-.06c-.04-.08-.06-.16-.06-.25,0-.06.02-.12.03-.17Z" style="fill: #cfd8e5;"/>
          </g>
        </g>
        <path id="neck" d="M80.09,139.04c3.3,0,6.18-.5,8.69-1.32v-9.87h.03v-13.63c.17-5.13-3.85-9.43-8.99-9.6-5.13-.17-9.43,3.85-9.6,8.99v14.73h-.01v9.06c2.79,1,6.05,1.64,9.87,1.64h0Z" style="fill: #ede3d1;"/>
        <path id="neck_shadow" data-name="neck shadow" d="M70.22,107.37h18.56v14.43s-10.59,5.59-18.56,0v-14.43Z" style="fill: #efceb9;"/>
        <rect id="head" x="48.21" y="32.64" width="62.05" height="81.16" rx="26.3" ry="26.3" style="fill: #ede3d1;"/>
        <path id="right_eyebrow" data-name="right eyebrow" d="M95.34,63.65c-1.23-.72-2.61-1.14-4.03-1.23-1.46-.02-2.9.28-4.22.88" style="stroke: #b5aa9a; stroke-linecap: round; stroke-linejoin: round;"/>
        <path id="left_eyebrow" data-name="left eyebrow" d="M71.53,64.06c-1.25-.66-2.62-1.05-4.03-1.12-1.45-.03-2.89.23-4.23.77" style="stroke: #b5aa9a; stroke-linecap: round; stroke-linejoin: round;"/>
        <path id="mouth" d="M74.28,95.28s5.48,2.87,10.32.17" style="stroke: #b5aa9a; stroke-linecap: round; stroke-linejoin: round;"/>
        <line id="left_eye2" data-name="left eye2" x1="64.15" y1="72.09" x2="69.65" y2="72.09" style="fill: none; stroke: rgba(59, 71, 54, 0); stroke-linecap: round;"/>
        <line id="right_eye2" data-name="right eye2" x1="88.54" y1="72.09" x2="94.04" y2="72.09" style="fill: none; stroke: rgba(59, 71, 54, 0); stroke-linecap: round;"/>
        <path id="left_eye" data-name="left eye" d="M63.83,72.09c-.07,2.1,1.26,3.83,2.96,3.88s3.13-1.6,3.19-3.7-1.26-3.83-2.96-3.88-3.13,1.6-3.19,3.7Z" style="fill: #3b4736;"/>
        <path id="right_eye" data-name="right eye" d="M88.22,72.09c-.07,2.1,1.26,3.83,2.96,3.88s3.13-1.6,3.19-3.7-1.26-3.83-2.96-3.88-3.13,1.6-3.19,3.7Z" style="fill: #3b4736;"/>
        <path id="nose" d="M76.85,82.93s3.12,1.56,5.83,0" style="stroke: #b5aa9a; stroke-linecap: round; stroke-linejoin: round;"/>
        <g id="shirt">
          <g>
            <path d="M80.81,154.95c2.6-.07,5.26-.21,7.97-.44v-.24l-7.97.68h0Z" style="fill: #a51204; stroke: #000; stroke-miterlimit: 10;"/>
            <path d="M98.95,131.37c-3.18-1.88-6.61-3.1-10.17-3.52v9.87c-2.51.82-5.39,1.32-8.69,1.32-3.82,0-7.08-.64-9.87-1.64v-9.35c-3.39.39-6.66,1.49-9.72,3.17-2.18,1.2-4.25,2.69-6.17,4.44-4.37,3.98-7.97,9.26-10.39,15.33,10.3,2.52,22.78,4.32,36.88,3.95l7.97-.68v.24c.68-.06,1.36-.1,2.05-.17,7.9-.78,15.76-2.39,23.37-4.71-2.18-5.1-5.19-9.61-8.77-13.19-2-2-4.17-3.7-6.48-5.07h-.01Z" style="fill: #a51204; stroke: #000; stroke-miterlimit: 10;"/>
          </g>
          <g>
            <path d="M80.81,154.95c2.6-.07,5.26-.21,7.97-.44v-.24l-7.97.68h0Z" style="fill: #a51204; stroke: #000; stroke-miterlimit: 10;"/>
            <path d="M98.95,131.37c-3.18-1.88-6.61-3.1-10.17-3.52v9.87c-2.51.82-5.39,1.32-8.69,1.32-3.82,0-7.08-.64-9.87-1.64v-9.35c-3.39.39-6.66,1.49-9.72,3.17-2.18,1.2-4.25,2.69-6.17,4.44-4.37,3.98-7.97,9.26-10.39,15.33,10.3,2.52,22.78,4.32,36.88,3.95l7.97-.44h0c.68-.06,1.36-.1,2.05-.17,7.9-.78,15.76-2.39,23.37-4.71-2.18-5.1-5.19-9.61-8.77-13.19-2-2-4.17-3.7-6.48-5.07h-.01Z" style="fill: #a51204; stroke: #000; stroke-miterlimit: 10;"/>
          </g>
          <g>
            <rect x="90.68" y="140.12" width="6.84" height="6.84" style="fill: #a51204;"/>
            <path d="M69.72,133.28v-4.66c-2.16.3-4.3.92-6.4,1.81v2.85h6.4Z" style="fill: #a51204;"/>
            <path d="M90.68,146.96h-6.84v7.22l5.45-.47v.24h.16c.44-.04.89-.08,1.34-.12.1,0,.2-.02.3-.03h-.4v-6.84h0Z" style="fill: #a51204;"/>
            <rect x="63.32" y="140.12" width="6.84" height="6.84" style="fill: #a51204;"/>
            <path d="M77,140.12v6.84h6.84v-6.84h6.84v-6.84h6.84v-2.13c-2.67-1.41-5.43-2.33-8.23-2.73v9.66l-.35.11c-2.74.89-5.71,1.34-8.85,1.34-3.54,0-6.88-.55-9.93-1.63v2.21h6.84Z" style="fill: #a51204;"/>
            <path d="M46.36,146.96c-.63,1.19-1.21,2.42-1.73,3.68,1.66.4,3.34.76,5.01,1.1v-4.78h-3.28Z" style="fill: #a51204;"/>
            <path d="M104.36,146.96h6.84v3.01c.77-.22,1.54-.43,2.31-.66-1.48-3.35-3.35-6.45-5.5-9.19h-3.65v6.84h0Z" style="fill: #a51204;"/>
            <path d="M63.32,140.12v-6.84h-5.17c-.57.39-1.13.8-1.67,1.23v5.61s6.84,0,6.84,0Z" style="fill: #a51204;"/>
            <path d="M97.52,140.12h6.84v-4c-1.1-1.04-2.25-1.99-3.43-2.84h-3.41v6.84Z" style="fill: #a51204;"/>
            <path d="M97.52,146.96v6c2.28-.36,4.56-.79,6.84-1.29v-4.71h-6.84Z" style="fill: #a51204;"/>
            <path d="M56.48,146.96v-6.84h-5.64c-.41.51-.81,1.03-1.21,1.57v5.27h6.85Z" style="fill: #a51204;"/>
            <path d="M70.16,146.96v7.34c2.28.11,4.56.18,6.84.18v-7.52h-6.84Z" style="fill: #a51204;"/>
            <path d="M56.48,146.96v5.98c2.27.34,4.55.63,6.84.86v-6.84h-6.84Z" style="fill: #a51204;"/>
            <polygon points="83.84 154.18 83.84 154.27 89.29 153.96 89.29 153.71 83.84 154.18" style="fill: #a51204;"/>
            <path d="M109.95,141.89s.02.03.04.05c-.01-.02-.02-.03-.04-.05Z"/>
            <rect x="90.68" y="133.28" width="6.84" height="6.84" style="fill: #a51204;"/>
            <rect x="90.68" y="133.28" width="6.84" height="6.84" style="fill: #4f0600; isolation: isolate; mix-blend-mode: multiply;"/>
            <path d="M104.36,136.12v4h3.65c-.93-1.18-1.91-2.3-2.94-3.33-.23-.23-.48-.45-.72-.67h.01Z" style="fill: #a51204;"/>
            <path d="M104.36,136.12v4h3.65c-.93-1.18-1.91-2.3-2.94-3.33-.23-.23-.48-.45-.72-.67h.01Z" style="fill: #4f0600; isolation: isolate; mix-blend-mode: multiply;"/>
            <path d="M107.03,138.15c.05.06.11.12.16.19-.05-.06-.11-.12-.16-.19Z"/>
            <path d="M104.36,146.96v4.71c2.28-.5,4.57-1.07,6.84-1.7v-3.01h-6.84Z" style="fill: #a51204;"/>
            <path d="M104.36,146.96v4.71c2.28-.5,4.57-1.07,6.84-1.7v-3.01h-6.84Z" style="fill: #4f0600; isolation: isolate; mix-blend-mode: multiply;"/>
            <path d="M90.68,146.96v6.84h.4c2.14-.22,4.29-.5,6.44-.84v-6h-6.84Z" style="fill: #a51204;"/>
            <path d="M90.68,146.96v6.84h.4c2.14-.22,4.29-.5,6.44-.84v-6h-6.84Z" style="fill: #4f0600; isolation: isolate; mix-blend-mode: multiply;"/>
            <path d="M49.64,146.96v4.78c2.27.46,4.55.85,6.84,1.19v-5.98h-6.84Z" style="fill: #a51204;"/>
            <path d="M49.64,146.96v4.78c2.27.46,4.55.85,6.84,1.19v-5.98h-6.84Z" style="fill: #4f0600; isolation: isolate; mix-blend-mode: multiply;"/>
            <path d="M63.32,130.43c-.87.37-1.73.77-2.58,1.24-.88.48-1.74,1.03-2.59,1.61h5.17v-2.85Z" style="fill: #4f0600;"/>
            <path d="M58.83,132.21s.02,0,.03-.02c0,0-.02,0-.03.02Z" style="fill: #4f0600;"/>
            <path d="M56.48,134.51c-.61.48-1.22.99-1.81,1.52-1.36,1.24-2.63,2.61-3.82,4.08h5.64v-5.61h0Z" style="fill: #a51204;"/>
            <path d="M56.48,134.51c-.61.48-1.22.99-1.81,1.52-1.36,1.24-2.63,2.61-3.82,4.08h5.64v-5.61h0Z" style="fill: #4f0600; isolation: isolate; mix-blend-mode: multiply;"/>
            <path d="M63.32,140.12h6.84v-2.21s-.07-.02-.11-.03l-.33-.12v-4.48h-6.4v6.84Z" style="fill: #a51204;"/>
            <path d="M63.32,140.12h6.84v-2.21s-.07-.02-.11-.03l-.33-.12v-4.48h-6.4v6.84Z" style="fill: #4f0600; isolation: isolate; mix-blend-mode: multiply;"/>
            <path d="M63.32,146.96v6.84c2.27.23,4.56.39,6.84.51v-7.34h-6.84Z" style="fill: #a51204;"/>
            <path d="M63.32,146.96v6.84c2.27.23,4.56.39,6.84.51v-7.34h-6.84Z" style="fill: #4f0600; isolation: isolate; mix-blend-mode: multiply;"/>
            <path d="M83.84,146.96h-6.84v7.52c1.26,0,2.53,0,3.79-.04l3.05-.26v-7.22h0Z" style="fill: #a51204;"/>
            <path d="M83.84,146.96h-6.84v7.52c1.26,0,2.53,0,3.79-.04l3.05-.26v-7.22h0Z" style="fill: #4f0600; isolation: isolate; mix-blend-mode: multiply;"/>
            <path d="M49.64,141.69c-1.2,1.65-2.3,3.41-3.28,5.27h3.28v-5.27Z" style="fill: #4f0600;"/>
            <rect x="56.48" y="140.12" width="6.84" height="6.84" style="fill: #4f0600;"/>
            <rect x="70.16" y="140.12" width="6.84" height="6.84" style="fill: #4f0600;"/>
            <rect x="83.84" y="140.12" width="6.84" height="6.84" style="fill: #4f0600;"/>
            <rect x="97.52" y="140.12" width="6.84" height="6.84" style="fill: #4f0600;"/>
            <path d="M100.93,133.28c-.73-.53-1.47-1.03-2.23-1.47-.39-.23-.78-.45-1.18-.66v2.13h3.41Z" style="fill: #4f0600;"/>
          </g>
          <g>
            <polygon points="69.7 124.67 79.33 139.59 73.44 145.49 65.19 132.52 69.7 124.67" style="fill: #a51204; stroke: #000; stroke-miterlimit: 10;"/>
            <polygon points="67.95 135.93 71.24 141.1 76.83 136.65 72.71 130.26 67.95 135.93" style="fill: #4f0600;"/>
          </g>
          <g>
            <polygon points="89.07 124.67 79.44 139.59 85.33 145.49 93.58 132.52 89.07 124.67" style="fill: #a51204; stroke: #000; stroke-miterlimit: 10;"/>
            <polygon points="86.06 130.26 81.94 136.65 87.52 141.1 90.82 135.93 86.06 130.26" style="fill: #4f0600;"/>
          </g>
          <line x1="79.33" y1="139.59" x2="79.33" y2="154.95" style="fill: none; stroke: #000; stroke-miterlimit: 10;"/>
        </g>
        <g id="beard">
          <path d="M91.04,89.61c-1.83-2.04-6.05-4.43-7.05-4.49s-4.89-.66-7.76,0-6.01,1.58-7.05,2.9-2.32,11.75-1.79,14c0,0,1.13-6.51,3.93-7.44h0s.28-2.22.54-2.52c-.1.78-.11,1.58-.04,2.36,1.01-.3,2.04-.54,3.09-.7-.08-.95-.05-1.91.09-2.85,0,.94.08,1.88.2,2.81.75-.11,1.57-.21,2.45-.27h0s.07-.99.23-1.93c0,0,.11,1.17.23,1.9.67-.04,1.37-.07,2.11-.07,1.14-.01,2.29.04,3.42.16-.02-.76,0-2.4-.08-2.59s.4.72.58,2.64c1.13.13,2.24.36,3.32.67.09-.83.15-2.08-.11-2.77,0,0,.79,1.76.71,2.96h0c3.14,1.05,4.27,7.63,4.27,7.63,0,0,.55-10.37-1.3-12.41h.01Z" style="fill: #72662a;"/>
          <path d="M80.56,100.17l.12-1.98h-.18v-.1l-1.42.05-1.42-.05v.09h-.18l.12,1.99c-15.63,10.94-29.38-34.77-29.38-34.77l-.55,21.92c0,2.97.49,5.83,1.39,8.49,2.22,10.9,13.5,18.13,25.24,18.13h9.58c11.73,0,23.01-7.24,25.24-18.13.9-2.67,1.39-5.52,1.39-8.49l-.23-21.94s-14.07,45.73-29.71,34.79h-.01Z" style="fill: #72662a;"/>
        </g>
        <g id="left_ear-2" data-name="left ear">
          <path d="M37.65,73.44c.08,4.57,3.85,8.21,8.42,8.13h.13c4.61.09,8.44-3.56,8.58-8.17-.06-4.57-3.81-8.23-8.38-8.17h-.2c-4.62-.07-8.43,3.59-8.55,8.21Z" style="fill: #ede3d1;"/>
          <g id="left_piercing-2" data-name="left piercing">
            <path d="M46.99,73.38h-1.75v.42h1.7c.09,0,.18-.06.2-.15.03-.11-.04-.23-.15-.26h0Z" style="fill: #d4dde8;"/>
            <circle cx="45.23" cy="73.54" r=".59" style="fill: #d4dde8;"/>
            <path d="M45.85,73.37h-.06c.02.05.03.11.03.17,0,.09-.02.17-.06.25h.06c.04-.08.06-.16.06-.25,0-.06-.02-.12-.03-.17Z" style="fill: #cfd8e5;"/>
          </g>
        </g>
        <g id="right_ear-2" data-name="right ear">
          <path d="M119.18,73.54c-.08,4.57-3.84,8.2-8.41,8.13h-.03c-4.62.09-8.44-3.55-8.58-8.17.08-4.57,3.85-8.21,8.43-8.13h.06c4.6-.06,8.39,3.57,8.53,8.17h0Z" style="fill: #ede3d1;"/>
          <g id="right_piercing-2" data-name="right piercing">
            <path d="M111.42,73.38h1.75v.42h-1.7c-.09,0-.18-.06-.2-.15-.03-.11.04-.23.15-.26h0Z" style="fill: #d4dde8;"/>
            <circle cx="113.18" cy="73.54" r=".59" style="fill: #d4dde8;"/>
            <path d="M112.57,73.37h.06c-.02.05-.03.11-.03.17,0,.09.02.17.06.25h-.06c-.04-.08-.06-.16-.06-.25,0-.06.02-.12.03-.17Z" style="fill: #cfd8e5;"/>
          </g>
        </g>
        <path id="neck-2" data-name="neck" d="M80.09,139.04c3.3,0,6.18-.5,8.69-1.32v-9.87h.03v-13.63c.17-5.13-3.85-9.43-8.99-9.6-5.13-.17-9.43,3.85-9.6,8.99v14.73h-.01v9.06c2.79,1,6.05,1.64,9.87,1.64h0Z" style="fill: #ede3d1;"/>
        <path id="neck_shadow-2" data-name="neck shadow" d="M70.22,107.37h18.56v14.43s-10.59,5.59-18.56,0v-14.43Z" style="fill: #efceb9;"/>
        <rect id="head-2" data-name="head" x="48.21" y="32.64" width="62.05" height="81.16" rx="26.3" ry="26.3" style="fill: #ede3d1;"/>
        <path id="right_eyebrow-2" data-name="right eyebrow" d="M95.34,63.65c-1.23-.72-2.61-1.14-4.03-1.23-1.46-.02-2.9.28-4.22.88" style="stroke: #b5aa9a; stroke-linecap: round; stroke-linejoin: round;"/>
        <path id="left_eyebrow-2" data-name="left eyebrow" d="M71.53,64.06c-1.25-.66-2.62-1.05-4.03-1.12-1.45-.03-2.89.23-4.23.77" style="stroke: #b5aa9a; stroke-linecap: round; stroke-linejoin: round;"/>
        <path id="mouth-2" data-name="mouth" d="M74.28,95.28s5.48,2.87,10.32.17" style="stroke: #b5aa9a; stroke-linecap: round; stroke-linejoin: round;"/>
        <line id="left_eye2-2" data-name="left eye2" x1="64.15" y1="72.09" x2="69.65" y2="72.09" style="fill: none; stroke: rgba(59, 71, 54, 0); stroke-linecap: round;"/>
        <line id="right_eye2-2" data-name="right eye2" x1="88.54" y1="72.09" x2="94.04" y2="72.09" style="fill: none; stroke: rgba(59, 71, 54, 0); stroke-linecap: round;"/>
        <path id="left_eye-2" data-name="left eye" d="M63.83,72.09c-.07,2.1,1.26,3.83,2.96,3.88s3.13-1.6,3.19-3.7-1.26-3.83-2.96-3.88-3.13,1.6-3.19,3.7Z" style="fill: #3b4736;"/>
        <path id="right_eye-2" data-name="right eye" d="M88.22,72.09c-.07,2.1,1.26,3.83,2.96,3.88s3.13-1.6,3.19-3.7-1.26-3.83-2.96-3.88-3.13,1.6-3.19,3.7Z" style="fill: #3b4736;"/>
        <path id="nose-2" data-name="nose" d="M76.85,82.93s3.12,1.56,5.83,0" style="stroke: #b5aa9a; stroke-linecap: round; stroke-linejoin: round;"/>
        <g id="shirt-2" data-name="shirt">
          <g>
            <path d="M80.81,154.95c2.6-.07,5.26-.21,7.97-.44v-.24l-7.97.68h0Z" style="fill: #a51204; stroke: #000; stroke-miterlimit: 10;"/>
            <path d="M98.95,131.37c-3.18-1.88-6.61-3.1-10.17-3.52v9.87c-2.51.82-5.39,1.32-8.69,1.32-3.82,0-7.08-.64-9.87-1.64v-9.35c-3.39.39-6.66,1.49-9.72,3.17-2.18,1.2-4.25,2.69-6.17,4.44-4.37,3.98-7.97,9.26-10.39,15.33,10.3,2.52,22.78,4.32,36.88,3.95l7.97-.68v.24c.68-.06,1.36-.1,2.05-.17,7.9-.78,15.76-2.39,23.37-4.71-2.18-5.1-5.19-9.61-8.77-13.19-2-2-4.17-3.7-6.48-5.07h-.01Z" style="fill: #a51204; stroke: #000; stroke-miterlimit: 10;"/>
          </g>
          <g>
            <path d="M80.81,154.95c2.6-.07,5.26-.21,7.97-.44v-.24l-7.97.68h0Z" style="fill: #a51204; stroke: #000; stroke-miterlimit: 10;"/>
            <path d="M98.95,131.37c-3.18-1.88-6.61-3.1-10.17-3.52v9.87c-2.51.82-5.39,1.32-8.69,1.32-3.82,0-7.08-.64-9.87-1.64v-9.35c-3.39.39-6.66,1.49-9.72,3.17-2.18,1.2-4.25,2.69-6.17,4.44-4.37,3.98-7.97,9.26-10.39,15.33,10.3,2.52,22.78,4.32,36.88,3.95l7.97-.44h0c.68-.06,1.36-.1,2.05-.17,7.9-.78,15.76-2.39,23.37-4.71-2.18-5.1-5.19-9.61-8.77-13.19-2-2-4.17-3.7-6.48-5.07h-.01Z" style="fill: #a51204; stroke: #000; stroke-miterlimit: 10;"/>
          </g>
          <g>
            <rect x="90.68" y="140.12" width="6.84" height="6.84" style="fill: #a51204;"/>
            <path d="M69.72,133.28v-4.66c-2.16.3-4.3.92-6.4,1.81v2.85h6.4Z" style="fill: #a51204;"/>
            <path d="M90.68,146.96h-6.84v7.22l5.45-.47v.24h.16c.44-.04.89-.08,1.34-.12.1,0,.2-.02.3-.03h-.4v-6.84h0Z" style="fill: #a51204;"/>
            <rect x="63.32" y="140.12" width="6.84" height="6.84" style="fill: #a51204;"/>
            <path d="M77,140.12v6.84h6.84v-6.84h6.84v-6.84h6.84v-2.13c-2.67-1.41-5.43-2.33-8.23-2.73v9.66l-.35.11c-2.74.89-5.71,1.34-8.85,1.34-3.54,0-6.88-.55-9.93-1.63v2.21h6.84Z" style="fill: #a51204;"/>
            <path d="M46.36,146.96c-.63,1.19-1.21,2.42-1.73,3.68,1.66.4,3.34.76,5.01,1.1v-4.78h-3.28Z" style="fill: #a51204;"/>
            <path d="M104.36,146.96h6.84v3.01c.77-.22,1.54-.43,2.31-.66-1.48-3.35-3.35-6.45-5.5-9.19h-3.65v6.84h0Z" style="fill: #a51204;"/>
            <path d="M63.32,140.12v-6.84h-5.17c-.57.39-1.13.8-1.67,1.23v5.61s6.84,0,6.84,0Z" style="fill: #a51204;"/>
            <path d="M97.52,140.12h6.84v-4c-1.1-1.04-2.25-1.99-3.43-2.84h-3.41v6.84Z" style="fill: #a51204;"/>
            <path d="M97.52,146.96v6c2.28-.36,4.56-.79,6.84-1.29v-4.71h-6.84Z" style="fill: #a51204;"/>
            <path d="M56.48,146.96v-6.84h-5.64c-.41.51-.81,1.03-1.21,1.57v5.27h6.85Z" style="fill: #a51204;"/>
            <path d="M70.16,146.96v7.34c2.28.11,4.56.18,6.84.18v-7.52h-6.84Z" style="fill: #a51204;"/>
            <path d="M56.48,146.96v5.98c2.27.34,4.55.63,6.84.86v-6.84h-6.84Z" style="fill: #a51204;"/>
            <polygon points="83.84 154.18 83.84 154.27 89.29 153.96 89.29 153.71 83.84 154.18" style="fill: #a51204;"/>
            <path d="M109.95,141.89s.02.03.04.05c-.01-.02-.02-.03-.04-.05Z"/>
            <rect x="90.68" y="133.28" width="6.84" height="6.84" style="fill: #a51204;"/>
            <rect x="90.68" y="133.28" width="6.84" height="6.84" style="fill: #4f0600; isolation: isolate; mix-blend-mode: multiply;"/>
            <path d="M104.36,136.12v4h3.65c-.93-1.18-1.91-2.3-2.94-3.33-.23-.23-.48-.45-.72-.67h.01Z" style="fill: #a51204;"/>
            <path d="M104.36,136.12v4h3.65c-.93-1.18-1.91-2.3-2.94-3.33-.23-.23-.48-.45-.72-.67h.01Z" style="fill: #4f0600; isolation: isolate; mix-blend-mode: multiply;"/>
            <path d="M107.03,138.15c.05.06.11.12.16.19-.05-.06-.11-.12-.16-.19Z"/>
            <path d="M104.36,146.96v4.71c2.28-.5,4.57-1.07,6.84-1.7v-3.01h-6.84Z" style="fill: #a51204;"/>
            <path d="M104.36,146.96v4.71c2.28-.5,4.57-1.07,6.84-1.7v-3.01h-6.84Z" style="fill: #4f0600; isolation: isolate; mix-blend-mode: multiply;"/>
            <path d="M90.68,146.96v6.84h.4c2.14-.22,4.29-.5,6.44-.84v-6h-6.84Z" style="fill: #a51204;"/>
            <path d="M90.68,146.96v6.84h.4c2.14-.22,4.29-.5,6.44-.84v-6h-6.84Z" style="fill: #4f0600; isolation: isolate; mix-blend-mode: multiply;"/>
            <path d="M49.64,146.96v4.78c2.27.46,4.55.85,6.84,1.19v-5.98h-6.84Z" style="fill: #a51204;"/>
            <path d="M49.64,146.96v4.78c2.27.46,4.55.85,6.84,1.19v-5.98h-6.84Z" style="fill: #4f0600; isolation: isolate; mix-blend-mode: multiply;"/>
            <path d="M63.32,130.43c-.87.37-1.73.77-2.58,1.24-.88.48-1.74,1.03-2.59,1.61h5.17v-2.85Z" style="fill: #4f0600;"/>
            <path d="M58.83,132.21s.02,0,.03-.02c0,0-.02,0-.03.02Z" style="fill: #4f0600;"/>
            <path d="M56.48,134.51c-.61.48-1.22.99-1.81,1.52-1.36,1.24-2.63,2.61-3.82,4.08h5.64v-5.61h0Z" style="fill: #a51204;"/>
            <path d="M56.48,134.51c-.61.48-1.22.99-1.81,1.52-1.36,1.24-2.63,2.61-3.82,4.08h5.64v-5.61h0Z" style="fill: #4f0600; isolation: isolate; mix-blend-mode: multiply;"/>
            <path d="M63.32,140.12h6.84v-2.21s-.07-.02-.11-.03l-.33-.12v-4.48h-6.4v6.84Z" style="fill: #a51204;"/>
            <path d="M63.32,140.12h6.84v-2.21s-.07-.02-.11-.03l-.33-.12v-4.48h-6.4v6.84Z" style="fill: #4f0600; isolation: isolate; mix-blend-mode: multiply;"/>
            <path d="M63.32,146.96v6.84c2.27.23,4.56.39,6.84.51v-7.34h-6.84Z" style="fill: #a51204;"/>
            <path d="M63.32,146.96v6.84c2.27.23,4.56.39,6.84.51v-7.34h-6.84Z" style="fill: #4f0600; isolation: isolate; mix-blend-mode: multiply;"/>
            <path d="M83.84,146.96h-6.84v7.52c1.26,0,2.53,0,3.79-.04l3.05-.26v-7.22h0Z" style="fill: #a51204;"/>
            <path d="M83.84,146.96h-6.84v7.52c1.26,0,2.53,0,3.79-.04l3.05-.26v-7.22h0Z" style="fill: #4f0600; isolation: isolate; mix-blend-mode: multiply;"/>
            <path d="M49.64,141.69c-1.2,1.65-2.3,3.41-3.28,5.27h3.28v-5.27Z" style="fill: #4f0600;"/>
            <rect x="56.48" y="140.12" width="6.84" height="6.84" style="fill: #4f0600;"/>
            <rect x="70.16" y="140.12" width="6.84" height="6.84" style="fill: #4f0600;"/>
            <rect x="83.84" y="140.12" width="6.84" height="6.84" style="fill: #4f0600;"/>
            <rect x="97.52" y="140.12" width="6.84" height="6.84" style="fill: #4f0600;"/>
            <path d="M100.93,133.28c-.73-.53-1.47-1.03-2.23-1.47-.39-.23-.78-.45-1.18-.66v2.13h3.41Z" style="fill: #4f0600;"/>
          </g>
          <g>
            <polygon points="69.7 124.67 79.33 139.59 73.44 145.49 65.19 132.52 69.7 124.67" style="fill: #a51204; stroke: #000; stroke-miterlimit: 10;"/>
            <polygon points="67.95 135.93 71.24 141.1 76.83 136.65 72.71 130.26 67.95 135.93" style="fill: #4f0600;"/>
          </g>
          <g>
            <polygon points="89.07 124.67 79.44 139.59 85.33 145.49 93.58 132.52 89.07 124.67" style="fill: #a51204; stroke: #000; stroke-miterlimit: 10;"/>
            <polygon points="86.06 130.26 81.94 136.65 87.52 141.1 90.82 135.93 86.06 130.26" style="fill: #4f0600;"/>
          </g>
          <line x1="79.33" y1="139.59" x2="79.33" y2="154.95" style="fill: none; stroke: #000; stroke-miterlimit: 10;"/>
        </g>
        <g id="beard-2" data-name="beard">
          <path d="M91.04,89.61c-1.83-2.04-6.05-4.43-7.05-4.49s-4.89-.66-7.76,0-6.01,1.58-7.05,2.9-2.32,11.75-1.79,14c0,0,1.13-6.51,3.93-7.44h0s.28-2.22.54-2.52c-.1.78-.11,1.58-.04,2.36,1.01-.3,2.04-.54,3.09-.7-.08-.95-.05-1.91.09-2.85,0,.94.08,1.88.2,2.81.75-.11,1.57-.21,2.45-.27h0s.07-.99.23-1.93c0,0,.11,1.17.23,1.9.67-.04,1.37-.07,2.11-.07,1.14-.01,2.29.04,3.42.16-.02-.76,0-2.4-.08-2.59s.4.72.58,2.64c1.13.13,2.24.36,3.32.67.09-.83.15-2.08-.11-2.77,0,0,.79,1.76.71,2.96h0c3.14,1.05,4.27,7.63,4.27,7.63,0,0,.55-10.37-1.3-12.41h.01Z" style="fill: #72662a;"/>
          <path d="M80.56,100.17l.12-1.98h-.18v-.1l-1.42.05-1.42-.05v.09h-.18l.12,1.99c-15.63,10.94-29.38-34.77-29.38-34.77l-.55,21.92c0,2.97.49,5.83,1.39,8.49,2.22,10.9,13.5,18.13,25.24,18.13h9.58c11.73,0,23.01-7.24,25.24-18.13.9-2.67,1.39-5.52,1.39-8.49l-.23-21.94s-14.07,45.73-29.71,34.79h-.01Z" style="fill: #72662a;"/>
        </g>
      </g>
      <g id="xray">
        <g id="helmet-shadow">
          <g style="clip-path: url(#clippath);">
            <path d="M78.73,25.26c20.6,0,37.8,14.51,41.96,33.86.37.14.64.28.79.43-1.94-21.91-20.33-39.1-42.75-39.1s-40.81,17.19-42.75,39.1c.16-.15.43-.29.79-.43,4.16-19.35,21.36-33.86,41.96-33.86Z" style="fill: #7d8589;"/>
            <path d="M78.73,56.35c-20.6,0-37.8,1.19-41.96,2.77-.37,1.71-.64,3.46-.79,5.24,1.94-1.79,20.33-3.2,42.75-3.2s40.81,1.41,42.75,3.2c-.16-1.78-.43-3.53-.79-5.24-4.16-1.59-21.36-2.77-41.96-2.77Z" style="fill: #efceb9;"/>
          </g>
        </g>
        <g id="helmet">
          <g id="helmet-front">
            <path d="M78.73,56.35c22.42,0,40.81,1.41,42.75,3.2-1.94-21.91-20.33-39.1-42.75-39.1s-40.81,17.19-42.75,39.1c1.94-1.79,20.33-3.2,42.75-3.2Z" style="fill: #7d8589;"/>
            <path d="M78.73,50.27c-20.1,0-36.96,1.13-41.63,2.66-.54,2.15-.92,4.35-1.12,6.62,1.94-1.79,20.33-3.2,42.75-3.2s40.81,1.41,42.75,3.2c-.2-2.26-.58-4.47-1.12-6.62-4.67-1.53-21.52-2.66-41.63-2.66Z" style="fill: #c0bec2;"/>
          </g>
          <g id="helmet-icon">
            <path d="M83.43,33.14c-1.28-1.26-2.97-1.94-4.76-1.93h0c-1.79.02-3.47.73-4.72,2-1.26,1.28-1.94,2.97-1.93,4.76.02,1.79.73,3.47,2,4.72,1.28,1.25,2.96,1.94,4.76,1.92h0c3.69-.03,6.67-3.06,6.64-6.76-.02-1.79-.73-3.47-2-4.72h0ZM78.77,42.58h0c-1.24.01-2.42-.46-3.31-1.34-.89-.87-1.38-2.04-1.39-3.28s.46-2.42,1.34-3.31c.87-.89,2.04-1.38,3.28-1.39h0c1.24-.01,2.42.46,3.31,1.34.89.87,1.38,2.04,1.39,3.28.02,2.57-2.05,4.68-4.62,4.7h0Z" style="fill: #7ae3fc;"/>
            <polygon points="81.71 36.39 80.26 34.94 78.73 36.47 77.19 34.94 75.75 36.39 77.28 37.92 77.28 37.92 76.83 38.37 75.75 39.46 77.19 40.9 78.16 39.94 78.16 39.94 78.73 39.37 80.26 40.9 81.71 39.46 80.18 37.92 81.71 36.39" style="fill: #7ae3fc;"/>
          </g>
          <path id="tube" d="M75.21-.91v24.02c0,1.26,1.57,2.27,3.51,2.27s3.51-1.02,3.51-2.27V-.91h-7.02Z" style="fill: #c0bec2;"/>
          <circle id="tube-ball" cx="78.73" cy="21.87" r="3.51" style="fill: #c0bec2;"/>
        </g>
        <path id="silhouette" d="M110.77,81.67c4.57.07,8.33-3.56,8.41-8.13-.14-4.6-3.93-8.23-8.53-8.17h-.06c-.1,0-.21,0-.31.01h0s0,0,0,0c0,0-.01,0-.02,0v-6.44c0-14.53-11.77-26.3-26.3-26.3h-9.45c-14.53,0-26.3,11.77-26.3,26.3v6.47c-.58-.12-1.19-.19-1.81-.18h-.2c-4.62-.07-8.43,3.59-8.55,8.21.08,4.57,3.85,8.21,8.42,8.13h.13c.55.01,1.09-.04,1.62-.13l-.15,5.88c0,2.97.49,5.83,1.39,8.49,1.96,9.63,10.99,16.38,21.16,17.83v11.84l-.52-.81-2.22,3.86c-2.42.56-4.76,1.47-6.98,2.69-2.18,1.2-4.25,2.69-6.17,4.44-4.37,3.98-7.97,9.26-10.39,15.33,10.3,2.52,22.78,4.32,36.88,3.95l.3-.02-.31.03h0c2.6-.07,5.26-.21,7.97-.44h0s0-.01,0-.01c.68-.06,1.36-.1,2.05-.17,1.97-.2,3.95-.44,5.91-.74s3.93-.64,5.88-1.04c3.9-.79,7.77-1.77,11.58-2.93-2.18-5.1-5.19-9.61-8.77-13.19-2-2-4.17-3.7-6.48-5.07h-.01c-2.47-1.45-5.1-2.51-7.82-3.11l-2.06-3.58-.26.4v-10.85c0-.24,0-.48-.01-.72,9.82-1.7,18.41-8.34,20.32-17.69.9-2.67,1.39-5.52,1.39-8.49l-.06-5.66c.1,0,.19.01.29,0h.03Z" style="fill: #444;"/>
        <g id="skelleton">
          <g style="clip-path: url(#clippath-1);">
            <path id="skelleton-2" data-name="skelleton" d="M59.78,133.67c1.07-.55,3.54.22,4.28,1.14,1.13,1.41-1.44,9.86-1.95,12.18-2.48,11.37-6.85,20.93-7.72,32.77l-1.12-.11-5.11-.93-1.38-.09c.33-1.43.47-2.92.84-4.33l.04-.27.11-.26c2.24-8.53,5.69-16.82,8.32-25.16,1.19-3.78,1.15-9.81,2.27-12.99.31-.87.5-1.49,1.41-1.95ZM94.59,136.3c-.05.82,2.39,10.44,2.81,12.18.8,3.29,1.12,6.49,3.04,9.74l.11.26.08.26c2.75,7.03,3.37,13.22,3.96,20.59.42-.37.92-.16,1.31-.19,1.8-.13,3.6-.31,5.4-.45l1.19-.23c-.25-1.07-.35-2.2-.64-3.26l-.04-.27-.11-.25c-2.04-7.43-4.1-15.59-7.49-22.31l-.16-.23c-2.21-4.3-1.66-13.14-3.18-16.91-.58-1.43-1.35-1.76-2.81-1.73-1.68.03-3.35.96-3.46,2.81ZM48,84.88c2.37,12.23,10.75,8.78,14.66,13.71,2.58,3.25-.13,8.03,3.5,10.02,1.01.56,20.99.71,23.17.38.16-.02.32.03.47,0,8.11-1.44,2.42-6.48,6.34-10.88,4.79-5.39,13.26-.08,14.47-15.6,2.02-25.97-7.64-48.5-36.41-45.33-22.64,2.5-30.11,27.47-26.2,47.7ZM64.61,78.33c10.59,6.02,15.42-15.83,3.03-14.49-6.59.71-8.59,11.34-3.03,14.49ZM93.1,78.66c7.38-3.29,3.96-15.48-4.04-14.83-9.78.79-5.56,19.12,4.04,14.83ZM77,84.08c.35,2.08,4.29,2.04,5.26.28-.03-1.69-1.11-5.78-3.46-4.84-.51.2-1.91,3.91-1.8,4.57ZM76.66,115.17c.17,9.18-.33,42.04-.01,51.2,0,.07,0,.14,0,.22.05,1.35-.28,5.09.47,6.04.96,1.23,3.53,1.32,4.44,0,1.57-2.29-.04-13.85.45-17.11v-.22c-.02-1.82-.03-3.64-.03-5.46v-.22c0-3.6,0-30.84.2-34.44h-5.52ZM65.91,143.46h26.33M68.18,135.48h22.14M72.41,126.89h15.37" style="fill: none; stroke: #3acffc; stroke-miterlimit: 10; stroke-width: 1.43px;"/>
          </g>
        </g>
      </g>
      <g id="sparks">
        <polygon id="spark-r3" points="125.14 74.16 127.66 73.07 128.86 65.45 126.32 66.43 127.11 60.69 123.89 68.97 126.22 67.96 125.14 74.16" style="fill: #7ae3fc;"/>
        <polygon id="spark-r2" points="141.81 58.84 140.54 56.4 132.86 55.76 134.02 58.22 128.23 57.84 136.72 60.46 135.55 58.21 141.81 58.84" style="fill: #7ae3fc;"/>
        <polygon id="spark-r1" points="127.35 43.25 124.83 44.34 123.64 51.95 126.17 50.98 125.38 56.72 128.6 48.44 126.27 49.45 127.35 43.25" style="fill: #7ae3fc;"/>
        <polygon id="spark-l3" points="32.47 74.16 29.95 73.07 28.76 65.45 31.3 66.43 30.5 60.69 33.72 68.97 31.39 67.96 32.47 74.16" style="fill: #7ae3fc;"/>
        <polygon id="spark-l2" points="15.8 58.84 17.08 56.4 24.75 55.76 23.6 58.22 29.38 57.84 20.89 60.46 22.07 58.21 15.8 58.84" style="fill: #7ae3fc;"/>
        <polygon id="spark-l1" points="30.26 43.25 32.79 44.34 33.98 51.95 31.44 50.98 32.23 56.72 29.01 48.44 31.34 49.45 30.26 43.25" style="fill: #7ae3fc;"/>
      </g>
    </g>
  </g>
</svg>