<svg width="320" height="31" viewBox="0 0 320 31" fill="none" xmlns="http://www.w3.org/2000/svg">
<g clip-path="url(#clip0_197_2686)">
<path d="M29.0766 15.82C29.4124 15.47 29.4124 14.9 29.0667 14.56L15.6149 1.18C15.447 1.01 15.2297 0.919998 14.9926 0.929998C14.7556 0.929998 14.5383 1.03 14.3704 1.2C14.3605 1.2 1.15559 14.82 1.15559 14.82C0.987693 14.99 0.898804 15.21 0.898804 15.45C0.898804 15.69 0.997569 15.91 1.16547 16.08L14.6173 29.46C14.7852 29.63 15.0025 29.72 15.2395 29.72C15.4766 29.72 15.6939 29.62 15.8618 29.45L29.0766 15.82ZM14.2914 25.65L4.93831 16.35C4.43461 15.84 4.42473 15.01 4.91856 14.5L14.0939 5.03C14.5976 4.51 15.4173 4.51 15.921 5.01L25.2741 14.31C25.521 14.55 25.6593 14.88 25.6593 15.23C25.6593 15.58 25.5309 15.91 25.284 16.16L16.1087 25.63C15.6247 26.15 14.805 26.16 14.2914 25.65Z" fill="white"/>
<path d="M29.6988 13.9C29.6988 13.9 16.237 0.52 16.2469 0.52C15.9111 0.18 15.4568 0 14.9827 0C14.5086 0 14.0543 0.2 13.7284 0.54L0.51358 14.18C0.177778 14.52 0 14.97 0 15.46C0 15.95 0.197531 16.39 0.533333 16.73L13.9852 30.11C14.321 30.45 14.7753 30.63 15.2494 30.63C15.7235 30.63 16.1778 30.43 16.5037 30.09L29.7086 16.46C30.4099 15.75 30.4 14.6 29.7086 13.9M14.6272 29.46L1.16543 16.08C0.997531 15.91 0.898765 15.69 0.898765 15.45C0.898765 15.21 0.987654 14.99 1.14568 14.82L14.3506 1.19C14.5185 1.02 14.7358 0.92 14.9728 0.92C15.2099 0.92 15.4272 1.01 15.5951 1.17C15.5951 1.17 29.0568 14.55 29.0469 14.55C29.3926 14.9 29.4025 15.46 29.0568 15.81L15.8716 29.44C15.7037 29.61 15.4864 29.7 15.2494 29.71C15.0123 29.71 14.7852 29.62 14.6173 29.46" fill="black"/>
<path d="M24.7803 15.64C24.8889 15.53 24.9383 15.39 24.9383 15.24C24.9383 15.09 24.8791 14.95 24.7704 14.84L15.4173 5.54C15.2001 5.32 14.8445 5.33 14.6272 5.55L5.45191 15.02C5.23463 15.25 5.23463 15.61 5.46179 15.82L14.8149 25.12C15.0322 25.34 15.3877 25.33 15.605 25.11C15.5951 25.11 24.7803 15.64 24.7803 15.64ZM19.1803 10.8L19.3778 11.01L18.1828 12.17L17.9754 11.96L19.1803 10.8ZM17.5704 9.53L17.8272 9.67L16.968 11.29L16.7112 11.15L17.5704 9.53ZM14.7951 8.44H15.0914V10.74H14.7951V8.44ZM12.3161 9.57L13.3136 11.11L13.0667 11.27L12.0692 9.73L12.3161 9.57ZM10.8247 11.07L10.9136 10.95L12.2173 12L12.0297 12.23L10.726 11.18L10.8247 11.07ZM15.1902 21.41C13.1161 21.41 11.3482 20.28 11.3482 19.36V19.27C11.3383 18.94 11.3087 18.17 11.8618 18.07L12.3852 14.06C12.405 12.9 13.6198 11.96 15.121 11.96C16.6223 11.96 17.8371 12.9 17.8568 14.06L18.3902 18.1C19.0223 18.21 19.0223 19.03 19.0223 19.35V19.38C19.0124 20.3 17.2544 21.41 15.1902 21.41Z" fill="#FBBA00"/>
<path d="M25.3038 16.17C25.5507 15.92 25.6791 15.59 25.6791 15.24C25.6791 14.89 25.5408 14.56 25.2939 14.32L15.9408 5.02C15.4371 4.51 14.6173 4.52 14.1136 5.04L4.93834 14.51C4.43463 15.03 4.44451 15.86 4.95809 16.36L14.3112 25.66C14.8149 26.16 15.6445 26.16 16.1383 25.64C16.1186 25.64 25.3038 16.17 25.3038 16.17ZM14.805 25.12L5.45192 15.82C5.23463 15.6 5.22476 15.24 5.44204 15.02L14.6173 5.55C14.8346 5.33 15.1902 5.32 15.4075 5.54L24.7606 14.84C24.8692 14.95 24.9285 15.09 24.9285 15.24C24.9285 15.39 24.8692 15.53 24.7704 15.64L15.5852 25.11C15.3877 25.34 15.0322 25.34 14.805 25.11" fill="black"/>
<path d="M15.1112 19.61C16.0297 19.61 16.8297 19.43 17.3729 19.14C17.1655 19.23 16.9976 14.54 16.9581 13.93C16.9186 13.32 16.2173 12.67 15.9408 12.53C15.9408 12.53 16.0791 12.55 16.2667 12.62C15.9309 12.48 15.5457 12.4 15.1309 12.4C13.8568 12.4 12.8198 13.16 12.8198 14.1V14.12L12.2568 18.47C12.6025 19.01 13.6988 19.61 15.1112 19.61ZM13.2544 14.49C13.284 14.01 13.926 13.6 13.926 13.6C13.8272 14 13.847 14.55 13.847 14.55L13.7482 18.22C12.9284 18.19 12.8297 17.9 12.8297 17.9C12.8297 17.9 13.2247 14.97 13.2544 14.49Z" fill="#3FA535"/>
<path d="M17.8371 18.78L17.7778 18.84C17.7778 18.84 17.8272 18.8 17.8371 18.78Z" fill="#3FA535"/>
<path d="M17.926 18.68C17.926 18.68 17.8963 18.72 17.8766 18.74C17.8963 18.72 17.9062 18.7 17.926 18.68Z" fill="#3FA535"/>
<path d="M18.558 19.36C18.558 19.13 18.5481 18.85 18.4493 18.69C18.0641 19.54 16.7802 20.08 15.1111 20.08C13.5802 20.08 12.2962 19.41 11.8419 18.7C11.8123 18.81 11.8024 18.98 11.8123 19.27V19.37C11.8123 19.9 13.274 20.95 15.2 20.95C17.1259 20.95 18.5679 19.92 18.5679 19.38V19.36H18.558Z" fill="#DADADA"/>
<path d="M19.0123 19.38V19.35C19.0123 19.04 19.0123 18.21 18.3802 18.1L17.8469 14.06C17.8272 12.9 16.6123 11.96 15.1111 11.96C13.6099 11.96 12.3951 12.9 12.3753 14.06L11.8518 18.06C11.2988 18.16 11.3284 18.93 11.3383 19.26V19.35C11.3383 20.27 13.116 21.4 15.1802 21.4C17.2543 21.41 19.0123 20.3 19.0123 19.38ZM15.1901 20.95C13.2642 20.95 11.8025 19.89 11.8025 19.37V19.27C11.7926 18.98 11.8123 18.81 11.8321 18.7C12.2864 19.42 13.5704 20.08 15.1012 20.08C16.7704 20.08 18.0543 19.53 18.4395 18.68C18.5284 18.84 18.5481 19.12 18.5481 19.35V19.38C18.558 19.92 17.1358 20.95 15.1901 20.95ZM12.8 14.11C12.8 13.16 13.837 12.4 15.1111 12.4C15.5259 12.4 15.9111 12.48 16.2469 12.62C16.6321 12.76 17.2444 13.1 17.4617 13.92C17.5506 14.24 17.9951 18.56 17.9951 18.56C17.9951 18.56 17.9654 18.61 17.9062 18.69C17.8864 18.71 17.8765 18.73 17.8568 18.75C17.8469 18.76 17.837 18.77 17.8272 18.79L17.7679 18.85C17.6691 18.95 17.5309 19.06 17.3531 19.15C16.8099 19.45 16.0198 19.63 15.0914 19.63C13.679 19.63 12.5827 19.02 12.2173 18.49L12.7802 14.14L12.8 14.11Z" fill="black"/>
<path d="M13.7481 18.22L13.8469 14.55C13.8469 14.55 13.8271 14 13.9259 13.6C13.9259 13.6 13.2839 14.01 13.2543 14.49C13.2247 14.97 12.8296 17.9 12.8296 17.9C12.8296 17.9 12.9284 18.19 13.7481 18.22Z" fill="white"/>
<path d="M15.0913 8.44H14.795V10.74H15.0913V8.44Z" fill="black"/>
<path d="M17.5675 9.53239L16.7134 11.1452L16.9745 11.2869L17.8286 9.67415L17.5675 9.53239Z" fill="black"/>
<path d="M19.1868 10.8012L17.988 11.9627L18.1929 12.1794L19.3917 11.0179L19.1868 10.8012Z" fill="black"/>
<path d="M12.3267 9.57211L12.0793 9.73721L13.0795 11.2735L13.3269 11.1084L12.3267 9.57211Z" fill="black"/>
<path d="M12.0297 12.24L12.2173 12.01L10.9136 10.95L10.8247 11.07L10.7358 11.19L12.0297 12.24Z" fill="black"/>
<path d="M16.9482 13.93C16.9877 14.54 17.1556 19.23 17.363 19.14C17.5408 19.05 17.6791 18.94 17.7778 18.84L17.8371 18.78C17.8371 18.78 17.8568 18.75 17.8667 18.74C17.8865 18.72 17.9062 18.7 17.9161 18.68C17.9754 18.6 18.005 18.55 18.005 18.55C18.005 18.55 17.5507 14.23 17.4717 13.91C17.2544 13.09 16.6321 12.75 16.2568 12.61C16.0692 12.54 15.9309 12.52 15.9309 12.52C16.2075 12.67 16.9087 13.32 16.9482 13.93Z" fill="#306F32"/>
<path d="M35.0123 13.86H38.2321C41.6395 13.86 44.4148 17.24 44.4148 21.43C44.4148 25.62 41.6296 28.98 38.2321 28.98H35.0123V13.86ZM37.2938 26.45H38.2222C40.2271 26.45 41.8666 24.19 41.8666 21.42C41.8666 18.65 40.2173 16.37 38.2222 16.37H37.2938V26.45Z" fill="white"/>
<path d="M51.6049 17.46C53.9259 17.46 55.2198 20.11 55.2198 23.32C55.2198 26.53 53.9259 29.16 51.6049 29.16C49.284 29.16 48 26.53 48 23.32C48.0099 20.11 49.2938 17.46 51.6049 17.46ZM51.6049 27.27C52.7605 27.27 53.4025 25.47 53.4025 23.31C53.4025 21.15 52.7704 19.34 51.6049 19.34C50.4395 19.34 49.8272 21.14 49.8272 23.31C49.8272 25.48 50.4691 27.27 51.6049 27.27Z" fill="white"/>
<path d="M63.8123 17.64H65.363V28.97H64.0691L60.0395 21.74V28.97H58.4889V17.64H59.7728L63.8222 24.88V17.64H63.8123Z" fill="white"/>
<path d="M74.1235 17.64H75.6642V28.97H74.3704L70.3408 21.74V28.97H68.7902V17.64H70.0741L74.1235 24.88V17.64Z" fill="white"/>
<path d="M82.5284 17.46C84.8494 17.46 86.1432 20.11 86.1432 23.32C86.1432 26.53 84.8494 29.16 82.5284 29.16C80.2074 29.16 78.9235 26.53 78.9235 23.32C78.9235 20.11 80.2074 17.46 82.5284 17.46ZM82.5284 27.27C83.6839 27.27 84.3259 25.47 84.3259 23.31C84.3259 21.15 83.6938 19.34 82.5284 19.34C81.363 19.34 80.7506 21.14 80.7506 23.31C80.7506 25.47 81.3827 27.27 82.5284 27.27Z" fill="white"/>
<path d="M94.7358 17.64H96.2864V28.97H94.9926L90.963 21.74V28.97H89.4222V17.64H90.7062L94.7556 24.88V17.64H94.7358Z" fill="white"/>
<path d="M102.074 29.16C100.958 29.16 100.128 28.77 99.1704 27.95L99.3679 26.27C100.405 26.88 101.254 27.27 102.133 27.27C102.904 27.27 103.891 26.81 103.891 25.89C103.891 23.73 99.0222 24.57 99.0222 20.78C99.0222 18.81 100.602 17.45 102.42 17.45C103.575 17.45 104.365 17.89 105.432 18.81L104.889 20.31C104.158 19.78 103.299 19.33 102.479 19.33C101.442 19.33 100.81 19.94 100.81 20.62C100.81 22.64 105.689 22.13 105.689 25.61C105.709 27.93 103.931 29.16 102.074 29.16Z" fill="white"/>
<path d="M123.072 21.43C123.072 23.5 121.531 25.2 119.644 25.2H117.57V28.97H115.852V17.64H119.635C121.531 17.64 123.072 19.34 123.072 21.43ZM121.363 21.43C121.363 20.38 120.593 19.53 119.644 19.53H117.57V23.32H119.644C120.583 23.31 121.363 22.47 121.363 21.43Z" fill="white"/>
<path d="M133.719 28.97H131.615L129.146 25.2H127.881V28.97H126.163V17.64H129.422C131.309 17.64 132.849 19.34 132.849 21.43C132.849 22.87 132.109 24.16 130.983 24.78L133.719 28.97ZM131.141 21.43C131.141 20.38 130.37 19.53 129.422 19.53H127.872V23.32H129.422C130.37 23.31 131.141 22.47 131.141 21.43Z" fill="white"/>
<path d="M138.193 19.53H136.474V17.64H141.62V19.53H139.901V27.09H141.62V28.98H136.474V27.09H138.193V19.53Z" fill="white"/>
<path d="M148.494 17.46C150.815 17.46 152.109 20.11 152.109 23.32C152.109 26.53 150.815 29.16 148.494 29.16C146.173 29.16 144.889 26.53 144.889 23.32C144.889 20.11 146.173 17.46 148.494 17.46ZM148.494 27.27C149.649 27.27 150.291 25.47 150.291 23.31C150.291 21.15 149.659 19.34 148.494 19.34C147.328 19.34 146.716 21.14 146.716 23.31C146.716 25.48 147.348 27.27 148.494 27.27Z" fill="white"/>
<path d="M162.923 28.97H160.82L158.341 25.2H157.077V28.97H155.358V17.64H158.617C160.504 17.64 162.054 19.34 162.054 21.43C162.054 22.87 161.314 24.16 160.188 24.78L162.923 28.97ZM160.346 21.43C160.346 20.38 159.575 19.53 158.627 19.53H157.086V23.32H158.627C159.575 23.31 160.346 22.47 160.346 21.43Z" fill="white"/>
<path d="M167.397 19.53H165.679V17.64H170.825V19.53H169.106V27.09H170.825V28.98H165.679V27.09H167.397V19.53Z" fill="white"/>
<path d="M173.067 19.53V17.64H180.622V19.53H177.699V28.97H175.98V19.53H173.067Z" fill="white"/>
<path d="M182.864 17.64H188.01V19.53H184.583V21.81H188.01V23.7H184.583V27.1H188.01V28.99H182.864V17.64ZM184.425 16.3L183.951 15.77L187.111 11.25L188.553 12.83L184.425 16.3Z" fill="white"/>
<path d="M202.894 16.27L198.785 12.8L200.217 11.22L203.368 15.74L202.894 16.27ZM200.721 28.97H199.002V21.8C199.002 19 200.553 17.45 202.43 17.45C204.306 17.45 205.877 18.99 205.877 21.8V28.97H204.148V25.2H200.721V28.97ZM204.148 21.8C204.148 20.14 203.378 19.34 202.43 19.34C201.481 19.34 200.711 20.14 200.711 21.8V23.31H204.138V21.8H204.148Z" fill="white"/>
<path d="M218.578 27.09H221.501V28.98H216.859V17.64H218.578V27.09Z" fill="white"/>
<path d="M225.452 28.97H223.733V21.8C223.733 19 225.284 17.45 227.17 17.45C229.057 17.45 230.617 18.99 230.617 21.8V28.97H228.889V25.2H225.462V28.97H225.452ZM228.879 21.8C228.879 20.14 228.109 19.34 227.16 19.34C226.212 19.34 225.442 20.14 225.442 21.8V23.31H228.869V21.8H228.879Z" fill="white"/>
<path d="M243.97 29.16C242.854 29.16 242.025 28.77 241.067 27.95L241.264 26.27C242.301 26.88 243.151 27.27 244.03 27.27C244.8 27.27 245.788 26.81 245.788 25.89C245.788 23.73 240.918 24.57 240.918 20.78C240.918 18.81 242.499 17.45 244.316 17.45C245.472 17.45 246.262 17.89 247.328 18.81L246.785 20.31C246.054 19.78 245.195 19.33 244.375 19.33C243.338 19.33 242.706 19.94 242.706 20.62C242.706 22.64 247.585 22.13 247.585 25.61C247.585 27.93 245.817 29.16 243.97 29.16Z" fill="white"/>
<path d="M250.193 17.64H255.338V19.53H251.901V21.81H255.338V23.7H251.901V27.1H255.338V28.99H250.193V17.64ZM251.753 16.3L251.279 15.77L254.449 11.25L255.891 12.83L251.753 16.3Z" fill="white"/>
<path d="M262.953 17.46C264.217 17.46 265.551 18.33 266.272 19.63L265.185 20.68C264.494 19.74 263.792 19.34 263.022 19.34C261.659 19.34 260.484 20.85 260.484 23.31C260.484 25.77 261.659 27.27 263.022 27.27C263.792 27.27 264.494 26.88 265.185 25.93L266.272 26.98C265.541 28.29 264.217 29.15 262.953 29.15C260.355 29.15 258.617 26.52 258.617 23.31C258.617 20.11 260.355 17.46 262.953 17.46Z" fill="white"/>
<path d="M270.805 17.64V24.83C270.805 26.48 271.575 27.28 272.523 27.28C273.472 27.28 274.242 26.48 274.242 24.83V17.64H275.97V24.83C275.97 27.61 274.43 29.16 272.523 29.16C270.617 29.16 269.096 27.61 269.096 24.83V17.64H270.805Z" fill="white"/>
<path d="M286.953 28.97H284.849L282.38 25.2H281.116V28.97H279.397V17.64H282.657C284.543 17.64 286.084 19.34 286.084 21.43C286.084 22.87 285.343 24.16 284.217 24.78L286.953 28.97ZM284.375 21.43C284.375 20.38 283.605 19.53 282.657 19.53H281.106V23.32H282.657C283.605 23.31 284.375 22.47 284.375 21.43Z" fill="white"/>
<path d="M291.417 27.09H289.699V28.98H294.844V27.09H293.126V19.53H294.844V17.64H289.699V19.53H291.417V27.09Z" fill="white"/>
<path d="M300.01 19.53V28.97H301.728V19.53H304.652V17.64H297.096V19.53H300.01Z" fill="white"/>
<path d="M306.894 17.64H312.039V19.53H308.612V21.81H312.039V23.7H308.612V27.1H312.039V28.99H306.894V17.64ZM308.454 16.3L307.97 15.77L311.141 11.25L312.573 12.83L308.454 16.3Z" fill="white"/>
<path d="M319.546 27.39C319.546 26.39 318.785 25.55 317.877 25.55C316.968 25.55 316.207 26.39 316.207 27.39C316.207 28.39 316.968 29.23 317.877 29.23C318.785 29.23 319.546 28.38 319.546 27.39Z" fill="white"/>
</g>
<defs>
<clipPath id="clip0_197_2686">
<rect width="320" height="31" fill="white"/>
</clipPath>
</defs>
</svg>
