<svg id="cta_demo" class="cta_demo hide" xmlns="http://www.w3.org/2000/svg" xmlns:xlink="http://www.w3.org/1999/xlink" viewBox="0 0 265 80">
    <defs>
        <linearGradient id="linear-gradient" x1="968.46" y1="-442.61" x2="967.29" y2="-442.61"
            gradientTransform="translate(-201184.42 4908.7) scale(208 11)" gradientUnits="userSpaceOnUse">
            <stop offset="0" stop-color="#07c0ff" />
            <stop offset="1" stop-color="#038cff" />
        </linearGradient>
    </defs>
    <g id="cta">
        <rect class="cta_bg" width="265" height="80" rx="3" fill="url(#linear-gradient)" />
        <path class="cta_txt"
            d="M37.54,49.23,30,27.9h3.05l6.09,18.49h.06L45.4,27.9h3L40.77,49.23ZM49.82,31V27.9h2.54V31Zm2.54,2.78V49.23H49.82V33.79ZM67.23,48.24a7,7,0,0,1-4.36,1.32,7.93,7.93,0,0,1-3.21-.6,6.09,6.09,0,0,1-2.28-1.67A6.94,6.94,0,0,1,56,44.72a12.28,12.28,0,0,1-.53-3.25A9.24,9.24,0,0,1,56,38.24a7.69,7.69,0,0,1,1.51-2.54A6.81,6.81,0,0,1,59.81,34a7,7,0,0,1,2.91-.6,6.28,6.28,0,0,1,3.42.85,6.75,6.75,0,0,1,2.18,2.17,8.49,8.49,0,0,1,1.14,2.86,12.29,12.29,0,0,1,.25,3H58.15a6.12,6.12,0,0,0,.24,1.93,4.34,4.34,0,0,0,.87,1.61,4.16,4.16,0,0,0,1.52,1.12,5.23,5.23,0,0,0,2.18.42,4.35,4.35,0,0,0,2.64-.75A3.57,3.57,0,0,0,67,44.33h2.51A6.14,6.14,0,0,1,67.23,48.24Zm-.61-9.91a4.35,4.35,0,0,0-.93-1.39A4.26,4.26,0,0,0,64.32,36a4.73,4.73,0,0,0-3.52,0,4,4,0,0,0-1.36,1,4.45,4.45,0,0,0-.9,1.38A5.34,5.34,0,0,0,58.15,40H67A5.21,5.21,0,0,0,66.62,38.33ZM85,49.23,81.81,37h-.06L78.64,49.23H75.89l-5-15.44h2.8l3.5,12.63h.06l3.1-12.63h2.78l3.23,12.63h.06l3.46-12.63h2.63L87.63,49.23Zm29.6,0V47.14h-.06a3.75,3.75,0,0,1-2,1.85,7.55,7.55,0,0,1-3,.57,6.9,6.9,0,0,1-3.12-.66,6.19,6.19,0,0,1-2.21-1.76,7.65,7.65,0,0,1-1.33-2.57,10.47,10.47,0,0,1-.45-3.1,10.87,10.87,0,0,1,.43-3.11,7.19,7.19,0,0,1,1.32-2.55,6.25,6.25,0,0,1,2.21-1.74,7,7,0,0,1,3.09-.64,7.44,7.44,0,0,1,1.28.12,6.53,6.53,0,0,1,1.38.4,5.85,5.85,0,0,1,1.3.75,4.07,4.07,0,0,1,1,1.15h.06v-8h2.54V49.23Zm-9.13-5.48a5.68,5.68,0,0,0,.87,1.84,4.2,4.2,0,0,0,1.49,1.28,4.53,4.53,0,0,0,2.14.48,4.37,4.37,0,0,0,2.18-.51,4.44,4.44,0,0,0,1.46-1.33,5.5,5.5,0,0,0,.82-1.86,8.94,8.94,0,0,0,0-4.32,5.42,5.42,0,0,0-.85-1.87,4.34,4.34,0,0,0-1.51-1.3,4.84,4.84,0,0,0-2.24-.49,4.31,4.31,0,0,0-2.18.51,4.12,4.12,0,0,0-1.44,1.34,5.86,5.86,0,0,0-.77,1.92,10,10,0,0,0-.24,2.2A7.89,7.89,0,0,0,105.42,43.75Zm26.51,4.49a7,7,0,0,1-4.36,1.32,7.93,7.93,0,0,1-3.21-.6,6.2,6.2,0,0,1-2.29-1.67,7.07,7.07,0,0,1-1.38-2.57,12.28,12.28,0,0,1-.53-3.25,9.24,9.24,0,0,1,.54-3.23,7.69,7.69,0,0,1,1.51-2.54,6.71,6.71,0,0,1,2.3-1.67,7,7,0,0,1,2.91-.6,6.33,6.33,0,0,1,3.42.85A6.75,6.75,0,0,1,133,36.45a8.49,8.49,0,0,1,1.14,2.86,12.29,12.29,0,0,1,.25,3H122.85a6.12,6.12,0,0,0,.24,1.93,4.34,4.34,0,0,0,.87,1.61,4.16,4.16,0,0,0,1.52,1.12,5.23,5.23,0,0,0,2.18.42,4.35,4.35,0,0,0,2.64-.75,3.57,3.57,0,0,0,1.36-2.27h2.51A6.14,6.14,0,0,1,131.93,48.24Zm-.61-9.91a4.35,4.35,0,0,0-.93-1.39A4.26,4.26,0,0,0,129,36a4.34,4.34,0,0,0-1.75-.34,4.42,4.42,0,0,0-1.78.34,4.22,4.22,0,0,0-1.36,1,4.61,4.61,0,0,0-.89,1.38,5.34,5.34,0,0,0-.39,1.69h8.87A5.21,5.21,0,0,0,131.32,38.33Zm8.11-4.54v2.27h.06a5.62,5.62,0,0,1,5-2.63,5.55,5.55,0,0,1,2.59.6,3.34,3.34,0,0,1,1.65,2,5.37,5.37,0,0,1,2.05-1.94,5.71,5.71,0,0,1,2.79-.69,8.46,8.46,0,0,1,2.1.25,4.39,4.39,0,0,1,1.62.8,3.63,3.63,0,0,1,1,1.38,5.07,5.07,0,0,1,.37,2V49.23h-2.53V39.1a7.18,7.18,0,0,0-.12-1.34,2.73,2.73,0,0,0-.45-1.09,2.22,2.22,0,0,0-.91-.73,3.61,3.61,0,0,0-1.51-.27,4,4,0,0,0-3,1.08,3.84,3.84,0,0,0-1.07,2.86v9.62H146.6V39.1a6.55,6.55,0,0,0-.14-1.37,2.9,2.9,0,0,0-.46-1.09,2.06,2.06,0,0,0-.88-.71,3.25,3.25,0,0,0-1.42-.26,3.79,3.79,0,0,0-1.9.45,4.4,4.4,0,0,0-1.28,1.07,4.31,4.31,0,0,0-.72,1.3,3.65,3.65,0,0,0-.22,1.12v9.62H137V33.79Zm22.73,4.55a7.42,7.42,0,0,1,1.43-2.57A6.93,6.93,0,0,1,166,34.06a8.62,8.62,0,0,1,6.47,0,6.89,6.89,0,0,1,2.35,1.71,7.42,7.42,0,0,1,1.43,2.57,10.3,10.3,0,0,1,.48,3.19,10.06,10.06,0,0,1-.48,3.16,7.37,7.37,0,0,1-1.43,2.56,6.74,6.74,0,0,1-2.35,1.7A8.88,8.88,0,0,1,166,49a6.78,6.78,0,0,1-2.36-1.7,7.37,7.37,0,0,1-1.43-2.56,10.06,10.06,0,0,1-.48-3.16A10.3,10.3,0,0,1,162.16,38.34ZM164.74,44a5.35,5.35,0,0,0,1,1.82A4.46,4.46,0,0,0,167.31,47a4.68,4.68,0,0,0,3.74,0,4.42,4.42,0,0,0,1.53-1.12,5.2,5.2,0,0,0,1-1.82,8.6,8.6,0,0,0,0-5,5.39,5.39,0,0,0-1-1.84,4.45,4.45,0,0,0-1.53-1.13,4.68,4.68,0,0,0-3.74,0,4.49,4.49,0,0,0-1.54,1.13,5.54,5.54,0,0,0-1,1.84,8.6,8.6,0,0,0,0,5Z"
            fill="#fff" />
        <path id="cta_arrow" d="M224.86,27.54l11,11L224.72,49.68,222.3,47.3l6-6H210.07V37.8h20.05l-7.74-7.74Z"
            fill="#fff" fill-rule="evenodd" />
    </g>
</svg>