<svg xmlns="http://www.w3.org/2000/svg" viewBox="0 0 340.16 340.16"><defs><style>.cls-1{fill:#fff;}.cls-2{fill:#0066b1;}</style></defs><g id="Layer_2" data-name="Layer 2"><g id="BMW"><path class="cls-1" d="M170.08,0A170.08,170.08,0,1,0,340.16,170.08,170.08,170.08,0,0,0,170.08,0Zm159,170.08a159,159,0,1,1-159-159A159,159,0,0,1,329.1,170.08Z"/><path id="W" class="cls-1" d="M252.51,97.92c2.3,2.49,5.63,6.49,7.5,8.91L294.45,85c-1.72-2.25-4.45-5.67-6.51-8.08l-21.8,14.43-1.49,1.28L265.76,91l9.63-19.23L268.58,65l-19.22,9.63-1.62,1.11,1.29-1.5,14.43-21.8c-2.54-2.16-5-4.14-8.09-6.54L233.5,80.26c2.77,2.14,6.42,5.26,8.74,7.39L262.83,77l1.31-1-1,1.32Z"/><path id="M" class="cls-1" d="M174.36,54.31l9.41-21.07.6-1.87-.17,1.95,1,28.17c3.3.31,6.71.77,10.08,1.32l-1.53-41.72c-4.71-.51-9.39-.89-14.07-1.09L170.4,43l-.32,1.71L169.75,43l-9.27-23c-4.68.2-9.36.58-14.06,1.09l-1.53,41.72c3.36-.55,6.77-1,10.07-1.32l1-28.17-.17-1.95.6,1.87,9.41,21.07Z"/><path id="B_22d" class="cls-1" d="M98.25,87.56c5.43-5.73,8.52-12.35,3.07-18.68a10.58,10.58,0,0,0-12-2.48l-.41.16L89,66.2a10,10,0,0,0-3.43-10.42A10.29,10.29,0,0,0,78,53.66c-5.11.52-9,4-19.75,16-3.22,3.6-7.92,9.28-10.75,13l29.39,27.88C86.6,99.66,90.57,95.65,98.25,87.56ZM59.9,80.74A182.24,182.24,0,0,1,75,64.33a7.88,7.88,0,0,1,3.07-2,3.64,3.64,0,0,1,4.37,2.82c.45,2-.8,3.88-2.19,5.44-3.13,3.52-14.6,15.53-14.6,15.53ZM71.41,91.66s11.18-11.82,14.82-15.6a13.44,13.44,0,0,1,3.38-2.9,3.81,3.81,0,0,1,4,.08,3.48,3.48,0,0,1,1.5,3.68,11,11,0,0,1-2.89,4.52C90.64,83.1,77.38,97.29,77.36,97.3Z"/><path class="cls-1" d="M270.94,170.08H170.08V69.22A100.81,100.81,0,0,1,270.94,170.08Z"/><path class="cls-1" d="M170.08,170.08V270.94A100.81,100.81,0,0,1,69.22,170.08Z"/><path class="cls-2" d="M170.08,69.22V170.08H69.22A100.81,100.81,0,0,1,170.08,69.22Z"/><path class="cls-2" d="M270.94,170.08A100.81,100.81,0,0,1,170.08,270.94V170.08Z"/></g></g></svg>