<svg xmlns="http://www.w3.org/2000/svg" xmlns:xlink="http://www.w3.org/1999/xlink" viewBox="0 0 226 81"><defs><linearGradient id="linear-gradient" x1="968.63" y1="-415.44" x2="967.63" y2="-415.57" gradientTransform="translate(-218695.98 33315) scale(226 80)" gradientUnits="userSpaceOnUse"><stop offset="0" stop-color="#07c0ff"/><stop offset="1" stop-color="#038cff"/></linearGradient><linearGradient id="linear-gradient-2" x1="968.28" y1="-442.61" x2="967.28" y2="-442.61" gradientTransform="translate(-201184.42 4908.7) scale(208 11)" xlink:href="#linear-gradient"/></defs><title>fbto_cta_ok</title><g id="Layer_2" data-name="Layer 2"><g id="slide3_cta" data-name="slide3 cta"><path d="M12,70H217V81H12a3,3,0,0,1-3-3V73A3,3,0,0,1,12,70Z" fill-rule="evenodd" opacity="0.8" fill="url(#linear-gradient)" style="isolation:isolate"/><rect width="226" height="80" rx="3" fill="url(#linear-gradient-2)"/><path d="M32.7,28h6.93a6.71,6.71,0,0,1,4.7,1.59,5.44,5.44,0,0,1,1.72,4.17,4.69,4.69,0,0,1-.87,2.85,4.87,4.87,0,0,1-2.31,1.74,4.79,4.79,0,0,1,2.8,1.87,5.62,5.62,0,0,1-.79,7.41,6.85,6.85,0,0,1-4.74,1.64H32.7Zm2.94,9.3H39.3a3.88,3.88,0,0,0,2.76-1,3.17,3.17,0,0,0,1-2.44A3,3,0,0,0,42,31.42a4.2,4.2,0,0,0-2.85-.9H35.62Zm0,9.39h4.08a4.33,4.33,0,0,0,2.9-.93,3.1,3.1,0,0,0,1.09-2.46,3.36,3.36,0,0,0-1-2.54,4,4,0,0,0-2.88-.94h-4.2ZM60.75,44.3l2.43.84a6.41,6.41,0,0,1-2.34,3.28A6.75,6.75,0,0,1,56.7,49.7a7.06,7.06,0,0,1-5.15-2.09A7.53,7.53,0,0,1,49.44,42a7.65,7.65,0,0,1,2-5.46,7,7,0,0,1,9.81-.3l.19.19a8,8,0,0,1,1.83,5.51,6.8,6.8,0,0,1-.06.9H52.35A4.36,4.36,0,0,0,53.62,46a4.23,4.23,0,0,0,3.08,1.23A3.9,3.9,0,0,0,60.75,44.3Zm-8.31-3.75h7.89a3.64,3.64,0,0,0-3.55-3.71,3.39,3.39,0,0,0-.45,0A3.71,3.71,0,0,0,53.57,38a3.94,3.94,0,0,0-1.13,2.61Zm22.44-5.88v3a8.48,8.48,0,0,0-1.23-.09q-4,0-4,4.44V49.3H66.83V34.83h2.76v2.52a4.46,4.46,0,0,1,4.32-2.76,5.23,5.23,0,0,1,1,.09Zm13,9.63,2.43.84A6.41,6.41,0,0,1,88,48.42a6.75,6.75,0,0,1-4.14,1.28,7.06,7.06,0,0,1-5.15-2.09A7.53,7.53,0,0,1,76.57,42a7.65,7.65,0,0,1,2-5.46,7,7,0,0,1,9.81-.3l.19.19a8,8,0,0,1,1.83,5.51,6.8,6.8,0,0,1-.06.9H79.47A4.36,4.36,0,0,0,80.74,46a4.23,4.23,0,0,0,3.08,1.23,3.9,3.9,0,0,0,4.05-2.91Zm-8.31-3.75h7.89a3.64,3.64,0,0,0-3.55-3.71,3.39,3.39,0,0,0-.45,0A3.71,3.71,0,0,0,80.7,38a4,4,0,0,0-1.14,2.61Zm27.36-5.73-6.15,6.09L107,49.3h-3.5l-4.71-6.36-2,2V49.3H94V27.54h2.79V41.22L103,34.83Zm12.2,9.48,2.43.84a6.41,6.41,0,0,1-2.34,3.28,6.75,6.75,0,0,1-4.14,1.28,7.06,7.06,0,0,1-5.15-2.09A7.53,7.53,0,0,1,107.82,42a7.65,7.65,0,0,1,2-5.46,7,7,0,0,1,9.81-.3l.19.19a8,8,0,0,1,1.83,5.51,6.8,6.8,0,0,1-.06.9H110.73A4.36,4.36,0,0,0,112,46a4.23,4.23,0,0,0,3.08,1.23A3.9,3.9,0,0,0,119.13,44.3Zm-8.31-3.75h7.89a3.64,3.64,0,0,0-3.55-3.71,3.39,3.39,0,0,0-.45,0A3.71,3.71,0,0,0,112,38a3.94,3.94,0,0,0-1.13,2.61Zm17.25.36V49.3h-2.82V34.83H128V36.9a4.79,4.79,0,0,1,4.44-2.49A4.71,4.71,0,0,1,136.26,36a6.17,6.17,0,0,1,1.34,4.11V49.3h-2.82V40.63q0-3.63-3.36-3.63a3,3,0,0,0-2.48,1.12,4.48,4.48,0,0,0-.87,2.8Z" fill="#fff"/><path d="M185.79,27.54l11,11L185.65,49.68l-2.42-2.38,6-6H171V37.8h20.05l-7.74-7.74Z" fill="#fff" fill-rule="evenodd"/></g></g></svg>