<svg id="slide3_cta" data-name="Layer 1" xmlns="http://www.w3.org/2000/svg" xmlns:xlink="http://www.w3.org/1999/xlink"
    viewBox="0 0 1600 800">
    <defs>
        <linearGradient id="slide3_bg_gradient" class="cta_bg_gradient" x1="330.41" y1="542.23" x2="329.41" y2="542.23"
            gradientTransform="matrix(208, 0, 0, -11, -68422, 6719.7)" gradientUnits="userSpaceOnUse">
            <stop offset="0" stop-color="#07c0ff" />
            <stop offset="1" stop-color="#038cff" />
        </linearGradient>
        <linearGradient id="slide3_shadow_gradient" x1="330.54" y1="519.97" x2="329.54" y2="520.1"
            gradientTransform="matrix(226, 0, 0, -80, -74389, 42322.7)" xlink:href="#slide3_bg_gradient" />
    </defs>
    <g class="cta">
        <path class="cta_shadow" d="M98,749.7H303v11H98a3,3,0,0,1-3-3v-5A3,3,0,0,1,98,749.7Z" fill-rule="evenodd"
            opacity="0.8" fill="url(#slide3_shadow_gradient)" style="isolation:isolate"/>
        <rect class="cta_bg" x="86" y="679.7" width="226" height="80" rx="3" fill="url(#slide3_bg_gradient)"></rect>
        <path cta="cta_copy"
            d="M118.7,707.69h6.93a6.69,6.69,0,0,1,4.7,1.59,5.44,5.44,0,0,1,1.72,4.17,4.72,4.72,0,0,1-.87,2.85,4.91,4.91,0,0,1-2.31,1.74,4.8,4.8,0,0,1,2.8,1.87,5.62,5.62,0,0,1-.79,7.41,6.85,6.85,0,0,1-4.74,1.64H118.7Zm2.94,9.3h3.66a3.9,3.9,0,0,0,2.76-1,3.17,3.17,0,0,0,1-2.44,3,3,0,0,0-1.05-2.43,4.23,4.23,0,0,0-2.85-.9h-3.54Zm0,9.39h4.08a4.35,4.35,0,0,0,2.9-.93,3.09,3.09,0,0,0,1.09-2.46,3.35,3.35,0,0,0-1-2.54,4,4,0,0,0-2.88-.94h-4.2ZM146.75,724l2.43.84a6.38,6.38,0,0,1-2.34,3.28,6.73,6.73,0,0,1-4.14,1.28,7.07,7.07,0,0,1-5.15-2.09,7.53,7.53,0,0,1-2.11-5.62,7.64,7.64,0,0,1,2-5.46,6.94,6.94,0,0,1,10-.11,8,8,0,0,1,1.83,5.51,5.62,5.62,0,0,1-.06.9H138.35a4.34,4.34,0,0,0,1.27,3.15,4.22,4.22,0,0,0,3.08,1.23A3.9,3.9,0,0,0,146.75,724Zm-8.31-3.75h7.89a3.63,3.63,0,0,0-4-3.69,3.71,3.71,0,0,0-2.76,1.09A3.94,3.94,0,0,0,138.44,720.26Zm22.44-5.88v3a8.69,8.69,0,0,0-1.23-.09q-4,0-4,4.44V729h-2.82V714.53h2.76v2.52a4.47,4.47,0,0,1,4.32-2.76A4.73,4.73,0,0,1,160.88,714.38Zm13,9.63,2.43.84a6.38,6.38,0,0,1-2.34,3.28,6.73,6.73,0,0,1-4.14,1.28,7.07,7.07,0,0,1-5.15-2.09,7.53,7.53,0,0,1-2.11-5.62,7.64,7.64,0,0,1,2-5.46,6.94,6.94,0,0,1,10-.11,8,8,0,0,1,1.83,5.51,5.62,5.62,0,0,1-.06.9H165.47a4.34,4.34,0,0,0,1.27,3.15,4.22,4.22,0,0,0,3.08,1.23A3.9,3.9,0,0,0,173.87,724Zm-8.31-3.75h7.89a3.63,3.63,0,0,0-4-3.69,3.71,3.71,0,0,0-2.76,1.09A3.94,3.94,0,0,0,165.56,720.26Zm27.36-5.73-6.15,6.09L193,729H189.5l-4.71-6.36-2,2V729H180V707.24h2.79v13.68l6.24-6.39ZM205.13,724l2.43.84a6.38,6.38,0,0,1-2.34,3.28,6.73,6.73,0,0,1-4.14,1.28,7.07,7.07,0,0,1-5.15-2.09,7.53,7.53,0,0,1-2.11-5.62,7.64,7.64,0,0,1,2-5.46,6.94,6.94,0,0,1,10-.11,8,8,0,0,1,1.83,5.51,5.62,5.62,0,0,1-.06.9H196.73a4.34,4.34,0,0,0,1.27,3.15,4.22,4.22,0,0,0,3.08,1.23A3.9,3.9,0,0,0,205.13,724Zm-8.31-3.75h7.89a3.63,3.63,0,0,0-4-3.69,3.71,3.71,0,0,0-2.76,1.09A3.94,3.94,0,0,0,196.82,720.26Zm17.25.36V729h-2.82V714.53H214v2.07a4.78,4.78,0,0,1,4.44-2.49,4.7,4.7,0,0,1,3.82,1.59,6.18,6.18,0,0,1,1.34,4.11V729h-2.82v-8.67q0-3.63-3.36-3.63a3,3,0,0,0-2.48,1.12A4.46,4.46,0,0,0,214.07,720.62Z"
            fill="#fff" style="isolation:isolate" />
        <path class="cta_arrow" d="M271.79,707.24l11,11-11.14,11.14L269.23,727l6-6H257v-3.5h20.05l-7.74-7.74Z"
            fill="#fff" fill-rule="evenodd" />
    </g>
</svg>