<?xml version="1.0" encoding="utf-8"?>
<!-- Generator: Adobe Illustrator 25.4.1, SVG Export Plug-In . SVG Version: 6.00 Build 0)  -->
<svg version="1.1" xmlns="http://www.w3.org/2000/svg" xmlns:xlink="http://www.w3.org/1999/xlink" x="0px" y="0px"
	 viewBox="0 0 63.8 28.3" style="enable-background:new 0 0 63.8 28.3;" xml:space="preserve">
<style type="text/css">
	.st0{fill:#FFFFFF;}
	.st1{fill:#0066B1;}
</style>
<g id="BMW">
</g>
<g id="BMW_i">
	<g>
		<g>
			<path class="st0" d="M14.2,0C6.3,0,0,6.3,0,14.2s6.3,14.2,14.2,14.2S28.3,22,28.3,14.2S22,0,14.2,0L14.2,0z M27.4,14.2
				c0,7.3-5.9,13.3-13.3,13.3S0.9,21.5,0.9,14.2S6.9,0.9,14.2,0.9S27.4,6.9,27.4,14.2z"/>
			<g>
				<path id="W_60_" class="st0" d="M21,8.2c0.2,0.2,0.5,0.5,0.6,0.7l2.9-1.8c-0.1-0.2-0.4-0.5-0.5-0.7l-1.8,1.2l-0.1,0.1l0.1-0.1
					L22.9,6l-0.6-0.6l-1.6,0.8l-0.1,0.1l0.1-0.1L22,4.4c-0.2-0.2-0.4-0.3-0.7-0.5l-1.8,2.9c0.2,0.2,0.5,0.4,0.7,0.6l1.7-0.9L22,6.3
					l-0.1,0.1L21,8.2z"/>
				<path id="M_60_" class="st0" d="M14.5,4.5l0.8-1.8l0-0.2l0,0.2l0.1,2.3c0.3,0,0.6,0.1,0.8,0.1l-0.1-3.5c-0.4,0-0.8-0.1-1.2-0.1
					l-0.8,1.9l0,0.1l0-0.1l-0.8-1.9c-0.4,0-0.8,0-1.2,0.1l-0.1,3.5c0.3,0,0.6-0.1,0.8-0.1L13,2.8l0-0.2l0,0.2l0.8,1.8H14.5z"/>
				<path id="B_x5F_22d_60_" class="st0" d="M8.2,7.3c0.5-0.5,0.7-1,0.3-1.6c-0.2-0.3-0.7-0.3-1-0.2l0,0l0,0
					c0.1-0.1,0.1-0.6-0.3-0.9C7,4.5,6.7,4.4,6.5,4.5c-0.4,0-0.8,0.3-1.6,1.3C4.6,6.1,4.2,6.6,4,6.9c0,0,2.4,2.3,2.4,2.3
					C7.2,8.3,7.5,8,8.2,7.3z M5,6.7c0.5-0.6,1-1.2,1.3-1.4c0.1-0.1,0.2-0.1,0.3-0.2c0.2,0,0.3,0.1,0.4,0.2c0,0.2-0.1,0.3-0.2,0.5
					C6.4,6.2,5.5,7.2,5.5,7.2S5,6.7,5,6.7z M6,7.6c0,0,0.9-1,1.2-1.3c0.1-0.1,0.2-0.2,0.3-0.2C7.6,6,7.7,6,7.8,6.1
					c0.1,0.1,0.2,0.2,0.1,0.3c0,0.1-0.1,0.3-0.2,0.4C7.6,6.9,6.4,8.1,6.4,8.1L6,7.6z"/>
			</g>
			<path class="st0" d="M22.6,14.2h-8.4V5.8C18.8,5.8,22.6,9.5,22.6,14.2z"/>
			<path class="st0" d="M14.2,14.2v8.4c-4.6,0-8.4-3.8-8.4-8.4H14.2z"/>
			<path class="st1" d="M14.2,5.8v8.4H5.8C5.8,9.5,9.5,5.8,14.2,5.8z"/>
			<path class="st1" d="M22.6,14.2c0,4.6-3.8,8.4-8.4,8.4v-8.4H22.6z"/>
		</g>
		<g>
			<path class="st0" d="M52,7.1l-8.3,14.2h9.6c1.3,0,2.6-0.7,3.3-1.9l7.2-12.3H52z M55,18.8c-0.4,0.7-1.1,1.1-1.8,1.1h-2.3l4-6.8
				c0.3-0.4,0.7-0.7,1.2-0.7h2.7L55,18.8z M58.5,11.3h-2.7L57.2,9h3.6l-1,1.6C59.5,11.1,59,11.3,58.5,11.3z"/>
			<g id="Blau_x5F_Verlauf_x5F_hell_17_">
				<path class="st1" d="M52,7.1l-8.3,14.2h-5.9L45,9c0.7-1.2,1.9-1.9,3.3-1.9H52z"/>
			</g>
		</g>
	</g>
</g>
</svg>
