<svg id="Layer_1" data-name="Layer 1" xmlns="http://www.w3.org/2000/svg" viewBox="0 0 600 1200"><defs><style>.cls-1{fill:red;}</style></defs><title>lose_title</title><path id="lose_title" class="cls-1" d="M101.65,595H69V562.31h32.69Zm9.9-32.68V604.9H69v32.68h75.28V562.31Zm89.77,5.54c3.4,3.58,5.12,8.58,5.12,14.85v33.49c0,7.17-1.82,12.59-5.41,16.11s-8.73,5.28-15.28,5.28H169.69V562.42h17C193,562.42,197.9,564.25,201.32,567.85Zm-17.81,56.51h2.94c2.32,0,3.92-.51,4.77-1.52s1.4-3,1.4-5.64V582.7a9.13,9.13,0,0,0-1.37-5.47c-.78-1.06-2.39-1.59-4.8-1.59h-2.94ZM237,562.42l16.78,75.16h-14l-3-15.38h-11l-3,15.38h-14l16.79-75.16Zm-5.76,31.25-3,15.31h5.94Zm57.64-26.19a19,19,0,0,0-6-4.1,18.81,18.81,0,0,0-7.71-1.57,20,20,0,0,0-8.5,1.73,17.48,17.48,0,0,0-6.1,4.65A19.66,19.66,0,0,0,257,575a27.78,27.78,0,0,0-1.18,8.17,26.54,26.54,0,0,0,2.45,12c1.7,3.37,5,6.07,9.81,8l7.33,3a22.71,22.71,0,0,1,2.83,1.39,3.34,3.34,0,0,1,1.2,1.19,5.5,5.5,0,0,1,.62,2.21,41,41,0,0,1,.19,4.43,42.37,42.37,0,0,1-.19,4.24,6.94,6.94,0,0,1-.74,2.68,3.44,3.44,0,0,1-1.47,1.4,7.28,7.28,0,0,1-3.26.55c-2,0-3.38-.5-4.14-1.53a6.61,6.61,0,0,1-1.31-4v-5H255.26v5.61a18.44,18.44,0,0,0,11.68,17.34,20.19,20.19,0,0,0,7.6,1.44,21.39,21.39,0,0,0,9.11-1.78,16,16,0,0,0,6.15-4.93,19.38,19.38,0,0,0,3.27-7.29,38.28,38.28,0,0,0,1-8.8,56.14,56.14,0,0,0-.42-7.23,19.15,19.15,0,0,0-1.73-6,14.31,14.31,0,0,0-3.73-4.71,21.29,21.29,0,0,0-6-3.35L274.3,591a14.51,14.51,0,0,1-2.81-1.41,3.93,3.93,0,0,1-1.23-1.29,4.44,4.44,0,0,1-.53-1.81c-.09-.9-.14-2-.14-3.38a17.68,17.68,0,0,1,.27-3.15,6.85,6.85,0,0,1,.83-2.32,4.15,4.15,0,0,1,1.49-1.45,5.07,5.07,0,0,1,2.56-.55c2,0,3.33.57,4.09,1.75a9.16,9.16,0,0,1,1.37,5.11v4.1H294v-6.81a17,17,0,0,0-1.35-6.58A18.32,18.32,0,0,0,288.84,567.48Zm46.82-5.06H321.83v75.16H356V623.76H335.66Zm61.58,10.3a20,20,0,0,1,1.67,8.37V618.9a19.94,19.94,0,0,1-1.68,8.45,17.91,17.91,0,0,1-4.41,6,19,19,0,0,1-6.1,3.6,19.51,19.51,0,0,1-13.58,0,18.92,18.92,0,0,1-6.1-3.6,17.87,17.87,0,0,1-4.42-6A20,20,0,0,1,361,618.9V581.09a20,20,0,0,1,1.67-8.37,17.6,17.6,0,0,1,4.42-6.09,18.92,18.92,0,0,1,6.1-3.6,19.69,19.69,0,0,1,13.58,0,19,19,0,0,1,6.1,3.6A17.79,17.79,0,0,1,397.24,572.72ZM383.65,577a5.87,5.87,0,0,0-7.44,0c-1,.82-1.44,2.17-1.44,4.12V618.9c0,2,.47,3.31,1.44,4.13a5.87,5.87,0,0,0,7.44,0c1-.83,1.43-2.17,1.43-4.13V581.09C385.08,579.14,384.61,577.8,383.65,577Zm54.82-9.49a19,19,0,0,0-6-4.1,18.81,18.81,0,0,0-7.71-1.57,20,20,0,0,0-8.5,1.73,17.48,17.48,0,0,0-6.1,4.65,19.66,19.66,0,0,0-3.6,6.85,27.78,27.78,0,0,0-1.18,8.17,26.54,26.54,0,0,0,2.45,12c1.7,3.37,5,6.07,9.81,8l7.33,3a22,22,0,0,1,2.83,1.39,3.34,3.34,0,0,1,1.2,1.19,5.5,5.5,0,0,1,.62,2.21,41,41,0,0,1,.19,4.43c0,1.53-.06,3-.19,4.24a7.1,7.1,0,0,1-.74,2.69,3.47,3.47,0,0,1-1.47,1.39,7.28,7.28,0,0,1-3.26.55c-2,0-3.38-.5-4.14-1.53a6.61,6.61,0,0,1-1.31-4v-5H404.89v5.61a18.54,18.54,0,0,0,1.51,7.45,18.33,18.33,0,0,0,10.17,9.89,20.19,20.19,0,0,0,7.6,1.44,21.39,21.39,0,0,0,9.11-1.78,16,16,0,0,0,6.15-4.93,19.46,19.46,0,0,0,3.27-7.29,38.28,38.28,0,0,0,1-8.8,55.92,55.92,0,0,0-.42-7.23,19.15,19.15,0,0,0-1.73-6,14.31,14.31,0,0,0-3.73-4.71,21.29,21.29,0,0,0-6-3.35L423.93,591a14.51,14.51,0,0,1-2.81-1.41,3.93,3.93,0,0,1-1.23-1.29,4.6,4.6,0,0,1-.53-1.81c-.09-.89-.14-2-.14-3.38a17.88,17.88,0,0,1,.27-3.16,6.87,6.87,0,0,1,.83-2.31,4.15,4.15,0,0,1,1.49-1.45,5.08,5.08,0,0,1,2.57-.55c2,0,3.32.57,4.08,1.75a9.14,9.14,0,0,1,1.37,5.11v4.1h13.83v-6.81a16.92,16.92,0,0,0-1.35-6.58A18.55,18.55,0,0,0,438.47,567.48Zm11.77,70.1h34.14V623.76H464.07V606.31h17.7V593.09h-17.7V575.64h20.31V562.42H450.24Zm80.8,0H516.38L506.83,607h-3v30.57H490V562.42h18.28c9.07,0,19.88,4,19.88,22.8A28.42,28.42,0,0,1,526,596.64a16.45,16.45,0,0,1-6.37,7.27ZM503.79,594.4h4a8.66,8.66,0,0,0,3.57-.59,3.76,3.76,0,0,0,1.69-1.47,7.61,7.61,0,0,0,.92-2.81,36.54,36.54,0,0,0,0-9,6.82,6.82,0,0,0-1-2.8,3.88,3.88,0,0,0-1.85-1.49,10.45,10.45,0,0,0-3.85-.57h-3.54Z"/></svg>