<svg id="Layer_1" data-name="Layer 1" xmlns="http://www.w3.org/2000/svg" viewBox="0 0 600 1200"><defs><style>.fill_yellow{fill:#ffd200;}.fill_grey{fill:#e8e8e8;}.fill_white{fill:#fff;}</style></defs><title>topbar</title>
<g id="life1"><rect class="fill_yellow" x="31.71" y="14.1" width="13.52" height="13.52" transform="translate(59.33 -17.62) rotate(90)"/><polygon class="fill_grey" points="45.23 31.71 27.61 31.71 27.61 14.1 14.1 14.1 14.1 31.71 14.1 45.23 27.61 45.23 45.23 45.23 45.23 31.71"/>

</g><g id="life2"><rect class="fill_yellow" x="66.94" y="14.1" width="13.52" height="13.52" transform="translate(94.56 -52.85) rotate(90)"/><polygon class="fill_grey" points="80.46 31.71 62.85 31.71 62.85 14.1 49.33 14.1 49.33 31.71 49.33 45.23 62.85 45.23 80.46 45.23 80.46 31.71"/></g>

<g id="life3"><rect class="fill_grey" x="102.17" y="14.1" width="13.52" height="13.52"/><polygon class="fill_grey" points="115.69 31.71 98.08 31.71 98.08 14.1 84.56 14.1 84.56 31.71 84.56 45.23 98.08 45.23 115.69 45.23 115.69 31.71"/><rect class="fill_yellow" x="102.17" y="14.1" width="13.52" height="13.52"/><polygon class="fill_grey" points="115.69 31.71 98.08 31.71 98.08 14.1 84.56 14.1 84.56 31.71 84.56 45.23 98.08 45.23 115.69 45.23 115.69 31.71"/></g>

<path id="title" class="fill_white" d="M204.28,27.64H190.76V14.12h13.52Zm4.1-13.52V31.74H190.76V45.26H221.9V14.12Zm23.19,30.32h6a8.08,8.08,0,0,0,5.9-2q2.06-2,2.05-6.23V22.11a8,8,0,0,0-1.94-5.73,7.38,7.38,0,0,0-5.63-2h-6.39Zm4.32-26h2a3.06,3.06,0,0,1,2.62,1,4.55,4.55,0,0,1,.72,2.75V36.62a4.36,4.36,0,0,1-.76,2.85,3.19,3.19,0,0,1-2.58.91h-2ZM248.2,44.44h4.31L253.78,38h5.88l1.27,6.47h4.32l-6.73-30.11h-3.6Zm10.66-10.53h-4.32L256.66,23h.08Zm23.52-13a6.28,6.28,0,0,0-.51-2.47,6.85,6.85,0,0,0-1.46-2.18,7.17,7.17,0,0,0-5.22-2.16,7.56,7.56,0,0,0-3.26.66,6.55,6.55,0,0,0-2.31,1.75,7.65,7.65,0,0,0-1.37,2.63,10.88,10.88,0,0,0-.47,3.21,10.36,10.36,0,0,0,1,4.72,6.83,6.83,0,0,0,3.74,3l3.09,1.27a11,11,0,0,1,1.29.64,2.13,2.13,0,0,1,.76.76A3.2,3.2,0,0,1,278,34a17.59,17.59,0,0,1,.08,1.95,17.72,17.72,0,0,1-.08,1.86,3.72,3.72,0,0,1-.4,1.42,2.28,2.28,0,0,1-.93.89,3.83,3.83,0,0,1-1.72.31,2.68,2.68,0,0,1-2.34-1,3.49,3.49,0,0,1-.7-2.13V35.94h-4.32v1.61a7,7,0,0,0,.57,2.83,7.09,7.09,0,0,0,1.55,2.27,7.25,7.25,0,0,0,2.32,1.5,7.86,7.86,0,0,0,2.92.55,8.2,8.2,0,0,0,3.51-.68,6,6,0,0,0,2.31-1.84A7.51,7.51,0,0,0,282,39.39a15.72,15.72,0,0,0,.38-3.53,23.32,23.32,0,0,0-.17-2.94,7.21,7.21,0,0,0-.66-2.29,5.18,5.18,0,0,0-1.37-1.73,8.08,8.08,0,0,0-2.33-1.29l-3.3-1.31a6.75,6.75,0,0,1-1.33-.68,2.59,2.59,0,0,1-.74-.78,2.64,2.64,0,0,1-.32-1.06q-.06-.62-.06-1.5a7.63,7.63,0,0,1,.13-1.46,3.52,3.52,0,0,1,.44-1.23,2.56,2.56,0,0,1,.89-.87,2.89,2.89,0,0,1,1.46-.33,2.59,2.59,0,0,1,2.35,1.08,4.61,4.61,0,0,1,.69,2.55v1h4.32Zm7.11,23.56h4.31v-26h5V14.33h-14.3v4.06h5Zm12.26,0h4.32V31.58h2.58l4,12.86h4.56L312.58,30.7a6.42,6.42,0,0,0,2.9-3,11.13,11.13,0,0,0,.82-4.5q0-8.85-7.61-8.84h-6.94Zm4.32-26h2.24a5.23,5.23,0,0,1,1.9.29,2.4,2.4,0,0,1,1.12.91,3.58,3.58,0,0,1,.53,1.48,13.3,13.3,0,0,1,.13,2,13.3,13.3,0,0,1-.13,2,3.92,3.92,0,0,1-.48,1.46,2.32,2.32,0,0,1-1,.91,4.37,4.37,0,0,1-1.82.32h-2.45Zm14.51,19a7.66,7.66,0,0,0,.63,3.23,6.75,6.75,0,0,0,1.67,2.29,7.31,7.31,0,0,0,2.33,1.37,7.43,7.43,0,0,0,5.2,0,7.31,7.31,0,0,0,2.33-1.37,6.75,6.75,0,0,0,1.67-2.29,7.66,7.66,0,0,0,.63-3.23V21.43a7.73,7.73,0,0,0-.63-3.21,6.74,6.74,0,0,0-1.67-2.31,7.31,7.31,0,0,0-2.33-1.37,7.43,7.43,0,0,0-5.2,0,7.31,7.31,0,0,0-2.33,1.37,6.74,6.74,0,0,0-1.67,2.31,7.73,7.73,0,0,0-.63,3.21Zm4.31-15.91a2.85,2.85,0,0,1,.87-2.3,3.21,3.21,0,0,1,4.1,0,2.85,2.85,0,0,1,.87,2.3V37.34a2.85,2.85,0,0,1-.87,2.3,3.21,3.21,0,0,1-4.1,0,2.85,2.85,0,0,1-.87-2.3Zm14.85,23h4.31V26.34h.09l6.6,18.1h4.06V14.33h-4.32V32.47h-.08l-6.52-18.14h-4.14Zm18.06,0h4.32L363.38,38h5.88l1.27,6.47h4.32l-6.73-30.11h-3.59Zm10.66-10.53h-4.31L366.26,23h.09ZM392,14.33h-4.31V37.25a3.22,3.22,0,0,1-.77,2.37,2.76,2.76,0,0,1-3.8,0,3.21,3.21,0,0,1-.76-2.37V14.33H378V37.68a6.82,6.82,0,0,0,.55,2.75,7,7,0,0,0,3.72,3.72,7,7,0,0,0,5.42,0,7,7,0,0,0,3.72-3.72,6.82,6.82,0,0,0,.55-2.75Zm7.95,30.11h4.32v-26h5V14.33h-14.3v4.06h5Z"/></svg>