<?xml version="1.0" encoding="utf-8"?>
<!-- Generator: Adobe Illustrator 21.0.0, SVG Export Plug-In . SVG Version: 6.00 Build 0)  -->
<svg xmlns="http://www.w3.org/2000/svg" xmlns:xlink="http://www.w3.org/1999/xlink" viewBox="0 0 600 1200">
    <style type="text/css">
        .stroke{fill:none;stroke:#FFFFFF;stroke-miterlimit:10;}
    </style>
    <title>cta_text_300x600</title>
    <path id="letter1" class="stroke" d="M202.5,1085.6c0,2.5,1.9,3.4,4.1,3.4c1.4,0,3.6-0.4,3.6-2.3c0-2-2.8-2.3-5.5-3c-2.7-0.7-5.5-1.8-5.5-5.2c0-3.8,3.6-5.6,6.9-5.6c3.8,0,7.4,1.7,7.4,5.9h-3.9c-0.1-2.2-1.7-2.8-3.6-2.8c-1.3,0-2.8,0.5-2.8,2.1c0,1.4,0.9,1.6,5.5,2.8c1.3,0.3,5.5,1.2,5.5,5.4c0,3.4-2.7,5.9-7.7,5.9c-4.1,0-7.9-2-7.8-6.6H202.5z"/>
    <path id="letter2" class="stroke" d="M216.5,1073.3h13.8v3.4h-9.7v3.9h8.9v3.1h-8.9v4.5h9.9v3.4h-14V1073.3z"/>
    <path id="letter3" class="stroke" d="M233.3,1073.3H247v3.4h-9.7v3.9h8.9v3.1h-8.9v4.5h9.9v3.4h-14V1073.3z"/>
    <path id="letter4" class="stroke" d="M265.4,1072.8c5.7,0,9.1,4.3,9.1,9.7c0,5.3-3.4,9.6-9.1,9.6c-5.7,0-9.1-4.3-9.1-9.6C256.3,1077.1,259.7,1072.8,265.4,1072.8z M265.4,1088.7c3.6,0,5-3.1,5-6.2c0-3.2-1.4-6.3-5-6.3s-5,3.1-5,6.3C260.4,1085.6,261.8,1088.7,265.4,1088.7z"/>
    <path id="letter5" class="stroke" d="M292.9,1084.7c0,5-2.9,7.4-7.9,7.4c-5,0-7.8-2.4-7.8-7.4v-11.5h4.1v11.5c0,2,0.5,4,3.8,4c2.9,0,3.8-1.3,3.8-4v-11.5h4.1V1084.7z"/>
    <path id="letter6" class="stroke" d="M296.3,1073.3h9.9c3.3,0,5.4,2.3,5.4,5.1c0,2.2-0.9,3.8-2.9,4.6v0.1c2,0.5,2.6,2.5,2.7,4.3c0.1,1.2,0.1,3.3,0.8,4.4h-4.1c-0.5-1.2-0.4-2.9-0.6-4.4c-0.3-1.9-1-2.8-3.1-2.8h-4.1v7.2h-4.1V1073.3z M300.4,1081.6h4.4c1.8,0,2.8-0.8,2.8-2.6c0-1.8-1-2.6-2.8-2.6h-4.4V1081.6z"/>
    <path id="letter7" class="stroke" d="M330.7,1091.7h-4.6l-6-18.4h4.2l4.1,13h0.1l4.2-13h4.2L330.7,1091.7z"/>
    <path id="letter8" class="stroke" d="M338.4,1073.3h4.1v18.4h-4.1V1073.3z"/>
    <path id="letter9" class="stroke" d="M346,1073.3h13.8v3.4h-9.7v3.9h8.9v3.1h-8.9v4.5h9.9v3.4h-14V1073.3z"/>
    <path id="letter10" class="stroke" d="M380.3,1091.7h-4l-3.1-12.5h-0.1l-3.1,12.5h-4.1l-4.9-18.4h4.1l2.9,12.5h0.1l3.2-12.5h3.8l3.1,12.7h0.1l3-12.7h4L380.3,1091.7z"/>
    <path id="letter11" class="stroke" d="M389.9,1085.6c0,2.5,1.9,3.4,4.1,3.4c1.4,0,3.6-0.4,3.6-2.3c0-2-2.8-2.3-5.5-3c-2.7-0.7-5.5-1.8-5.5-5.2c0-3.8,3.6-5.6,6.9-5.6c3.8,0,7.4,1.7,7.4,5.9h-3.9c-0.1-2.2-1.7-2.8-3.6-2.8c-1.3,0-2.8,0.5-2.8,2.1c0,1.4,0.9,1.6,5.5,2.8c1.3,0.3,5.5,1.2,5.5,5.4c0,3.4-2.7,5.9-7.7,5.9c-4.1,0-7.9-2-7.8-6.6H389.9z"/>
</svg>
