<svg id="logo_icon" xmlns="http://www.w3.org/2000/svg" viewBox="0 0 761.96 421.94"><defs><style>.cls-1,.cls-2,.cls-3{fill:none;stroke:#fff;stroke-miterlimit:10;}.cls-2{stroke-width:0.07px;}.cls-3{stroke-width:0.27px;}</style></defs><title>intro_tv copy</title><path id="tv_base" class="cls-1" d="M435.54,358.29v-1.36h0c0-.35-.37-.64-.37-.64s-9.56-6.44-11.51-8-2.69-1.8-3.71-6.24c-1.33-5.77-3.41-32.59-3.41-32.59H345.43s-2.09,26.82-3.42,32.59c-1,4.44-1.75,4.68-3.71,6.24s-11.51,8-11.51,8-.39.29-.36.64h0v1.36s-.11,1.27,3.89,1.27H431.66C435.66,359.56,435.54,358.29,435.54,358.29Z"/><path id="tv_body" class="cls-1" d="M560.52,71.16V300.68a8.78,8.78,0,0,1-8.78,8.78H210.22a8.78,8.78,0,0,1-8.78-8.78V71.16a8.78,8.78,0,0,1,8.78-8.78H551.74A8.78,8.78,0,0,1,560.52,71.16Z"/><path id="tv_screen" class="cls-1" d="M546,262.63H216V76.82H546Z"/><path id="tv_screen1" class="cls-2" d="M393,176.51H368.92V162.93H393Z"/><path id="tv_screen2" class="cls-3" d="M546,176.51H216V162.93H546Z"/></svg>