<svg id="logo_icon" xmlns="http://www.w3.org/2000/svg" viewBox="0 0 761.96 421.94"><defs><style>.cls-1,.cls-2{fill:none;stroke:#fff;stroke-miterlimit:10;}.cls-2{stroke-width:0.25px;}</style></defs><title>intro_laptop copy</title><path id="laptop_front" class="cls-1" d="M425.29,34.42c3-1.76,5.52-.35,5.53,3.14l.42,142.08L205.9,309.73l-.4-142.08a12.12,12.12,0,0,1,5.49-9.51Z"/><path id="laptop_back" class="cls-1" d="M429.21,34l-.36-.17-.09,0a1.58,1.58,0,0,0-.31-.09l-.09,0a2.87,2.87,0,0,0-.41,0h-.08c-.12,0-.23,0-.35,0l-.17,0-.29,0-.23.05-.24.07a3,3,0,0,0-.39.14l-.21.08a6.52,6.52,0,0,0-.7.35L211,158.14c-.29.17-.57.37-.86.58l-.14.11c-.26.21-.52.44-.77.68l-.19.18-.36.4-.21.23-.22.26-.25.32-.15.21-.27.39-.11.16-.35.57a.41.41,0,0,1-.05.09l-.27.5c0,.05,0,.11-.08.16s-.17.35-.25.53l0,.08c-.09.2-.17.4-.25.6l-.06.18a4.59,4.59,0,0,0-.15.44,2,2,0,0,0-.07.23c0,.13-.07.26-.11.39l-.06.28c0,.11,0,.21-.06.31s-.06.29-.08.43l0,.24a7.85,7.85,0,0,0-.06,1l.42,148-5-2.9-.42-148a7.89,7.89,0,0,1,.07-1v-.11a.5.5,0,0,0,0-.12c0-.15.05-.3.08-.44l0-.2,0-.1c0-.1,0-.19.07-.29l.06-.25s0-.09,0-.14l.07-.22.06-.2.09-.25.06-.18a.36.36,0,0,0,0-.09c.06-.16.13-.33.2-.49v0l0-.08.18-.38s0-.1.07-.14l.09-.17.07-.16c.07-.11.13-.23.19-.34l.06-.09v0c.1-.16.19-.32.29-.47a.43.43,0,0,0,0-.07l.11-.16.17-.25.1-.14L203,158l.1-.14.15-.18.21-.26.09-.11.12-.12a4.59,4.59,0,0,1,.37-.39l.11-.13.07-.06a10,10,0,0,1,.78-.68l.14-.11a8.1,8.1,0,0,1,.86-.58L420.31,31.52a5.6,5.6,0,0,1,.69-.35l.08,0,.13,0,.39-.14.13,0,.12,0,.22,0a.7.7,0,0,1,.14,0l.15,0H423l.34,0h.05l.1,0,.16,0,.14.05.09,0,.06,0,.27.14h0Z"/><path id="laptop_screen" class="cls-1" d="M421.86,46.41l.38,134-207,119.54-.38-134Z"/><path id="laptop_bottom" class="cls-1" d="M559.16,266.13h0L344.86,389.86a9.66,9.66,0,0,1-1.12.54l-.07,0-.19.06c-.22.08-.45.17-.69.24l-.39.09-.22.05-.2.05c-.25.06-.51.1-.76.14l-.29,0-.19,0-.28,0c-.25,0-.51,0-.76,0h-.8c-.29,0-.57,0-.86-.06h-.1a1.81,1.81,0,0,0-.23,0l-.66-.1a2.86,2.86,0,0,1-.28-.07c-.27,0-.52-.12-.78-.19l-.41-.1-.32-.12-.3-.12a7.64,7.64,0,0,1-1.08-.51l-128-74.36,0-5.77,128,74.36a7.77,7.77,0,0,0,1.09.51l.3.12c.23.08.48.15.73.22l.77.2c.31.06.62.12.94.16l.24,0a11.2,11.2,0,0,0,1.3.07h.21a11.15,11.15,0,0,0,1.29-.07l.19,0c.42-.05.84-.12,1.25-.21l.22-.06a9.65,9.65,0,0,0,1.08-.33l.19-.06a9.14,9.14,0,0,0,1.18-.56l214.3-123.72h0c1.53-.89,2.3-2.05,2.29-3.21l0,5.77A3.88,3.88,0,0,1,559.16,266.13Z"/><path id="keyboard" class="cls-2" d="M414.83,201.11,410,198.27l21.16-12.21,4.88,2.83Zm-2.07,1.19-4.88-2.83-21.16,12.22,4.88,2.83Zm-49.28,22.81,4.88,2.83,21.16-12.22-4.88-2.83Zm-23.23,13.41,4.87,2.83,21.16-12.21-4.87-2.84ZM317,251.93l4.88,2.84,21.16-12.22-4.88-2.83Zm2.8,4-4.87-2.84-21.17,12.22,4.88,2.83Zm-23.23,13.41-4.88-2.83-21.16,12.21,4.88,2.84Zm-23.24,13.41L268.47,280l-21.16,12.22,4.87,2.83Zm-28.11,10.59L224.07,305.6l4.87,2.83,21.16-12.22Zm203.88-96.87-11.78-6.84-21.17,12.21L428,208.73Zm-23.24,13.42-11.78-6.85L392.93,215.3l11.78,6.85Zm-56.18,18.79,11.78,6.84,21.17-12.21-11.79-6.85Zm-23.23,13.41L358.24,249l21.16-12.22-11.78-6.85Zm-23.24,13.41L335,262.39l21.16-12.22-11.78-6.84Zm9.71,8-11.78-6.85L300,269l11.78,6.85ZM309.7,277l-11.79-6.84-21.16,12.21,11.78,6.85Zm-23.24,13.42-11.78-6.85-21.16,12.22,11.78,6.85Zm-23.24,13.42L251.44,297l-21.16,12.22,11.78,6.84Zm200-99.16-11.78-6.84-21.16,12.21L442,216.9ZM439.94,218.1l-11.79-6.85L407,223.47l11.78,6.85Zm-56.19,18.79,11.79,6.84,21.16-12.21-11.79-6.85ZM360.52,250.3l11.78,6.85,21.16-12.22-11.78-6.85Zm-23.23,13.41,11.78,6.85,21.16-12.22-11.78-6.84Zm9.7,8.05-11.78-6.85-21.16,12.22L325.83,284Zm-23.23,13.42L312,278.33l-21.16,12.22,11.78,6.84Zm-23.24,13.41-11.78-6.85L267.58,304l11.78,6.85ZM277.28,312l-11.78-6.85-21.16,12.22,11.78,6.84Zm200-99.15L465.45,206l-21.16,12.22,11.78,6.84ZM454,226.27l-11.79-6.85-21.16,12.22,11.78,6.85Zm-56.19,18.79,11.79,6.84,21.16-12.21L419,232.84Zm-23.23,13.41,11.78,6.85,21.16-12.22-11.78-6.85Zm-23.23,13.42,11.78,6.84,21.16-12.21-11.78-6.85Zm9.7,8-11.78-6.84L328.11,285.3l11.78,6.85Zm-23.23,13.42L326,286.5l-21.16,12.22,11.78,6.84Zm-23.24,13.41-11.78-6.85-21.16,12.22L293.42,319Zm-23.24,13.42-11.78-6.85L258.4,325.55l11.78,6.84Zm200-99.15-11.78-6.85L458.35,226.4l11.78,6.84Zm-23.23,13.41-11.78-6.84-21.16,12.21,11.78,6.85Zm-56.18,18.79,11.78,6.85,21.16-12.22L433,241Zm-23.23,13.42,11.77,6.84,21.16-12.22-11.77-6.84Zm-23.24,13.41,11.78,6.84,21.16-12.21-11.78-6.85Zm9.7,8-11.78-6.84-21.16,12.22L354,300.32Zm-23.23,13.42-11.78-6.85-21.16,12.22,11.78,6.84Zm-23.24,13.41-11.77-6.84L295.71,320.3l11.77,6.85ZM305.4,328.35l-11.77-6.85-21.16,12.22,11.77,6.85Zm200-99.15-11.78-6.85-21.16,12.22,11.78,6.85Zm-23.23,13.41-11.78-6.84L449.18,248,461,254.83ZM458.88,256l-11.78-6.84-90.87,52.46L368,308.49Zm-92.94,53.66-11.78-6.85L333,315.06l11.78,6.85ZM342.7,323.1l-11.77-6.84-21.16,12.22,11.77,6.84Zm-23.24,13.42-11.77-6.84-21.16,12.21,11.77,6.85Z"/><path id="trackpad" class="cls-1" d="M449.74,271.52l37.6,21.85-82.83,47.82-37.6-21.85Z"/><path id="laptop_base" class="cls-1" d="M559.14,260.37,344.84,384.09a12.08,12.08,0,0,1-11,0l-128-74.36L431.26,179.67h0L559.18,254C562.2,255.76,562.18,258.61,559.14,260.37Z"/></svg>