<svg id="Layer_1" data-name="Layer 1" xmlns="http://www.w3.org/2000/svg" viewBox="0 0 761.96 421.94"><defs><style>.cls-1{fill:#fff;stroke:#cccfdf;stroke-miterlimit:10;stroke-width:0.64px;}</style></defs><title>neck</title><g id="head"><path id="neck" class="cls-1" d="M377.77,195.54a23.29,23.29,0,0,1-3.19-.15c-11.57-1.08-19.15-6.8-23.17-17.51-.05-.12-.09-.24-.13-.36s-.12-.35-.19-.52a20.13,20.13,0,0,0,.14-12.19,46.64,46.64,0,0,0,23.65,6.5c.85,0,1.7,0,2.54-.08h1.42c.84.05,1.7.08,2.55.08a46.57,46.57,0,0,0,24.52-7l-.15.53a20,20,0,0,0-.06,10.75l.19.67a5.93,5.93,0,0,0-1.39,2.32,9.92,9.92,0,0,1-.87,1.43,10.24,10.24,0,0,0-.73,1.12,24.84,24.84,0,0,1-6.85,8.22A29.7,29.7,0,0,1,377.77,195.54ZM405.38,165a20.33,20.33,0,0,0,0,10.67l.13.47a7.33,7.33,0,0,0-1.32,2.3,7.75,7.75,0,0,1-.84,1.37c-.25.37-.51.74-.74,1.16a24.77,24.77,0,0,1-6.76,8.12,29.44,29.44,0,0,1-18.09,6.14c-1,0-2.09,0-3.16-.15-11.43-1.06-18.93-6.72-22.9-17.3a1.3,1.3,0,0,0-.13-.36l-.15-.42a20.4,20.4,0,0,0,.32-11.51,47,47,0,0,0,23.13,6.15c.86,0,1.72,0,2.56-.08h1.39c.84,0,1.7.08,2.56.08a46.87,46.87,0,0,0,24-6.64m1.07-1.42A46.51,46.51,0,0,1,381.39,171c-.86,0-1.7,0-2.53-.07H377.4c-.82,0-1.66.07-2.52.07a46.4,46.4,0,0,1-24.23-6.9,19.7,19.7,0,0,1,.1,12.93c.13.32.23.66.36,1,4.07,10.85,11.94,16.64,23.45,17.71q1.62.15,3.21.15a29.84,29.84,0,0,0,18.48-6.27,25.45,25.45,0,0,0,6.93-8.33c.49-.89,1.2-1.63,1.61-2.57.55-1.26.9-2,1.46-2.32l-.24-.88a19.79,19.79,0,0,1,.06-10.58l.38-1.34Z"/></g></svg>