<?xml version="1.0" encoding="utf-8"?>
<!-- Generator: Adobe Illustrator 22.1.0, SVG Export Plug-In . SVG Version: 6.00 Build 0)  -->
<svg version="1.1" id="Layer_1" xmlns="http://www.w3.org/2000/svg" xmlns:xlink="http://www.w3.org/1999/xlink" x="0px" y="0px"
	 viewBox="0 0 762 421.9" style="enable-background:new 0 0 762 421.9;" xml:space="preserve">
<style type="text/css">
	.st0{fill:#FFFFFF;stroke:#CCCFDF;stroke-width:0.64;stroke-miterlimit:10;}
	.st1{fill:#4D4D4D;}
	.st2{fill:#261300;}
	.st3{fill:#FF7C00;}
	.st4{fill:#E45126;}
	.st5{fill:#F1682B;}
	.st6{fill:#EBEBEB;}
	.st7{fill:#FFFFFF;}
	.st8{fill:#333333;}
	.st9{fill:#001D26;}
	.st10{fill:#00C8FF;}
	.st11{fill:#1673B6;}
	.st12{fill:#35A9DB;}
	.st13{fill:#292929;}
	.st14{fill:#E4A227;}
	.st15{fill:#F0BF26;}
	.st16{fill:#1F0040;}
	.st17{fill:#D291FF;}
	.st18{fill:none;stroke:#CCCFDF;stroke-width:0.64;stroke-miterlimit:10;}
</style>
<g id="right_arm3">
	<path id="r_arm3" class="st0" d="M479.3,210.2c-4.1-0.3-4.4-4.1-6-6.7c-0.3-0.7-0.5-1.4-0.6-2.2c1.2-8.7-1.6-15.4-9.6-19.6
		c-0.5-0.4-1-0.9-1.4-1.5c-1.2-2.1-2.3-4.3-3.3-6.5c-0.3-0.6-0.5-1.3-0.6-2c0.7-3.1-1.2-7.4,3.6-8.8c20.6-1.2,38.8-10.4,57.4-18
		c4.8-2.1,9.2-5.1,13-8.8c10.1-9.4,21.8-16.8,34.6-22c18.5-7.4,36.7-15.5,52.3-28.5c3.7-3.1,6.6-6.2,6.6-11.4
		c-0.1-6.4,1.1-12.8,3.7-18.7c1.3-3.2,1.9-6.7,1.5-10.1c-0.2-1.7-1.4-4,1.4-4.4c2-0.3,3.2,1.4,4.2,3c2.3,3.8,1.9,7.9,1.6,12
		c-0.4,6.5,0.9,7.5,7,4.9c4-1.7,7.7-4.1,10.9-7.1c4.5-4.4,10-7.3,15.2-10.6c2.1-1.3,5.1-2.4,6.7,0.5c1.5,2.7-1.3,4.1-3.2,5.2
		c-5.4,3.1-9,7.9-13.1,12.4c6.4-3.3,12.5-7.1,18.7-10.7c2.3-1.3,5.3-3.4,7.2,0.1s-1.8,4-3.7,5.4c-5.6,4.3-11.2,8.7-16.9,13
		c6.9-1,12.8-3.3,18.7-5.8c2.2-0.9,4.6-2.2,6.1,0.5c1.6,2.9-1,3.9-3.2,4.9c-3.3,1.5-6.6,3.3-9.7,5.3c-3,2.1-9.8,1.6-8.7,5.7
		c0.9,3.4,7.3,1.5,11.3,1.6c2.4,0,6.3-2.1,6.6,2.1c0.2,3.5-3.8,3.2-6.4,3.7c-1.1,0.2-2.3,0.3-3.4,0.3c-9.6,0.2-18.6,1.8-25.9,9
		c-2.2,2.1-5.1,3.3-8.1,3.4c-3.2,0.1-5.7,1.8-7.9,3.8c-8.9,7.9-17.8,15.8-26.5,24c-18,16.9-37,32.3-60.8,40.4
		c-12.6,4.3-23.5,11.3-33.4,20c-4.8,4.3-9.9,8.1-15.5,11.4C493.4,203.8,486,206.4,479.3,210.2z"/>
	<path id="r_x5F_sleeve3" class="st1" d="M426.5,179.2l4.9-5c4.8-3.9,10.3-7,16.1-9.2c17-6.7,33.9-13.7,50.7-20.7
		c2.2-0.9,3.5-0.7,5,1.2c5.2,6.9,9.3,14.5,13.7,22c2.8,4.7,5.4,9.4,8.2,14.1s2.7,9.1-0.6,13.4c0,0-46.9,29.5-59.2,51L426.5,179.2z"
		/>
	<g id="ai_icon">
		<path class="st2" d="M635.3,49.5H680v43.4h-44.7V49.5z"/>
		<path class="st3" d="M633.3,47.4v47.5H682V47.4H633.3z M635.3,49.4H680v43.4h-44.7L635.3,49.4z"/>
		<path class="st3" d="M650.2,74.3l-1.6,6.1c0,0.2-0.1,0.2-0.3,0.2h-3c-0.2,0-0.2-0.1-0.2-0.3l5.8-20.2c0.1-0.5,0.2-1.1,0.2-1.7
			c0-0.1,0.1-0.2,0.2-0.2h4.3c0.1,0,0.2,0,0.2,0.2l6.5,21.9c0,0.2,0,0.3-0.2,0.3h-3.4c-0.2,0-0.3,0-0.3-0.2l-1.7-6.1L650.2,74.3z
			 M655.8,71c-0.6-2.2-1.9-7.2-2.4-9.5l0,0c-0.4,2.4-1.5,6.4-2.3,9.5H655.8z M665,59.8c-0.1-1.1,0.8-2.1,1.9-2.2
			c1.1-0.1,2.1,0.8,2.2,1.9c0,0.1,0,0.2,0,0.3c0.1,1.1-0.7,2-1.8,2.1c-0.1,0-0.2,0-0.3,0c-1.1,0.1-2-0.8-2-1.8
			C665,59.9,665,59.8,665,59.8z M665.2,64.4c0-0.2,0.1-0.2,0.2-0.2h3.2c0.2,0,0.2,0.1,0.2,0.2v16c0,0.2,0,0.2-0.2,0.2h-3.2
			c-0.2,0-0.3-0.1-0.3-0.3V64.4L665.2,64.4z"/>
	</g>
</g>
<g id="left_arm3">
	<path id="l_arm3" class="st0" d="M257.6,199.4c-5.5-3.2-10.7-7-15.5-11.4c-9.9-8.7-20.8-15.7-33.4-20
		c-23.8-8.1-42.8-23.5-60.8-40.4c-8.7-8.2-17.6-16.1-26.5-24c-2.2-2-4.7-3.7-7.9-3.8c-3-0.1-5.9-1.3-8.1-3.4
		c-7.3-7.2-16.3-8.8-25.9-9c-1.1,0-2.3-0.1-3.4-0.3c-2.6-0.5-6.6-0.3-6.4-3.7c0.2-4.3,4.2-2.1,6.6-2.1c4-0.1,10.3,1.8,11.2-1.6
		c1.1-4.1-5.7-3.7-8.7-5.7c-3.1-2-6.3-3.7-9.7-5.3c-2.1-1.1-4.7-2-3.2-4.9c1.4-2.7,3.9-1.4,6.1-0.5c5.9,2.4,11.8,4.7,18.7,5.8
		c-5.6-4.3-11.2-8.7-16.9-13c-1.8-1.4-5.5-2.1-3.7-5.4s5-1.4,7.2-0.1c6.2,3.6,12.3,7.4,18.7,10.7c-4-4.5-7.7-9.3-13.1-12.4
		c-1.9-1.1-4.6-2.5-3.2-5.2c1.6-3,4.6-1.8,6.7-0.5c5.2,3.2,10.8,6.2,15.2,10.6c3.2,3,6.9,5.4,10.9,7.1c6,2.6,7.4,1.6,6.9-4.9
		c-0.3-4.1-0.7-8.3,1.7-12c1-1.6,2.3-3.3,4.2-3c2.8,0.5,1.5,2.7,1.4,4.4c-0.4,3.4,0.2,6.9,1.5,10.1c2.5,5.9,3.8,12.3,3.7,18.7
		c0,5.1,2.9,8.3,6.6,11.4c15.5,13,33.8,21,52.3,28.5c12.8,5.2,24.5,12.6,34.6,22c3.8,3.7,8.2,6.7,13,8.8c18.6,7.6,36.7,16.8,57.4,18
		c4.8,1.5,2.9,5.7,3.6,8.8c-0.1,0.7-0.3,1.4-0.6,2c-1,2.2-2.1,4.4-3.3,6.5c-0.4,0.6-0.8,1.1-1.4,1.5c-8,4.2-10.8,10.9-9.6,19.6
		c-0.1,0.7-0.3,1.5-0.6,2.2c-1.6,2.6-1.9,6.4-6,6.7C271.3,206.4,264,203.8,257.6,199.4z"/>
	<g id="html_icon">
		<polygon class="st4" points="75.6,87.5 70.8,37.9 119.4,37.4 115.4,87.2 95.6,92.9 		"/>
		<polygon class="st5" points="95.6,88.7 111.6,84 115,41.5 95.1,41.7 		"/>
		<polygon class="st6" points="95.3,60.2 87.2,60.2 86.6,54 95.2,53.9 95.2,47.8 95.2,47.8 79.9,48 80.1,49.6 81.7,66.4 95.4,66.2 
					"/>
		<polygon class="st6" points="95.4,76 95.4,76 88.6,74.2 88.1,69.4 84.8,69.4 82,69.4 82.9,79 95.5,82.3 95.5,82.3 		"/>
		<path class="st7" d="M75.2,24.3h3.1v3.1h2.8v-3.1h3.1l0.1,9.3h-3.1v-3.1h-2.8v3.1h-3.1L75.2,24.3L75.2,24.3z"/>
		<path class="st7" d="M88.3,27.3h-2.7v-3.1l8.6-0.1v3.1h-2.7v6.2h-3.1L88.3,27.3L88.3,27.3z"/>
		<path class="st7" d="M95.5,24.1h3.2l2,3.2l2-3.3h3.2l0.1,9.3h-3.1v-4.6l-2.1,3.3l0,0l-2.2-3.3v4.6h-3l-0.1-9.3H95.5z"/>
		<path class="st7" d="M107.4,24h3.1v6.2h4.4v3.1l-7.4,0.1L107.4,24z"/>
		<polygon class="st7" points="95.3,60.2 95.3,66.2 102.8,66.2 102.2,74.1 95.4,76 95.5,82.3 107.9,78.8 108,77.7 109.3,61.7 
			109.4,60 107.8,60 		"/>
		<polygon class="st7" points="95.2,47.8 95.2,51.6 95.2,53.9 95.2,53.9 109.9,53.8 109.9,53.8 109.9,53.8 110.1,52.4 110.3,49.3 
			110.4,47.7 		"/>
	</g>
	<path id="l_x5F_sleeve3" class="st1" d="M330.9,179.2l-4.9-5c-4.8-3.9-10.3-7-16.1-9.2c-17-6.7-33.9-13.7-50.7-20.7
		c-2.2-0.9-3.6-0.7-5,1.2c-5.2,6.9-9.3,14.5-13.7,22c-2.8,4.7-5.4,9.4-8.2,14.1s-2.7,9.1,0.6,13.4c0,0,46.9,29.5,59.2,51
		L330.9,179.2z"/>
</g>
<title>portrait</title>
<g id="head">
	<path id="face1" class="st0" d="M437.9,81.9c0-0.1,0-0.2-0.1-0.3c-0.1-0.3-0.1-0.7-0.1-1c-2.4-47.5-40.7-60.3-54.1-63.5
		c-3.6-0.6-7.2-0.6-10.8,0c-13.5,3.2-51.7,16.1-54.1,63.6c0,0.3-0.1,0.7-0.1,1c0,0.1-0.1,0.2-0.1,0.3c-0.1,0.5-0.2,1-0.1,1.5
		c0.9,8.8,3.4,29.5,6.8,42.5c9.5,36.4,34.6,46,52.3,45h0.7h0.7c17.7,1,42.9-8.6,52.3-45c3.4-13,5.9-33.6,6.8-42.5
		C438,83,438,82.4,437.9,81.9z"/>
	<path id="l_ear" class="st0" d="M318.3,83.5c0.3,2.9,0.7,7,1.4,11.8c-4.7-0.8-7.9-5.4-7.1-10.1c0.6-3.3,3-6,6.2-6.9
		c-0.1,0.8-0.1,1.6-0.2,2.5c0,0.3-0.1,0.7-0.1,1c0,0.1-0.1,0.2-0.1,0.3C318.3,82.5,318.2,83,318.3,83.5z"/>
	<path id="r_ear" class="st0" d="M445.3,87.1c-0.3,4.6-4.1,8.2-8.7,8.2c0.6-4.8,1.1-9,1.4-11.9c0.1-0.5,0-1-0.1-1.5
		c0-0.1,0-0.2-0.1-0.3c-0.1-0.3-0.1-0.7-0.1-1c0-0.9-0.1-1.8-0.2-2.8C442.1,78.4,445.6,82.5,445.3,87.1z"/>
	<path id="face2" class="st0" d="M412.6,125.5c-8.5,0-20.6-6.3-33.7-3.7l-0.7-0.1l-0.7,0.1c-13.1-2.6-25.3,3.7-33.7,3.7
		c-12.1,0-19.5-35.6-18.5-41.2c1.4-7.8,14.1-27.2,11.8-31.2c-6.2-11,25.6-40.2,32.6-24.4c1.3,2.9-3.1,4,0,6c0,0,5.4,2.3,7.1,2.3h2.6
		c1.8,0,7.1-2.3,7.1-2.3c3.1-2-1.3-3.1,0-6c7-15.8,39,14.3,32.8,25.3c-2.3,4,10.3,22.5,11.7,30.3C432,89.9,424.6,125.5,412.6,125.5z
		"/>
	<path id="neck" class="st0" d="M377.8,195.5c-1,0-2.1,0-3.2-0.1c-11.6-1.1-19.1-6.8-23.2-17.5c0-0.1-0.1-0.2-0.1-0.4
		s-0.1-0.4-0.2-0.5c1.3-4,1.4-8.2,0.1-12.2c7.2,4.2,15.3,6.5,23.6,6.5c0.9,0,1.7,0,2.5-0.1h0.7h0.7c0.8,0.1,1.7,0.1,2.5,0.1
		c8.7,0,17.2-2.4,24.5-7l-0.1,0.5c-1,3.5-1,7.2-0.1,10.8l0.2,0.7c-0.6,0.7-1.1,1.5-1.4,2.3c-0.2,0.5-0.5,1-0.9,1.4
		c-0.3,0.4-0.5,0.7-0.7,1.1c-1.7,3.2-4,6-6.9,8.2C390.8,193.4,384.4,195.6,377.8,195.5z M405.4,165c-0.9,3.5-0.9,7.2,0,10.7l0.1,0.5
		c-0.6,0.7-1,1.5-1.3,2.3c-0.2,0.5-0.5,0.9-0.8,1.4c-0.2,0.4-0.5,0.7-0.7,1.2c-1.6,3.2-3.9,5.9-6.8,8.1c-5.2,4-11.5,6.2-18.1,6.1
		c-1,0-2.1-0.1-3.2-0.1c-11.4-1.1-18.9-6.7-22.9-17.3c0-0.1-0.1-0.2-0.1-0.4l-0.1-0.4c1.2-3.7,1.3-7.7,0.3-11.5
		c7.1,4,15,6.1,23.1,6.1c0.9,0,1.7,0,2.6-0.1h0.1h0.6h0.6h0.1c0.8,0,1.7,0.1,2.6,0.1C389.8,171.6,398.1,169.3,405.4,165
		 M406.5,163.6c-7.5,4.8-16.2,7.4-25.1,7.4c-0.9,0-1.7,0-2.5-0.1h-0.7h-0.7c-0.8,0.1-1.7,0.1-2.5,0.1c-8.6,0-16.9-2.4-24.2-6.9
		c1.5,4.2,1.5,8.7,0.1,12.9c0.1,0.3,0.2,0.7,0.4,1c4.1,10.9,11.9,16.6,23.5,17.7c1.1,0.1,2.1,0.1,3.2,0.1c6.7,0,13.2-2.2,18.5-6.3
		c2.9-2.2,5.2-5.1,6.9-8.3c0.5-0.9,1.2-1.6,1.6-2.6c0.5-1.3,0.9-2,1.5-2.3l-0.2-0.9c-0.9-3.5-0.9-7.1,0.1-10.6L406.5,163.6
		L406.5,163.6z"/>
</g>
<g id="right_arm2">
	<path id="r_arm2" class="st0" d="M494.8,236.6c6.4,0.1,12.8-0.5,19.1-1.8c13-2.4,25.9-2.8,38.9,0c24.6,5.3,48.8,1.9,72.9-3.4
		c11.6-2.5,23.3-4.7,35-7c2.9-0.6,5.9-0.7,8.7,0.8c2.7,1.5,5.8,1.9,8.7,1.2c9.9-2.4,18.5,0.8,26.8,5.6c1,0.6,2,1.1,3.1,1.5
		c2.5,0.9,5.8,3.1,7.4,0.1c2-3.8-2.5-3.9-4.6-5.2c-3.4-2.1-9.8-3.7-8.8-7.2c1.2-4.1,6.8-0.2,10.4-0.4c3.7-0.1,7.3,0,11,0.4
		c2.3,0.2,5.1,0.7,5.2-2.6c0.1-3-2.6-3.2-5-3.5c-6.3-1-12.6-2-19-4.7c7.1-0.8,14.2-1.6,21.2-2.4c2.3-0.3,5.8,1,5.9-2.8
		s-3.5-3.7-6.1-3.8c-7.2-0.1-14.3,0.1-21.5-0.4c5.8-1.8,11.4-4,17.6-3.9c2.2,0,5.2,0.3,5.4-2.8c0.2-3.4-3-3.9-5.5-3.9
		c-6.2,0.1-12.4-0.2-18.5,1.2c-4.3,1-8.7,1.1-13,0.5c-6.5-0.9-7.2-2.4-3.5-7.8c2.4-3.4,4.8-6.8,4.8-11.2c0-1.9-0.2-4-2.1-4.7
		c-2.6-1.1-2.7,1.6-3.5,3.1c-1.5,3.1-3.7,5.9-6.5,7.9c-5.2,3.8-9.6,8.6-12.8,14.1c-2.6,4.4-6.7,5.6-11.5,6.4
		c-20,3.1-39.8,0.7-59.5-2.4c-13.6-2.1-27.5-1.7-41,1.1c-5.1,1.2-10.5,1.5-15.7,0.9c-19.9-3.1-40.2-4.4-58.5-14.1
		c-4.9-1.2-5.4,3.4-7.6,5.7c-0.3,0.6-0.4,1.3-0.5,2c-0.3,2.4-0.5,4.8-0.5,7.3c0,0.7,0.2,1.4,0.4,2c4.7,7.7,3.6,14.9-1.9,21.8
		c-0.3,0.7-0.5,1.4-0.5,2.2c0.1,3-1.7,6.4,1.7,8.8C479.4,235.5,487.1,237.1,494.8,236.6z"/>
	<path id="r_sleeve2" class="st8" d="M513.5,247.8c1.7-0.6,3.2-1.5,4.9-2.2c5-2.1,7.5-5.8,7.4-11.2s0.2-10.9,0.2-16.3
		c0.1-8.6,0.5-17.3-0.5-25.9c-0.2-2.4-1.3-3.2-3.7-3.6c-18.1-2.7-36.1-5.3-54.2-8.3c-6.1-1.2-12.4-1.3-18.5-0.4l-6.8,1.8l70.5,69.1
		C511.7,249.3,511.4,248.5,513.5,247.8z"/>
	<g id="ps_icon">
		<path class="st9" d="M656.2,180.5h44.6v43.4h-44.6V180.5z"/>
		<path class="st10" d="M654.1,178.5v47.5h48.7v-47.5H654.1z M656.1,180.5h44.6v43.4h-44.6L656.1,180.5z M665.8,189.6
			c0-0.1,0.3-0.2,0.5-0.2c1.3-0.1,3.2-0.1,5.2-0.1c5.6,0,7.8,3.1,7.8,7c0,5.2-3.7,7.4-8.3,7.4c-0.8,0-1,0-1.6,0v7.8
			c0,0.2-0.1,0.2-0.2,0.2h-3.1c-0.2,0-0.2-0.1-0.2-0.2V189.6L665.8,189.6z M669.5,200.3c0.5,0,0.8,0,1.7,0c2.4,0,4.6-0.8,4.6-4.1
			c0-2.6-1.6-3.9-4.3-3.9c-0.8,0-1.6,0-2,0.1L669.5,200.3L669.5,200.3z M686.9,198c-1.6,0-2.2,0.8-2.2,1.5s0.4,1.2,2.5,2.4
			c3.2,1.5,4.2,3,4.2,5.2c0,3.2-2.5,5-5.8,5c-1.4,0.1-2.9-0.2-4.2-0.9c-0.1-0.1-0.2-0.2-0.2-0.3v-3c0-0.2,0.1-0.3,0.2-0.2
			c1.2,0.8,2.6,1.2,4.1,1.2c1.6,0,2.3-0.7,2.3-1.6c0-0.7-0.5-1.4-2.5-2.4c-2.9-1.4-4.1-2.8-4.1-5.1c0-2.6,2-4.8,5.6-4.8
			c1.2-0.1,2.5,0.1,3.6,0.6c0.1,0.1,0.2,0.2,0.2,0.4v2.8c0,0.2-0.1,0.3-0.3,0.2C689.4,198.3,688.2,198,686.9,198z"/>
	</g>
</g>
<g id="left_arm2">
	<path id="l_arm2" class="st0" d="M262.5,236.6c-6.4,0.1-12.8-0.5-19.1-1.8c-13-2.4-25.9-2.8-38.9,0c-24.6,5.3-48.8,1.9-72.9-3.4
		c-11.6-2.5-23.3-4.7-35-7c-2.9-0.6-5.9-0.7-8.7,0.8c-2.7,1.5-5.8,1.9-8.8,1.2c-9.9-2.4-18.5,0.8-26.8,5.6c-1,0.6-2,1.1-3.1,1.5
		c-2.5,0.9-5.8,3.1-7.4,0.1c-2-3.8,2.5-3.9,4.5-5.2c3.4-2.1,9.8-3.7,8.8-7.2c-1.2-4.1-6.8-0.2-10.4-0.4c-3.7-0.1-7.3,0-11,0.4
		c-2.4,0.2-5.1,0.7-5.2-2.6c-0.1-3,2.6-3.2,5-3.5c6.3-1,12.6-2,19-4.7c-7-0.8-14.1-1.6-21.1-2.4c-2.3-0.3-5.8,1-5.9-2.8
		s3.5-3.7,6.1-3.8c7.2-0.1,14.3,0.1,21.6-0.4c-5.8-1.8-11.4-4-17.6-3.9c-2.2,0-5.2,0.3-5.4-2.8c-0.2-3.4,3-3.9,5.5-3.9
		c6.2,0.1,12.4-0.2,18.5,1.2c4.3,1,8.7,1.1,13,0.5c6.5-0.9,7.2-2.4,3.5-7.8c-2.4-3.4-4.8-6.8-4.8-11.2c0-1.9,0.2-4,2.1-4.7
		c2.6-1.1,2.7,1.6,3.4,3.1c1.5,3.1,3.7,5.9,6.5,7.9c5.2,3.8,9.6,8.6,12.8,14.1c2.6,4.4,6.7,5.6,11.5,6.4c20,3.1,39.8,0.7,59.5-2.4
		c13.6-2.1,27.5-1.7,41,1.1c5.1,1.2,10.5,1.5,15.7,0.9c19.9-3.1,40.2-4.4,58.5-14.1c4.9-1.2,5.4,3.4,7.6,5.7c0.3,0.6,0.4,1.3,0.5,2
		c0.3,2.4,0.5,4.8,0.5,7.3c0,0.7-0.2,1.4-0.4,2c-4.7,7.7-3.6,14.9,1.9,21.8c0.3,0.7,0.5,1.4,0.5,2.2c-0.1,3,1.7,6.4-1.7,8.8
		C277.9,235.5,270.3,237.1,262.5,236.6z"/>
	<path id="l_sleeve2" class="st8" d="M243.8,247.8c-1.7-0.6-3.2-1.5-4.9-2.2c-5.1-2.1-7.4-5.8-7.4-11.2s-0.1-10.9-0.2-16.3
		c-0.1-8.6-0.4-17.3,0.5-25.9c0.2-2.4,1.3-3.2,3.7-3.6c18.1-2.7,36.1-5.3,54.2-8.3c6.1-1.2,12.4-1.3,18.5-0.4l6.8,1.8l-70.5,69.1
		C245.6,249.3,245.9,248.5,243.8,247.8z"/>
	<g id="cs_icon">
		<polygon class="st7" points="75.8,164 71.8,164 76,168.6 76,170.8 67.3,170.8 67.3,168.2 71.5,168.2 67.3,163.7 67.3,161.5 
			75.8,161.5 		"/>
		<polygon class="st7" points="65.6,164 61.6,164 65.8,168.6 65.8,170.8 57.1,170.8 57.1,168.2 61.3,168.2 57.1,163.7 57.1,161.5 
			65.6,161.5 		"/>
		<polygon class="st7" points="55.5,164.1 51.1,164.1 51.1,168.1 55.5,168.1 55.5,170.8 48,170.8 48,161.5 55.5,161.5 		"/>
		<polygon class="st11" points="42.1,224.7 37.7,175 86.3,175 81.9,224.7 62,230.2 		"/>
		<polygon class="st12" points="62,226 78.1,221.5 81.9,179.1 62,179.1 		"/>
		<polygon class="st7" points="62,197.1 70.1,197.1 70.6,190.8 62,190.8 62,184.7 62,184.7 77.3,184.7 77.2,186.4 75.7,203.2 
			62,203.2 		"/>
		<polygon class="st6" points="62,212.9 62,212.9 55.2,211.1 54.8,206.2 51.5,206.2 48.7,206.2 49.5,215.8 62,219.2 62,219.2 		"/>
		<polygon class="st7" points="69.6,202.9 68.8,211.1 62,212.9 62,219.2 74.5,215.8 74.6,214.8 75.7,202.9 		"/>
		<polygon class="st6" points="62,184.7 62,188.5 62,190.8 62,190.8 47.3,190.8 47.3,190.8 47.3,190.8 47.2,189.5 46.9,186.4 
			46.8,184.7 		"/>
		<polygon class="st6" points="62,197.1 62,200.9 62,203.1 62,203.2 55.3,203.2 55.3,203.2 55.3,203.2 55.2,201.8 54.9,198.7 
			54.8,197.1 		"/>
	</g>
</g>
<path id="r_arm1" class="st0" d="M447.4,246.1c-1-4,2.5-5.5,4.4-7.9c0.6-0.5,1.2-1,1.8-1.3c8.6-1.8,14-6.6,15.4-15.5
	c0.2-0.7,0.6-1.3,1-1.8c1.6-1.8,3.3-3.6,5-5.3c0.5-0.5,1.1-0.9,1.7-1.2c3.2-0.4,6.5-3.6,9.5,0.5c7.9,19.1,22.6,33.1,35.9,48.2
	c3.6,3.9,7.9,7,12.6,9.4c12.2,6.4,23.1,15,32.3,25.4c13.1,15,26.8,29.5,44.1,40c4.1,2.5,8.1,4.2,12.9,2.5c6-2.2,12.5-3.2,18.9-2.7
	c3.4,0.2,6.9-0.5,10-1.9c1.5-0.7,3.3-2.7,4.6-0.2c1,1.7-0.2,3.5-1.4,5c-2.8,3.4-6.8,4.4-10.8,5.5c-6.2,1.7-6.7,3.3-2.3,8.2
	c2.9,3.3,6.4,6,10.3,8c5.6,2.8,10.2,7,15,10.9c1.9,1.5,4,4,1.7,6.5c-2.1,2.3-4.3,0.1-5.9-1.3c-4.7-4.1-10.4-6-16-8.3
	c5.2,5,10.8,9.5,16.3,14.1c2,1.7,4.9,3.9,2.3,6.8s-4.4-0.4-6.3-1.7c-5.9-3.9-11.9-7.8-17.8-11.7c3.2,6.1,7.4,11,11.6,15.8
	c1.6,1.8,3.6,3.6,1.5,5.9c-2.2,2.5-4,0.3-5.7-1.4c-2.5-2.6-5.3-5.1-8.2-7.4c-3-2.2-4.8-8.7-8.3-6.4c-3,2,0.9,7.4,2.2,11.2
	c0.8,2.3,4.1,5.3,0.2,6.9c-3.2,1.3-4.3-2.5-5.6-4.8c-0.6-1-1-2-1.4-3.1c-3.3-9-7.9-17-17-21.5c-2.7-1.4-4.8-3.7-5.9-6.5
	c-1.2-3-3.6-4.8-6.2-6.2c-10.4-5.8-20.8-11.6-31.4-17.1c-21.9-11.5-42.7-24.3-58.2-44.1c-8.2-10.5-18.4-18.5-29.9-24.9
	c-5.6-3.1-11-6.7-15.8-10.9C458.1,257.3,453.2,251.2,447.4,246.1z"/>
<path id="r_sleeve1" class="st13" d="M469.2,284.3l-9.9-98.2l6.3,3c5.3,3.3,10,7.4,14,12.2c12,13.8,24.1,27.4,36.3,41.1
	c1.6,1.8,1.9,3.1,0.5,5.1c-4.8,7.2-10.6,13.6-16.2,20.2c-3.5,4.1-7.1,8.2-10.6,12.4s-7.7,5.5-12.9,3.9c-1.7-0.5-3.5-0.8-5.1-1.4
	C469.5,281.6,469.2,282.4,469.2,284.3z"/>
<g id="left_arm1">
	<path id="l_arm1" class="st0" d="M292.9,261.8c-4.9,4.2-10.2,7.8-15.9,10.9c-11.5,6.5-21.7,14.4-29.9,24.9
		c-15.5,19.8-36.3,32.7-58.2,44.1c-10.6,5.5-21,11.3-31.4,17.1c-2.6,1.4-5,3.2-6.2,6.2c-1.1,2.8-3.2,5.2-5.9,6.5
		c-9.1,4.5-13.7,12.4-17,21.5c-0.4,1.1-0.9,2.1-1.4,3.1c-1.3,2.3-2.4,6.1-5.6,4.8c-4-1.6-0.6-4.6,0.2-6.9c1.3-3.8,5.1-9.1,2.2-11.2
		c-3.5-2.4-5.3,4.2-8.3,6.4c-2.9,2.3-5.6,4.7-8.2,7.4c-1.7,1.6-3.4,3.8-5.7,1.4c-2-2.2,0-4.1,1.6-5.9c4.2-4.8,8.4-9.6,11.6-15.8
		c-5.9,3.9-11.8,7.8-17.8,11.7c-2,1.3-3.8,4.5-6.3,1.7s0.3-5.1,2.3-6.8c5.4-4.7,11-9.1,16.3-14.1c-5.6,2.3-11.4,4.2-16,8.3
		c-1.7,1.4-3.8,3.6-6,1.3c-2.3-2.5-0.2-4.9,1.7-6.5c4.8-3.9,9.4-8.1,15-10.9c3.9-2,7.4-4.7,10.3-8c4.4-4.8,4-6.5-2.3-8.2
		c-4-1.1-8-2.1-10.8-5.5c-1.2-1.5-2.4-3.2-1.4-5c1.3-2.5,3.1-0.5,4.6,0.2c3.1,1.5,6.6,2.1,10,1.9c6.4-0.4,12.8,0.5,18.9,2.7
		c4.9,1.7,8.8,0,12.9-2.5c17.4-10.4,31-25,44.1-40c9.1-10.3,20-18.9,32.2-25.4c4.7-2.3,9-5.5,12.6-9.4c13.3-15.1,28-29.1,35.9-48.2
		c3-4,6.3-0.9,9.5-0.5c0.6,0.3,1.2,0.7,1.7,1.2c1.8,1.7,3.5,3.4,5,5.3c0.4,0.5,0.8,1.2,1,1.8c1.3,9,6.8,13.8,15.4,15.5
		c0.7,0.4,1.3,0.8,1.8,1.3c1.9,2.4,5.4,3.9,4.4,7.9C304.1,251.2,299.3,257.3,292.9,261.8z"/>
	<path id="l_sleeve1" class="st13" d="M285.8,282.4c-1.6,0.6-3.5,0.9-5.1,1.4c-5.2,1.7-9.4,0.4-12.9-3.9s-7.1-8.2-10.6-12.4
		c-5.6-6.6-11.4-13-16.2-20.2c-1.4-2-1.1-3.4,0.5-5.1c12.2-13.6,24.3-27.2,36.3-41.1c3.9-4.8,8.7-8.9,14-12.2l6.4-3l-9.9,98.2
		C288.1,282.4,287.8,281.6,285.8,282.4z"/>
	<g id="js_icon">
		<polygon class="st14" points="105.6,377.8 101.2,328.1 149.9,328.1 145.4,377.8 125.5,383.3 		"/>
		<polygon class="st15" points="125.5,379 141.6,374.6 145.4,332.1 125.5,332.1 		"/>
		<polygon class="st7" points="134.2,317.1 130.2,317.1 134.4,321.7 134.4,323.9 125.7,323.9 125.7,321.3 129.9,321.3 125.7,316.8 
			125.7,314.6 134.2,314.6 		"/>
		<path class="st7" d="M124.2,314.6v9.3h-7.4v-3.1h4.4v-6.2L124.2,314.6z"/>
		<polygon class="st6" points="125.5,366.4 125.5,366.4 118.7,364.5 118.2,359.7 114.9,359.7 112.1,359.7 113,369.2 125.5,372.7 
			125.5,372.7 		"/>
		<polygon class="st6" points="126.3,356.6 126.3,350.5 118.8,350.5 119.7,341 126.3,340.8 126.3,334.5 114.2,334.5 113.7,339 
			112.3,355 112.2,356.6 113.8,356.6 		"/>
		<polygon class="st7" points="126.3,340.8 126.3,340.8 133,341.2 133.5,347.5 136.8,347.5 139.6,347.5 138.6,335.7 126.3,334.5 
			126.3,334.5 		"/>
		<polyline class="st7" points="139,340.8 138.5,334.5 125.6,334.5 125.6,338.4 125.6,340.8 125.6,340.8 139,340.8 		"/>
		<polygon class="st7" points="125.5,350.5 125.5,356.6 133,356.6 132.3,364.5 125.5,366.4 125.5,372.7 138,369.2 138.1,368.2 
			139.5,352.2 139.6,350.5 138,350.5 		"/>
	</g>
</g>
<g id="ae_icon">
	<path class="st16" d="M603.9,328.8h44.6v43.4h-44.6V328.8z"/>
	<path class="st17" d="M601.9,326.8v47.5h48.7v-47.5H601.9z M603.9,328.8h44.6v43.4h-44.6L603.9,328.8z M615.6,353.7l-1.6,6.1
		c0,0.2-0.1,0.2-0.3,0.2h-3c-0.2,0-0.2-0.1-0.2-0.3l5.8-20.1c0.1-0.5,0.2-1.1,0.2-1.7c0-0.1,0.1-0.2,0.2-0.2h4.3
		c0.1,0,0.2,0,0.2,0.2l6.5,21.9c0,0.2,0,0.3-0.2,0.3h-3.3c-0.1,0-0.3-0.1-0.3-0.2l-1.7-6.1L615.6,353.7z M621.3,350.4
		c-0.6-2.2-1.9-7.2-2.5-9.5l0,0c-0.4,2.4-1.5,6.4-2.4,9.5H621.3z M632.2,352.5c0,2.7,1.3,4.6,4.4,4.6c1.1,0,2.3-0.2,3.3-0.6
		c0.2-0.1,0.2,0,0.2,0.1v2.5c0,0.2-0.1,0.3-0.2,0.4c-1.3,0.6-2.7,0.8-4.1,0.8c-5.4,0-7.4-4-7.4-8.4c0-4.8,2.5-8.7,6.8-8.7
		s6,3.7,6,6.7c0,0.7,0,1.4-0.2,2.1c0,0.1-0.1,0.2-0.3,0.3c-1.1,0.1-2.3,0.2-3.4,0.1L632.2,352.5L632.2,352.5z M636.3,349.7
		c0.5,0,1,0,1.5,0c0-0.1,0-0.2,0-0.4c0-1.1-0.5-3.1-2.6-3.1c-2,0-2.8,1.7-3,3.5L636.3,349.7z"/>
</g>
<g id="body">
	<path id="torso" class="st13" d="M470,412.6c0,2.9-0.1,5.9-0.2,8.8c-0.9,0.3-1.9,0.4-2.9,0.3c-21.4,0-42.9,0-64.3,0
		c-1-0.1-2-0.1-2.9,0.2c-3.2,0-6.4,0.1-9.6,0.1h-22.6c-3.2,0-6.4,0-9.6-0.1c-0.9-0.2-1.9-0.3-2.9-0.2c-21.4,0-42.9,0-64.3,0
		c-1,0.2-2,0.1-2.9-0.3c-0.1-2.9-0.2-5.9-0.2-8.8c0-26.6,0-53.2,0.1-79.8c0-16.2,0-32.3,0-48.5l9.9-98.2c6.9-2.5,14.1-3.6,21.1-5.7
		c10.4-3.2,21.2-4.4,32-3.5v0.1c0.1,0.3,0.2,0.7,0.4,1c4.1,10.9,11.9,16.6,23.5,17.7c7.7,0.8,15.5-1.4,21.7-6.1
		c2.9-2.2,5.2-5.1,6.9-8.3c0.5-0.9,1.2-1.6,1.6-2.6c0.2-0.6,0.5-1.2,0.9-1.7c11.2-1,22.4,0.1,33.1,3.4c7,2.1,14.2,3.2,21.1,5.7
		l9.9,98.2c0,16.1,0,32.3,0,48.5C469.9,359.4,469.9,386,470,412.6z"/>
	<g id="neck-2">
		<path class="st13" d="M378,200.4c-3.2,0-6.3-0.4-9.4-1.2c-11.4-2.8-18.9-9.9-22.1-20.9l-0.1-0.3c-0.1-0.4-0.2-0.8-0.4-1.1
			c0-0.1,0-0.2,0.1-0.3c0.2-0.1,0.3-0.1,0.5-0.1h0.7h0.7h0.7c0.4,0,0.8,0.1,1.1,0.2c0.3,0.4,0.6,0.8,0.7,1.3l0.1,0.4
			c4.1,10.9,12.1,16.9,23.9,18c1.1,0.1,2.2,0.1,3.3,0.1c6.8,0,13.4-2.2,18.7-6.3c2.9-2.3,5.4-5.2,7.1-8.5c0.2-0.3,0.4-0.7,0.7-1
			c0.4-0.5,0.7-1,1-1.6c0.9-2,1.1-2.3,2.1-2.3c0.8,0,1.6,0.1,2.3,0.3c0,0.2,0,0.4,0,0.5c-0.1,0.3-0.3,0.7-0.5,1.2
			c-1.7,5.2-4.9,9.8-9.1,13.3C393.4,197.6,385.9,200.4,378,200.4L378,200.4z"/>
		<path d="M348.7,176.8c0.3,0,0.6,0,0.8,0.1c0.2,0.3,0.4,0.6,0.5,1c0,0.1,0.1,0.3,0.1,0.4c4.2,11.1,12.3,17.2,24.3,18.4
			c1.1,0.1,2.2,0.2,3.3,0.2c6.9,0,13.6-2.2,19.1-6.5c3-2.3,5.5-5.3,7.2-8.6c0.2-0.3,0.4-0.7,0.6-1c0.4-0.5,0.7-1.1,1-1.7
			c0.9-2,1-2,1.6-2l0,0c0.6,0,1.2,0.1,1.8,0.2l0,0c-0.1,0.3-0.3,0.7-0.4,1.2c-1.7,5.1-4.8,9.7-8.9,13.1c-6.6,5.4-14,8.2-21.9,8.2
			c-3.1,0-6.2-0.4-9.2-1.2c-11.2-2.8-18.6-9.7-21.8-20.6l-0.1-0.3c-0.1-0.3-0.2-0.6-0.3-0.9h0.3c0.2,0,0.3,0,0.5,0h0.8
			C348.3,176.8,348.5,176.8,348.7,176.8L348.7,176.8 M348.7,175.8c-0.5,0-1,0-1.4,0h-0.4h-0.3c-0.8,0-1.1,0.4-1.1,1.1
			c0.2,0.5,0.4,1,0.5,1.5c3.4,11.4,11,18.4,22.5,21.3c3.1,0.8,6.3,1.2,9.5,1.2c8.1,0,15.6-2.8,22.5-8.4c4.3-3.6,7.5-8.3,9.3-13.6
			c0.2-0.5,0.3-1,0.5-1.3c0-0.4,0-0.7,0-1.1c-0.9-0.2-1.8-0.3-2.8-0.4c-1.3,0-1.7,0.7-2.5,2.6c-0.4,0.9-1.1,1.7-1.6,2.6
			c-1.7,3.2-4,6.1-6.9,8.3c-5.3,4.1-11.8,6.3-18.5,6.3c-1.1,0-2.1,0-3.2-0.1c-11.5-1.1-19.4-6.9-23.5-17.7c-0.2-0.7-0.5-1.4-1-1.9
			l0,0C349.7,175.9,349.2,175.8,348.7,175.8L348.7,175.8z"/>
	</g>
</g>
<path id="nose" class="st18" d="M387.2,111.9c-8,5.9-16.8,0-16.8,0"/>
<path id="linkedin_x5F_icon" class="st7" d="M401.9,265.9h-41.8c-2,0-3.6,1.6-3.6,3.5v42.3c0,2,1.6,3.5,3.6,3.5h41.8
	c2,0,3.6-1.6,3.6-3.5v-42.3C405.5,267.5,403.9,265.9,401.9,265.9z M371.3,307.3h-7.4V285h7.4V307.3z M367.6,281.9L367.6,281.9
	L367.6,281.9c-2.5,0-4.1-1.7-4.1-3.9c0-2.2,1.7-3.9,4.2-3.9c2.5,0,4.1,1.7,4.1,3.9C371.8,280.2,370.2,281.9,367.6,281.9z M398,307.3
	h-7.4v-11.9c0-3-1.1-5-3.8-5c-2,0-3.3,1.4-3.8,2.7c-0.2,0.5-0.2,1.1-0.2,1.8v12.4h-7.4c0,0,0.1-20.2,0-22.3h7.4v3.2
	c1-1.5,2.7-3.7,6.7-3.7c4.9,0,8.5,3.2,8.5,10V307.3z M363,258.7c-0.4,0.2-1.2,0.4-2.1,0.4c-2.3,0-4-1.4-4-4.1c0-2.5,1.7-4.2,4.2-4.2
	c1,0,1.6,0.2,1.9,0.4l-0.3,0.9c-0.4-0.2-1-0.3-1.6-0.3c-1.9,0-3.2,1.2-3.2,3.3c0,2,1.1,3.2,3.1,3.2c0.6,0,1.3-0.1,1.7-0.3L363,258.7
	z M364.3,250.9h1v7.2h3.5v0.9h-4.5V250.9z M371,250.9v8.1h-1v-8.1H371z M378.5,258.7c-0.4,0.2-1.2,0.4-2.1,0.4c-2.3,0-4-1.4-4-4.1
	c0-2.5,1.7-4.2,4.2-4.2c1,0,1.6,0.2,1.9,0.4l-0.3,0.9c-0.4-0.2-1-0.3-1.6-0.3c-1.9,0-3.2,1.2-3.2,3.3c0,2,1.1,3.2,3.1,3.2
	c0.6,0,1.3-0.1,1.7-0.3L378.5,258.7z M379.8,250.9h1v3.9h0c0.2-0.3,0.4-0.6,0.6-0.9l2.5-3h1.3l-2.9,3.4l3.2,4.7h-1.2l-2.7-4
	l-0.8,0.9v3.1h-1V250.9z M395.7,255.4c-0.1-1.1-0.1-2.5-0.1-3.5h0c-0.3,0.9-0.6,2-1,3.1l-1.4,3.9h-0.8l-1.3-3.8
	c-0.4-1.1-0.7-2.2-0.9-3.1h0c0,1-0.1,2.4-0.2,3.6l-0.2,3.5h-1l0.6-8.1h1.3l1.4,3.9c0.3,1,0.6,1.9,0.8,2.7h0c0.2-0.8,0.5-1.7,0.9-2.7
	l1.4-3.9h1.3l0.5,8.1h-1L395.7,255.4z M402.7,255.2h-3.1v2.9h3.5v0.9h-4.5v-8.1h4.4v0.9h-3.3v2.6h3.1V255.2z"/>
</svg>
