<svg id="Layer_1" data-name="Layer 1" xmlns="http://www.w3.org/2000/svg" viewBox="0 0 761.96 421.94"><defs><style>.cls-1{fill:#4d4d4d;}</style></defs><title>sleeves3</title><g id="right_arm3" data-name="right arm3"><path id="r_sleeve3" class="cls-1" d="M426.48,179.21l4.92-5A56.28,56.28,0,0,1,447.5,165c17-6.74,33.86-13.72,50.73-20.73,2.2-.91,3.55-.74,5,1.19,5.21,6.93,9.33,14.54,13.7,22,2.76,4.69,5.38,9.45,8.22,14.09s2.7,9.06-.59,13.42c0,0-46.91,29.47-59.22,51.05Z"/></g><g id="left_arm3" data-name="left arm3"><path id="l_sleeve3" class="cls-1" d="M330.89,179.21l-4.92-5a56.28,56.28,0,0,0-16.1-9.21c-17-6.74-33.86-13.72-50.73-20.73-2.2-.91-3.55-.74-5,1.19-5.21,6.93-9.33,14.54-13.7,22-2.76,4.69-5.38,9.45-8.22,14.09s-2.7,9.06.59,13.42c0,0,46.9,29.47,59.22,51.05Z"/></g></svg>