<svg id="logo_icon" xmlns="http://www.w3.org/2000/svg" viewBox="0 0 761.96 421.94"><defs><style>.fill_green{fill:#6dd981;}.cls-2{fill:none;stroke:#fff;stroke-miterlimit:10;}.fill_purple{fill:#a384ec;}.fill_yellow{fill:#fae370;}</style></defs><title>ui_laptop copy 2</title><path id="ui_screen" class="fill_green" d="M233.23,166,439.9,46.87l.33,133.74L233.56,299.93Z"/><path id="ui_content" class="fill_purple" d="M434.48,76.14l.28,99.31L332.67,234.39l-.26-90.67,0-8.64Z"/><path id="ui_block3" class="fill_yellow" d="M279.27,219.36l.13,45.79-39.85,23-.13-45.79Z"/><path id="ui_block1" class="fill_yellow" d="M279.12,165.83l.13,45.79-39.85,23-.13-45.79Z"/><path id="ui_block2" class="fill_yellow" d="M326.32,138.58l.13,45.79-39.85,23-.13-45.79Z"/><path id="ui_block4" class="fill_yellow" d="M326.47,192.11l.13,45.79-39.85,23-.13-45.79Z"/><path id="ui_icon" class="fill_yellow" d="M244.1,162.18c3.58-2.07,6.5-.41,6.51,3.71a14.26,14.26,0,0,1-6.47,11.2c-3.58,2.07-6.5.41-6.51-3.71A14.24,14.24,0,0,1,244.1,162.18Z"/></svg>