<svg id="cta" xmlns="http://www.w3.org/2000/svg" xmlns:xlink="http://www.w3.org/1999/xlink" viewBox="0 0 800 1366">
    <defs>
        <linearGradient id="linear-gradient" x1="-59.38" y1="3734.85" x2="-60.23" y2="3734.86"
            gradientTransform="matrix(208, 0, 0, -11, 13093.38, 42396.55)" gradientUnits="userSpaceOnUse">
            <stop offset="0" stop-color="#07c0ff" />
            <stop offset="1" stop-color="#038cff" />
        </linearGradient>
        <linearGradient id="linear-gradient-2" x1="-59.61" y1="3571.98" x2="-60.46" y2="3572.09"
            gradientTransform="matrix(226, 0, 0, -80, 14222.15, 287045.68)" xlink:href="#linear-gradient" />
    </defs>
    <title>medium_portrait</title>
    <rect x="-1.86" y="1227.47" width="801.86" height="139.56" fill="#fff" />
    <rect x="-1.86" width="801.86" height="153.08" fill="#fff" />
    <g id="BUTTON">
        <g id="BG">
            <path id="shadow"
                d="M568.19,1308.46H742.35v9.34H568.19a2.55,2.55,0,0,1-2.54-2.55V1311A2.55,2.55,0,0,1,568.19,1308.46Z"
                fill-rule="evenodd" opacity="0.8" fill="url(#linear-gradient)" style="isolation:isolate" />
            <rect x="558" y="1248.99" width="192" height="67.96" rx="2.55" fill="url(#linear-gradient-2)" />
        </g>
        <path id="Bereken"
            d="M585,1272.77h5.89a5.67,5.67,0,0,1,4,1.35,4.61,4.61,0,0,1,1.46,3.54,4,4,0,0,1-.74,2.42,4.16,4.16,0,0,1-2,1.48,4.08,4.08,0,0,1,2.38,1.59,4.8,4.8,0,0,1-.67,6.3,5.86,5.86,0,0,1-4,1.39H585Zm2.5,7.9h3.11a3.3,3.3,0,0,0,2.34-.81,2.67,2.67,0,0,0,.87-2.07,2.6,2.6,0,0,0-.89-2.07,3.62,3.62,0,0,0-2.42-.76h-3Zm0,8h3.46a3.7,3.7,0,0,0,2.46-.78,2.62,2.62,0,0,0,.93-2.09,2.85,2.85,0,0,0-.84-2.16,3.41,3.41,0,0,0-2.44-.8h-3.57Zm21.33-2,2.06.71a5.47,5.47,0,0,1-2,2.8,5.73,5.73,0,0,1-3.52,1.08,6,6,0,0,1-4.37-1.77,6.41,6.41,0,0,1-1.8-4.78,6.5,6.5,0,0,1,1.73-4.64,5.91,5.91,0,0,1,8.47-.09,6.81,6.81,0,0,1,1.55,4.68,5.26,5.26,0,0,1-.05.76h-9.23a3.69,3.69,0,0,0,1.09,2.68,3.53,3.53,0,0,0,2.61,1A3.31,3.31,0,0,0,608.81,1286.63Zm-7.06-3.18h6.7a3.08,3.08,0,0,0-3.36-3.14,3.18,3.18,0,0,0-2.35.93A3.34,3.34,0,0,0,601.75,1283.45Zm19.06-5V1281a7.4,7.4,0,0,0-1-.08c-2.24,0-3.37,1.26-3.37,3.77v6.15H614v-12.26h2.34v2.14a3.81,3.81,0,0,1,3.67-2.35A4,4,0,0,1,620.81,1278.45Zm11,8.18,2.06.71a5.47,5.47,0,0,1-2,2.8,5.73,5.73,0,0,1-3.52,1.08,6,6,0,0,1-4.37-1.77,6.41,6.41,0,0,1-1.8-4.78A6.5,6.5,0,0,1,624,1280a5.91,5.91,0,0,1,8.47-.09,6.81,6.81,0,0,1,1.55,4.68,5.26,5.26,0,0,1,0,.76h-9.23a3.69,3.69,0,0,0,1.09,2.68,3.53,3.53,0,0,0,2.61,1A3.31,3.31,0,0,0,631.85,1286.63Zm-7.06-3.18h6.7a3.08,3.08,0,0,0-3.36-3.14,3.18,3.18,0,0,0-2.35.93A3.34,3.34,0,0,0,624.79,1283.45Zm23.24-4.87-5.22,5.17,5.33,7.09h-3l-4-5.41-1.71,1.71v3.7h-2.37v-18.46h2.37V1284l5.3-5.43Zm10.38,8.05,2.06.71a5.49,5.49,0,0,1-2,2.8,5.72,5.72,0,0,1-3.51,1.08,6,6,0,0,1-4.37-1.77,6.41,6.41,0,0,1-1.8-4.78,6.5,6.5,0,0,1,1.73-4.64,5.9,5.9,0,0,1,8.46-.09,6.77,6.77,0,0,1,1.56,4.68,5.26,5.26,0,0,1,0,.76h-9.23a3.73,3.73,0,0,0,1.08,2.68,3.57,3.57,0,0,0,2.62,1A3.31,3.31,0,0,0,658.41,1286.63Zm-7.06-3.18h6.7a3.29,3.29,0,0,0-.92-2.26,3.26,3.26,0,0,0-2.44-.88,3.15,3.15,0,0,0-2.35.93A3.34,3.34,0,0,0,651.35,1283.45Zm14.65.3v7.09h-2.39v-12.26H666v1.76a4.07,4.07,0,0,1,3.77-2.12,4,4,0,0,1,3.25,1.35,5.24,5.24,0,0,1,1.14,3.49v7.78h-2.4v-7.37c0-2-1-3.08-2.85-3.08a2.54,2.54,0,0,0-2.11.95A3.79,3.79,0,0,0,666,1283.75Z"
            fill="#fff" style="isolation:isolate" />
        <g id="Group">
            <path id="Path-7" d="M713.65,1272.39l9.37,9.37-9.46,9.46-2.08-2.08,5.1-5.11H701.09v-3h17l-6.57-6.57Z"
                fill="#fff" fill-rule="evenodd" />
        </g>
    </g>
</svg>
