<svg xmlns="http://www.w3.org/2000/svg" viewBox="0 0 600 1200"><defs><style>.logo_orange{fill:#f5821f;}.logo_white{fill:#fff;}</style></defs><title>logo_300x600</title><path class="logo_orange" d="M357,22c-5.44,22.53-25,34.81-36.46,41.37l-.49-.66c4.71-3.83,20.87-15.75,26-35.52Z"/><path class="logo_white" d="M82.64,65.28c-.39,2.71-4.56,31.81-4.86,33.86H68.46c.38-2.72,4.55-31.81,4.85-33.86h9.32M167.7,91.84H154.45l.9-6.26h12c.21-1.45.72-5,1-6.82h-12l.89-6.18h12.9c.21-1.48.79-5.4,1.05-7.3H149.65c-.3,2.06-4.47,31.15-4.86,33.86h21.86c.21-1.49.77-5.41,1-7.31M55.92,99.15h8.45c0-2.42,1.55-31.49,1.55-33.86H54.18c-.61,1.55-8.41,19.4-8.41,19.4l-2.66-19.4H31.8C31.3,67,24.87,96.12,24,99.15h8.41c1.73-6.8,4.9-22.64,5.13-23.72l3,23.72h6.66c.64-1.51,10.15-23.72,10.15-23.72Zm54.93,0c1.53-3.33,14.45-32.45,15.1-33.86h11.33c.35,2,5.24,31.07,5.73,33.86h-8.95c-.21-1.34-.81-6.86-.81-6.86H122.71s-2.31,5.71-2.79,6.85ZM125.27,85.3h7.08l-1.74-12.57ZM94.06,82.7c-1,7.19-2.19,15.4-2.35,16.44H83.22c.39-2.71,4.56-31.8,4.86-33.86h12.79c2.84,0,6.7.53,8.95,3.13a8.39,8.39,0,0,1,1.87,5.73,18.53,18.53,0,0,1-.18,2.3c-.82,6.42-4.06,7.65-8.21,8.42l6.85,14.27H101.1Zm1.58-11.07s-.56,4-1.27,8.9h3a6.38,6.38,0,0,0,3.11-.82c1.7-.81,2-3.4,2-3.4a4.13,4.13,0,0,0-.74-3.39c-1-1.14-2.58-1.29-4-1.29Zm161.84,7.8a13.77,13.77,0,0,0-1.59-.82l-2.47-1.24,0,0,0,0c-.79-.45-2.66-1.54-2.66-3.34a2.74,2.74,0,0,1,1-2.17,3.82,3.82,0,0,1,3.21-.66,11.83,11.83,0,0,1,5.46,3c1-1.84,2.79-5.37,3.46-6.63A15.61,15.61,0,0,0,255.9,64,14.64,14.64,0,0,0,245,66.43a11.08,11.08,0,0,0-4.22,7.65,13.59,13.59,0,0,0-.1,1.58,9,9,0,0,0,1.12,4.57c5-.13,10.35-.37,15.71-.8m36.15-14.15c-.21,1.41-.86,5.86-1.17,8.06a134.94,134.94,0,0,0,21.9-8.06Zm3.45,8.41-2.87.92-.61.18-1.19.37-.65.19c-1.35.39-2.74.79-4.17,1.18l-.81.22-1.22.32-.9.23-1.22.31-1.12.28-2,.47c-.38.08-.76.18-1.14.25l-.1,0-.42.1h0c-3.83.86-7.9,1.69-12.2,2.43l-.3,0-2.36.38-.58.09-2.52.39a.78.78,0,0,0-.19,0h0c-4.63.66-9.5,1.25-14.61,1.71h-.08c-.77.06-1.56.13-2.35.18l-.25,0-2.39.18h-.23l-2.47.16-.18,0c-.84,0-1.69.1-2.53.12h-.1c-4.3.21-8.76.31-13.35.31h-3.44c-.21,0-.43,0-.65,0-3.7,0-7.5-.18-11.37-.38h-.07q-8.82-.46-18.23-1.51l7.22-6.78a99.92,99.92,0,0,0,10,2.3c-1.1-6.55-2.06-12.3-2.22-13.14H191.92c-.66,1.42-13.57,30.53-15.1,33.86h9.09c.48-1.13,3.53-8.41,3.53-8.41h9.46s.92,7.09,1.12,8.42h9c-.2-1.09-1.06-6.2-2.06-12.13,6.37.35,12.77.43,18.73.33a3.21,3.21,0,0,1,.46,1.63,3.07,3.07,0,0,1-.07.62,2.67,2.67,0,0,1-1.14,1.82c-1.23.86-3,.68-4.21.46-2.9-.51-5.2-2.7-7-4.51-1.17,1.89-3.6,5.86-4.39,7.15a20.71,20.71,0,0,0,11,5.54A14.61,14.61,0,0,0,231,97.64a11.79,11.79,0,0,0,4.61-7.89,12.47,12.47,0,0,0,.19-2.69c6.38-.28,11.69-.68,15.09-1a3.59,3.59,0,0,1,1.7,2.89,4.34,4.34,0,0,1-.06.62,2.76,2.76,0,0,1-1.15,1.82c-1.23.86-3,.68-4.22.46-2.89-.51-5.2-2.7-7-4.51-1.17,1.89-3.6,5.86-4.4,7.15a20.74,20.74,0,0,0,11,5.54,14.53,14.53,0,0,0,10.75-2.42,11.71,11.71,0,0,0,4.64-7.89,11,11,0,0,0-.21-4.95c1.46-.21,2.84-.43,4.18-.64-1,7.1-2,13.75-2.16,15h21.87c.21-1.49.78-5.41,1-7.31H273.6l.9-6.25h12c.19-1.3.61-4.27.9-6.2,1.63-.51,2.46-.83,2.46-.83s4.07-1.22,9.33-3.17c-.75,5.31-3.07,21.52-3.39,23.77h9.46l3.65-25.44h6.86c.2-1.46.86-6.11,1.15-8.22a119.71,119.71,0,0,1-19.85,8.22m-81.53,6c4.24.33,10,.59,16.73.64a14.5,14.5,0,0,0-2.88-1.69l-2.45-1.23,0,0,0,0c-.79-.45-2.64-1.53-2.64-3.34a2.79,2.79,0,0,1,1-2.17,3.88,3.88,0,0,1,3.23-.65,11.78,11.78,0,0,1,5.46,3c1-1.84,2.8-5.37,3.45-6.63A15.64,15.64,0,0,0,229.41,64a14.64,14.64,0,0,0-10.92,2.4,11,11,0,0,0-4.22,7.66,11.82,11.82,0,0,0-.09,1.57,9.41,9.41,0,0,0,.79,4l.58,0m60.82-7.08h12.9c.21-1.48.78-5.4,1-7.3h-21.5c-.13.87-1,6.64-1.9,13.19,3-.38,5.91-.82,8.81-1.33ZM32.82,119.82h5.26a5,5,0,0,1-5.28,5.37c-3.67,0-5.65-3.14-5.65-6.57s1.66-7,5.65-7c2.45,0,4.45,1.13,4.89,3.62h2.19c-.62-3.85-3.48-5.46-7.07-5.46-5.21,0-7.84,4.15-7.84,8.94,0,4.29,2.93,8.3,7.84,8.3a6.43,6.43,0,0,0,5.28-2.44l.58,2H40V118H32.82Zm10.23,6.82h2V110.18h-2Zm10.15-12.2c3.78,0,5.79,2.74,5.79,6.25s-2,6.23-5.79,6.23-5.78-2.75-5.78-6.23,2-6.25,5.78-6.25m0,10.75c2.05,0,3.72-1.62,3.72-4.5s-1.66-4.52-3.72-4.52-3.71,1.62-3.71,4.52,1.66,4.5,3.71,4.5m14-10.75c3.66,0,5.48,2.91,5.48,6.27s-1.79,6.21-5.44,6.21A4.57,4.57,0,0,1,63.37,125h0v1.59h-2V110.18h2v6.16h0a4,4,0,0,1,3.8-1.89M67,125.19c2.68,0,3.57-2.28,3.57-4.61s-1.15-4.41-3.69-4.41-3.64,2.26-3.64,4.5,1.06,4.52,3.76,4.52m17.29-1.33c0,.92,0,1.33.62,1.33a1.63,1.63,0,0,0,.6-.11v1.53a2.68,2.68,0,0,1-1.41.32c-1,0-1.67-.55-1.67-1.85a5.25,5.25,0,0,1-4.19,1.85c-2.17,0-3.95-1-3.95-3.35,0-2.69,2-3.27,4-3.66s4-.28,4-1.75c0-1.7-1.4-2-2.65-2-1.66,0-2.88.51-3,2.26h-2c.12-3,2.4-4,5.06-4,2.14,0,4.47.48,4.47,3.27v6.14m-2-3.37c-.76.55-2.24.58-3.55.81s-2.4.69-2.4,2.14c0,1.29,1.11,1.75,2.31,1.75,2.58,0,3.64-1.61,3.64-2.69Zm5.13,6.16h2V110.18h-2Zm11.83,0h2.19V110.18H99.3Zm22.8-2h0l-3.34-9.94h-2.19l4.43,11.92H123l4.36-11.92h-2.05Zm12.06-10.21c4.22,0,5.51,3.94,5.39,6.83h-8.92a3.51,3.51,0,0,0,3.71,3.92,2.87,2.87,0,0,0,3.09-2.33h1.94a4.81,4.81,0,0,1-5.1,4.06c-3.8,0-5.6-2.63-5.72-6.27s2.35-6.2,5.6-6.2m3.32,5.1a3.44,3.44,0,0,0-3.43-3.37,3.39,3.39,0,0,0-3.41,3.37Zm9.57.23c-1.82-.44-3.9-.67-3.9-2.08,0-1.2,1.37-1.52,2.54-1.52s2.63.48,2.76,2h2c-.16-2.9-2.26-3.73-4.89-3.73-2.08,0-4.45,1-4.45,3.39s2,2.93,3.9,3.37,3.9.69,3.9,2.21-1.66,1.77-2.88,1.77c-1.62,0-3.14-.55-3.2-2.3h-2c.11,3,2.37,4,5,4,2.42,0,5.07-.92,5.07-3.75,0-2.31-1.94-3-3.9-3.39m8.79-8.62h-2v3.57h-2v1.73h2V124c0,2.19.81,2.6,2.84,2.6h1.5v-1.72h-.9c-1.22,0-1.47-.16-1.47-1.06v-7.4h2.37v-1.73h-2.37Zm17.29,3.3a4.42,4.42,0,0,0-3.73,2,3.16,3.16,0,0,0-3.27-2,4.4,4.4,0,0,0-3.85,2h0v-1.75h-1.84v11.92h2v-7.42a3.22,3.22,0,0,1,3.18-3c1.75,0,2.24,1.11,2.24,2.66v7.81h2v-7.42a2.89,2.89,0,0,1,3.11-3c1.91,0,2.31,1.17,2.31,2.66v7.81h2V117.9c0-2.47-1.59-3.46-4-3.46m11.88,0c4.23,0,5.51,3.94,5.39,6.83h-8.92a3.51,3.51,0,0,0,3.71,3.92,2.88,2.88,0,0,0,3.09-2.33h1.93a4.8,4.8,0,0,1-5.09,4.06c-3.81,0-5.61-2.63-5.72-6.27s2.36-6.2,5.6-6.2m3.32,5.1a3.43,3.43,0,0,0-3.44-3.37,3.4,3.4,0,0,0-3.41,3.37Zm9.87-5.1a4.15,4.15,0,0,0-3.87,2.17h0v-1.89h-1.85v11.92h2v-6.73c0-2.15,1.15-3.74,3.53-3.74a2.25,2.25,0,0,1,2.42,2.4v8.07h2V118.8c0-2.56-1-4.36-4.11-4.36m9.78-3.3h-2v3.57h-2v1.73h2V124c0,2.19.81,2.6,2.84,2.6h1.5v-1.72h-.89c-1.22,0-1.48-.16-1.48-1.06v-7.4h2.37v-1.73H208Zm10,8.62c-1.82-.44-3.9-.67-3.9-2.08,0-1.2,1.36-1.52,2.54-1.52s2.63.48,2.76,2h2c-.17-2.9-2.26-3.73-4.89-3.73-2.08,0-4.45,1-4.45,3.39s2,2.93,3.89,3.37,3.89.69,3.89,2.21-1.66,1.77-2.88,1.77c-1.62,0-3.14-.55-3.21-2.3h-2c.11,3,2.37,4,5,4,2.42,0,5.07-.92,5.07-3.75,0-2.31-1.94-3-3.89-3.39"/></svg>