<?xml version="1.0" encoding="utf-8"?>
<!-- Generator: Adobe Illustrator 26.0.1, SVG Export Plug-In . SVG Version: 6.00 Build 0)  -->
<svg version="1.1" id="Layer_1" xmlns="http://www.w3.org/2000/svg" xmlns:xlink="http://www.w3.org/1999/xlink" x="0px" y="0px"
	 viewBox="0 0 20 20" style="enable-background:new 0 0 20 20;" xml:space="preserve">
<style type="text/css">
	.st0{fill:#FFFFFF;}
</style>
<g>
	<g>
		<path class="st0" d="M10,1.3c4.8,0,8.7,3.9,8.7,8.7s-3.9,8.7-8.7,8.7S1.3,14.8,1.3,10S5.2,1.3,10,1.3 M10,0C4.5,0,0,4.5,0,10
			s4.5,10,10,10s10-4.5,10-10S15.5,0,10,0L10,0z"/>
	</g>
	<g>
		<g>
			<path class="st0" d="M9.1,8.6v5.5c0,0.2,0.2,0.4,0.4,0.4h0.9c0.2,0,0.4-0.2,0.4-0.4V8.6c0-0.2-0.2-0.4-0.4-0.4H9.5
				C9.3,8.2,9.1,8.4,9.1,8.6z"/>
		</g>
		<circle class="st0" cx="10" cy="6.4" r="0.9"/>
	</g>
</g>
</svg>
