<svg id="Layer_1" data-name="Layer 1" xmlns="http://www.w3.org/2000/svg" viewBox="0 0 762.23 150.27"><defs><style>.cls-1{fill:#cececd;}.cls-2{fill:#eecf99;}.cls-3{fill:#a3a3a2;}.cls-4{fill:#df9d26;}.cls-5{fill:#956b1d;}.cls-6{fill:#5e5e5a;}.cls-7{fill:#fff;}</style></defs><title>ghost_logo</title><g id="layer1"><path id="path3361" class="cls-1" d="M444.61,115.4c-4.09-4.46-7.46-8.15-7.48-8.22s28.74-.11,79.23-.11h79.26l5.63,6.15,7.53,8.22,1.9,2.07H452.05l-7.44-8.11ZM403.4,101.84,392.56,90h-2.62v10.69H375.3V65.06h14.64V77.3h4.13a35.63,35.63,0,0,0,7.81-.49c5.94-1.19,9.47-4.37,10.4-9.35a18,18,0,0,0-.06-4.87c-.74-3.41-2.62-5.48-6.22-6.9a22.89,22.89,0,0,0-3.7-.94c-2.49-.39-3.18-.41-15-.48l-12-.07,6.2-6.52,6.21-6.53,6.9.06c7.22.06,7.85.1,11.29.69,10.3,1.76,17,6.69,19.68,14.57a28.8,28.8,0,0,1,1.22,5.41,44.4,44.4,0,0,1-.06,7.9c-1,7.33-4.4,12.85-10.28,16.67a36,36,0,0,1-4.59,2.38l-.69.28.34.37c.19.2,5,5.47,10.7,11.71l10.91,11.91.55.57H414.24L403.4,101.84Zm-230-.37a28.2,28.2,0,0,1-7.93-1.77,20.67,20.67,0,0,1-7.32-4.86,19.45,19.45,0,0,1-4-5.53,24.73,24.73,0,0,1-2.6-11.9,24.63,24.63,0,0,1,.56-5.91,22.38,22.38,0,0,1,20.33-18.08,37.21,37.21,0,0,1,10,.49,21.08,21.08,0,0,1,9.09,4.45l.51.44-3.75,3.94-4,4.23-.27.28-1.15-.72a13.78,13.78,0,0,0-4.09-1.68,16.64,16.64,0,0,0-5.63.07c-5.56,1.39-8.84,6.38-8.56,13A13.2,13.2,0,0,0,168,86.89a10.18,10.18,0,0,0,7.51,3.22,9.85,9.85,0,0,0,5-.9,7.83,7.83,0,0,0,4.38-5c.43-1.43,1-1.27-4.79-1.31l-5,0,5.17-5.43L185.31,72h12.37l-.05,4.83a46,46,0,0,1-.26,6.09,21.48,21.48,0,0,1-6.43,12.76c-4.35,4.13-10.58,6.18-17.52,5.76Zm93.1,0a27.33,27.33,0,0,1-9-2.54,22.05,22.05,0,0,1-11.95-16.41,40.6,40.6,0,0,1-.25-8.18,30.9,30.9,0,0,1,1.15-5.44,28.45,28.45,0,0,1,3-6.07,29,29,0,0,1,5.07-5.07,25.76,25.76,0,0,1,9.12-3.86,26.4,26.4,0,0,1,6.12-.56A25.92,25.92,0,0,1,282,56c6.53,3.29,10.66,9,12,16.67A33.68,33.68,0,0,1,294,82.81c-2,10.42-9.57,17.28-20.52,18.56a44.58,44.58,0,0,1-6.93,0ZM272.44,90a10.82,10.82,0,0,0,8.14-7.26,16.14,16.14,0,0,0-.52-11.58,10.71,10.71,0,0,0-5.41-5.46,10.17,10.17,0,0,0-5-1,9.23,9.23,0,0,0-3,.31c-4.66,1.25-7.71,5.07-8.36,10.48-1.06,8.62,4.21,15.1,12,14.75a19.29,19.29,0,0,0,2.16-.25ZM309,101.42a21.32,21.32,0,0,1-11.12-4.61,10.92,10.92,0,0,1-2.33-2.66c.05-.26,7.69-8.22,7.78-8.12s.42.51.82,1a9.85,9.85,0,0,0,3.43,2.81,7.93,7.93,0,0,0,4.44,1,7.33,7.33,0,0,0,2.69-.28c1.85-.58,2.63-1.44,2.75-3a2.51,2.51,0,0,0-.22-1.41c-.54-1.27-1.86-2-6.28-3.5-4.58-1.55-6.73-2.51-9.05-4a18.37,18.37,0,0,1-3.59-3.3,13.18,13.18,0,0,1-2.56-8.12,12.34,12.34,0,0,1,3.66-9c3.26-3.3,7.54-4.85,13.4-4.86,4.8,0,8.17.91,11.49,3.1a16,16,0,0,1,3.35,3.09c0,.08-1.76,2-3.86,4.17l-3.82,4-1.22-1.22a7.75,7.75,0,0,0-2.06-1.65A6.39,6.39,0,0,0,313,64c-1.81,0-2.29.14-3.16.91a3.18,3.18,0,0,0-.92,3.17c.35,1.24,1.58,2,6,3.59a57.75,57.75,0,0,1,6.56,2.71c5,2.52,7.54,5.19,8.62,9.23a10.11,10.11,0,0,1,.31,3.38,9.7,9.7,0,0,1-.32,3.4c-1.65,6.14-7.16,10.15-15.11,11a42.24,42.24,0,0,1-6.06,0Zm32.25-18V65.18H331.13V54.38H371.6l-1.24,1.3c-.69.71-3,3.14-5.14,5.4l-3.9,4.1h-7.27v23l-5.94,6.24c-3.27,3.43-6.15,6.46-6.42,6.72l-.47.48V83.39Zm145.41,18a28.45,28.45,0,0,1-10.3-2.77,21.53,21.53,0,0,1-6.12-4.53,22.5,22.5,0,0,1-6.05-12.82,34.94,34.94,0,0,1,0-7.65c1.52-10.44,8.51-17.69,19.1-19.81a28.55,28.55,0,0,1,6.49-.55,34.65,34.65,0,0,1,13,2.19,6.93,6.93,0,0,1,1.29.58s-1.08,2.47-2.47,5.38L499,66.72l-.73-.34a19.56,19.56,0,0,0-12.84-1.19,12,12,0,0,0-5.65,3.72A13.14,13.14,0,0,0,477,77.55a12.72,12.72,0,0,0,1.84,7c2.81,4.57,8.5,6.56,15,5.24A22.68,22.68,0,0,0,498.93,88c.08,0,3.47,10.13,3.47,10.4s-2.89,1.48-5.13,2.06a32.94,32.94,0,0,1-10.65.94Zm35.42,0c-6.24-.78-11.28-3.23-15-7.27a23.26,23.26,0,0,1-5.68-12.29,41.58,41.58,0,0,1,0-8.64c1.75-11,9.24-18.21,20.44-19.69a39.42,39.42,0,0,1,7.68,0c9.24,1.21,16,6.27,19.18,14.3a28.61,28.61,0,0,1,.12,19.13c-2.91,7.82-9.49,13-18.4,14.35a46.23,46.23,0,0,1-8.32.11Zm5.13-11.23c5.2-.64,8.69-4,9.86-9.38a20.88,20.88,0,0,0-.06-6.69c-1.05-4.76-4-7.94-8.29-9.1a9.33,9.33,0,0,0-3-.31,10,10,0,0,0-5.09,1c-3.44,1.64-5.58,4.75-6.32,9.2a22.19,22.19,0,0,0,0,5.46c1.08,6,5.31,9.71,11.24,9.88a14.35,14.35,0,0,0,1.62-.11ZM200.29,77.43V54.14H213V72h16.44V54.14H242.3l0,23.26,0,23.25H229.52l0-8.91,0-8.91H213v17.88H200.29V77.43Zm230.69,0V54.14H464.7V65.07h-21v6.72h16.68V82.11l-8.31,0-8.31,0,0,3.81,0,3.81h21v10.92H431V77.43Zm122.06,0V54.14h12.45l9.23,13.94L584,82l0-13.94,0-13.94h11.88v46.57H583.44l-9.23-14c-5.08-7.69-9.27-14-9.32-14s-.09,6.29-.09,14v14H553V77.43ZM185.53,35.18V30.26h-6.84V26.78h17.16v3.48H189V40.1h-3.48Zm14.37,4.75a3.6,3.6,0,0,1-2.25-2.35c-.07-.24-.12-2.59-.12-5.61v-5.2l7.29,0,7.29,0,.69.34a3.56,3.56,0,0,1,1.11.85c.76.92.79,1.09.79,5.52v4l-.31.63a3.66,3.66,0,0,1-2,1.76,103.94,103.94,0,0,1-12.48,0ZM211,36.55c.16-.07.19-.45.19-3a11.93,11.93,0,0,0-.15-3.11,31.63,31.63,0,0,0-5.1-.14h-5v3a12.38,12.38,0,0,0,.15,3.18,29.4,29.4,0,0,0,4.91.14c2.62,0,4.85,0,5-.07Zm5.35-3.11V26.78h3.78l3.12,5c1.71,2.73,3.15,5,3.18,5s1.46-2.24,3.18-5l3.12-5h3.78V40.1h-3.48l0-3.56L233,33l-2.22,3.53L228.56,40h-4.18l-2.26-3.59-2.26-3.59V40.1h-3.48V33.44Zm28.89,6.49a3.74,3.74,0,0,1-1.69-1.25c-.67-1-.68-1.06-.68-6.7v-5.2h8.58c8.1,0,8.58,0,8.59.21s-.09.9-.21,1.74l-.2,1.53H246.38v3a12.38,12.38,0,0,0,.15,3.18c.1.1,1.74.14,6.63.14h6.5l.24,1.74.24,1.74h-7.21c-5.75,0-7.3,0-7.66-.17Zm16.47-6.49V26.78h3.49v9.84h4.08c2.24,0,4.08,0,4.08.08s-.47.83-1,1.74l-1,1.66h-9.58V33.44ZM272.31,40c0-.12,6.87-10.78,7.32-11.35a4.44,4.44,0,0,1,1.88-1.51l.7-.33,4.11,0,4.11,0V40.1H287V36.62h-8.26l-.22.29c-.12.16-.64.94-1.15,1.74l-.94,1.45h-2a14.63,14.63,0,0,1-2-.07ZM287,31.7V30.26H285c-1.94,0-2.28.06-2.6.47S281,33,281,33.08s1.35.06,3,.06h3V31.7Zm5.52,1.74V26.78h3.44L301,31.1c2.8,2.37,5.13,4.32,5.18,4.32s.09-2,.09-4.32V26.77l1.71,0,1.71,0,0,6.63,0,6.63h-3.55l-5.1-4.33L296,31.43l0,4.33,0,4.34h-3.48V33.44ZM314,39.93a3.63,3.63,0,0,1-2.25-2.35c-.07-.24-.12-2.58-.12-5.61V26.78h8.59c8.09,0,8.58,0,8.58.21s-.09.9-.2,1.74l-.21,1.53H315.15v3c0,2.41,0,3.08.17,3.18a56.84,56.84,0,0,0,6.63.17l6.46,0,.21,1.38c.11.76.2,1.53.21,1.71v.33h-7.17c-5.72,0-7.27,0-7.63-.16Zm23.32-2.38V35l-3.06-3.66c-1.69-2-3.24-3.86-3.43-4.11l-.36-.45H335L336.88,29l2.05,2.47c.18.23.26.15,2.25-2.23l2.06-2.47h2.22a21.71,21.71,0,0,1,2.22.06s-1.54,1.91-3.42,4.16l-3.42,4.09v5h-3.48V37.55ZM354.88,40s.11-.79.24-1.65.24-1.6.24-1.65,2.85-.1,6.33-.12l6.33,0v-1.2l-5.46-.06c-5.38-.06-5.47-.06-6.06-.34a4.16,4.16,0,0,1-1.78-1.64c-.23-.43-.26-.66-.26-2.28s0-1.82.33-2.36a4.34,4.34,0,0,1,1.56-1.51c.36-.2,1-.21,7.8-.25,5.06,0,7.41,0,7.41.1s-.31,2.32-.42,3l-.07.39-6.56,0-6.57,0,0,.57c0,.52,0,.58.27.69s2.37.12,5.57.12H369l.62.31a3.85,3.85,0,0,1,1.76,1.94,9.57,9.57,0,0,1,0,3.77,3.79,3.79,0,0,1-1.6,1.87l-.56.33-7.17,0c-3.94,0-7.17,0-7.17-.06ZM348.4,29.59V28.44l.69-.83.68-.83H352c2.16,0,2.27,0,2.1.21l-1.65,2L351,30.74H348.4V29.59Z"/><path id="path3359" class="cls-2" d="M444.61,115.4c-4.09-4.46-7.46-8.16-7.48-8.22s30.19-.11,79.22-.11h79.27l6.17,6.75,7.53,8.22,1.36,1.47H452.05l-7.44-8.11Zm-41-13.4c-5.9-6.42-10.82-11.77-10.94-11.88s-.39-.21-1.43-.18L390,90l0,5.37,0,5.37H375.3V65.19h14.64l0,6.09,0,6.09,4.26,0c4.6,0,6.19-.15,8.47-.7a12.77,12.77,0,0,0,7.81-4.82,12.65,12.65,0,0,0,1.55-9.95A9.23,9.23,0,0,0,406,55.7a25.56,25.56,0,0,0-4.81-1.15c-1.2-.18-3-.22-13.63-.28l-12.26-.07,6.19-6.51,6.19-6.51h5.65c7.06,0,9.63.18,13.4.91Q421.7,45,425.64,56.7a27.36,27.36,0,0,1,1.28,9,25.8,25.8,0,0,1-2.4,11.64C422,82.63,418.09,86.14,411.57,89l-.4.18,11.17,12.2c6.14,6.72,11.17,12.24,11.17,12.27s-4.32.06-9.59.06h-9.6L403.59,102Zm-230.11-.58a24.19,24.19,0,0,1-10-2.71c-6.65-3.41-10.86-9.89-11.75-18.07a41.54,41.54,0,0,1,0-6.31c1-9.6,6.64-16.8,15.33-19.7a26.5,26.5,0,0,1,9.79-1.29,24.26,24.26,0,0,1,9.53,1.83,19.21,19.21,0,0,1,5.3,3.34l.29.32-.35.38c-.8.86-5.33,5.63-6.45,6.78L184,67.22l-.68-.46a12,12,0,0,0-6.61-2.14,10.88,10.88,0,0,0-8.37,2.89c-2.42,2.29-3.58,5.13-3.72,9.08-.26,7.14,3.21,12.27,9.06,13.39a15.36,15.36,0,0,0,4.49,0A8.23,8.23,0,0,0,185,83.65l.17-.7-5.08,0-5.08,0,5.17-5.43L185.33,72h12.33v3.81c0,2.09-.06,4.46-.12,5.25-.7,8.28-4.75,14.64-11.47,18a24.66,24.66,0,0,1-12.59,2.34Zm93.25,0a25.44,25.44,0,0,1-12.66-4.67,26.43,26.43,0,0,1-4.59-4.68,28.15,28.15,0,0,1-3-6.06,27.17,27.17,0,0,1-1.23-9.47c.18-6.77,2.36-12.19,6.63-16.46a23.11,23.11,0,0,1,13-6.43,40,40,0,0,1,7.94-.24c9.93,1,17.4,6.67,20.32,15.44a26.66,26.66,0,0,1,1.29,9.6,25,25,0,0,1-1.47,8.22A21.8,21.8,0,0,1,284,97.8a25.91,25.91,0,0,1-9.79,3.46,49.36,49.36,0,0,1-7.5.16Zm5-11.33c6-1,9.67-5.77,9.67-12.54,0-7.9-5-13.21-12.25-12.93a10.57,10.57,0,0,0-8.82,4.82,14.3,14.3,0,0,0-2.18,8.77,12.47,12.47,0,0,0,3.24,8.54,10.31,10.31,0,0,0,3.34,2.43,12.16,12.16,0,0,0,7,.91Zm37.39,11.34a21.15,21.15,0,0,1-11.34-4.68,10.33,10.33,0,0,1-2.28-2.57c0-.09,1.46-1.69,3.24-3.57s3.52-3.69,3.85-4l.61-.64.55.76A10.32,10.32,0,0,0,308,90.13a10.52,10.52,0,0,0,7.61.07,3.55,3.55,0,0,0,1.69-1.83,3.68,3.68,0,0,0-.11-2.38c-.59-1.23-2-2-6.51-3.51a43.54,43.54,0,0,1-7.16-3c-4.5-2.49-7-5.76-7.62-10.1A12.91,12.91,0,0,1,299.54,58q4.72-4.68,13.35-4.68a19.4,19.4,0,0,1,11.3,3.08,18.71,18.71,0,0,1,3.46,3c0,.06-1.71,1.91-3.8,4.1s-3.83,4-3.88,4.08-.38-.28-.76-.73A7.39,7.39,0,0,0,313.06,64a4.68,4.68,0,0,0-2,.27A3.53,3.53,0,0,0,309,66.17a3.28,3.28,0,0,0,.23,2.61c.63.94,1.68,1.47,6.38,3.19,6,2.18,9,3.85,11.35,6.17a11.34,11.34,0,0,1,3.31,6.15,18.62,18.62,0,0,1,.06,5.32,13.69,13.69,0,0,1-6,8.74,20,20,0,0,1-7.83,2.86,40.14,40.14,0,0,1-7.32.22Zm178.11,0a26.43,26.43,0,0,1-14.4-4.91,29,29,0,0,1-4.58-4.62,23.89,23.89,0,0,1-4.18-11.1,44.61,44.61,0,0,1,0-6.54,23.6,23.6,0,0,1,3.82-10.64c3.65-5.43,9.41-8.85,16.88-10a56.4,56.4,0,0,1,10.15,0,37.8,37.8,0,0,1,5.59,1.17,27.87,27.87,0,0,1,3.44,1.3c.07.07-4.78,10.32-5,10.53a4.24,4.24,0,0,1-1.2-.41,18.81,18.81,0,0,0-7.11-1.55,14.68,14.68,0,0,0-5.08.51c-4.47,1.29-7.35,4.5-8.38,9.36a20.18,20.18,0,0,0,0,5.91,11.81,11.81,0,0,0,5,7.7c4,2.73,10.46,2.88,15.81.38l1-.46,1.71,5.22c.94,2.86,1.69,5.23,1.67,5.25s-.5.26-1.06.53c-3.54,1.72-9.15,2.67-14.05,2.4Zm35.35,0A26.07,26.07,0,0,1,510,96.77a21.73,21.73,0,0,1-8.1-12.38,23.61,23.61,0,0,1-.78-6.9,23.79,23.79,0,0,1,.78-6.92,22.13,22.13,0,0,1,17.44-16.66,32.29,32.29,0,0,1,12.77.06,22.78,22.78,0,0,1,13.34,8.21,23.64,23.64,0,0,1,4.63,11.56,38.94,38.94,0,0,1,0,7.48c-1.22,9.34-6.69,16.11-15.3,18.94a31,31,0,0,1-12.18,1.26Zm6-11.51c4.59-1.12,7.62-4.56,8.48-9.65a21.45,21.45,0,0,0,0-5.43c-.82-5.08-4-8.77-8.48-9.9a14.82,14.82,0,0,0-5.18-.17c-5.11,1-8.52,4.8-9.26,10.45-1,7.7,2.79,13.71,9.4,14.89a15.85,15.85,0,0,0,5-.19ZM341.21,83.32V65.19l-5,0-5,0,0-5.38,0-5.37h20.17c11.09,0,20.16,0,20.16.07s-9.6,10.19-10,10.53c-.21.19-.58.21-3.82.21h-3.59V88.12l-6.31,6.63c-3.46,3.64-6.35,6.64-6.42,6.66s-.11-6.45-.11-18.09ZM200.3,77.43V54.14H213V72h16.57V54.14l6.33,0,6.33,0v46.45l-6.33,0-6.33,0,0-8.91,0-8.91-8.26,0-8.25,0,0,8.91,0,8.91-6.33,0-6.33,0V77.43Zm230.77,23.2c-.05,0-.08-10.52-.08-23.28V54.14h33.72V65.07h-21v6.72h16.68V82.11H443.71v7.68h21v10.92H447.93c-9.23,0-16.82,0-16.86-.08Zm122-.07c0-.08-.05-10.55,0-23.25l0-23.11,6.18,0,6.18,0,9.25,14c5.08,7.68,9.28,14,9.33,14s.09-6.28.09-14v-14H595.9v46.57H583.55l-.3-.39c-.16-.21-4.3-6.46-9.2-13.89s-9-13.58-9.07-13.68-.17,2-.17,13.89v14.07H559c-4.55,0-5.84,0-5.88-.15ZM185.54,35.18V30.26H178.7V26.78h17.16v3.48H189V40.1h-3.48ZM200,39.93a3.51,3.51,0,0,1-2.22-2.16c-.19-.54-.21-1.16-.22-5.8V26.78h6.94c7.53,0,7.79,0,8.77.67a3.48,3.48,0,0,1,.78.75c.67,1,.67,1,.67,5.19a33.56,33.56,0,0,1-.13,4.31,3.61,3.61,0,0,1-1.72,2l-.71.36-5.83,0c-4.55,0-5.94,0-6.33-.13Zm11.24-3.54a19.44,19.44,0,0,0,.12-3c0-2.35,0-2.79-.19-2.95s-.8-.19-5.16-.19h-5v3a13.42,13.42,0,0,0,.14,3.18,31.09,31.09,0,0,0,5,.14c4.72,0,4.9,0,5-.23Zm5.16-3V26.77l1.89,0,1.89,0,3.12,4.95c1.72,2.72,3.16,4.94,3.22,4.92s1.48-2.25,3.18-4.95l3.1-4.92,1.88,0,1.89,0V40.1h-3.48l0-3.58,0-3.58-2.24,3.55L228.54,40l-2,0-2,0-2.26-3.6-2.27-3.6,0,3.59,0,3.6h-3.48V33.44Zm28.91,6.47a4.13,4.13,0,0,1-2-1.82c-.28-.57-.28-.59-.32-5.94l0-5.37h17.17v.33c0,.18-.1.95-.21,1.71l-.2,1.38-6.63,0-6.63,0v3.05c0,2.4,0,3.07.16,3.17a57,57,0,0,0,6.63.17l6.47,0,.2,1.38c.11.76.21,1.53.21,1.71v.33H253c-5.8,0-7.21,0-7.67-.18Zm16.49-6.44,0-6.63,1.71,0,1.71,0v9.85h4.09c2.25,0,4.08.05,4.05.1s-.49.84-1.05,1.74l-1,1.64h-9.56l0-6.63Zm10.53,6.58s1.62-2.58,3.61-5.67c4-6.18,4.4-6.74,5.71-7.25.67-.27.87-.28,4.75-.33l4.05-.05V40.1H287V36.62h-8.34l-1.12,1.74-1.13,1.74h-2a19.81,19.81,0,0,1-2-.05ZM287,31.76v-1.5h-2a13.34,13.34,0,0,0-2.2.11,19.39,19.39,0,0,0-1.93,2.83s1.38.06,3.06.06H287v-1.5Zm5.52,1.68V26.78h3.42l5.16,4.38,5.17,4.39,0-4.39,0-4.38h3.36V40.1h-3.38l-5.09-4.32c-2.8-2.38-5.12-4.32-5.15-4.32S296,33.4,296,35.78V40.1h-3.48V33.44Zm21.65,6.49a3.7,3.7,0,0,1-2.31-2.41c-.08-.31-.13-2.36-.13-5.61V26.78h8.58c7.47,0,8.58,0,8.58.17s-.34,2.65-.43,3l-.05.27h-13.2v3a13.28,13.28,0,0,0,.14,3.18c.11.11,1.74.15,6.6.15h6.46l.05.27c.09.38.43,2.82.43,3s-.93.18-7.11.17c-5.48,0-7.23,0-7.61-.16Zm23.24-2.39V35L334,31c-1.84-2.21-3.36-4-3.36-4.1a12.78,12.78,0,0,1,2.14-.09h2.13l.43.45c.23.24,1.12,1.28,2,2.31s1.6,1.93,1.69,2,.53-.3,2.22-2.31l2.07-2.47h2.21c1.73,0,2.19,0,2.12.15s-1.6,1.94-3.43,4.13l-3.34,4V40.1h-3.48V37.54Zm17.58,2.17c.08-.48.42-2.83.42-2.91s2.76-.06,6.13-.06c4,0,6.21-.05,6.37-.13s.23-.25.23-.65a1,1,0,0,0-.15-.63c-.09,0-2.64-.12-5.67-.15l-5.52-.06-.56-.33a3.7,3.7,0,0,1-1.61-1.92,5.59,5.59,0,0,1-.15-2,3.79,3.79,0,0,1,.36-2.06,3.29,3.29,0,0,1,1.54-1.52l.54-.28,7.35,0c4,0,7.35,0,7.35,0s-.34,2.43-.43,2.92l-.06.39h-6.37c-4.15,0-6.44,0-6.59.12s-.23.25-.23.64a1.2,1.2,0,0,0,.14.65c.11.11,1.48.15,5.44.15,5.87,0,6,0,6.86.77a4.6,4.6,0,0,1,.82,1c.35.63.36.69.36,2.33s0,1.73-.27,2.17a3.27,3.27,0,0,1-1.62,1.6l-.73.37h-14l.07-.39ZM348.4,29.6V28.46l.73-.84.72-.84H352a8.23,8.23,0,0,1,2.12.11c0,.07-.73,1-1.58,2L351,30.74H348.4V29.6Z"/><path id="path3357" class="cls-3" d="M444.68,115.41c-4.1-4.45-7.45-8.12-7.45-8.16s35.66,0,79.24,0h79.25l7,7.67c3.86,4.22,7.2,7.89,7.43,8.16l.4.48H452.13l-7.45-8.11ZM403.59,102c-5.9-6.42-10.82-11.77-10.94-11.88s-.39-.21-1.43-.18L390,90l0,5.37,0,5.37H375.3V65.19h14.64l0,6.09,0,6.09,4.26,0c4.6,0,6.19-.15,8.47-.7a12.77,12.77,0,0,0,7.81-4.82,12.65,12.65,0,0,0,1.55-9.95A9.23,9.23,0,0,0,406,55.7a25.56,25.56,0,0,0-4.81-1.15c-1.2-.18-3-.22-13.63-.28l-12.26-.07,6.19-6.51,6.19-6.51h5.65c7.06,0,9.63.18,13.4.91Q421.7,45,425.64,56.7a27.36,27.36,0,0,1,1.28,9,25.8,25.8,0,0,1-2.4,11.64C422,82.63,418.09,86.14,411.57,89l-.4.18,11.17,12.2c6.14,6.72,11.17,12.24,11.17,12.27s-4.32.06-9.59.06h-9.6L403.59,102Zm-230.11-.58a24.19,24.19,0,0,1-10-2.71c-6.65-3.41-10.86-9.89-11.75-18.07a41.54,41.54,0,0,1,0-6.31c1-9.6,6.64-16.8,15.33-19.7a26.5,26.5,0,0,1,9.79-1.29,24.26,24.26,0,0,1,9.53,1.83,19.21,19.21,0,0,1,5.3,3.34l.29.32-.35.38c-.8.86-5.33,5.63-6.45,6.78L184,67.22l-.68-.46a12,12,0,0,0-6.61-2.14,10.88,10.88,0,0,0-8.37,2.89c-2.42,2.29-3.58,5.13-3.72,9.08-.26,7.14,3.21,12.27,9.06,13.39a15.36,15.36,0,0,0,4.49,0A8.23,8.23,0,0,0,185,83.65l.17-.7-5.08,0-5.08,0,5.17-5.43L185.33,72h12.33v3.81c0,2.09-.06,4.46-.12,5.25-.7,8.28-4.75,14.64-11.47,18a24.66,24.66,0,0,1-12.59,2.34Zm93.25,0a25.44,25.44,0,0,1-12.66-4.67,26.43,26.43,0,0,1-4.59-4.68,28.15,28.15,0,0,1-3-6.06,27.17,27.17,0,0,1-1.23-9.47c.18-6.77,2.36-12.19,6.63-16.46a23.11,23.11,0,0,1,13-6.43,40,40,0,0,1,7.94-.24c9.93,1,17.4,6.67,20.32,15.44a26.66,26.66,0,0,1,1.29,9.6,25,25,0,0,1-1.47,8.22A21.8,21.8,0,0,1,284,97.8a25.91,25.91,0,0,1-9.79,3.46,49.36,49.36,0,0,1-7.5.16Zm5-11.33c6-1,9.67-5.77,9.67-12.54,0-7.9-5-13.21-12.25-12.93a10.57,10.57,0,0,0-8.82,4.82,14.3,14.3,0,0,0-2.18,8.77,12.47,12.47,0,0,0,3.24,8.54,10.31,10.31,0,0,0,3.34,2.43,12.16,12.16,0,0,0,7,.91Zm37.39,11.34a21.15,21.15,0,0,1-11.34-4.68,10.33,10.33,0,0,1-2.28-2.57c0-.09,1.46-1.69,3.24-3.57s3.52-3.69,3.85-4l.61-.64.55.76A10.32,10.32,0,0,0,308,90.13a10.52,10.52,0,0,0,7.61.07,3.55,3.55,0,0,0,1.69-1.83,3.68,3.68,0,0,0-.11-2.38c-.59-1.23-2-2-6.51-3.51a43.54,43.54,0,0,1-7.16-3c-4.5-2.49-7-5.76-7.62-10.1A12.91,12.91,0,0,1,299.54,58q4.72-4.68,13.35-4.68a19.4,19.4,0,0,1,11.3,3.08,18.71,18.71,0,0,1,3.46,3c0,.06-1.71,1.91-3.8,4.1s-3.83,4-3.88,4.08-.38-.28-.76-.73A7.39,7.39,0,0,0,313.06,64a4.68,4.68,0,0,0-2,.27A3.53,3.53,0,0,0,309,66.17a3.28,3.28,0,0,0,.23,2.61c.63.94,1.68,1.47,6.38,3.19,6,2.18,9,3.85,11.35,6.17a11.34,11.34,0,0,1,3.31,6.15,18.62,18.62,0,0,1,.06,5.32,13.69,13.69,0,0,1-6,8.74,20,20,0,0,1-7.83,2.86,40.14,40.14,0,0,1-7.32.22Zm178.11,0a26.43,26.43,0,0,1-14.4-4.91,29,29,0,0,1-4.58-4.62,23.89,23.89,0,0,1-4.18-11.1,44.61,44.61,0,0,1,0-6.54,23.6,23.6,0,0,1,3.82-10.64c3.65-5.43,9.41-8.85,16.88-10a56.4,56.4,0,0,1,10.15,0,37.8,37.8,0,0,1,5.59,1.17,27.87,27.87,0,0,1,3.44,1.3c.07.07-4.78,10.32-5,10.53a4.24,4.24,0,0,1-1.2-.41,18.81,18.81,0,0,0-7.11-1.55,14.68,14.68,0,0,0-5.08.51c-4.47,1.29-7.35,4.5-8.38,9.36a20.18,20.18,0,0,0,0,5.91,11.81,11.81,0,0,0,5,7.7c4,2.73,10.46,2.88,15.81.38l1-.46,1.71,5.22c.94,2.86,1.69,5.23,1.67,5.25s-.5.26-1.06.53c-3.54,1.72-9.15,2.67-14.05,2.4Zm35.35,0A26.07,26.07,0,0,1,510,96.77a21.73,21.73,0,0,1-8.1-12.38,23.61,23.61,0,0,1-.78-6.9,23.79,23.79,0,0,1,.78-6.92,22.13,22.13,0,0,1,17.44-16.66,32.29,32.29,0,0,1,12.77.06,22.78,22.78,0,0,1,13.34,8.21,23.64,23.64,0,0,1,4.63,11.56,38.94,38.94,0,0,1,0,7.48c-1.22,9.34-6.69,16.11-15.3,18.94a31,31,0,0,1-12.18,1.26Zm6-11.51c4.59-1.12,7.62-4.56,8.48-9.65a21.45,21.45,0,0,0,0-5.43c-.82-5.08-4-8.77-8.48-9.9a14.82,14.82,0,0,0-5.18-.17c-5.11,1-8.52,4.8-9.26,10.45-1,7.7,2.79,13.71,9.4,14.89a15.85,15.85,0,0,0,5-.19ZM341.21,83.32V65.19l-5,0-5,0,0-5.38,0-5.37h20.17c11.09,0,20.16,0,20.16.07s-9.6,10.19-10,10.53c-.21.19-.58.21-3.82.21h-3.59V88.12l-6.31,6.63c-3.46,3.64-6.35,6.64-6.42,6.66s-.11-6.45-.11-18.09ZM200.3,77.43V54.14H213V72h16.57V54.14l6.33,0,6.33,0v46.45l-6.33,0-6.33,0,0-8.91,0-8.91-8.26,0-8.25,0,0,8.91,0,8.91-6.33,0-6.33,0V77.43Zm230.77,23.2c-.05,0-.08-10.52-.08-23.28V54.14h33.72V65.07h-21v6.72h16.68V82.11H443.71v7.68h21v10.92H447.93c-9.23,0-16.82,0-16.86-.08Zm122-.07c0-.08-.05-10.55,0-23.25l0-23.11,6.18,0,6.18,0,9.25,14c5.08,7.68,9.28,14,9.33,14s.09-6.28.09-14v-14H595.9v46.57H583.55l-.3-.39c-.16-.21-4.3-6.46-9.2-13.89s-9-13.58-9.07-13.68-.17,2-.17,13.89v14.07H559c-4.55,0-5.84,0-5.88-.15ZM185.54,35.18V30.26H178.7V26.78h17.16v3.48H189V40.1h-3.48ZM200,39.93a3.51,3.51,0,0,1-2.22-2.16c-.19-.54-.21-1.16-.22-5.8V26.78h6.94c7.53,0,7.79,0,8.77.67a3.48,3.48,0,0,1,.78.75c.67,1,.67,1,.67,5.19a33.56,33.56,0,0,1-.13,4.31,3.61,3.61,0,0,1-1.72,2l-.71.36-5.83,0c-4.55,0-5.94,0-6.33-.13Zm11.24-3.54a19.44,19.44,0,0,0,.12-3c0-2.35,0-2.79-.19-2.95s-.8-.19-5.16-.19h-5v3a13.42,13.42,0,0,0,.14,3.18,31.09,31.09,0,0,0,5,.14c4.72,0,4.9,0,5-.23Zm5.16-3V26.77l1.89,0,1.89,0,3.12,4.95c1.72,2.72,3.16,4.94,3.22,4.92s1.48-2.25,3.18-4.95l3.1-4.92,1.88,0,1.89,0V40.1h-3.48l0-3.58,0-3.58-2.24,3.55L228.54,40l-2,0-2,0-2.26-3.6-2.27-3.6,0,3.59,0,3.6h-3.48V33.44Zm28.91,6.47a4.13,4.13,0,0,1-2-1.82c-.28-.57-.28-.59-.32-5.94l0-5.37h17.17v.33c0,.18-.1.95-.21,1.71l-.2,1.38-6.63,0-6.63,0v3.05c0,2.4,0,3.07.16,3.17a57,57,0,0,0,6.63.17l6.47,0,.2,1.38c.11.76.21,1.53.21,1.71v.33H253c-5.8,0-7.21,0-7.67-.18Zm16.49-6.44,0-6.63,1.71,0,1.71,0v9.85h4.09c2.25,0,4.08.05,4.05.1s-.49.84-1.05,1.74l-1,1.64h-9.56l0-6.63Zm10.53,6.58s1.62-2.58,3.61-5.67c4-6.18,4.4-6.74,5.71-7.25.67-.27.87-.28,4.75-.33l4.05-.05V40.1H287V36.62h-8.34l-1.12,1.74-1.13,1.74h-2a19.81,19.81,0,0,1-2-.05ZM287,31.76v-1.5h-2a13.34,13.34,0,0,0-2.2.11,19.39,19.39,0,0,0-1.93,2.83s1.38.06,3.06.06H287v-1.5Zm5.52,1.68V26.78h3.42l5.16,4.38,5.17,4.39,0-4.39,0-4.38h3.36V40.1h-3.38l-5.09-4.32c-2.8-2.38-5.12-4.32-5.15-4.32S296,33.4,296,35.78V40.1h-3.48V33.44Zm21.65,6.49a3.7,3.7,0,0,1-2.31-2.41c-.08-.31-.13-2.36-.13-5.61V26.78h8.58c7.47,0,8.58,0,8.58.17s-.34,2.65-.43,3l-.05.27h-13.2v3a13.28,13.28,0,0,0,.14,3.18c.11.11,1.74.15,6.6.15h6.46l.05.27c.09.38.43,2.82.43,3s-.93.18-7.11.17c-5.48,0-7.23,0-7.61-.16Zm23.24-2.39V35L334,31c-1.84-2.21-3.36-4-3.36-4.1a12.78,12.78,0,0,1,2.14-.09h2.13l.43.45c.23.24,1.12,1.28,2,2.31s1.6,1.93,1.69,2,.53-.3,2.22-2.31l2.07-2.47h2.21c1.73,0,2.19,0,2.12.15s-1.6,1.94-3.43,4.13l-3.34,4V40.1h-3.48V37.54Zm17.58,2.17c.08-.48.42-2.83.42-2.91s2.76-.06,6.13-.06c4,0,6.21-.05,6.37-.13s.23-.25.23-.65a1,1,0,0,0-.15-.63c-.09,0-2.64-.12-5.67-.15l-5.52-.06-.56-.33a3.7,3.7,0,0,1-1.61-1.92,5.59,5.59,0,0,1-.15-2,3.79,3.79,0,0,1,.36-2.06,3.29,3.29,0,0,1,1.54-1.52l.54-.28,7.35,0c4,0,7.35,0,7.35,0s-.34,2.43-.43,2.92l-.06.39h-6.37c-4.15,0-6.44,0-6.59.12s-.23.25-.23.64a1.2,1.2,0,0,0,.14.65c.11.11,1.48.15,5.44.15,5.87,0,6,0,6.86.77a4.6,4.6,0,0,1,.82,1c.35.63.36.69.36,2.33s0,1.73-.27,2.17a3.27,3.27,0,0,1-1.62,1.6l-.73.37h-14l.07-.39ZM348.4,29.6V28.46l.73-.84.72-.84H352a8.23,8.23,0,0,1,2.12.11c0,.07-.73,1-1.58,2L351,30.74H348.4V29.6Z"/><path id="path3355" class="cls-4" d="M444.68,115.41c-4.1-4.45-7.45-8.12-7.45-8.16s35.66,0,79.24,0h79.25l7,7.67c3.86,4.22,7.2,7.89,7.43,8.16l.4.48H452.13l-7.45-8.11Zm-40.95-13.27c-5.83-6.35-10.73-11.7-10.89-11.89-.27-.34-.29-.34-1.59-.34h-1.31v10.68H375.3V65.18h14.64V77.46l4.53-.07c4.82-.07,6.22-.19,8.32-.73,4.33-1.11,7-3.08,8.57-6.24a10.18,10.18,0,0,0,1.08-5.18,9.49,9.49,0,0,0-1-5,6.31,6.31,0,0,0-1.58-2.17A11.71,11.71,0,0,0,404,55c-2.9-.69-3-.69-16.3-.77l-12.3-.07,6.18-6.51,6.19-6.5h5.4c3,0,6.21.05,7.2.11,9.38.63,16.49,3.31,20.82,7.87a18.66,18.66,0,0,1,3.23,4.62c1.89,3.71,2.63,7.52,2.5,12.77a26.31,26.31,0,0,1-.85,6.67A22.08,22.08,0,0,1,415.34,87.1,30.58,30.58,0,0,1,411.43,89a.25.25,0,0,0-.18.11c0,.07,4.88,5.54,10.94,12.16s11.09,12.13,11.18,12.25-.37.2-9.43.2h-9.6l-10.61-11.53Zm-136.09-.67c-13.68-1-22.44-10.35-22.44-24,0-7,2.31-13.06,6.65-17.42,4.59-4.6,11.21-7,18.78-6.73a27,27,0,0,1,6.43.86,22.07,22.07,0,0,1,16.45,16.21,23.46,23.46,0,0,1,.83,7.08,24.48,24.48,0,0,1-.73,6.77c-2.21,9-9.07,15.24-18.65,16.86a35.24,35.24,0,0,1-7.32.35Zm4-11.33a11.07,11.07,0,0,0,8.64-6.61,16.34,16.34,0,0,0,0-12A10.82,10.82,0,0,0,275,65.79a9.25,9.25,0,0,0-5.34-1.13,8.46,8.46,0,0,0-3.27.32,11.1,11.1,0,0,0-7.51,7.48,13.16,13.16,0,0,0-.68,5.15,11.52,11.52,0,0,0,.33,3.71,11.3,11.3,0,0,0,7.51,8.4,13.48,13.48,0,0,0,5.62.42Zm38.39,11.34-1.49-.18a25.29,25.29,0,0,1-4.93-1.19,22.24,22.24,0,0,1-4.81-2.57,20.16,20.16,0,0,1-3.22-3.17c-.13-.24.14-.56,3.54-4.13L303,86.15c.2-.2.22-.19.55.3a13.52,13.52,0,0,0,2.74,2.76,9.08,9.08,0,0,0,5.59,1.66,8.12,8.12,0,0,0,3.7-.65,3,3,0,0,0,1.83-2.87c0-1.84-.94-2.75-4.08-4-.76-.29-2-.73-2.82-1s-2.2-.74-3.12-1.11c-7.75-3.06-11.23-7-11.65-13.3a12.54,12.54,0,0,1,1.33-6.6c2.24-4.55,6.83-7.32,13.25-8a32.19,32.19,0,0,1,6.55.19A17.76,17.76,0,0,1,327,58.76l.64.68-.35.38c-1.85,2-7.4,7.76-7.46,7.76a4.59,4.59,0,0,1-.6-.66,8,8,0,0,0-4.11-2.77,9.5,9.5,0,0,0-4,0,3.21,3.21,0,0,0-2.36,3.11c0,1.92.89,2.57,6.26,4.54,7.82,2.86,11.24,4.95,13.43,8.2a13.43,13.43,0,0,1,1.13,11.88c-2,5.15-6.65,8.34-13.54,9.38a43.89,43.89,0,0,1-6,.23Zm213.52,0c-9.28-.75-16.18-5-19.79-12.17a27.31,27.31,0,0,1-2.23-17A22.08,22.08,0,0,1,518.31,54.2a27.65,27.65,0,0,1,22.16,3.32A25.47,25.47,0,0,1,546,62.9a25,25,0,0,1,4.17,11.68A39.62,39.62,0,0,1,550,82a22.35,22.35,0,0,1-6.44,12.91,21,21,0,0,1-7.25,4.7,29.81,29.81,0,0,1-12.71,1.87Zm4.27-11.38c5-.87,8.37-4.42,9.29-9.72a21.86,21.86,0,0,0,0-5.6c-.79-4.93-3.75-8.45-8.2-9.78a14.23,14.23,0,0,0-5.79-.19A10.37,10.37,0,0,0,517.45,68a13.45,13.45,0,0,0-3.4,9.61c0,5.36,2.44,9.63,6.63,11.59a13.22,13.22,0,0,0,3.39,1,17.24,17.24,0,0,0,3.79-.09ZM172,101.3c-7-.85-12.86-4.25-16.44-9.59-5.35-8-5.38-20.33-.07-28.34A20.9,20.9,0,0,1,163.82,56a26,26,0,0,1,13.09-2.68,24.25,24.25,0,0,1,10.68,2.43,20.8,20.8,0,0,1,3.78,2.49l.6.54-.72.76-4,4.22c-3,3.1-3.31,3.44-3.48,3.28a14.88,14.88,0,0,0-4.45-2.13,16.17,16.17,0,0,0-5.77-.13c-4.76,1-7.95,4.5-8.82,9.75a23.57,23.57,0,0,0,.11,6.24c.92,4,2.94,6.79,6,8.28a11.93,11.93,0,0,0,8.22.71,8.38,8.38,0,0,0,6.05-6.44l.07-.39h-5.05c-2.77,0-5,0-5-.1s2.34-2.52,5.15-5.46l5.1-5.36,6.12,0,6.12,0v4.5c0,4.87-.13,6.16-.73,8.63a21.15,21.15,0,0,1-21.1,16.15c-1.52,0-3.2,0-3.73-.07Zm169.26-18,0-18.17-5,0-5,0V54.38H371.5l-.3.33c-.17.19-2.45,2.59-5.07,5.34l-4.77,5h-7.31v23l-6.19,6.52-6.36,6.7c-.14.15-.17-2.61-.2-18Zm144.89,18a39.26,39.26,0,0,1-4.92-.89c-9.83-2.61-16.11-10-17.17-20.14a34.77,34.77,0,0,1,.25-7.57c1.83-10.45,9.39-17.49,20.58-19.16a47.65,47.65,0,0,1,7.93-.18,35.36,35.36,0,0,1,9.69,2.05c.67.27,1.29.53,1.36.57a39.62,39.62,0,0,1-2.37,5.3c-1.38,2.87-2.52,5.23-2.55,5.26a3.14,3.14,0,0,1-.75-.28,24.14,24.14,0,0,0-4.43-1.4,16.26,16.26,0,0,0-3.9-.26,12.27,12.27,0,0,0-3.64.27c-6.16,1.56-9.63,6.57-9.28,13.41.45,8.67,7.57,13.46,17.09,11.51a17.71,17.71,0,0,0,3.78-1.27,5.7,5.7,0,0,1,1.11-.45c.07.08,3.44,10.34,3.4,10.37a21.06,21.06,0,0,1-2.62,1.18,30.75,30.75,0,0,1-10.8,1.74c-1.22,0-2.46,0-2.76-.06Zm-285.89-24V54.14l6.33,0,6.33,0,0,8.91L213,72h16.56V54.14h12.61v46.45H229.58V82.83H213v17.76H200.3V77.37Zm230.7,0,0-23.2,16.83,0,16.83,0v10.8h-21v6.85h16.68V82.11H443.7v7.68h21v10.8H431l0-23.19Zm122.16,0V54.14h12.31l9.3,14.06,9.3,14.06,0-14.06,0-14.07h11.76v46.45l-6.26,0-6.26,0L574.24,86.7c-5-7.6-9.2-13.89-9.28-14s-.15,2.65-.15,13.85v14H553.16V77.37ZM185.54,35.18V30.26h-6.85V26.9h17.17v3.36H189V40.1h-3.48ZM200.27,40a3.57,3.57,0,0,1-2.39-1.91l-.28-.54,0-5.31,0-5.31h14.59l.6.28a3.66,3.66,0,0,1,1.79,2c.18.53.2,1.11.17,4.55l0,3.94-.35.64a3.64,3.64,0,0,1-1.71,1.55c-.41.19-1,.21-6.16.23-3.14,0-5.91,0-6.15-.09Zm10.93-3.49a33.23,33.23,0,0,0,0-6c-.12-.22-.31-.23-5.17-.23h-5v3.1a31.17,31.17,0,0,0,.08,3.18s2.3.08,5,.08a31.65,31.65,0,0,0,5.09-.14Zm5.18-3V26.9h3.8l3.1,4.92c1.7,2.71,3.13,5,3.17,5s1.48-2.2,3.19-4.93l3.12-5h3.78V40.1h-3.36V36.5c0-2,0-3.6-.09-3.6s-1.11,1.62-2.35,3.6l-2.27,3.6h-4l-2.28-3.61-2.27-3.62,0,3.62,0,3.61h-3.48V33.5ZM245.63,40a3.44,3.44,0,0,1-2.39-2c-.27-.59-.28-.66-.31-5.85l0-5.25h8.59c5.47,0,8.59,0,8.59.11s-.36,2.66-.43,3l-.06.27h-13.2l0,3.15,0,3.15,6.56,0,6.57,0,.06.39c.11.64.43,2.84.43,3s-13.79.14-14.44,0Zm16.24-6.47V26.9h3.36v9.72l4.08,0,4.08,0-1.05,1.71-1,1.71h-9.42V33.5Zm10.59,6.33c5.61-8.74,7.19-11.16,7.56-11.56a5.08,5.08,0,0,1,1.21-.9L282,27l4.23,0,4.23,0V40.1h-3.36l0-1.71,0-1.71-4.22,0-4.21,0-1.12,1.74-1.12,1.74h-4.06l.17-.27Zm14.59-8.1,0-1.47H285c-1.63,0-2.13,0-2.33.18a17.59,17.59,0,0,0-1.84,2.75s1.39.06,3.09,0l3.09,0,0-1.47Zm5.43,1.77V26.9H296l5.1,4.34,5.1,4.33,0-4.34,0-4.33h3.36V40.1H306.3l-5.14-4.36L296,31.38l0,4.36,0,4.36h-3.48V33.5ZM314.41,40A3.58,3.58,0,0,1,312,38.06l-.28-.54,0-5.31,0-5.31h8.59c4.72,0,8.58,0,8.58.06s-.34,2.43-.42,2.91l-.07.39H315.16l0,3.15,0,3.15,6.57,0,6.56,0,.07.39c.11.64.42,2.84.42,3s-13.78.14-14.43,0Zm23.08-2.37V35.1l-2.9-3.47-3.44-4.1-.53-.63h4.45l2,2.4c1.11,1.32,2,2.4,2.08,2.39s1-1.08,2-2.39l2-2.39h2.19c1.8,0,2.18,0,2.1.16s-1.56,1.92-3.36,4.06L340.85,35V40.1h-3.36V37.6Zm17.68.82.24-1.68h12.43l.19-.27a.81.81,0,0,0,0-1l-.19-.27H357.11l-.72-.34a3.27,3.27,0,0,1-1.65-1.63c-.24-.44-.27-.67-.27-2.12s0-1.65.36-2.33a3.42,3.42,0,0,1,.88-1.1c1-.76,1-.76,8.81-.76h7.06l-.06.27c-.07.32-.43,2.8-.43,3s-2.37.12-6.46.12c-6.11,0-6.47,0-6.66.22a.92.92,0,0,0,0,1.14c.18.17.84.19,5.67.22,5.36,0,5.46,0,5.95.3a3.28,3.28,0,0,1,1.57,1.57c.31.65.33.78.33,2.25a4.43,4.43,0,0,1-.25,2.12,3.69,3.69,0,0,1-1.92,1.77c-.63.24-.9.25-7.53.25h-6.87l.23-1.68Zm-6.76-8.8V28.51l.67-.81.67-.8h4.44l-.62.75L352,29.57l-1,1.16h-2.58V29.62Z"/><path id="path3353" class="cls-5" d="M588.82,120.68a9.94,9.94,0,0,1-4.09-1.37l-.36-.26.93-.68.94-.69.78.39a6.09,6.09,0,0,0,3,.65c2,0,3-.73,2.54-1.68-.16-.31-.81-.54-3-1.08s-3.16-1-3.76-1.73a1.69,1.69,0,0,1-.41-1.25,1.65,1.65,0,0,1,.28-1.29,4.08,4.08,0,0,1,2.06-1.43,11.37,11.37,0,0,1,5.44,0,8.4,8.4,0,0,1,2.28,1.13,5.13,5.13,0,0,1-.88.75l-.87.66-.57-.28a5.74,5.74,0,0,0-3.05-.61c-1.21.07-1.77.34-1.77.86s.42.74,2.76,1.32,3.47,1.06,4,1.7c1.49,1.81.16,4.1-2.74,4.72a17.06,17.06,0,0,1-3.48.17ZM453.5,115.44c-.85-2.79-1.57-5.14-1.6-5.22s.29-.15,1.4-.15h1.44l.17.57c.09.31.54,1.93,1,3.6s.86,3,.89,3,.6-1.62,1.26-3.6l1.2-3.6H462l1.25,3.65a33.32,33.32,0,0,0,1.33,3.51c0-.08.52-1.72,1.07-3.65l1-3.51H468c1,0,1.37,0,1.33.15s-.75,2.43-1.59,5.22l-1.55,5.07H463l-1.12-3.33c-.61-1.83-1.15-3.37-1.19-3.42a20.77,20.77,0,0,0-1,2.7c-.52,1.54-1.05,3.07-1.18,3.42l-.23.63h-3.16l-1.55-5.07Zm21.78-.15v-5.22h2.88v10.44h-2.88Zm10.68,0v-5.22h2.88v8.4h6l-.07.27c0,.15-.13.61-.21,1l-.14.75H486v-5.22Zm14.76,0v-5.24l3.09,0a15.48,15.48,0,0,1,4,.31,5.07,5.07,0,0,1,3.52,2.63c.32.65.34.79.34,2.19a3.89,3.89,0,0,1-.32,2.19,5.54,5.54,0,0,1-3.76,2.81,17.53,17.53,0,0,1-3.81.25l-3.09.06v-5.25Zm5.64,3.17a3.23,3.23,0,0,0,2-1.43,3.2,3.2,0,0,0,.34-1.65,2.72,2.72,0,0,0-.27-1.77c-.54-1.1-1.76-1.61-3.88-1.61h-1v6.6h1.08a9.46,9.46,0,0,0,1.68-.13Zm12.24-3.17v-5.22h2.88v8.4h3c2.78,0,3,0,3,.21a10,10,0,0,1-.3,1.56l-.06.27H518.6v-5.22Zm12.51,5.12c0-.06,1.17-2.42,2.55-5.23l2.51-5.11,1.55,0,1.56,0,2.5,5.15c1.38,2.84,2.51,5.17,2.51,5.2s-.69,0-1.53,0h-1.53l-.54-1.2-.54-1.2h-5l-.56,1.2-.56,1.2h-1.49a4.75,4.75,0,0,1-1.45-.1Zm8-4.61c-.44-1-1.31-2.92-1.38-3a8.82,8.82,0,0,0-.87,1.65l-.8,1.73h3.22l-.17-.39Zm10.61-.51v-5.22l1.7,0,1.69,0,2.15,3.06,2.42,3.45.27.38,0-3.48,0-3.47h2.79v10.45l-1.7,0-1.7,0L554.83,117l-2.41-3.44s0,1.53,0,3.44l0,3.47h-2.77v-5.22Zm18.72,0v-5.24l3.09,0a15.42,15.42,0,0,1,4,.31,5.11,5.11,0,0,1,3.53,2.63,3.8,3.8,0,0,1,.33,2.2,3.69,3.69,0,0,1-.39,2.3,4.58,4.58,0,0,1-2.25,2.15c-1.42.67-1.9.74-5.25.79l-3.09.06v-5.25Zm5.64,3.17a3,3,0,0,0,2.07-1.54,2.83,2.83,0,0,0,.33-1.68c0-1.84-.67-2.71-2.38-3.07a10.73,10.73,0,0,0-1.79-.18h-1v6.6h1.08a9.38,9.38,0,0,0,1.68-.13ZM403.71,102.14c-5.83-6.35-10.73-11.7-10.89-11.89-.27-.34-.29-.34-1.59-.34h-1.31v10.68H375.28V65.19h14.64V77.46l4.53-.07c4.83-.07,6.22-.19,8.33-.73,4.32-1.11,7-3.08,8.56-6.23a10.23,10.23,0,0,0,1.08-5.18,9.45,9.45,0,0,0-1-5,6.34,6.34,0,0,0-1.58-2.18A11.67,11.67,0,0,0,403.93,55c-2.9-.69-3-.69-16.29-.77l-12.31-.07,6.18-6.5,6.19-6.51h5.4c3,0,6.21.05,7.2.11,9.38.63,16.49,3.31,20.82,7.88a18.6,18.6,0,0,1,3.23,4.61c1.89,3.71,2.63,7.52,2.5,12.77a26.31,26.31,0,0,1-.85,6.67A22.08,22.08,0,0,1,415.32,87.1,29.23,29.23,0,0,1,411.41,89a.24.24,0,0,0-.18.12c0,.06,4.88,5.53,10.94,12.15s11.09,12.13,11.18,12.25-.37.21-9.43.21h-9.59l-10.62-11.54Zm-136.09-.67c-13.68-1-22.44-10.35-22.44-24,0-7,2.32-13.07,6.65-17.42,4.59-4.61,11.21-7,18.78-6.74a27.54,27.54,0,0,1,6.43.86,22.07,22.07,0,0,1,16.45,16.21,23.46,23.46,0,0,1,.83,7.08,24.44,24.44,0,0,1-.73,6.77c-2.21,9-9.07,15.25-18.65,16.86a34.56,34.56,0,0,1-7.32.35Zm4-11.33a11,11,0,0,0,8.64-6.61,16.34,16.34,0,0,0,0-12A10.86,10.86,0,0,0,275,65.79a9.25,9.25,0,0,0-5.34-1.13,8.49,8.49,0,0,0-3.27.32,11.1,11.1,0,0,0-7.51,7.48,13.19,13.19,0,0,0-.68,5.15,11.52,11.52,0,0,0,.33,3.71A11.33,11.33,0,0,0,266,89.73a13.48,13.48,0,0,0,5.62.41Zm38.39,11.34-1.49-.18a25.29,25.29,0,0,1-4.93-1.19,22.24,22.24,0,0,1-4.81-2.57,19.75,19.75,0,0,1-3.22-3.17c-.13-.24.14-.56,3.54-4.13L303,86.15c.2-.2.22-.19.55.3a13.52,13.52,0,0,0,2.74,2.76,9.08,9.08,0,0,0,5.59,1.66,8.13,8.13,0,0,0,3.7-.64,3,3,0,0,0,1.83-2.87c0-1.85-.94-2.76-4.08-4-.76-.29-2-.73-2.82-1s-2.2-.75-3.12-1.12c-7.75-3.06-11.23-7-11.65-13.29a12.5,12.5,0,0,1,1.33-6.6c2.24-4.56,6.83-7.33,13.25-8a32.17,32.17,0,0,1,6.55.19A17.76,17.76,0,0,1,327,58.76l.64.68-.35.38c-1.85,2-7.4,7.76-7.46,7.76a4,4,0,0,1-.6-.66,8,8,0,0,0-4.11-2.76,9.51,9.51,0,0,0-4,0,3.22,3.22,0,0,0-2.36,3.11c0,1.92.89,2.57,6.26,4.54,7.82,2.86,11.24,4.95,13.44,8.2a13.46,13.46,0,0,1,1.12,11.88c-2,5.15-6.65,8.34-13.54,9.39a45.36,45.36,0,0,1-6,.22Zm213.52,0c-9.28-.75-16.18-5-19.79-12.16a27.33,27.33,0,0,1-2.23-17A22.08,22.08,0,0,1,518.29,54.2a27.76,27.76,0,0,1,22.16,3.32A25.29,25.29,0,0,1,546,62.91a25,25,0,0,1,4.17,11.67A39.62,39.62,0,0,1,550,82a22.32,22.32,0,0,1-6.44,12.91,21.12,21.12,0,0,1-7.25,4.71,30,30,0,0,1-12.71,1.86Zm4.27-11.38c5-.87,8.37-4.41,9.29-9.72a21.86,21.86,0,0,0,0-5.6c-.79-4.93-3.75-8.45-8.2-9.78a14.41,14.41,0,0,0-5.79-.19A10.43,10.43,0,0,0,517.43,68a13.46,13.46,0,0,0-3.4,9.62c0,5.35,2.44,9.62,6.63,11.58a13.65,13.65,0,0,0,3.39,1,17.25,17.25,0,0,0,3.79-.1ZM172,101.3c-7-.85-12.87-4.25-16.45-9.59-5.35-8-5.38-20.33-.07-28.34A20.9,20.9,0,0,1,163.8,56a26,26,0,0,1,13.09-2.68,24.25,24.25,0,0,1,10.68,2.43,21.34,21.34,0,0,1,3.78,2.49l.6.54-.72.76-4,4.22c-2.95,3.1-3.31,3.44-3.48,3.28a14.88,14.88,0,0,0-4.45-2.13,16.4,16.4,0,0,0-5.77-.13c-4.76,1-7.94,4.5-8.82,9.75a23.57,23.57,0,0,0,.11,6.24c.92,4,2.94,6.79,6,8.28a12,12,0,0,0,8.22.72,8.41,8.41,0,0,0,6.05-6.45l.07-.39h-5c-2.77,0-5,0-5-.1s2.33-2.51,5.14-5.46l5.1-5.36,6.12,0,6.12,0v4.5c0,4.87-.13,6.16-.73,8.64a20.37,20.37,0,0,1-15,15.4,20.71,20.71,0,0,1-6.12.75c-1.52,0-3.2,0-3.72-.08Zm169.25-18,0-18.18-5,0-5,0V54.39h40.25l-.3.33-5.07,5.34-4.77,5H354v23l-6.19,6.52-6.36,6.69c-.14.15-.17-2.61-.2-18Zm144.89,18a37.53,37.53,0,0,1-4.92-.89c-9.83-2.61-16.11-10-17.17-20.14a34.77,34.77,0,0,1,.25-7.57c1.83-10.45,9.39-17.49,20.58-19.16a48.76,48.76,0,0,1,7.93-.18,35.36,35.36,0,0,1,9.69,2.05c.67.27,1.29.53,1.36.58a39.62,39.62,0,0,1-2.37,5.3c-1.38,2.86-2.52,5.22-2.55,5.25a3.14,3.14,0,0,1-.75-.28,24.93,24.93,0,0,0-4.43-1.4,16.81,16.81,0,0,0-3.9-.26,12.27,12.27,0,0,0-3.64.27c-6.16,1.56-9.63,6.58-9.28,13.41.45,8.67,7.57,13.46,17.09,11.51a17.71,17.71,0,0,0,3.78-1.27,5.3,5.3,0,0,1,1.11-.44c.07.07,3.44,10.33,3.4,10.37a20.7,20.7,0,0,1-2.62,1.17,30.53,30.53,0,0,1-10.8,1.74c-1.22,0-2.46,0-2.76-.06Zm-285.89-24V54.14l6.33,0,6.33,0,0,8.92L213,72h16.56V54.14h12.61v46.45H229.56V82.83H213v17.76H200.28V77.37ZM431,77.4l0-23.2,16.83,0,16.83,0V65h-21v6.84h16.68V82.11H443.68v7.68h21v10.8H431l0-23.19Zm122.15,0V54.14h12.31l9.3,14.06,9.3,14.06,0-14.06,0-14.07h11.76V100.6l-6.26,0-6.26,0-9.13-13.82c-5-7.61-9.2-13.9-9.28-14s-.15,2.65-.15,13.86v14H553.14V77.37ZM185.52,35.18V30.26h-6.85V26.9h17.17v3.36H189V40.1h-3.48ZM200.25,40a3.54,3.54,0,0,1-2.39-1.91l-.28-.54,0-5.31,0-5.31H212.1l.6.28a3.73,3.73,0,0,1,1.79,2c.18.53.2,1.11.17,4.55l0,3.94-.35.64a3.64,3.64,0,0,1-1.71,1.55c-.41.19-1,.21-6.16.23-3.14,0-5.91,0-6.15-.09Zm10.93-3.49a33.23,33.23,0,0,0,0-6c-.12-.22-.31-.23-5.17-.23h-5v3.1a31,31,0,0,0,.08,3.18s2.3.08,5,.08a31.56,31.56,0,0,0,5.08-.14Zm5.18-3V26.9h3.8l3.1,4.92c1.71,2.71,3.13,5,3.17,5s1.48-2.19,3.19-4.93l3.12-5h3.78V40.1h-3.36V36.5c0-2,0-3.6-.09-3.6s-1.1,1.62-2.35,3.6l-2.26,3.6h-4l-2.28-3.61-2.27-3.62,0,3.62,0,3.61h-3.48V33.5ZM245.61,40a3.42,3.42,0,0,1-2.39-2c-.27-.59-.27-.66-.31-5.85l0-5.25h8.59c5.47,0,8.59,0,8.59.12s-.36,2.65-.43,3l-.06.27h-13.2l0,3.15,0,3.15,6.56,0,6.57,0,.06.39c.11.64.43,2.84.43,3s-13.78.14-14.44,0Zm16.24-6.47V26.9h3.36v9.72l4.08,0,4.08,0-1.05,1.71-1.05,1.71h-9.42V33.5Zm10.59,6.33c5.61-8.74,7.19-11.16,7.56-11.56a5.37,5.37,0,0,1,1.21-.9L282,27l4.23,0,4.23,0V40.1h-3.36l0-1.71,0-1.71-4.22,0-4.21,0-1.12,1.74-1.12,1.74h-4.06l.17-.27ZM287,31.73l0-1.47H285c-1.63,0-2.13,0-2.33.18a18.07,18.07,0,0,0-1.84,2.75s1.39.06,3.09,0l3.09,0,0-1.47Zm5.43,1.77V26.9H296l5.1,4.33,5.1,4.33,0-4.33,0-4.34h3.36V40.1h-3.34l-5.14-4.36L296,31.38l0,4.36,0,4.36h-3.48V33.5ZM314.39,40A3.52,3.52,0,0,1,312,38.06l-.29-.54,0-5.31,0-5.31h8.59c4.72,0,8.59,0,8.59.06s-.35,2.44-.43,2.91l-.07.39H315.14l0,3.15,0,3.15,6.57,0,6.56,0,.07.39c.11.65.43,2.84.43,3s-13.79.15-14.44,0Zm23.08-2.37V35.11l-2.9-3.48c-1.59-1.91-3.14-3.75-3.44-4.1l-.53-.63h4.45l2,2.4c1.11,1.32,2,2.4,2.08,2.39s1-1.08,2.05-2.39l2-2.39h2.19c1.8,0,2.18,0,2.11.16S345.9,29,344.1,31.13L340.83,35V40.1h-3.36V37.6Zm17.68.82.24-1.68h12.43l.19-.26a.83.83,0,0,0,0-1l-.19-.27H357.09l-.72-.34a3.25,3.25,0,0,1-1.65-1.62c-.24-.44-.27-.68-.27-2.13s0-1.65.36-2.33a3.42,3.42,0,0,1,.88-1.1c1-.76,1-.76,8.81-.76h7.06l-.06.27c-.07.32-.43,2.81-.43,3s-2.36.12-6.46.12c-6.11,0-6.47,0-6.66.22a.92.92,0,0,0,0,1.14c.19.17.84.19,5.67.23,5.36,0,5.46,0,5.95.29a3.3,3.3,0,0,1,1.57,1.58c.31.64.33.77.33,2.24a4.43,4.43,0,0,1-.25,2.12,3.75,3.75,0,0,1-1.92,1.78c-.63.23-.9.24-7.53.24h-6.87l.23-1.68Zm-6.76-8.79V28.51l.67-.8.67-.81h4.44l-.62.75c-.35.41-1.07,1.28-1.6,1.92l-1,1.17h-2.58V29.63Z"/><path id="path3351" class="cls-6" d="M587.74,120.45a11.76,11.76,0,0,1-1.45-.4,5.91,5.91,0,0,1-1.78-1c.08-.07,1.48-1.09,1.64-1.19s.37,0,.66.21a6.76,6.76,0,0,0,4.15.68c1.39-.24,2.1-.94,1.65-1.63-.29-.44-.71-.6-2.81-1.12a21.91,21.91,0,0,1-2.62-.79c-1.65-.75-2.24-2-1.57-3.31a3.39,3.39,0,0,1,2.14-1.57,6.68,6.68,0,0,1,2.63-.28,7.45,7.45,0,0,1,3.89.74c1.29.65,1.27.57.29,1.31-.47.35-.87.64-.89.64l-.79-.36a6.2,6.2,0,0,0-3.24-.47c-1.49.21-2,1.07-.93,1.62a16.88,16.88,0,0,0,2.13.59c2.7.62,3.69,1.08,4.38,2a2.93,2.93,0,0,1,.1,2.45,4.31,4.31,0,0,1-3.1,1.9,15.64,15.64,0,0,1-4.48,0Zm-133-1.1c-1.38-4.51-2.77-9.09-2.77-9.17a4.38,4.38,0,0,1,1.36-.11h1.36l1,3.71c.56,2,1,3.69,1.08,3.66s.6-1.69,1.27-3.68l1.21-3.63H462l1.27,3.69c.7,2,1.3,3.67,1.32,3.64s.52-1.69,1.1-3.69l1-3.64,1.28,0c1,0,1.29,0,1.29.12s-.7,2.42-1.54,5.19l-1.54,5H463l-1.16-3.39c-.64-1.86-1.19-3.41-1.23-3.45s-.6,1.5-1.26,3.41l-1.18,3.49h-3.05l-.36-1.18Zm20.64-4v-5.22h2.76v10.44H475.4Zm10.56,0v-5.22h2.76v8.52h3c2.32,0,3,0,3,.15a14.13,14.13,0,0,1-.3,1.5l-.06.27H486V115.3Zm14.76,0v-5.25l2.91.06c3.2.08,4.17.22,5.46.81a4.67,4.67,0,0,1,2.32,2.34,6.59,6.59,0,0,1,0,3.93,5.37,5.37,0,0,1-3.82,3,15.59,15.59,0,0,1-3.91.31l-3,.06V115.3Zm6,3.12a3.18,3.18,0,0,0,1.9-1.72,5.4,5.4,0,0,0,.05-2.82,2.67,2.67,0,0,0-1.48-1.53A4.93,4.93,0,0,0,505,112l-1.53,0v6.79l1.29-.08a10.86,10.86,0,0,0,1.94-.26Zm12-3.12v-5.22h2.76v8.52h3c2.81,0,3,0,2.94.21s-.12.55-.2,1l-.14.75h-8.37V115.3Zm14.39,1.11,2.57-5.22.56-1.11h3l.65,1.35c.35.74,1.49,3.09,2.53,5.22l1.89,3.88-1.5,0-1.51,0-.52-1.14-.53-1.14-2.56,0-2.56,0-.53,1.2-.54,1.2h-2.92l2-4.11Zm6.14-.28c0-.1-1.46-3.32-1.55-3.42a27.93,27.93,0,0,0-1.68,3.4,6,6,0,0,0,1.6.1,7.94,7.94,0,0,0,1.63-.08Zm10.56-.82v-5.22H553l2.46,3.53c1.35,1.95,2.49,3.54,2.52,3.55s0-1.59,0-3.54l0-3.54h2.65v10.44h-3.31l-1.52-2.19-2.46-3.53-.94-1.33.05,3.52,0,3.53h-2.67v-5.22Zm18.6,0v-5.25l2.91.07c3.29.07,4.21.22,5.57.87a4.34,4.34,0,0,1,2.53,3.79c.23,2.71-1.24,4.62-4.15,5.4a15.38,15.38,0,0,1-3.89.31l-3,.06v-5.25Zm5.16,3.29a3.63,3.63,0,0,0,2.09-.9,3.68,3.68,0,0,0,0-4.8c-.68-.65-1.53-.89-3.23-.89h-1.28v6.72H572a11.89,11.89,0,0,0,1.59-.13ZM403.74,102.16c-5.84-6.35-10.74-11.7-10.89-11.89s-.3-.34-1.59-.34h-1.32v10.68H375.3V65.21h14.64V77.48l4.54-.07c4.82-.07,6.21-.19,8.32-.73,4.33-1.11,7-3.08,8.57-6.24a10.27,10.27,0,0,0,1.07-5.17,9.51,9.51,0,0,0-1-5,6.18,6.18,0,0,0-1.58-2.17,11.67,11.67,0,0,0-5.93-3c-2.9-.69-3-.69-16.29-.77l-12.31-.07,6.19-6.5,6.18-6.51h5.4c3,0,6.22,0,7.21.11,9.38.63,16.48,3.31,20.81,7.87a18.69,18.69,0,0,1,3.24,4.62c1.88,3.71,2.63,7.52,2.5,12.77a26.28,26.28,0,0,1-.86,6.67,22.08,22.08,0,0,1-10.68,13.87,31.27,31.27,0,0,1-3.9,1.85.25.25,0,0,0-.19.11c0,.07,4.89,5.54,10.94,12.16s11.1,12.13,11.19,12.25-.38.2-9.44.2h-9.59l-10.61-11.53Zm-136.1-.67c-13.68-1-22.44-10.35-22.44-24,0-7,2.32-13.07,6.66-17.43,4.58-4.6,11.2-7,18.77-6.73a27.54,27.54,0,0,1,6.43.86,22.07,22.07,0,0,1,16.45,16.21,23.46,23.46,0,0,1,.83,7.08,24.11,24.11,0,0,1-.73,6.77c-2.2,9-9.07,15.24-18.64,16.86a34.69,34.69,0,0,1-7.33.35Zm4.05-11.33a11.05,11.05,0,0,0,8.63-6.61,16.39,16.39,0,0,0,0-12A10.86,10.86,0,0,0,275,65.81a9.3,9.3,0,0,0-5.35-1.13,8.49,8.49,0,0,0-3.27.32,11.1,11.1,0,0,0-7.51,7.48,13.19,13.19,0,0,0-.68,5.15,11.46,11.46,0,0,0,.34,3.71,11.28,11.28,0,0,0,7.51,8.4,13.45,13.45,0,0,0,5.62.42Zm38.38,11.34-1.49-.18a25.46,25.46,0,0,1-4.93-1.19,22.48,22.48,0,0,1-4.81-2.57,20.16,20.16,0,0,1-3.22-3.17c-.13-.24.15-.56,3.54-4.13l3.89-4.09c.19-.2.22-.19.54.3a13.52,13.52,0,0,0,2.74,2.76,9.1,9.1,0,0,0,5.59,1.66,8,8,0,0,0,3.7-.65,3,3,0,0,0,1.83-2.86c0-1.85-.94-2.76-4.08-4-.76-.29-2-.73-2.82-1s-2.19-.74-3.12-1.11c-7.75-3.06-11.23-7-11.65-13.29a12.75,12.75,0,0,1,1.33-6.61c2.24-4.55,6.84-7.32,13.25-8a32.17,32.17,0,0,1,6.55.19A17.73,17.73,0,0,1,327,58.78l.65.68-.36.38c-1.84,2-7.39,7.76-7.46,7.76a4.21,4.21,0,0,1-.59-.66,8.07,8.07,0,0,0-4.12-2.77,9.67,9.67,0,0,0-4,0,3.23,3.23,0,0,0-2.36,3.11c0,1.92.89,2.57,6.26,4.54,7.82,2.86,11.24,5,13.44,8.2a13.49,13.49,0,0,1,1.13,11.88c-2.05,5.15-6.65,8.34-13.55,9.39a45.36,45.36,0,0,1-6,.22Zm213.52,0c-9.28-.75-16.18-5-19.78-12.17a27.38,27.38,0,0,1-2.24-17,22.09,22.09,0,0,1,16.75-18.06,23.69,23.69,0,0,1,7.31-.83,24,24,0,0,1,7.09.76,23.74,23.74,0,0,1,7.75,3.39A25.47,25.47,0,0,1,546,62.92a25,25,0,0,1,4.17,11.68A39.63,39.63,0,0,1,550,82a22.41,22.41,0,0,1-6.44,12.91,20.9,20.9,0,0,1-7.26,4.7,29.81,29.81,0,0,1-12.71,1.87Zm4.28-11.38c5-.87,8.37-4.42,9.28-9.72a21.42,21.42,0,0,0,0-5.6c-.79-4.93-3.74-8.45-8.19-9.78a14.46,14.46,0,0,0-5.8-.19A10.4,10.4,0,0,0,517.45,68a13.54,13.54,0,0,0-3.4,9.61c0,5.36,2.45,9.63,6.63,11.59a13.22,13.22,0,0,0,3.39,1,16.74,16.74,0,0,0,3.8-.09ZM172.05,101.32c-7-.85-12.87-4.25-16.45-9.59-5.34-8-5.37-20.33-.07-28.34a20.86,20.86,0,0,1,8.3-7.35,25.93,25.93,0,0,1,13.08-2.68,24.29,24.29,0,0,1,10.69,2.43,20.71,20.71,0,0,1,3.77,2.49l.6.54-.72.76-4,4.22c-2.95,3.1-3.31,3.44-3.49,3.28A14.88,14.88,0,0,0,179.31,65a16.11,16.11,0,0,0-5.76-.13c-4.77,1-8,4.5-8.83,9.75a24,24,0,0,0,.11,6.24c.92,4,2.95,6.79,6,8.28a11.92,11.92,0,0,0,8.22.71,8.35,8.35,0,0,0,6-6.44l.07-.39h-5c-2.78,0-5,0-5-.1s2.33-2.52,5.14-5.46l5.1-5.36,6.12,0,6.12,0v4.5c0,4.87-.12,6.16-.73,8.63a20.4,20.4,0,0,1-15,15.41,20.71,20.71,0,0,1-6.12.75c-1.52,0-3.19,0-3.72-.08Zm169.25-18,0-18.18-5,0-5,0V54.4h40.26l-.31.33c-.16.19-2.45,2.59-5.07,5.35l-4.77,5h-7.3v23l-6.2,6.51-6.36,6.7c-.14.15-.17-2.61-.2-18Zm144.89,18a37.83,37.83,0,0,1-4.92-.89c-9.83-2.61-16.1-10-17.17-20.14a36.06,36.06,0,0,1,.25-7.57c1.83-10.45,9.4-17.49,20.58-19.16a48.76,48.76,0,0,1,7.93-.18,35.28,35.28,0,0,1,9.69,2c.68.27,1.29.53,1.36.57s-.67,1.79-2.37,5.3c-1.37,2.87-2.52,5.23-2.54,5.26a3,3,0,0,1-.75-.28,25.46,25.46,0,0,0-4.43-1.4,16.91,16.91,0,0,0-3.9-.26,12.19,12.19,0,0,0-3.64.27c-6.17,1.56-9.64,6.58-9.29,13.41.45,8.67,7.57,13.46,17.09,11.51a17.71,17.71,0,0,0,3.78-1.27,6.56,6.56,0,0,1,1.11-.45c.08.08,3.44,10.34,3.4,10.37a18.77,18.77,0,0,1-2.61,1.18,30.83,30.83,0,0,1-10.8,1.74c-1.23,0-2.47,0-2.77-.06Zm-285.89-24V54.16l6.33,0,6.33,0,0,8.91,0,8.92h16.56V54.16h12.6v46.45h-12.6V82.85H213v17.76H200.3V77.39Zm230.71,0,0-23.2,16.83,0,16.84,0V65h-21v6.84h16.68V82.13H443.7v7.68h21v10.8H431l0-23.19Zm122.16,0V54.16h12.3l9.3,14.06,9.3,14.06,0-14.06,0-14.07H595.9v46.45l-6.26,0-6.26,0-9.14-13.82c-5-7.61-9.2-13.9-9.28-14s-.15,2.65-.15,13.86v14H553.17V77.39ZM185.54,35.2V30.28H178.7V26.92h17.16v3.36H189v9.84h-3.48ZM200.27,40a3.59,3.59,0,0,1-2.39-1.91l-.28-.54,0-5.31,0-5.31h14.59l.6.28a3.66,3.66,0,0,1,1.79,2c.18.53.2,1.11.17,4.55l0,3.94-.35.64a3.64,3.64,0,0,1-1.71,1.55c-.41.19-1,.21-6.16.23-3.13,0-5.9,0-6.15-.09ZM211.2,36.5a32.34,32.34,0,0,0,0-6c-.12-.22-.31-.23-5.16-.23h-5v3.1c0,1.7,0,3.14.08,3.18s2.3.08,5,.08a31.45,31.45,0,0,0,5.08-.14Zm5.18-3v-6.6h3.8l3.1,4.92c1.71,2.71,3.13,4.95,3.17,5s1.48-2.19,3.2-4.93l3.12-5h3.78v13.2h-3.36v-3.6c0-2,0-3.6-.09-3.6s-1.11,1.62-2.36,3.6l-2.26,3.6h-4l-2.27-3.61-2.28-3.62,0,3.62,0,3.61h-3.48v-6.6ZM245.64,40a3.46,3.46,0,0,1-2.4-2c-.27-.59-.27-.66-.31-5.85l0-5.25h8.58c5.47,0,8.59,0,8.59.11s-.35,2.66-.42,3l-.06.27h-13.2l0,3.15,0,3.15,6.57,0,6.56,0,.07.39c.11.64.42,2.84.42,3s-13.78.14-14.43,0Zm16.24-6.47v-6.6h3.36v9.72l4.08,0,4.08,0-1,1.71-1.05,1.71h-9.42v-6.6Zm10.58,6.33c5.61-8.74,7.19-11.16,7.57-11.56a5.53,5.53,0,0,1,1.2-.9L282,27l4.23,0,4.23,0V40.12h-3.35l0-1.71,0-1.71-4.21,0-4.22,0-1.12,1.74-1.12,1.74h-4.06l.17-.27Zm14.59-8.1,0-1.47H285c-1.63,0-2.13,0-2.33.18a17.59,17.59,0,0,0-1.84,2.75s1.39.06,3.09,0l3.09,0,0-1.47Zm5.43,1.77v-6.6H296l5.1,4.33,5.1,4.33,0-4.33,0-4.34h3.36v13.2H306.3l-5.14-4.36L296,31.4l0,4.36,0,4.36h-3.48v-6.6ZM314.41,40A3.52,3.52,0,0,1,312,38.08l-.28-.54,0-5.31,0-5.31h8.59c4.72,0,8.59,0,8.59.06s-.34,2.43-.43,2.91l-.06.39h-13.2l0,3.15,0,3.15,6.56,0,6.57,0,.06.39c.11.64.43,2.84.43,3s-13.79.14-14.44,0Zm23.08-2.37v-2.5l-2.9-3.47-3.43-4.1-.54-.63h4.45l2,2.4c1.11,1.32,2,2.4,2.08,2.39s1-1.08,2-2.39l2-2.39h2.2c1.8,0,2.18,0,2.1.16s-1.57,1.92-3.37,4.06l-3.27,3.91v5.07h-3.36v-2.5Zm17.69.82.23-1.68h12.43l.19-.27a1.07,1.07,0,0,0,.19-.51,1.11,1.11,0,0,0-.19-.51l-.19-.27H357.11l-.72-.34a3.35,3.35,0,0,1-1.65-1.63c-.24-.43-.26-.67-.27-2.12s0-1.65.37-2.33a3.27,3.27,0,0,1,.87-1.1c1-.76,1-.76,8.81-.76h7.06l-.06.27c-.07.32-.42,2.8-.42,3s-2.37.12-6.47.12c-6.1,0-6.47,0-6.66.22a.92.92,0,0,0,0,1.14c.19.17.85.19,5.67.22,5.36,0,5.47,0,5.95.3a3.28,3.28,0,0,1,1.57,1.57c.32.65.34.78.34,2.25a4.38,4.38,0,0,1-.26,2.12,3.71,3.71,0,0,1-1.92,1.78c-.63.23-.9.24-7.53.24h-6.87l.24-1.68Zm-6.77-8.79V28.53l.67-.81.67-.8h4.44l-.62.75c-.35.41-1.07,1.27-1.6,1.92l-1,1.17h-2.58V29.64Z"/><path id="path3349" class="cls-7" d="M587.74,120.47a8.44,8.44,0,0,1-2.69-1l-.58-.36.88-.66a10.51,10.51,0,0,1,.92-.65,5.51,5.51,0,0,1,.55.29,6,6,0,0,0,3.2.72,3.31,3.31,0,0,0,1.86-.3c1-.5,1.14-1.26.29-1.78a14.47,14.47,0,0,0-2.34-.71,22.21,22.21,0,0,1-2.65-.79c-1.61-.74-2.21-2-1.62-3.25a2.5,2.5,0,0,1,1.4-1.3,6.14,6.14,0,0,1,3.42-.61,7.48,7.48,0,0,1,3.89.73c1.29.65,1.27.58.29,1.31-.48.36-.87.65-.89.65l-.79-.36a6.31,6.31,0,0,0-3.24-.48c-1.48.21-2,1.08-.94,1.62a20,20,0,0,0,2.37.66c2.26.55,3,.85,3.73,1.49a2.15,2.15,0,0,1,.72,2c-.1,1.26-.94,2.12-2.62,2.66a15.53,15.53,0,0,1-5.16.17Zm-133-1.12c-2.14-7-2.77-9.09-2.77-9.17a4.33,4.33,0,0,1,1.36-.11h1.36l1,3.72c.56,2,1,3.68,1.09,3.63s.36-1,.71-2,.9-2.69,1.22-3.63l.6-1.71,1.32,0,1.32,0,1.27,3.69c.69,2,1.29,3.67,1.32,3.64s.52-1.69,1.09-3.69l1-3.64,1.29,0c1,0,1.29,0,1.28.12s-.69,2.42-1.54,5.19l-1.54,5H463l-1.16-3.39c-.64-1.86-1.19-3.41-1.23-3.45a35,35,0,0,0-1.26,3.41l-1.19,3.49h-3.05l-.36-1.18Zm20.64-4v-5.22h2.76v10.44H475.4Zm10.56,0v-5.22h2.76v8.52h3c2.32,0,3,0,3,.15s-.1.61-.3,1.5l-.06.27H486V115.3Zm14.76,0v-5.23h2.09c1.15,0,2.64.06,3.31.12,2.84.3,4.6,1.33,5.31,3.11a6.66,6.66,0,0,1,0,3.88,4.84,4.84,0,0,1-2.34,2.43c-1.36.67-2.16.8-5.45.87l-2.91.06v-5.24Zm6,3.11a3.07,3.07,0,0,0,2-2,3.52,3.52,0,0,0-.7-3.56c-.68-.66-1.53-.89-3.23-.89h-1.28v6.75l1.29-.06a10.85,10.85,0,0,0,2-.27Zm12-3.12v-5.22h2.77v8.52h3c2.81,0,3,0,3,.21s-.12.55-.2,1l-.14.75h-8.38V115.3Zm14.93,0,2.55-5.19,1.5,0,1.49,0,2.54,5.23,2.54,5.23-1.5,0-1.5,0-.53-1.14-.52-1.14-2.56,0-2.56,0-.56,1.2-.55,1.2H531.1l2.55-5.19Zm5.6.78c0-.11-1.45-3.3-1.55-3.42A29.44,29.44,0,0,0,536,116.1a6.43,6.43,0,0,0,1.59.1,7.44,7.44,0,0,0,1.63-.09Zm10.56-.81v-5.22H553l2.46,3.54c1.35,1.94,2.49,3.53,2.52,3.54s0-1.59,0-3.54l0-3.54h2.65v10.44H557.3l-2.39-3.44c-1.32-1.89-2.43-3.48-2.46-3.54s0,1.5,0,3.45l.05,3.53h-2.67V115.3Zm18.6,0v-5.23h2.09c4.54,0,6.63.54,7.94,2.07a4.23,4.23,0,0,1,.94,3.09,4.5,4.5,0,0,1-.27,2,4.84,4.84,0,0,1-2.34,2.43c-1.36.67-2.16.8-5.45.87l-2.91.06v-5.24Zm6,3.11a3,3,0,0,0,1.75-1.42,2.72,2.72,0,0,0,.34-1.76,3.07,3.07,0,0,0-.26-1.64c-.61-1.14-1.69-1.6-3.79-1.6h-1.29v6.76l1.35-.07a8.91,8.91,0,0,0,1.9-.27Zm-171-16.62L392.55,89.92h-2.61V100.6H375.3V65.19h14.64V77.44h3.75c5.17,0,7.43-.23,10-1,5.74-1.69,8.83-5.63,8.83-11.26a16.52,16.52,0,0,0-.19-2.33c-.81-4.65-4.06-7.21-10.47-8.25-1.6-.26-2-.27-14.06-.33l-12.4-.07,6.17-6.48,6.17-6.48,4.79,0a84.05,84.05,0,0,1,11.28.46c12.33,1.58,19.79,7.12,22.21,16.51a24,24,0,0,1,.83,7.43,27.81,27.81,0,0,1-.21,4.51A22.57,22.57,0,0,1,420.55,83c-2.5,2.58-4.43,3.85-9.08,6l-.38.17,10.5,11.46,11.22,12.27.72.81H414.36L403.45,101.8Zm-135.4-.31c-5.8-.45-10.14-1.94-14-4.81-4.76-3.54-7.73-8.88-8.65-15.52a40.9,40.9,0,0,1,.07-7.74c1.34-9.15,6.71-15.77,15.11-18.66a26.32,26.32,0,0,1,9.21-1.38,25.19,25.19,0,0,1,6.78.73A22.24,22.24,0,0,1,293.07,69a25.68,25.68,0,0,1,1.26,8.53A25,25,0,0,1,293,86.17c-2.8,8.45-9.88,14-19.44,15.14a52.57,52.57,0,0,1-5.52.18ZM273,89.92c4.56-1.23,7.6-4.85,8.35-10a22.08,22.08,0,0,0-.29-6.31c-1.21-4.8-4.45-8-9-8.91a16.16,16.16,0,0,0-4.86,0,11.16,11.16,0,0,0-6.77,4.43,14.74,14.74,0,0,0-2.12,5.46,21.91,21.91,0,0,0,0,5.72c.91,5.19,4.29,8.79,9.12,9.73a17.62,17.62,0,0,0,5.52-.19Zm36.74,11.52A22.36,22.36,0,0,1,299.51,98a19.66,19.66,0,0,1-3.76-3.46l-.26-.37,3.85-4c2.11-2.22,3.85-4,3.87-4s.37.43.79,1a9.74,9.74,0,0,0,6.75,3.84c2.1.24,4.44-.18,5.54-1a4,4,0,0,0,.85-1,2.5,2.5,0,0,0,.35-1.49,3.82,3.82,0,0,0-.19-1.29c-.53-1.23-2.13-2.1-6.66-3.64a43.28,43.28,0,0,1-6.76-2.73c-5.57-3-8.08-7-8.07-12.58a12.28,12.28,0,0,1,1.79-6.63A16.51,16.51,0,0,1,302,56.09a18.76,18.76,0,0,1,6.7-2.44,30.26,30.26,0,0,1,8.34,0,17.5,17.5,0,0,1,9.62,4.79l1,1-.88.92-3.87,4.07-3,3.15-.95-1a11.76,11.76,0,0,0-1.69-1.5c-1.87-1.23-5-1.57-6.71-.71a3.16,3.16,0,0,0-1.73,3.73c.38,1.3,1.39,2,5.3,3.39,5.43,2,8.09,3.21,10.2,4.6,3.87,2.58,5.7,5.56,6,9.83A12.84,12.84,0,0,1,329.09,93c-2.23,4.49-6.85,7.39-13.14,8.27a36.59,36.59,0,0,1-6.23.19Zm213.56,0A26.2,26.2,0,0,1,513.84,99c-7-3.35-11.39-9.52-12.47-17.64a36.51,36.51,0,0,1,0-7.68,23.25,23.25,0,0,1,6-13.11c3.66-3.87,8.43-6.18,14.47-7a45.94,45.94,0,0,1,7.51,0,29.2,29.2,0,0,1,5.22,1.18c10.15,3.31,16,12.21,15.69,23.69a26.83,26.83,0,0,1-.81,6.06A21.82,21.82,0,0,1,541,97a29.31,29.31,0,0,1-5.94,3,31.61,31.61,0,0,1-5.32,1.22,41.59,41.59,0,0,1-6.49.17Zm5.54-11.5a11,11,0,0,0,6.51-4.67c2.54-3.92,2.77-10.11.55-14.55a11,11,0,0,0-7.59-5.9,15.17,15.17,0,0,0-5.07-.06c-4.65,1-7.77,4.28-8.87,9.32a22.41,22.41,0,0,0-.14,6c.79,4.81,3.47,8.19,7.59,9.57a9.84,9.84,0,0,0,4.25.56,11.82,11.82,0,0,0,2.77-.29ZM172.7,101.36a34.42,34.42,0,0,1-4.77-.89,21.82,21.82,0,0,1-15.8-17.34,29.46,29.46,0,0,1,.48-13.32,22.43,22.43,0,0,1,6.62-10.68,23.79,23.79,0,0,1,12.39-5.53,45.31,45.31,0,0,1,8.16-.07,21.52,21.52,0,0,1,11.3,4.55,4.24,4.24,0,0,1,.8.75c-.07.18-7.84,8.28-7.94,8.28a5.14,5.14,0,0,1-.82-.49,13.28,13.28,0,0,0-9.86-1.79,10.9,10.9,0,0,0-8,7.54,14.89,14.89,0,0,0-.69,4.95,13.91,13.91,0,0,0,2.22,8.2A10.66,10.66,0,0,0,173.42,90a12.19,12.19,0,0,0,6.72-.55,8.39,8.39,0,0,0,5-6.09l.08-.39-5.07,0-5.07,0,5.09-5.37,5.09-5.36h12.3v4.32c0,5.69-.19,7.4-1.21,10.51-2.64,8.13-9.29,13.33-18.29,14.33a47.16,47.16,0,0,1-5.34,0Zm313.8,0a28.15,28.15,0,0,1-11.65-3.59C467.85,93.55,464,86.35,464,77.5A24.71,24.71,0,0,1,466.59,66a19.34,19.34,0,0,1,4.06-5.59,22.56,22.56,0,0,1,10-5.87,36.56,36.56,0,0,1,22.23,1l1.22.48-2.52,5.24c-1.39,2.89-2.53,5.26-2.54,5.27a9.62,9.62,0,0,1-1.14-.45A19.18,19.18,0,0,0,490,64.58a12.93,12.93,0,0,0-7.87,2.12,13.43,13.43,0,0,0-2.83,2.76A14.07,14.07,0,0,0,477,77.57c0,6.23,3.43,10.8,9.22,12.31a19.8,19.8,0,0,0,8,0A20,20,0,0,0,498,88.58a8.45,8.45,0,0,1,1-.43s.79,2.34,1.71,5.16c1.93,5.9,1.9,5.13.19,5.89a29.56,29.56,0,0,1-7.3,2,60.5,60.5,0,0,1-7.08.21ZM341.33,83.23V65.07H331.25V54.39h40.23l-.88.93c-.48.51-2.76,2.92-5.07,5.34l-4.19,4.41h-7.29v23l-5.53,5.82c-3,3.2-5.9,6.2-6.36,6.66l-.83.84V83.23Zm-141-5.79V54.27h12.6l0,8.91,0,8.92,8.32,0,8.31,0V54.27h12.6V100.6h-12.6V82.84H212.9V100.6H200.3V77.44Zm230.8,0V54.27h33.61V65h-21v6.84l8.31,0,8.31,0,0,5.13,0,5.13H443.71v7.8h21V100.6H431.1V77.44Zm122.07,0V54.27H565.5l9.15,13.84c5,7.6,9.23,13.91,9.32,14s.16-1.91.16-13.83v-14H595.9V100.6H583.45l-9.29-14.06-9.29-14.07,0,14.07,0,14.06H553.17V77.44ZM185.66,35.19V30.27h-7V26.91h17.16v3.36H189l0,4.89,0,4.89-1.65,0-1.65,0V35.19Zm14.8,4.8a3.44,3.44,0,0,1-2.61-2c-.24-.52-.25-.76-.29-5.79l0-5.25h7.18c8,0,7.83,0,8.79.8a4.24,4.24,0,0,1,.82,1l.32.62,0,3.82c0,3.17,0,3.92-.15,4.45a3.71,3.71,0,0,1-1.89,2.12l-.64.29-5.46,0c-3,0-5.74,0-6.08-.08Zm10.62-3.43c.26-.18.26-.22.26-3.09a12.51,12.51,0,0,0-.14-3.06,33.07,33.07,0,0,0-5.22-.14H200.9v3c0,2.84,0,3,.24,3.24s.4.24,5,.24c4.07,0,4.75,0,5-.19Zm5.42-3.05v-6.6h3.67l3.12,5c1.71,2.73,3.14,5,3.18,5s1.46-2.24,3.18-5l3.12-5h3.78v13.2h-3.36V36.44a33.12,33.12,0,0,0-.1-3.6c-.06,0-1.13,1.68-2.37,3.66l-2.27,3.61h-4l-2.28-3.65c-1.26-2-2.33-3.65-2.37-3.66s-.09,1.65-.09,3.66v3.66H216.5v-6.6ZM245.81,40a3.48,3.48,0,0,1-2.65-2.25c-.08-.28-.13-2.44-.13-5.64V26.91h17l-.06.39c-.09.47-.43,2.82-.43,2.91s-3,.06-6.66.06h-6.66v3c0,2.84,0,3,.24,3.24s.4.24,6.66.24h6.41l.07.39c.08.48.42,2.82.42,2.91s-13.56,0-14.26-.06Zm16.06-6.48v-6.6h3.36v9.84h4c2.21,0,4,0,4,0s-.44.77-1,1.65l-1,1.6-4.7,0-4.71,0v-6.6ZM272.4,40c.06-.08,1.7-2.63,3.64-5.66s3.78-5.77,4.1-6.1a5.24,5.24,0,0,1,1.26-.91l.69-.32,4.18,0,4.17,0V40.11h-3.36V36.63h-8.52l-.93,1.45c-1.47,2.29-1.05,2-3.36,2-1.57,0-2,0-1.87-.15Zm14.68-8.19v-1.5H282.8l-.31.33a17.83,17.83,0,0,0-1.66,2.57,25.82,25.82,0,0,0,3.12.1h3.12v-1.5Zm5.52,1.74v-6.6H296L301,31.2c2.78,2.36,5.1,4.31,5.16,4.33a40.09,40.09,0,0,0,.11-4.29V26.91h3.36v13.2h-3.3l-5.16-4.38c-2.84-2.41-5.2-4.38-5.25-4.38s-.09,2-.09,4.38v4.38H292.6v-6.6Zm22,6.48a3.44,3.44,0,0,1-2.6-2c-.24-.52-.25-.76-.29-5.79l0-5.25h17.18l-.06.33c-.07.4-.42,2.89-.42,3s-3,.06-6.66.06H315v3c0,2.84,0,3,.24,3.24s.4.24,6.66.24c3.53,0,6.42,0,6.42.06s.35,2.43.43,2.91l.06.39-6.81,0c-3.75,0-7.1-.05-7.45-.1Zm22.9-2.41V35.05l-3.37-4c-1.84-2.2-3.36-4-3.36-4.07a20.27,20.27,0,0,1,2.14-.06h2.15l2,2.4c1.1,1.32,2,2.4,2.09,2.4s.94-1,2-2.27,2-2.33,2.06-2.41a8.36,8.36,0,0,1,2.27-.1l2.11,0-3.36,4-3.35,4v5.12h-3.37V37.58ZM355,40c0-.08.09-.84.2-1.68l.21-1.53h6.2c6.87,0,6.59,0,6.59-.76s.31-.74-5.73-.8c-5.28-.06-5.51-.07-6-.32a3.8,3.8,0,0,1-1.72-1.71,4.35,4.35,0,0,1-.25-2.11,5.32,5.32,0,0,1,.2-2,4.48,4.48,0,0,1,1.76-1.8L357,27l7.27,0,7.27,0-.24,1.68-.24,1.69H364.6c-5.71,0-6.48,0-6.64.19a1.12,1.12,0,0,0-.07,1.13c.12.23.31.24,5.38.24,6,0,6.09,0,7.07.89s1.17,1.49,1.17,3.25-.24,2.39-1.1,3.18c-1,.94-.58.89-8.41.93-5.64,0-7,0-7-.12Zm-6.6-10.3V28.57l.68-.83.69-.83h2.14A10.48,10.48,0,0,1,354,27s-.72.91-1.54,1.91L351,30.73h-2.58V29.66Z"/></g></svg>