<svg id="logo_icon" xmlns="http://www.w3.org/2000/svg" viewBox="0 0 761.96 150"><defs><style>.gits_stroke{fill:transparent;stroke-width:2px;stroke:#fff;stroke-miterlimit:10;}.gits_fill{fill:#fff;}</style></defs><title>gits_logo</title><path id="letter_g" data-name="letter g" class="gits_fill" d="M103.59,85.75v1.36c0,12.84-7.84,20.52-20.1,20.52a21.22,21.22,0,0,1-10.15-2.36C66.75,101.66,63,95,63,86.83q0-10,6.48-16.24a20,20,0,0,1,14.32-5.24c7.67,0,13.36,2.76,17.15,8.45l-4,3.22a14.19,14.19,0,0,0-13-7.34c-9.36,0-15.79,6.94-15.79,17.15,0,9.65,6.59,16.47,15.79,16.47,8,0,14-5.35,14.54-13.26H87V85.76Z"/><path id="letter_h1" data-name="letter h1" class="gits_fill" d="M128,66.23h4.79v15.5h21.43V66.23h4.85v40.32h-4.85V86.33H132.79v20.24H128Z"/><path id="letter_o" data-name="letter o" class="gits_fill" d="M221,101.4a21.86,21.86,0,0,1-30.51,0,20.91,20.91,0,0,1-.39-29.56l.39-.39a22,22,0,0,1,30.51,0,21,21,0,0,1,.19,29.76h0Zm-3.6-3.22a16.27,16.27,0,0,0,4.84-11.73,16.51,16.51,0,0,0-28.13-11.89h0a16.58,16.58,0,0,0,23.08,23.82Z"/><path id="letter_s1" data-name="letter s1" class="gits_fill" d="M275,95.22c0,7.39-5.14,12.35-12.91,12.35-6.37,0-10.83-3.38-12.35-9.36l4.35-2.15c1.18,4.91,3.94,7.45,8,7.45,4.85,0,8.06-3.1,8.06-7.54,0-3.6-2.08-6.28-6.28-8.06L259,85.82c-5.35-2.24-8-5.75-8-10.65,0-5.64,4.62-9.92,11.31-9.92,4.84,0,8.45,2.08,10.42,6.09l-3.94,2.51c-1.75-3-3.95-4.62-6.82-4.62a5.76,5.76,0,0,0-6.13,5.38v.49c0,2.87,1.74,4.91,5.41,6.48L267,84.09C272.33,86.43,275,90.09,275,95.22Z"/><path id="letter_t" data-name="letter t" class="gits_fill" d="M305.72,70.8H294.31V66.23H322V70.8H310.64v35.75h-4.85Z"/><path id="triangle" class="gits_stroke" d="M379.2,27.84l-56.7,94.91H435.9Z"/><path id="inthe" class="gits_fill" d="M365.91,66.3h2.22V85.07h-2.22Zm10.95,18.75H379V71l13.71,14.81V66.32h-2.15V80.55l-13.7-15Zm-19.17,24.66h2.25V93.1h5.26V91H352.39V93.1h5.29Zm14.21,0h2.22v-9.4h10v9.4h2.25V91h-2.26v7.21h-10V91h-2.22Zm23.11,0h9.84v-2H397.2v-7.19h7.65V98.42H397.2V93.05h7.65V91H395Z"/><path id="letter_s2" data-name="letter s2" class="gits_fill" d="M468.55,95.22c0,7.39-5.12,12.35-12.91,12.35-6.37,0-10.83-3.38-12.35-9.36l4.35-2.15c1.18,4.91,3.94,7.45,8,7.45,4.85,0,8.07-3.1,8.07-7.54q0-5.4-6.28-8.06l-4.85-2.09c-5.35-2.24-7.95-5.75-7.95-10.65,0-5.64,4.62-9.92,11.3-9.92,4.85,0,8.45,2.08,10.43,6.09l-3.95,2.51c-1.74-3-3.94-4.62-6.82-4.62a5.76,5.76,0,0,0-6.13,5.38v.49c0,2.87,1.75,4.91,5.42,6.48l5.75,2.51C466,86.43,468.55,90.09,468.55,95.22Z"/><path id="letter_h2" data-name="letter h2" class="gits_fill" d="M500.86,66.23h4.8v15.5h21.43V66.23h4.85v40.32h-4.85V86.33H505.66v20.24h-4.8Z"/><path id="letter_e" data-name="letter e" class="gits_fill" d="M565.81,66.23h21.25v4.4H570.65V82.18H587.1V86.6H570.65v15.45H587.1v4.46H565.81Z"/><path id="letter_l1" data-name="letter l1" class="gits_fill" d="M622.25,66.23H627V102h15.21v4.57h-20Z"/><path id="letter_l2" data-name="letter l2" class="gits_fill" d="M679,66.23h4.79V102H699v4.57H679Z"/></svg>