<svg id="icon_logo" xmlns="http://www.w3.org/2000/svg" viewBox="0 0 222.73 49"><defs><style>.logo_fill{fill:#fff;}</style></defs><title>logo_header</title><path class="logo_fill" d="M24.43,49A24.5,24.5,0,1,1,48.86,24.5,24.49,24.49,0,0,1,24.43,49Zm0-41.77A17.27,17.27,0,1,0,41.65,24.5,17.27,17.27,0,0,0,24.43,7.23Z"/><polygon class="logo_fill" points="35.26 18.75 30.16 13.64 24.43 19.39 18.7 13.64 13.6 18.75 19.33 24.5 13.6 30.25 18.7 35.36 24.43 29.61 30.16 35.36 35.26 30.25 29.53 24.5 35.26 18.75"/><g id="letters"><path class="logo_fill" d="M66.75,13.63,61.09,5.28h4.35L69,10.79l3.61-5.51h4.23l-5.66,8.3,5.91,8.69H72.71l-3.8-5.82-3.83,5.82H60.84Z"/><path class="logo_fill" d="M78.44,18.54v-.05c0-2.84,2.16-4.16,5.23-4.16a9.13,9.13,0,0,1,3.18.54v-.22c0-1.53-.95-2.38-2.79-2.38a9.63,9.63,0,0,0-3.58.7l-.92-2.81a11.42,11.42,0,0,1,5-1.05A6,6,0,0,1,89,10.57a5.71,5.71,0,0,1,1.4,4.15v7.55H86.82v-1.4a5,5,0,0,1-3.92,1.65C80.45,22.52,78.44,21.11,78.44,18.54Zm8.45-.85V17a5.69,5.69,0,0,0-2.34-.49c-1.58,0-2.55.64-2.55,1.8v.05c0,1,.83,1.58,2,1.58C85.73,20,86.89,19,86.89,17.69Z"/><path class="logo_fill" d="M91.91,9.26H95.8L98.71,18l2.93-8.72h3.82l-5.11,13.11H97Z"/><path class="logo_fill" d="M107.67,4.55h3.87V7.83h-3.87Zm.09,4.71h3.68v13h-3.68Z"/><path class="logo_fill" d="M114.27,15.84v-.05A6.47,6.47,0,0,1,120.69,9C125,9,127,12.39,127,16.08c0,.29,0,.63-.05,1h-9a3,3,0,0,0,3.17,2.55,4.23,4.23,0,0,0,3.15-1.33l2.1,1.87a6.85,6.85,0,0,1-12.08-4.3Zm9.16-1.09c-.22-1.65-1.19-2.77-2.74-2.77s-2.52,1.09-2.81,2.77Z"/><path class="logo_fill" d="M129.74,9.26h3.68v2.62c.75-1.79,2-3,4.14-2.86v3.86h-.19c-2.45,0-4,1.48-4,4.59v4.8h-3.68Z"/><path class="logo_fill" d="M146.76,13.82v0A8.71,8.71,0,0,1,155.65,5a9.24,9.24,0,0,1,6.65,2.33L160,10.16a6.25,6.25,0,0,0-4.43-1.73,5.1,5.1,0,0,0-4.87,5.3v0a5.09,5.09,0,0,0,5.13,5.39,5.92,5.92,0,0,0,3.51-1V15.72h-3.75V12.49h7.36v7.38a11,11,0,0,1-7.24,2.7A8.5,8.5,0,0,1,146.76,13.82Z"/><path class="logo_fill" d="M165.57,18.54v-.05c0-2.84,2.16-4.16,5.23-4.16a9.07,9.07,0,0,1,3.17.54v-.22c0-1.53-.94-2.38-2.78-2.38a9.63,9.63,0,0,0-3.58.7l-.92-2.81a11.39,11.39,0,0,1,5-1.05,6,6,0,0,1,4.38,1.46,5.67,5.67,0,0,1,1.41,4.15v7.55H174v-1.4A5,5,0,0,1,170,22.52C167.58,22.52,165.57,21.11,165.57,18.54Zm8.45-.85V17a5.71,5.71,0,0,0-2.35-.49c-1.57,0-2.54.64-2.54,1.8v.05c0,1,.82,1.58,2,1.58C172.86,20,174,19,174,17.69Z"/><path class="logo_fill" d="M180.68,9.26h3.68v2.62c.75-1.79,2-3,4.14-2.86v3.86h-.19c-2.45,0-3.95,1.48-3.95,4.59v4.8h-3.68Z"/><path class="logo_fill" d="M189.81,15.84v-.05A6.67,6.67,0,0,1,196.61,9a6.37,6.37,0,0,1,5.18,2.18l-2.25,2.43a3.82,3.82,0,0,0-3-1.43,3.31,3.31,0,0,0-3.14,3.54v0a3.33,3.33,0,0,0,3.29,3.6,4.13,4.13,0,0,0,3-1.39l2.15,2.19a6.54,6.54,0,0,1-5.3,2.38A6.63,6.63,0,0,1,189.81,15.84Z"/><path class="logo_fill" d="M204.33,4.55h3.87V7.83h-3.87Zm.1,4.71h3.68v13h-3.68Z"/><path class="logo_fill" d="M210.79,18.54v-.05c0-2.84,2.16-4.16,5.23-4.16a9.13,9.13,0,0,1,3.18.54v-.22c0-1.53-.95-2.38-2.79-2.38a9.63,9.63,0,0,0-3.58.7l-.92-2.81a11.42,11.42,0,0,1,5-1.05,6,6,0,0,1,4.39,1.46,5.71,5.71,0,0,1,1.4,4.15v7.55h-3.56v-1.4a5,5,0,0,1-3.92,1.65C212.8,22.52,210.79,21.11,210.79,18.54Zm8.45-.85V17a5.69,5.69,0,0,0-2.34-.49c-1.58,0-2.55.64-2.55,1.8v.05c0,1,.83,1.58,2,1.58C218.08,20,219.24,19,219.24,17.69Z"/><path class="logo_fill" d="M61,35.94v0a6.29,6.29,0,0,1,10.71-4.25l-1.64,1.89a4.3,4.3,0,0,0-3-1.32,3.47,3.47,0,0,0-3.39,3.65v0a3.48,3.48,0,0,0,3.39,3.68,4.17,4.17,0,0,0,3.07-1.37l1.64,1.66A6.16,6.16,0,0,1,61,35.94Z"/><path class="logo_fill" d="M73.56,32.8H76.1v1.8a2.75,2.75,0,0,1,2.85-2v2.66h-.13c-1.69,0-2.72,1-2.72,3.17v3.31H73.56Z"/><path class="logo_fill" d="M79.85,37.33v0a4.46,4.46,0,0,1,4.43-4.67c3,0,4.36,2.33,4.36,4.87,0,.2,0,.44,0,.67H82.38a2.07,2.07,0,0,0,2.18,1.76A2.94,2.94,0,0,0,86.73,39l1.46,1.29a4.73,4.73,0,0,1-8.34-3Zm6.32-.75a1.92,1.92,0,0,0-1.89-1.91,2,2,0,0,0-1.94,1.91Z"/><path class="logo_fill" d="M90,39.19v0c0-2,1.49-2.87,3.61-2.87a6.47,6.47,0,0,1,2.18.37v-.15c0-1-.65-1.64-1.92-1.64a6.63,6.63,0,0,0-2.47.49l-.63-2a7.92,7.92,0,0,1,3.47-.72,4.09,4.09,0,0,1,3,1,3.91,3.91,0,0,1,1,2.86v5.21H95.77v-1a3.43,3.43,0,0,1-2.71,1.14A2.77,2.77,0,0,1,90,39.19Zm5.83-.58v-.46a4,4,0,0,0-1.62-.33c-1.09,0-1.75.43-1.75,1.24v0c0,.69.56,1.09,1.38,1.09C95,40.18,95.82,39.53,95.82,38.61Z"/><path class="logo_fill" d="M100.75,39.23V35H99.68V32.8h1.07V30.5h2.53v2.3h2.11V35h-2.11v3.84c0,.58.25.87.82.87a2.55,2.55,0,0,0,1.25-.32v2a3.7,3.7,0,0,1-2,.52C101.8,41.92,100.75,41.3,100.75,39.23Z"/><path class="logo_fill" d="M107.31,29.55H110v2.26h-2.67Zm.06,3.25h2.54v9h-2.54Z"/><path class="logo_fill" d="M111.5,32.8h2.69l2,6,2-6h2.64l-3.52,9H115Z"/><path class="logo_fill" d="M121.39,37.33v0a4.46,4.46,0,0,1,4.42-4.67c3,0,4.36,2.33,4.36,4.87,0,.2,0,.44,0,.67h-6.22a2.07,2.07,0,0,0,2.18,1.76,2.92,2.92,0,0,0,2.17-.92l1.46,1.29a4.73,4.73,0,0,1-8.33-3Zm6.31-.75a1.92,1.92,0,0,0-1.89-1.91,2,2,0,0,0-1.94,1.91Z"/><path class="logo_fill" d="M137.33,30.05h4.56c3.67,0,6.21,2.53,6.21,5.83v0a5.86,5.86,0,0,1-6.21,5.86h-4.56Zm4.56,9.39a3.33,3.33,0,0,0,3.52-3.5v0a3.36,3.36,0,0,0-3.52-3.53h-2v7.06Z"/><path class="logo_fill" d="M149.69,37.33v0a4.46,4.46,0,0,1,4.42-4.67c3,0,4.36,2.33,4.36,4.87,0,.2,0,.44,0,.67h-6.23a2.07,2.07,0,0,0,2.19,1.76,2.94,2.94,0,0,0,2.17-.92L158,40.3a4.73,4.73,0,0,1-8.33-3Zm6.31-.75a1.92,1.92,0,0,0-1.89-1.91c-1.05,0-1.73.75-1.93,1.91Z"/><path class="logo_fill" d="M159.14,32.8h2.69l2,6,2-6h2.64l-3.52,9h-2.31Z"/><path class="logo_fill" d="M169,37.33v0a4.46,4.46,0,0,1,4.42-4.67c3,0,4.36,2.33,4.36,4.87,0,.2,0,.44,0,.67h-6.23a2.07,2.07,0,0,0,2.19,1.76,2.94,2.94,0,0,0,2.17-.92l1.45,1.29a4.73,4.73,0,0,1-8.33-3Zm6.31-.75a1.92,1.92,0,0,0-1.89-1.91c-1,0-1.73.75-1.93,1.91Z"/><path class="logo_fill" d="M179.81,29.55h2.54V41.77h-2.54Z"/><path class="logo_fill" d="M184.31,37.33v0a4.84,4.84,0,0,1,9.68,0v0a4.84,4.84,0,0,1-9.68,0Zm7.18,0v0a2.39,2.39,0,0,0-2.36-2.48,2.3,2.3,0,0,0-2.32,2.45v0a2.38,2.38,0,0,0,2.36,2.48A2.3,2.3,0,0,0,191.49,37.33Z"/><path class="logo_fill" d="M195.83,32.8h2.54v1.28a3.29,3.29,0,0,1,2.79-1.45c2.08,0,4.07,1.64,4.07,4.64v0c0,3-1.95,4.64-4.07,4.64a3.42,3.42,0,0,1-2.79-1.34v3.85h-2.54Zm6.86,4.5v0a2.2,2.2,0,1,0-4.36,0v0a2.2,2.2,0,1,0,4.36,0Z"/><path class="logo_fill" d="M206.67,37.33v0a4.46,4.46,0,0,1,4.42-4.67c3,0,4.36,2.33,4.36,4.87,0,.2,0,.44,0,.67h-6.23a2.07,2.07,0,0,0,2.18,1.76,3,3,0,0,0,2.18-.92L215,40.3a4.73,4.73,0,0,1-8.33-3Zm6.31-.75a1.92,1.92,0,0,0-1.89-1.91,2,2,0,0,0-1.94,1.91Z"/><path class="logo_fill" d="M217.34,32.8h2.54v1.8a2.75,2.75,0,0,1,2.85-2v2.66h-.13c-1.69,0-2.72,1-2.72,3.17v3.31h-2.54Z"/></g></svg>