<svg id="Layer_1" data-name="Layer 1" xmlns="http://www.w3.org/2000/svg" viewBox="0 0 762.23 150.27"><defs><style>.cls-1{fill:#fff;}</style></defs><title>yamaha_logo</title><path class="cls-1" d="M249.93,40.93a48.38,48.38,0,0,0-82.59,34.21,48.38,48.38,0,1,0,82.59-34.21m-1.45,67A46.33,46.33,0,0,1,169.4,75.14a46.32,46.32,0,1,1,79.08,32.75Z"/><polyline class="cls-1" points="213.06 73.6 213.06 76.67 215.72 78.21 218.38 76.67 218.38 73.6 215.72 72.06 213.06 73.6"/><path class="cls-1" d="M218,66.24V59.71a2.32,2.32,0,0,0-4.63,0v6.53l2.31,1.33L218,66.24"/><path class="cls-1" d="M201.21,80.85a2.33,2.33,0,0,0-1.08,1.4,2.3,2.3,0,0,0,1.63,2.83,2.3,2.3,0,0,0,1.76-.23l5.65-3.26V78.92l-2.31-1.34-5.65,3.27"/><path class="cls-1" d="M230.24,80.85h0l-5.65-3.27-2.32,1.34v2.67l5.65,3.26a2.32,2.32,0,0,0,3.16-.84,2.36,2.36,0,0,0,.23-1.76,2.32,2.32,0,0,0-1.07-1.4"/><path class="cls-1" d="M244.78,46.08a41.1,41.1,0,0,0-58.12,58.12,41.1,41.1,0,1,0,58.12-58.12m4.37,48.83a.79.79,0,0,1-.43.06l-10.16-1.9a1.19,1.19,0,0,1-.65-.37,1.17,1.17,0,0,1-.3-.68,3.6,3.6,0,0,0-.8-2,3.61,3.61,0,0,0-4-1.1,9,9,0,0,1-3.86.48,9.23,9.23,0,0,1-3.71-1.18l-3-1.74v19.78H218V84l-2.32-1.34L213.41,84v22.22h-4.24V86.48l-3,1.74a9.18,9.18,0,0,1-3.71,1.18,9,9,0,0,1-3.86-.48,3.59,3.59,0,0,0-4.76,3.1,1.16,1.16,0,0,1-.29.68,1.19,1.19,0,0,1-.65.37L182.72,95a.76.76,0,0,1-.42-.06.72.72,0,0,1-.33-.29.78.78,0,0,1-.09-.42.66.66,0,0,1,.17-.4L188.78,86a1.09,1.09,0,0,1,.64-.38,1.26,1.26,0,0,1,.74.08,3.58,3.58,0,0,0,4-.67,3.62,3.62,0,0,0,1-1.9,9.12,9.12,0,0,1,4.39-6.2l3-1.74L185.5,65.25l2.12-3.67,19.24,11.11,2.31-1.33V68.68L189.93,57.57l2.12-3.67,17.12,9.89V60.31a9,9,0,0,1,3.18-6.9,3.71,3.71,0,0,0,1.14-1.83,3.59,3.59,0,0,0-.12-2.15,3.55,3.55,0,0,0-1.32-1.69,1.15,1.15,0,0,1-.44-1.34l3.44-9.75a.65.65,0,0,1,.26-.35.73.73,0,0,1,.83,0,.71.71,0,0,1,.26.35l3.43,9.75a1.11,1.11,0,0,1,0,.74,1.21,1.21,0,0,1-.44.6,3.59,3.59,0,0,0-.31,5.67,8.93,8.93,0,0,1,2.35,3.1,9.1,9.1,0,0,1,.83,3.8v3.48L239.4,53.9l2.12,3.67L222.27,68.68v2.68l2.32,1.33,19.24-11.11L246,65.25l-17.13,9.89,3,1.74a9.1,9.1,0,0,1,4.4,6.2A3.56,3.56,0,0,0,239.16,86a3.56,3.56,0,0,0,2.13-.3,1.25,1.25,0,0,1,.74-.08,1.12,1.12,0,0,1,.64.38l6.72,7.85a.66.66,0,0,1,.17.4.7.7,0,0,1-.09.42A.69.69,0,0,1,249.15,94.91Z"/><polyline class="cls-1" points="494.55 115.45 494.55 34.82 508.67 34.82 508.67 65.73 524.13 65.73 524.13 34.82 538.56 34.82 538.56 115.45 524.13 115.45 524.13 80.05 508.67 80.05 508.67 115.45 494.55 115.45"/><polyline class="cls-1" points="288.03 84.26 272.35 34.82 286.44 34.82 296.09 66.24 306.76 34.82 319.96 34.82 303.71 82.66 303.71 115.45 288.03 115.45 288.03 84.26"/><polyline class="cls-1" points="371.9 115.45 384.54 115.45 384.54 54.67 395.33 107.51 407.13 107.51 416.7 53.82 416.7 115.45 431.53 115.45 431.53 34.82 408.55 34.82 401.79 73.18 393.94 34.82 371.9 34.82 371.9 115.45"/><path class="cls-1" d="M581.59,34.82H559.75L545,115.45h13.07l3.13-18.76h16.25l3,18.76h14.39l-13.3-80.63M563.45,83.25l6-36.06,5.83,36.06Z"/><path class="cls-1" d="M474.55,34.82H452.72L438,115.45h13.07l3.12-18.76h16.26l3,18.76h14.4L474.55,34.82M456.41,83.25l6-36.06,5.83,36.06Z"/><path class="cls-1" d="M351.9,34.82H330.06l-14.74,80.63h13.07l3.13-18.76h16.25l3,18.76H365.2L351.9,34.82M333.76,83.25l6-36.06,5.83,36.06Z"/></svg>