<svg id="logo_icon" xmlns="http://www.w3.org/2000/svg" viewBox="0 0 761.96 421.94"><defs><style>.cls-1{fill:#fae370;}.stroke_purple,.cls-3,.stroke_yellow{fill:transparent;}.stroke_purple,.cls-3{fill:transparent; stroke:#a384ec;stroke-miterlimit:10;}.stroke_purple{fill:transparent;stroke-width:1.08px;}.cls-3{stroke-width:2px;}.stroke_yellow{fill:transparent;stroke:#fae370;stroke-linecap:round;stroke-linejoin:round;stroke-width:4px;}</style></defs><title>intro_tv bulb</title><path id="play_bulb" class="fill_yellow hide" d="M426.32,164.34a45.34,45.34,0,1,0-67,39.86v27.48a20,20,0,0,0,20,20h3.25a20,20,0,0,0,20-20V204.2A45.34,45.34,0,0,0,426.32,164.34Z"/><path id="bulb_base" class="stroke_purple hide" d="M359.36,204.9h43.25m-43.25,4.21h43.25m-43.25,4.2h43.25m-43.25,4.21h43.25m-43.25,4.2h43.25m-43.25,4.2h43.25m-43.25,4.21h43.25m-43.25,4.2h43.25m-43.25,4.2h43.25m-43.25,4.21h43.25m-43.25,4.2h43.25"/><path id="filament" class="stroke_purple hide" d="M376.55,204.21,366.05,165l8.38,2.9a19.88,19.88,0,0,0,13.1,0l8.38-2.9-10.49,39.17"/><path id="ray2" class="stroke_yellow hide" d="M329.18,110.22,340,121"/><path id="ray4" class="stroke_yellow hide" d="M432.78,110.22,422,121"/><path id="ray3" class="stroke_yellow hide" d="M381,87.76v21.58"/><path id="ray1" class="stroke_yellow hide" d="M306.43,165H328"/><path id="ray5" class="stroke_yellow hide" d="M434,165h21.57"/></svg>