<svg id="logo_icon" xmlns="http://www.w3.org/2000/svg" viewBox="0 0 761.96 421.94"><defs><style>.hide{fill:none;stroke:#fff;stroke-miterlimit:10;}</style></defs><title>intro_tv</title><path id="tv_base" class="hide" d="M453.91,358.29v-1.36h0c0-.35-.36-.64-.36-.64s-9.56-6.44-11.51-8-2.69-1.8-3.71-6.24c-1.33-5.77-3.41-32.59-3.41-32.59H363.79s-2.08,26.82-3.41,32.59c-1,4.44-1.76,4.68-3.71,6.24s-11.51,8-11.51,8-.4.29-.36.64h0v1.36s-.11,1.27,3.88,1.27H450C454,359.56,453.91,358.29,453.91,358.29Z"/><path id="tv_body" class="hide" d="M578.89,71.16V300.68a8.78,8.78,0,0,1-8.78,8.78H228.59a8.78,8.78,0,0,1-8.78-8.78V71.16a8.78,8.78,0,0,1,8.78-8.78H570.11A8.78,8.78,0,0,1,578.89,71.16Z"/><path id="tv_screen" class="hide" d="M564.33,262.63h-330V76.82h330Z"/></svg>