<svg id="Layer_1" data-name="Layer 1" xmlns="http://www.w3.org/2000/svg" viewBox="0 0 761.96 421.94"><defs><style>.cls-1{fill:#fff;}</style></defs><title>linkedin_icon</title><path id="linkedin_icon" class="cls-1" d="M401.88,265.94h-41.8a3.59,3.59,0,0,0-3.63,3.54v42.3a3.58,3.58,0,0,0,3.63,3.53h41.8a3.58,3.58,0,0,0,3.63-3.53v-42.3A3.59,3.59,0,0,0,401.88,265.94Zm-30.56,41.33h-7.41V285h7.41Zm-3.7-25.34h-.05a4.23,4.23,0,1,1,.05,0ZM398,307.27h-7.41V295.35c0-3-1.07-5.05-3.75-5.05a4,4,0,0,0-3.8,2.71,5,5,0,0,0-.25,1.81v12.45h-7.41s.1-20.2,0-22.29h7.41v3.16a7.37,7.37,0,0,1,6.68-3.68c4.88,0,8.53,3.18,8.53,10ZM363,258.7a5,5,0,0,1-2.13.39,3.78,3.78,0,0,1-4-4.09,4,4,0,0,1,4.22-4.25,4.37,4.37,0,0,1,1.92.36l-.25.85a3.82,3.82,0,0,0-1.63-.33A3,3,0,0,0,358,255a2.93,2.93,0,0,0,3.1,3.25,4.18,4.18,0,0,0,1.7-.33Zm1.31-7.82h1.05v7.21h3.45V259h-4.5Zm6.71,0V259h-1v-8.09Zm7.47,7.82a5,5,0,0,1-2.13.39,3.78,3.78,0,0,1-4-4.09,4,4,0,0,1,4.23-4.25,4.35,4.35,0,0,1,1.91.36l-.25.85a3.82,3.82,0,0,0-1.63-.33,3,3,0,0,0-3.15,3.33,2.94,2.94,0,0,0,3.1,3.25,4.27,4.27,0,0,0,1.71-.33Zm1.31-7.82h1.05v3.9h0c.22-.31.43-.6.64-.86l2.47-3h1.29l-2.92,3.43,3.15,4.66h-1.23l-2.67-4-.76.89V259h-1.05Zm15.86,4.54c-.06-1.13-.13-2.48-.12-3.49h0c-.28.95-.61,1.95-1,3.07l-1.43,3.92h-.79L391,255.07c-.38-1.14-.71-2.18-.93-3.14h0c0,1-.08,2.36-.15,3.57l-.22,3.47h-1l.56-8.09h1.33l1.38,3.91c.33,1,.61,1.89.81,2.73h0c.2-.82.49-1.71.85-2.73l1.44-3.91h1.33l.51,8.09h-1Zm7-.24h-3.14v2.91h3.5V259h-4.54v-8.09h4.36v.88h-3.32v2.55h3.14Z"/></svg>