<svg id="logo_icon" xmlns="http://www.w3.org/2000/svg" viewBox="0 0 761.96 421.94"><defs><style>.cls-1{fill:#6dd981;}.cls-2{fill:#a384ec;}.cls-3{fill:#fae370;}</style></defs><title>ui_conten1</title><path id="ui_screen" class="cls-1" d="M214,166,420.66,46.87,421,180.61,214.32,299.93Z"/><path id="ui_content" class="cls-2" d="M415.24,76.14l.28,99.31L313.43,234.39l-.26-90.67,0-8.64Z"/><path id="ui_block3" class="cls-3" d="M260,219.36l.12,45.79-39.84,23-.13-45.79Z"/><path id="ui_block1" class="cls-3" d="M259.88,165.83l.13,45.79-39.85,23L220,188.84Z"/><path id="ui_block2" class="cls-3" d="M307.08,138.58l.13,45.79-39.85,23-.13-45.79Z"/><path id="ui_block4" class="cls-3" d="M307.23,192.11l.13,45.79-39.84,23-.13-45.79Z"/><path id="ui_header" class="cls-2" d="M213.94,166.19,420.61,46.87l.05,19.49L214,185.68Z"/><path id="ui_icon" class="cls-3" d="M224.86,162.18c3.58-2.07,6.5-.41,6.51,3.71a14.26,14.26,0,0,1-6.47,11.2c-3.58,2.07-6.5.41-6.51-3.71A14.24,14.24,0,0,1,224.86,162.18Z"/></svg>