<svg id="cta" xmlns="http://www.w3.org/2000/svg" xmlns:xlink="http://www.w3.org/1999/xlink" viewBox="0 0 2560 1440">
    <defs>
        <linearGradient id="linear-gradient" x1="4925.57" y1="3767.89" x2="4924.22" y2="3767.9"
            gradientTransform="matrix(208, 0, 0, -11, -1022161.43, 42840.55)" gradientUnits="userSpaceOnUse">
            <stop offset="0" stop-color="#07c0ff" />
            <stop offset="1" stop-color="#038cff" />
        </linearGradient>
        <linearGradient id="linear-gradient-2" x1="4926.65" y1="3608.63" x2="4925.3" y2="3608.8"
            gradientTransform="matrix(226, 0, 0, -80, -1111054.82, 290042.68)" xlink:href="#linear-gradient" />
    </defs>
    <title>large</title>
    <rect id="_2" data-name="2" width="2560" height="181.44" fill="#fff" />
    <rect y="1252.13" width="2560" height="187.87" fill="#fff" />
    <rect x="1332.97" y="1330.8" width="147.63" height="38.99" fill="none" />
    <g id="BUTTON">
        <g id="BG">
            <path id="shadow"
                d="M2079.61,1386.28h276.92v14.86H2079.61a4,4,0,0,1-4.05-4.05v-6.76A4.05,4.05,0,0,1,2079.61,1386.28Z"
                fill-rule="evenodd" opacity="0.8" fill="url(#linear-gradient)" style="isolation:isolate" />
            <rect x="2063.4" y="1291.72" width="305.29" height="108.07" rx="4.05" fill="url(#linear-gradient-2)" />
        </g>
        <path id="Bereken"
            d="M2106.3,1329.53h9.36a9,9,0,0,1,6.34,2.15,7.27,7.27,0,0,1,2.33,5.63,6.39,6.39,0,0,1-1.17,3.85,2.61,2.61,0,1,0,.67,4.89,7.3,7.3,0,0,1,1.4,4.39,7.22,7.22,0,0,1-2.48,5.62,9.23,9.23,0,0,1-6.4,2.2h-10Zm4,12.57h4.95a5.25,5.25,0,0,0,3.72-1.28,4.29,4.29,0,0,0,1.38-3.3,4.1,4.1,0,0,0-1.42-3.29,5.71,5.71,0,0,0-3.85-1.21h-4.78Zm0,12.68h5.51a5.81,5.81,0,0,0,3.91-1.26,4.11,4.11,0,0,0,1.48-3.32,4.5,4.5,0,0,0-1.33-3.42,5.4,5.4,0,0,0-3.89-1.28h-5.68Zm33.92-3.2,3.28,1.13a8.6,8.6,0,0,1-3.16,4.44,9.07,9.07,0,0,1-5.59,1.72,9.54,9.54,0,0,1-6.95-2.81,10.21,10.21,0,0,1-2.86-7.6,10.33,10.33,0,0,1,2.76-7.38,9.35,9.35,0,0,1,13.45-.14,10.77,10.77,0,0,1,2.48,7.44,6.79,6.79,0,0,1-.09,1.21h-14.67a5.86,5.86,0,0,0,1.73,4.26,5.65,5.65,0,0,0,4.15,1.66A5.26,5.26,0,0,0,2144.19,1351.58Zm-11.22-5.07h10.65a4.9,4.9,0,0,0-5.35-5,5,5,0,0,0-3.72,1.48A5.24,5.24,0,0,0,2133,1346.51Zm30.31-7.94v4a11.91,11.91,0,0,0-1.66-.12q-5.35,0-5.35,6v9.76h-3.81v-19.49h3.73v3.41a6,6,0,0,1,5.83-3.73A6.56,6.56,0,0,1,2163.28,1338.57Zm17.55,13,3.28,1.13a8.66,8.66,0,0,1-3.16,4.44,9.1,9.1,0,0,1-5.6,1.72,9.58,9.58,0,0,1-6.95-2.81,10.2,10.2,0,0,1-2.85-7.6,10.36,10.36,0,0,1,2.75-7.38,9.37,9.37,0,0,1,13.46-.14,10.81,10.81,0,0,1,2.47,7.44,8,8,0,0,1-.08,1.21h-14.67a5.85,5.85,0,0,0,1.72,4.26,5.67,5.67,0,0,0,4.15,1.66A5.28,5.28,0,0,0,2180.83,1351.58Zm-11.23-5.07h10.66a4.9,4.9,0,0,0-5.35-5,5,5,0,0,0-3.73,1.48A5.28,5.28,0,0,0,2169.6,1346.51Zm37-7.74-8.31,8.23,8.47,11.26h-4.78l-6.36-8.59-2.72,2.72v5.87h-3.77v-29.34h3.77v18.48l8.43-8.63Zm16.49,12.81,3.28,1.13a8.6,8.6,0,0,1-3.16,4.44,9.07,9.07,0,0,1-5.59,1.72,9.56,9.56,0,0,1-6.95-2.81,10.21,10.21,0,0,1-2.86-7.6,10.33,10.33,0,0,1,2.76-7.38,9.35,9.35,0,0,1,13.45-.14,10.77,10.77,0,0,1,2.48,7.44,8,8,0,0,1-.08,1.21h-14.67a5.85,5.85,0,0,0,1.72,4.26,5.65,5.65,0,0,0,4.15,1.66A5.26,5.26,0,0,0,2223.05,1351.58Zm-11.22-5.07h10.65a4.89,4.89,0,0,0-5.34-5,5,5,0,0,0-3.73,1.48A5.24,5.24,0,0,0,2211.83,1346.51Zm23.3.49v11.26h-3.81v-19.49h3.73v2.8a6.46,6.46,0,0,1,6-3.37,6.36,6.36,0,0,1,5.16,2.15,8.36,8.36,0,0,1,1.8,5.55v12.36h-3.8v-11.71c0-3.27-1.52-4.9-4.54-4.9a4,4,0,0,0-3.35,1.52A6,6,0,0,0,2235.13,1347Z"
            fill="#fff" style="isolation:isolate" />
        <g id="Group">
            <path id="Path-7" d="M2310.89,1328.93l14.9,14.9-15,15-3.32-3.31,8.12-8.12h-24.64v-4.72H2318l-10.44-10.44Z"
                fill="#fff" fill-rule="evenodd" />
        </g>
    </g>
</svg>
