<svg id="cta" xmlns="http://www.w3.org/2000/svg" xmlns:xlink="http://www.w3.org/1999/xlink" viewBox="0 0 1366 800">
    <defs>
        <linearGradient id="linear-gradient" x1="1803.49" y1="3476.43" x2="1802.74" y2="3476.43"
            gradientTransform="matrix(208, 0, 0, -11, -373857.64, 39000.55)" gradientUnits="userSpaceOnUse">
            <stop offset="0" stop-color="#07c0ff" />
            <stop offset="1" stop-color="#038cff" />
        </linearGradient>
        <linearGradient id="linear-gradient-2" x1="1803.77" y1="3292.32" x2="1803.02" y2="3292.42"
            gradientTransform="matrix(226, 0, 0, -80, -406376.78, 264122.68)" xlink:href="#linear-gradient" />
    </defs>
    <title>medium_landscape</title>
    <rect x="2.63" y="0.2" width="1365" height="130.27" fill="#fff" />
    <rect x="1" y="667.83" width="1365" height="130.27" fill="#fff" />
    <g id="BUTTON">
        <g id="BG">
            <path id="shadow"
                d="M1114.31,755.67h154.2v8.27h-154.2a2.26,2.26,0,0,1-2.26-2.25v-3.76A2.26,2.26,0,0,1,1114.31,755.67Z"
                fill-rule="evenodd" opacity="0.8" fill="url(#linear-gradient)" style="isolation:isolate" />
            <rect x="1105.28" y="703.01" width="170" height="60.18" rx="2.26" fill="url(#linear-gradient-2)" />
        </g>
        <path id="Bereken"
            d="M1129.17,724.07h5.21a5,5,0,0,1,3.53,1.19,4.07,4.07,0,0,1,1.3,3.14,3.57,3.57,0,0,1-.65,2.14,1.45,1.45,0,1,0,.37,2.72,4.07,4.07,0,0,1,.78,2.45,4,4,0,0,1-1.38,3.13,5.16,5.16,0,0,1-3.57,1.23h-5.59Zm2.21,7h2.75a2.9,2.9,0,0,0,2.08-.71,2.38,2.38,0,0,0,.77-1.84,2.3,2.3,0,0,0-.79-1.82A3.15,3.15,0,0,0,1134,726h-2.66Zm0,7.07h3.07a3.3,3.3,0,0,0,2.18-.7,2.32,2.32,0,0,0,.82-1.85,2.53,2.53,0,0,0-.74-1.91,3,3,0,0,0-2.17-.71h-3.16Zm18.89-1.79,1.83.64a4.91,4.91,0,0,1-1.76,2.47,5.08,5.08,0,0,1-3.12,1,5.33,5.33,0,0,1-3.87-1.57,5.69,5.69,0,0,1-1.59-4.23,5.75,5.75,0,0,1,1.53-4.11,5.21,5.21,0,0,1,7.5-.08,6,6,0,0,1,1.37,4.14,4.36,4.36,0,0,1,0,.68H1144a3.23,3.23,0,0,0,1,2.37,3.13,3.13,0,0,0,2.31.92A2.94,2.94,0,0,0,1150.27,736.34Zm-6.25-2.82H1150a2.73,2.73,0,0,0-3-2.77,2.77,2.77,0,0,0-2.07.82A2.94,2.94,0,0,0,1144,733.52Zm16.88-4.42v2.26a6,6,0,0,0-.93-.07c-2,0-3,1.11-3,3.34v5.44h-2.12V729.21H1157v1.9a3.35,3.35,0,0,1,3.25-2.08A4.05,4.05,0,0,1,1160.9,729.1Zm9.77,7.24,1.83.64a4.87,4.87,0,0,1-1.77,2.47,5,5,0,0,1-3.11,1,5.33,5.33,0,0,1-3.87-1.57,5.69,5.69,0,0,1-1.59-4.23,5.75,5.75,0,0,1,1.53-4.11,5.21,5.21,0,0,1,7.5-.08,6,6,0,0,1,1.37,4.14,4.36,4.36,0,0,1,0,.68h-8.17a3.23,3.23,0,0,0,1,2.37,3.13,3.13,0,0,0,2.31.92A2.94,2.94,0,0,0,1170.67,736.34Zm-6.25-2.82h5.93a2.73,2.73,0,0,0-3-2.77,2.77,2.77,0,0,0-2.07.82A2.89,2.89,0,0,0,1164.42,733.52Zm20.58-4.31-4.63,4.58,4.72,6.28h-2.67l-3.54-4.79-1.51,1.52v3.27h-2.1V723.73h2.1V734l4.69-4.81Zm9.18,7.13,1.83.64a4.85,4.85,0,0,1-1.76,2.47,5.08,5.08,0,0,1-3.12,1,5.36,5.36,0,0,1-3.87-1.57,6.34,6.34,0,0,1,0-8.34,5.2,5.2,0,0,1,7.49-.08,6,6,0,0,1,1.38,4.14,4.21,4.21,0,0,1,0,.68h-8.17a3.31,3.31,0,0,0,1,2.37,3.16,3.16,0,0,0,2.31.92A2.94,2.94,0,0,0,1194.18,736.34Zm-6.25-2.82h5.94a2.93,2.93,0,0,0-.82-2,2.89,2.89,0,0,0-2.16-.78,2.78,2.78,0,0,0-2.08.82A3,3,0,0,0,1187.93,733.52Zm13,.27v6.28h-2.13V729.21h2.08v1.56a4,4,0,0,1,6.22-.68,4.65,4.65,0,0,1,1,3.09v6.89H1206v-6.52c0-1.82-.84-2.73-2.53-2.73a2.24,2.24,0,0,0-1.86.84A3.38,3.38,0,0,0,1200.91,733.79Z"
            fill="#fff" style="isolation:isolate" />
        <g id="Group">
            <path id="Path-7" d="M1243.09,723.73l8.3,8.3-8.38,8.38-1.84-1.85,4.52-4.52H1232v-2.63h15.08l-5.82-5.82Z"
                fill="#fff" fill-rule="evenodd" />
        </g>
    </g>
</svg>
