<svg id="cta" xmlns="http://www.w3.org/2000/svg" xmlns:xlink="http://www.w3.org/1999/xlink" viewBox="0 0 621 1104">
    <defs>
        <linearGradient id="linear-gradient" x1="-3221.55" y1="3594.28" x2="-3222.33" y2="3594.28"
            gradientTransform="matrix(208, 0, 0, -11, 670675.89, 40593.65)" gradientUnits="userSpaceOnUse">
            <stop offset="0" stop-color="#07c0ff" />
            <stop offset="1" stop-color="#038cff" />
        </linearGradient>
        <linearGradient id="linear-gradient-2" x1="-3222.94" y1="3423.04" x2="-3223.72" y2="3423.14"
            gradientTransform="matrix(226, 0, 0, -80, 728985.75, 274876.11)" xlink:href="#linear-gradient" />
    </defs>
    <title>small_portrait</title>
    <rect id="_1" data-name="1" width="622.68" height="143.57" fill="#fff" />
    <rect id="_2" data-name="2" y="956.46" width="622.68" height="147.54" fill="#fff" />
    <g id="BUTTON">
        <g id="BG">
            <path id="shadow"
                d="M433.67,1052.3h160v8.58h-160a2.34,2.34,0,0,1-2.34-2.34v-3.9A2.34,2.34,0,0,1,433.67,1052.3Z"
                fill-rule="evenodd" opacity="0.8" fill="url(#linear-gradient)" style="isolation:isolate" />
            <rect x="424.3" y="997.65" width="176.42" height="62.45" rx="2.34" fill="url(#linear-gradient-2)" />
        </g>
        <path id="Bereken"
            d="M449.09,1019.5h5.41a5.2,5.2,0,0,1,3.67,1.24,4.26,4.26,0,0,1,1.34,3.26,3.62,3.62,0,0,1-.68,2.22,1.51,1.51,0,1,0,.39,2.82,4.23,4.23,0,0,1,.81,2.55,4.16,4.16,0,0,1-1.43,3.24,5.35,5.35,0,0,1-3.7,1.28h-5.81Zm2.3,7.26h2.85a3,3,0,0,0,2.16-.74,2.48,2.48,0,0,0,.8-1.91,2.39,2.39,0,0,0-.82-1.89,3.31,3.31,0,0,0-2.23-.71h-2.76Zm0,7.33h3.18a3.39,3.39,0,0,0,2.26-.72,2.42,2.42,0,0,0,.86-1.92,2.59,2.59,0,0,0-.78-2,3.07,3.07,0,0,0-2.24-.74h-3.28Zm19.6-1.85,1.9.66a5,5,0,0,1-1.83,2.56,5.28,5.28,0,0,1-3.23,1,5.53,5.53,0,0,1-4-1.63,6.58,6.58,0,0,1-.06-8.65,5.42,5.42,0,0,1,7.78-.09,6.25,6.25,0,0,1,1.43,4.3,4.39,4.39,0,0,1,0,.7h-8.48a3.4,3.4,0,0,0,1,2.46,3.26,3.26,0,0,0,2.4,1A3,3,0,0,0,471,1032.24Zm-6.49-2.93h6.16a2.84,2.84,0,0,0-3.09-2.88,2.92,2.92,0,0,0-2.16.86A3.07,3.07,0,0,0,464.5,1029.31Zm17.52-4.59v2.35a6.39,6.39,0,0,0-1-.07q-3.09,0-3.09,3.46v5.65h-2.2v-11.27h2.15v2a3.49,3.49,0,0,1,3.37-2.16A4.4,4.4,0,0,1,482,1024.72Zm10.14,7.52,1.9.66a5,5,0,0,1-1.83,2.56,5.28,5.28,0,0,1-3.23,1,5.53,5.53,0,0,1-4-1.63,6.58,6.58,0,0,1-.06-8.65,5.42,5.42,0,0,1,7.78-.09,6.25,6.25,0,0,1,1.43,4.3,4.39,4.39,0,0,1-.05.7H485.6a3.4,3.4,0,0,0,1,2.46,3.26,3.26,0,0,0,2.4,1A3,3,0,0,0,492.16,1032.24Zm-6.49-2.93h6.16a2.84,2.84,0,0,0-3.09-2.88,2.92,2.92,0,0,0-2.16.86A3.07,3.07,0,0,0,485.67,1029.31Zm21.36-4.47-4.8,4.75,4.89,6.52h-2.76l-3.68-5-1.57,1.57v3.4h-2.17v-17h2.17v10.68l4.87-5Zm9.53,7.4,1.9.66a5,5,0,0,1-1.83,2.56,5.28,5.28,0,0,1-3.23,1,5.53,5.53,0,0,1-4-1.63,6.58,6.58,0,0,1-.06-8.65,5.42,5.42,0,0,1,7.78-.09,6.25,6.25,0,0,1,1.43,4.3,4.39,4.39,0,0,1,0,.7H510a3.4,3.4,0,0,0,1,2.46,3.29,3.29,0,0,0,2.4,1A3,3,0,0,0,516.56,1032.24Zm-6.49-2.93h6.16a2.84,2.84,0,0,0-3.09-2.88,2.89,2.89,0,0,0-2.15.86A3,3,0,0,0,510.07,1029.31Zm13.47.28v6.52h-2.2v-11.27h2.15v1.62a3.74,3.74,0,0,1,3.47-2,3.69,3.69,0,0,1,3,1.24,4.81,4.81,0,0,1,1,3.21v7.15h-2.21v-6.77c0-1.89-.87-2.84-2.62-2.84a2.33,2.33,0,0,0-1.93.88A3.47,3.47,0,0,0,523.54,1029.59Z"
            fill="#fff" style="isolation:isolate" />
        <g id="Group">
            <path id="Path-7" d="M567.32,1019.15l8.61,8.61-8.69,8.7-1.92-1.92,4.69-4.69H555.78v-2.73h15.64l-6-6Z"
                fill="#fff" fill-rule="evenodd" />
        </g>
    </g>
</svg>
