<svg id="cta" xmlns="http://www.w3.org/2000/svg" xmlns:xlink="http://www.w3.org/1999/xlink" viewBox="0 0 1104 621">
    <defs>
        <linearGradient id="linear-gradient" x1="-1418.78" y1="3373.17" x2="-1419.41" y2="3373.17"
            gradientTransform="matrix(208, 0, 0, -11, 296166.45, 37695.65)" gradientUnits="userSpaceOnUse">
            <stop offset="0" stop-color="#07c0ff" />
            <stop offset="1" stop-color="#038cff" />
        </linearGradient>
        <linearGradient id="linear-gradient-2" x1="-1419.66" y1="3184.29" x2="-1420.29" y2="3184.37"
            gradientTransform="matrix(226, 0, 0, -80, 321910.28, 255314.61)" xlink:href="#linear-gradient" />
    </defs>
    <title>small_landscape</title>
    <rect id="_2" data-name="2" y="521.72" width="1104" height="98.16" fill="#fff" />
    <g id="BUTTON">
        <g id="BG">
            <path id="shadow"
                d="M931.54,587.35h128.81v6.91H931.54a1.89,1.89,0,0,1-1.89-1.89v-3.14A1.89,1.89,0,0,1,931.54,587.35Z"
                fill-rule="evenodd" opacity="0.8" fill="url(#linear-gradient)" style="isolation:isolate" />
            <rect x="924" y="543.36" width="142" height="50.27" rx="1.88" fill="url(#linear-gradient-2)" />
        </g>
        <path id="Bereken"
            d="M944,561h4.36a4.17,4.17,0,0,1,3,1,3.39,3.39,0,0,1,1.08,2.62,3,3,0,0,1-.54,1.79,3.08,3.08,0,0,1-1.46,1.09,3,3,0,0,1,1.77,1.18,3.43,3.43,0,0,1,.65,2,3.38,3.38,0,0,1-1.15,2.61,4.33,4.33,0,0,1-3,1H944Zm1.85,5.84h2.3a2.45,2.45,0,0,0,1.74-.59,2,2,0,0,0,.64-1.54,1.88,1.88,0,0,0-.66-1.52,2.65,2.65,0,0,0-1.79-.57H945.8Zm0,5.9h2.57a2.68,2.68,0,0,0,1.81-.58,1.94,1.94,0,0,0,.69-1.55,2.12,2.12,0,0,0-.62-1.59,2.5,2.5,0,0,0-1.81-.59H945.8Zm15.78-1.49,1.53.53a4.09,4.09,0,0,1-1.48,2.07,4.23,4.23,0,0,1-2.6.8,4.44,4.44,0,0,1-3.23-1.31,4.74,4.74,0,0,1-1.33-3.54,4.83,4.83,0,0,1,1.28-3.43,4.35,4.35,0,0,1,6.26-.06,5,5,0,0,1,1.15,3.45,3,3,0,0,1,0,.57H956.3a2.74,2.74,0,0,0,.8,2A2.62,2.62,0,0,0,959,573,2.45,2.45,0,0,0,961.58,571.2Zm-5.22-2.35h4.95a2.41,2.41,0,0,0-.67-1.67,2.44,2.44,0,0,0-1.81-.65,2.33,2.33,0,0,0-1.74.69A2.43,2.43,0,0,0,956.36,568.85Zm14.1-3.7V567a5.32,5.32,0,0,0-.78-.06c-1.66,0-2.48.93-2.48,2.79v4.54h-1.78v-9.06h1.74v1.58a2.8,2.8,0,0,1,2.71-1.73A3.81,3.81,0,0,1,970.46,565.15Zm8.16,6.05,1.52.53a4,4,0,0,1-1.47,2.07,4.23,4.23,0,0,1-2.6.8,4.44,4.44,0,0,1-3.23-1.31,4.74,4.74,0,0,1-1.33-3.54,4.83,4.83,0,0,1,1.28-3.43,4.35,4.35,0,0,1,6.26-.06,5,5,0,0,1,1.15,3.45,3,3,0,0,1,0,.57h-6.82a2.74,2.74,0,0,0,.8,2,2.62,2.62,0,0,0,1.93.77A2.45,2.45,0,0,0,978.62,571.2Zm-5.22-2.35h5a2.41,2.41,0,0,0-.67-1.67,2.46,2.46,0,0,0-1.81-.65,2.33,2.33,0,0,0-1.74.69A2.43,2.43,0,0,0,973.4,568.85Zm17.19-3.6-3.87,3.82,3.94,5.24h-2.22l-3-4-1.26,1.26v2.73h-1.76V560.67h1.76v8.59l3.92-4Zm7.67,6,1.53.53a4.14,4.14,0,0,1-1.47,2.07,4.28,4.28,0,0,1-2.61.8,4.44,4.44,0,0,1-3.23-1.31,4.77,4.77,0,0,1-1.33-3.54,4.83,4.83,0,0,1,1.28-3.43,4.1,4.1,0,0,1,3.06-1.36,4.06,4.06,0,0,1,3.2,1.3,5,5,0,0,1,1.15,3.45,3,3,0,0,1,0,.57H993a2.74,2.74,0,0,0,.8,2,2.62,2.62,0,0,0,1.93.77A2.45,2.45,0,0,0,998.26,571.2ZM993,568.85h5a2.29,2.29,0,0,0-2.49-2.32,2.34,2.34,0,0,0-1.74.69A2.48,2.48,0,0,0,993,568.85Zm10.84.22v5.24h-1.78v-9.06h1.74v1.3A3.31,3.31,0,0,1,1009,566a3.89,3.89,0,0,1,.84,2.58v5.75h-1.77v-5.44c0-1.52-.71-2.28-2.11-2.28a1.87,1.87,0,0,0-1.56.7A2.8,2.8,0,0,0,1003.88,569.07Z"
            fill="#fff" style="isolation:isolate" />
        <g id="Group">
            <path id="Path-7" d="M1039.11,560.67l6.94,6.93-7,7-1.54-1.54,3.77-3.78h-11.46v-2.2h12.6l-4.86-4.86Z"
                fill="#fff" fill-rule="evenodd" />
        </g>
    </g>
    <rect id="_1" data-name="1" y="0.5" width="1104" height="92.4" fill="#fff" />
</svg>
