<svg id="Layer_1" data-name="Layer 1" xmlns="http://www.w3.org/2000/svg" viewBox="0 0 600 1200"><title>logo</title><polygon id="toplogo_letters" points="285.18 61.04 276.07 61.04 276.07 53.01 272.03 53.01 272.03 72.91 276.07 72.91 276.07 64.83 285.18 64.83 285.18 72.91 289.22 72.91 289.22 53.01 285.18 53.01 285.18 61.04" fill="#fff"/><path d="M307.92,64.4c0,3.24-1.6,5-4.52,5s-4.55-1.77-4.55-5.1V53h-4V64.4c0,5.6,3.11,8.81,8.54,8.81s8.61-3.27,8.61-9V53h-4Z" fill="#fff"/><polygon points="354.58 66.69 350.06 53.01 346.77 53.01 342.25 66.69 337.86 53.02 333.56 53.02 340.49 72.91 343.84 72.91 348.36 59.85 352.88 72.91 356.25 72.91 363.17 53.02 358.99 53.02 354.58 66.69" fill="#fff"/><polygon points="370.41 64.35 377.75 64.35 377.75 60.72 370.41 60.72 370.41 56.65 381.07 56.65 381.07 53.03 366.43 53.03 366.43 72.9 381.45 72.9 381.45 69.27 370.41 69.27 370.41 64.35" fill="#fff"/><rect x="386.26" y="53.01" width="3.98" height="19.87" fill="#fff"/><path d="M329,68.76l1.79,4.14h4.23l-8.68-19.77L326.3,53h-3.53L314,72.9h4.12l1.69-3.85h0l.12-.29Zm-4.56-10.71,2.88,6.66h0l.19.46h-6.1l.19-.46h0Z" fill="#fff"/><path d="M232.29,70.8a.19.19,0,0,1-.22,0c-2.24-1.12-11.91-6-15.9-9.93a7.69,7.69,0,0,1-2.65-5.25c-.33-4.35,4.25-8.7,4.25-8.7a119.55,119.55,0,0,1,14.56,23.65h0a.16.16,0,0,1,0,.19m-1.5,3.33c0-.14-.21-.14-.21-.14h0l-16.08.56c1.74,3.12,4.68,5.54,7.74,4.79,2.11-.52,6.9-3.87,8.48-5h0c.12-.11.08-.2.08-.2m.24-1.45c.08-.12-.06-.23-.06-.23h0c-7.07-4.77-20.77-12.1-20.77-12.1a9.55,9.55,0,0,0,5.51,11.79,9.82,9.82,0,0,0,3.08.67c.24,0,9.57,0,12.07,0a.19.19,0,0,0,.16-.11M232.1,40c-.7.06-2.59.49-2.59.49a7.44,7.44,0,0,0-5.26,5,9.8,9.8,0,0,0,0,5.11c1.42,6.32,8.42,16.7,9.92,18.88a.2.2,0,0,0,.19.07.21.21,0,0,0,.15-.21h0C236.85,46.14,232.1,40,232.1,40m5.33,29.51a.19.19,0,0,0,.23-.09h0c1.55-2.23,8.5-12.56,9.92-18.85a10.68,10.68,0,0,0,0-5.11,7.49,7.49,0,0,0-5.32-5s-1.23-.31-2.53-.49c0,0-4.77,6.15-2.46,29.33h0a.19.19,0,0,0,.12.18M241.24,74s-.14,0-.18.12,0,.15.06.22h0c1.54,1.1,6.21,4.37,8.46,5,0,0,4.16,1.42,7.77-4.8L241.24,74Zm20.39-13.69S248,67.66,240.88,72.43h0a.21.21,0,0,0-.09.23s.07.12.17.12h0c2.53,0,12.11,0,12.36,0a9.84,9.84,0,0,0,2.77-.63,9.42,9.42,0,0,0,5.17-5,9.73,9.73,0,0,0,.36-6.85m-22,10.49a.22.22,0,0,0,.22,0h0c2.3-1.15,11.89-6,15.87-9.91a7.75,7.75,0,0,0,2.64-5.27c.3-4.51-4.24-8.68-4.24-8.68a119.64,119.64,0,0,0-14.54,23.58h0a.24.24,0,0,0,0,.26" fill="#c3182d"/></svg>