<svg xmlns="http://www.w3.org/2000/svg" xmlns:xlink="http://www.w3.org/1999/xlink" viewBox="0 0 761.96 562.48"><defs><style>.cls-1{fill:none;}.cls-2{isolation:isolate;}.cls-3{clip-path:url(#clip-path);}.cls-4{opacity:0.43;}.cls-5{mix-blend-mode:overlay;}.cls-6{fill:#fff;}.cls-7{mix-blend-mode:screen;}.cls-8{fill:url(#radial-gradient);}.cls-9{fill:url(#radial-gradient-2);}.cls-10{fill:url(#radial-gradient-3);}.cls-11{fill:url(#radial-gradient-4);}.cls-12{fill:url(#radial-gradient-5);}.cls-13{fill:url(#radial-gradient-6);}.cls-14{fill:url(#radial-gradient-7);}.cls-15{fill:url(#radial-gradient-8);}.cls-16{fill:url(#radial-gradient-9);}.cls-17{fill:url(#radial-gradient-10);}.cls-18{fill:url(#radial-gradient-11);}.cls-19{fill:url(#radial-gradient-12);}.cls-20{fill:url(#radial-gradient-13);}.cls-21{opacity:0.4;}.cls-22{opacity:0.2;}</style><clipPath id="clip-path"><polygon class="cls-1" points="-378.25 562.48 377.43 560.11 1140.21 558.53 1140.21 -244.47 -378.25 -244.47 -378.25 562.48"/></clipPath><radialGradient id="radial-gradient" cx="50.18" cy="499.22" r="10.65" gradientTransform="translate(69.32 -68.55) rotate(-1.42)" gradientUnits="userSpaceOnUse"><stop offset="0.03" stop-color="#c2c2c2"/><stop offset="0.03" stop-color="#babec1"/><stop offset="0.03" stop-color="#a5b4bf"/><stop offset="0.04" stop-color="#82a3bb"/><stop offset="0.04" stop-color="#518cb5"/><stop offset="0.04" stop-color="#136fae"/><stop offset="0.04" stop-color="#0066ac"/><stop offset="0.09" stop-color="#0079ac"/><stop offset="0.12" stop-color="#0089ac"/><stop offset="0.17" stop-color="#00728f"/><stop offset="0.25" stop-color="#005469"/><stop offset="0.33" stop-color="#003a49"/><stop offset="0.43" stop-color="#00252e"/><stop offset="0.53" stop-color="#00141a"/><stop offset="0.64" stop-color="#00090b"/><stop offset="0.78" stop-color="#000203"/><stop offset="1"/></radialGradient><radialGradient id="radial-gradient-2" cx="37.39" cy="566.4" r="10.78" xlink:href="#radial-gradient"/><radialGradient id="radial-gradient-3" cx="34.94" cy="423.68" r="10.06" xlink:href="#radial-gradient"/><radialGradient id="radial-gradient-4" cx="-64.99" cy="608.22" r="7.14" xlink:href="#radial-gradient"/><radialGradient id="radial-gradient-5" cx="-81.66" cy="550.28" r="17.38" gradientTransform="translate(69.32 -68.55) rotate(-1.42)" gradientUnits="userSpaceOnUse"><stop offset="0.18" stop-color="#c2c2c2"/><stop offset="0.19" stop-color="#babec1"/><stop offset="0.19" stop-color="#a5b4bf"/><stop offset="0.19" stop-color="#82a3bb"/><stop offset="0.19" stop-color="#518cb5"/><stop offset="0.2" stop-color="#136fae"/><stop offset="0.2" stop-color="#0066ac"/><stop offset="0.23" stop-color="#0079ac"/><stop offset="0.25" stop-color="#0089ac"/><stop offset="0.27" stop-color="#0080a1"/><stop offset="0.35" stop-color="#005e77"/><stop offset="0.44" stop-color="#004152"/><stop offset="0.53" stop-color="#002a34"/><stop offset="0.63" stop-color="#00171d"/><stop offset="0.73" stop-color="#000a0d"/><stop offset="0.85" stop-color="#000203"/><stop offset="1"/></radialGradient><radialGradient id="radial-gradient-6" cx="151.03" cy="560.09" r="10.02" xlink:href="#radial-gradient-5"/><radialGradient id="radial-gradient-7" cx="45.62" cy="502.67" r="11.32" xlink:href="#radial-gradient-5"/><radialGradient id="radial-gradient-8" cx="-77.42" cy="511.62" r="19.38" gradientTransform="translate(69.32 -68.55) rotate(-1.42)" gradientUnits="userSpaceOnUse"><stop offset="0.35"/><stop offset="0.56" stop-color="#000005"/><stop offset="0.64" stop-color="#001826"/><stop offset="0.68" stop-color="#00121c"/><stop offset="0.77" stop-color="#00080c"/><stop offset="0.86" stop-color="#000203"/><stop offset="0.99"/></radialGradient><radialGradient id="radial-gradient-9" cx="619.64" cy="416.65" r="10.05" xlink:href="#radial-gradient"/><radialGradient id="radial-gradient-10" cx="496.39" cy="549.79" r="12.73" xlink:href="#radial-gradient"/><radialGradient id="radial-gradient-11" cx="549.74" cy="521.71" r="12.73" xlink:href="#radial-gradient-5"/><radialGradient id="radial-gradient-12" cx="656.87" cy="542" r="12.72" xlink:href="#radial-gradient-5"/><radialGradient id="radial-gradient-13" cx="628.28" cy="526.94" r="13.46" xlink:href="#radial-gradient-8"/></defs><title>bg</title><g class="cls-2"><g id="phone"><g class="cls-3"><g class="cls-4"><g class="cls-5"><rect class="cls-6" x="518.19" y="338.36" width="208.97" height="1.22" transform="translate(-50.75 117.33) rotate(-10.34)"/><rect class="cls-6" x="518.19" y="338.36" width="208.97" height="1.22" transform="translate(-50.75 117.33) rotate(-10.34)"/><rect class="cls-6" x="685.47" y="276.97" width="85.35" height="1.22" transform="translate(405.76 987.02) rotate(-86.43)"/><polygon class="cls-6" points="520.2 358.3 519.59 357.24 730.52 234.46 731.14 235.51 520.2 358.3"/><polygon class="cls-6" points="520.2 358.3 519.59 357.24 730.52 234.46 731.14 235.51 520.2 358.3"/><polygon class="cls-6" points="53.33 517.89 -116.15 290.28 -115.18 289.55 54.3 517.16 53.33 517.89"/><rect class="cls-6" x="-35.03" y="261.55" width="1.22" height="286.39" transform="translate(-256.72 64.76) rotate(-38.04)"/><rect class="cls-6" x="-35.46" y="269.03" width="1.22" height="359.09" transform="translate(-223.85 40.27) rotate(-29.28)"/><rect class="cls-6" x="-31.96" y="268.78" width="1.22" height="357.53" transform="translate(-214.8 38.13) rotate(-28.14)"/><polygon class="cls-6" points="53.58 605.18 52.36 605.17 53.21 517.52 54.43 517.53 53.58 605.18"/><rect class="cls-6" x="657.34" y="257.41" width="80.71" height="1.22" transform="translate(-22.5 444.22) rotate(-34.79)"/><rect class="cls-6" x="694.4" y="264.43" width="1.22" height="72.37" transform="translate(66.5 722.97) rotate(-57.29)"/><rect class="cls-6" x="510.35" y="318.81" width="163.75" height="1.22" transform="translate(-80.63 314.78) rotate(-27.94)"/><rect class="cls-6" x="510.35" y="318.81" width="163.75" height="1.22" transform="translate(-80.63 314.78) rotate(-27.94)"/><rect class="cls-6" x="-92.55" y="449.74" width="310.25" height="1.22" transform="translate(-390.79 484.76) rotate(-86.43)"/><polygon class="cls-6" points="72.18 296.13 -122.67 292.58 -122.65 291.36 72.19 294.91 72.18 296.13"/><polygon class="cls-6" points="72.17 296.13 -115.69 290.52 -115.65 289.31 72.2 294.91 72.17 296.13"/><rect class="cls-6" x="-48.38" y="405.91" width="222.76" height="1.22" transform="translate(-347.32 435.96) rotate(-85.29)"/><rect class="cls-6" x="179.56" y="258.95" width="1.22" height="355.48" transform="translate(-228.25 199.3) rotate(-37.41)"/><rect class="cls-6" x="170.38" y="426.7" width="1.22" height="241.98" transform="translate(-402.05 576.69) rotate(-75.56)"/><polygon class="cls-6" points="288.57 578.31 287.74 577.43 519.47 357.33 520.31 358.21 288.57 578.31"/><polygon class="cls-6" points="288.57 578.31 287.74 577.43 519.47 357.33 520.31 358.21 288.57 578.31"/><polygon class="cls-6" points="288.75 577.98 287.56 577.76 330.83 337.04 332.03 337.26 288.75 577.98"/><polygon class="cls-6" points="331.33 337.75 72.09 296.12 72.28 294.92 331.53 336.55 331.33 337.75"/><polygon class="cls-6" points="331.53 337.75 331.33 336.55 664.46 280.46 664.66 281.66 331.53 337.75"/><polygon class="cls-6" points="54.15 518.03 53.48 517.01 331.1 336.64 331.76 337.66 54.15 518.03"/><rect class="cls-6" x="425.05" y="252.67" width="1.22" height="189.59" transform="translate(33.97 732.8) rotate(-83.76)"/><rect class="cls-6" x="425.05" y="252.67" width="1.22" height="189.59" transform="translate(33.97 732.8) rotate(-83.76)"/><polygon class="cls-6" points="708.74 575.81 663.96 281.15 665.16 280.97 709.95 575.63 708.74 575.81"/><rect class="cls-6" x="549.38" y="404.74" width="341.4" height="1.22" transform="matrix(0.06, -1, 1, 0.06, 270.5, 1098.68)"/><rect class="cls-6" x="589.37" y="447.33" width="256.06" height="1.22" transform="matrix(0.06, -1, 1, 0.06, 225.48, 1135.93)"/><rect class="cls-6" x="614.01" y="322.36" width="1.22" height="288.77" transform="translate(-155.45 517.69) rotate(-41)"/><rect class="cls-6" x="614.01" y="322.36" width="1.22" height="288.77" transform="translate(-155.45 517.69) rotate(-41)"/><polygon class="cls-6" points="-22.01 684.63 -23.12 684.12 53.26 517.27 54.37 517.78 -22.01 684.63"/><polygon class="cls-6" points="52.74 605.74 -270.26 476.45 -269.8 475.31 53.2 604.61 52.74 605.74"/><polygon class="cls-6" points="53.74 518.13 -270.11 476.48 -269.96 475.27 53.89 516.92 53.74 518.13"/><rect class="cls-6" x="432.53" y="303.95" width="1.22" height="344.83" transform="translate(-197.62 347.23) rotate(-36.15)"/><polygon class="cls-6" points="535.42 615.81 534.28 615.37 663.99 280.84 665.13 281.28 535.42 615.81"/><rect class="cls-6" x="454.37" y="467.27" width="351.57" height="1.22" transform="translate(-104.83 743.21) rotate(-57.13)"/><rect class="cls-6" x="526.76" y="357.55" width="1.22" height="258.25" transform="translate(-27.3 31.36) rotate(-3.32)"/><rect class="cls-6" x="526.76" y="357.55" width="1.22" height="258.25" transform="translate(-27.3 31.36) rotate(-3.32)"/><polygon class="cls-6" points="664.71 281.65 664.41 280.47 908.87 220.04 909.16 221.22 664.71 281.65"/><polygon class="cls-6" points="730.88 235.6 730.78 234.38 908.97 220.03 909.06 221.24 730.88 235.6"/><rect class="cls-6" x="712.83" y="269.79" width="208.81" height="1.22" transform="translate(-30.1 422.09) rotate(-28.46)"/><polygon class="cls-6" points="904.48 621.14 724.93 320.48 725.98 319.86 905.53 620.51 904.48 621.14"/><rect class="cls-6" x="696.51" y="515.78" width="287.2" height="1.22" transform="translate(-138.47 394.61) rotate(-24.48)"/><polygon class="cls-6" points="970.58 457.59 664.26 281.59 664.87 280.53 971.19 456.53 970.58 457.59"/><rect class="cls-6" x="850.25" y="182.51" width="1.22" height="327.02" transform="translate(19.06 735.64) rotate(-47.23)"/><polygon class="cls-6" points="970.59 457.59 725.16 320.7 725.75 319.63 971.18 456.53 970.59 457.59"/><path class="cls-6" d="M520.92,361.27a3.65,3.65,0,1,1,2.48-4.53A3.64,3.64,0,0,1,520.92,361.27Z"/><path class="cls-6" d="M726.48,323.67a3.65,3.65,0,1,1,2.47-4.53A3.64,3.64,0,0,1,726.48,323.67Z"/><path class="cls-6" d="M520.92,361.27a3.65,3.65,0,1,1,2.48-4.53A3.64,3.64,0,0,1,520.92,361.27Z"/><path class="cls-6" d="M726.48,323.67a3.65,3.65,0,1,1,2.47-4.53A3.64,3.64,0,0,1,726.48,323.67Z"/><path class="cls-6" d="M726.48,323.67a3.65,3.65,0,1,1,2.47-4.53A3.64,3.64,0,0,1,726.48,323.67Z"/><path class="cls-6" d="M731.85,238.49a3.65,3.65,0,1,1,2.48-4.53A3.65,3.65,0,0,1,731.85,238.49Z"/><path class="cls-6" d="M520.92,361.27a3.65,3.65,0,1,1,2.48-4.53A3.64,3.64,0,0,1,520.92,361.27Z"/><path class="cls-6" d="M731.85,238.49a3.65,3.65,0,1,1,2.48-4.53A3.65,3.65,0,0,1,731.85,238.49Z"/><path class="cls-6" d="M520.92,361.27a3.65,3.65,0,1,1,2.48-4.53A3.64,3.64,0,0,1,520.92,361.27Z"/><path class="cls-6" d="M731.85,238.49a3.65,3.65,0,1,1,2.48-4.53A3.65,3.65,0,0,1,731.85,238.49Z"/><path class="cls-6" d="M54.85,521a3.64,3.64,0,1,1,2.46-4.52A3.64,3.64,0,0,1,54.85,521Z"/><path class="cls-6" d="M54.85,521a3.64,3.64,0,1,1,2.46-4.52A3.64,3.64,0,0,1,54.85,521Z"/><path class="cls-6" d="M54.85,521a3.64,3.64,0,1,1,2.46-4.52A3.64,3.64,0,0,1,54.85,521Z"/><path class="cls-6" d="M731.85,238.49a3.65,3.65,0,1,1,2.48-4.53A3.65,3.65,0,0,1,731.85,238.49Z"/><path class="cls-6" d="M665.59,284.56a3.65,3.65,0,1,1,2.47-4.53A3.66,3.66,0,0,1,665.59,284.56Z"/><path class="cls-6" d="M726.48,323.67a3.65,3.65,0,1,1,2.47-4.53A3.64,3.64,0,0,1,726.48,323.67Z"/><path class="cls-6" d="M665.59,284.56a3.65,3.65,0,1,1,2.47-4.53A3.66,3.66,0,0,1,665.59,284.56Z"/><path class="cls-6" d="M520.92,361.27a3.65,3.65,0,1,1,2.48-4.53A3.64,3.64,0,0,1,520.92,361.27Z"/><path class="cls-6" d="M665.59,284.56a3.65,3.65,0,1,1,2.47-4.53A3.66,3.66,0,0,1,665.59,284.56Z"/><path class="cls-6" d="M520.92,361.27a3.65,3.65,0,1,1,2.48-4.53A3.64,3.64,0,0,1,520.92,361.27Z"/><path class="cls-6" d="M665.59,284.56a3.65,3.65,0,1,1,2.47-4.53A3.66,3.66,0,0,1,665.59,284.56Z"/><path class="cls-6" d="M73.21,299a3.64,3.64,0,1,1,2.47-4.52A3.64,3.64,0,0,1,73.21,299Z"/><path class="cls-6" d="M73.21,299a3.64,3.64,0,1,1,2.47-4.52A3.64,3.64,0,0,1,73.21,299Z"/><path class="cls-6" d="M73.21,299a3.64,3.64,0,1,1,2.47-4.52A3.64,3.64,0,0,1,73.21,299Z"/><path class="cls-6" d="M54.85,521a3.64,3.64,0,1,1,2.46-4.52A3.64,3.64,0,0,1,54.85,521Z"/><path class="cls-6" d="M73.21,299a3.64,3.64,0,1,1,2.47-4.52A3.64,3.64,0,0,1,73.21,299Z"/><path class="cls-6" d="M73.21,299a3.64,3.64,0,1,1,2.47-4.52A3.64,3.64,0,0,1,73.21,299Z"/><path class="cls-6" d="M54.85,521a3.64,3.64,0,1,1,2.46-4.52A3.64,3.64,0,0,1,54.85,521Z"/><path class="cls-6" d="M520.92,361.27a3.65,3.65,0,1,1,2.48-4.53A3.64,3.64,0,0,1,520.92,361.27Z"/><path class="cls-6" d="M520.92,361.27a3.65,3.65,0,1,1,2.48-4.53A3.64,3.64,0,0,1,520.92,361.27Z"/><path class="cls-6" d="M332.46,340.65a3.65,3.65,0,1,1,2.47-4.53A3.66,3.66,0,0,1,332.46,340.65Z"/><path class="cls-6" d="M73.21,299a3.64,3.64,0,1,1,2.47-4.52A3.64,3.64,0,0,1,73.21,299Z"/><path class="cls-6" d="M332.46,340.65a3.65,3.65,0,1,1,2.47-4.53A3.66,3.66,0,0,1,332.46,340.65Z"/><path class="cls-6" d="M665.59,284.56a3.65,3.65,0,1,1,2.47-4.53A3.66,3.66,0,0,1,665.59,284.56Z"/><path class="cls-6" d="M332.46,340.65a3.65,3.65,0,1,1,2.47-4.53A3.66,3.66,0,0,1,332.46,340.65Z"/><path class="cls-6" d="M54.85,521a3.64,3.64,0,1,1,2.46-4.52A3.64,3.64,0,0,1,54.85,521Z"/><path class="cls-6" d="M332.46,340.65a3.65,3.65,0,1,1,2.47-4.53A3.66,3.66,0,0,1,332.46,340.65Z"/><path class="cls-6" d="M520.92,361.27a3.65,3.65,0,1,1,2.48-4.53A3.64,3.64,0,0,1,520.92,361.27Z"/><path class="cls-6" d="M332.46,340.65a3.65,3.65,0,1,1,2.47-4.53A3.66,3.66,0,0,1,332.46,340.65Z"/><path class="cls-6" d="M520.92,361.27a3.65,3.65,0,1,1,2.48-4.53A3.64,3.64,0,0,1,520.92,361.27Z"/><path class="cls-6" d="M332.46,340.65a3.65,3.65,0,1,1,2.47-4.53A3.66,3.66,0,0,1,332.46,340.65Z"/><path class="cls-6" d="M665.59,284.56a3.65,3.65,0,1,1,2.47-4.53A3.66,3.66,0,0,1,665.59,284.56Z"/><path class="cls-6" d="M731.85,238.49a3.65,3.65,0,1,1,2.48-4.53A3.65,3.65,0,0,1,731.85,238.49Z"/><path class="cls-6" d="M726.48,323.67a3.65,3.65,0,1,1,2.47-4.53A3.64,3.64,0,0,1,726.48,323.67Z"/><path class="cls-6" d="M520.92,361.27a3.65,3.65,0,1,1,2.48-4.53A3.64,3.64,0,0,1,520.92,361.27Z"/><path class="cls-6" d="M520.92,361.27a3.65,3.65,0,1,1,2.48-4.53A3.64,3.64,0,0,1,520.92,361.27Z"/><path class="cls-6" d="M54.85,521a3.64,3.64,0,1,1,2.46-4.52A3.64,3.64,0,0,1,54.85,521Z"/><path class="cls-6" d="M54.85,521a3.64,3.64,0,1,1,2.46-4.52A3.64,3.64,0,0,1,54.85,521Z"/><path class="cls-6" d="M332.46,340.65a3.65,3.65,0,1,1,2.47-4.53A3.66,3.66,0,0,1,332.46,340.65Z"/><path class="cls-6" d="M665.59,284.56a3.65,3.65,0,1,1,2.47-4.53A3.66,3.66,0,0,1,665.59,284.56Z"/><path class="cls-6" d="M726.48,323.67a3.65,3.65,0,1,1,2.47-4.53A3.64,3.64,0,0,1,726.48,323.67Z"/><path class="cls-6" d="M520.92,361.27a3.65,3.65,0,1,1,2.48-4.53A3.64,3.64,0,0,1,520.92,361.27Z"/><path class="cls-6" d="M520.92,361.27a3.65,3.65,0,1,1,2.48-4.53A3.64,3.64,0,0,1,520.92,361.27Z"/><path class="cls-6" d="M665.59,284.56a3.65,3.65,0,1,1,2.47-4.53A3.66,3.66,0,0,1,665.59,284.56Z"/><path class="cls-6" d="M731.85,238.49a3.65,3.65,0,1,1,2.48-4.53A3.65,3.65,0,0,1,731.85,238.49Z"/><path class="cls-6" d="M726.48,323.67a3.65,3.65,0,1,1,2.47-4.53A3.64,3.64,0,0,1,726.48,323.67Z"/><path class="cls-6" d="M726.48,323.67a3.65,3.65,0,1,1,2.47-4.53A3.64,3.64,0,0,1,726.48,323.67Z"/><path class="cls-6" d="M665.59,284.56a3.65,3.65,0,1,1,2.47-4.53A3.66,3.66,0,0,1,665.59,284.56Z"/><path class="cls-6" d="M731.85,238.49a3.65,3.65,0,1,1,2.48-4.53A3.65,3.65,0,0,1,731.85,238.49Z"/><path class="cls-6" d="M726.48,323.67a3.65,3.65,0,1,1,2.47-4.53A3.64,3.64,0,0,1,726.48,323.67Z"/></g><g class="cls-5"><rect class="cls-6" x="518.19" y="338.36" width="208.97" height="1.22" transform="translate(-50.75 117.33) rotate(-10.34)"/><rect class="cls-6" x="518.19" y="338.36" width="208.97" height="1.22" transform="translate(-50.75 117.33) rotate(-10.34)"/><rect class="cls-6" x="685.47" y="276.97" width="85.35" height="1.22" transform="translate(405.76 987.02) rotate(-86.43)"/><polygon class="cls-6" points="520.2 358.3 519.59 357.24 730.52 234.46 731.14 235.51 520.2 358.3"/><polygon class="cls-6" points="520.2 358.3 519.59 357.24 730.52 234.46 731.14 235.51 520.2 358.3"/><polygon class="cls-6" points="53.33 517.89 -116.15 290.28 -115.18 289.55 54.3 517.16 53.33 517.89"/><rect class="cls-6" x="-35.03" y="261.55" width="1.22" height="286.39" transform="translate(-256.72 64.76) rotate(-38.04)"/><rect class="cls-6" x="-35.46" y="269.03" width="1.22" height="359.09" transform="translate(-223.85 40.27) rotate(-29.28)"/><rect class="cls-6" x="-31.96" y="268.78" width="1.22" height="357.53" transform="translate(-214.8 38.13) rotate(-28.14)"/><polygon class="cls-6" points="53.58 605.18 52.36 605.17 53.21 517.52 54.43 517.53 53.58 605.18"/><rect class="cls-6" x="657.34" y="257.41" width="80.71" height="1.22" transform="translate(-22.5 444.22) rotate(-34.79)"/><rect class="cls-6" x="694.4" y="264.43" width="1.22" height="72.37" transform="translate(66.5 722.97) rotate(-57.29)"/><rect class="cls-6" x="510.35" y="318.81" width="163.75" height="1.22" transform="translate(-80.63 314.78) rotate(-27.94)"/><rect class="cls-6" x="510.35" y="318.81" width="163.75" height="1.22" transform="translate(-80.63 314.78) rotate(-27.94)"/><rect class="cls-6" x="-92.55" y="449.74" width="310.25" height="1.22" transform="translate(-390.79 484.76) rotate(-86.43)"/><polygon class="cls-6" points="72.18 296.13 -122.67 292.58 -122.65 291.36 72.19 294.91 72.18 296.13"/><polygon class="cls-6" points="72.17 296.13 -115.69 290.52 -115.65 289.31 72.2 294.91 72.17 296.13"/><rect class="cls-6" x="-48.38" y="405.91" width="222.76" height="1.22" transform="translate(-347.32 435.96) rotate(-85.29)"/><rect class="cls-6" x="179.56" y="258.95" width="1.22" height="355.48" transform="translate(-228.25 199.3) rotate(-37.41)"/><rect class="cls-6" x="170.38" y="426.7" width="1.22" height="241.98" transform="translate(-402.05 576.69) rotate(-75.56)"/><polygon class="cls-6" points="288.57 578.31 287.74 577.43 519.47 357.33 520.31 358.21 288.57 578.31"/><polygon class="cls-6" points="288.57 578.31 287.74 577.43 519.47 357.33 520.31 358.21 288.57 578.31"/><polygon class="cls-6" points="288.75 577.98 287.56 577.76 330.83 337.04 332.03 337.26 288.75 577.98"/><polygon class="cls-6" points="331.33 337.75 72.09 296.12 72.28 294.92 331.53 336.55 331.33 337.75"/><polygon class="cls-6" points="331.53 337.75 331.33 336.55 664.46 280.46 664.66 281.66 331.53 337.75"/><polygon class="cls-6" points="54.15 518.03 53.48 517.01 331.1 336.64 331.76 337.66 54.15 518.03"/><rect class="cls-6" x="425.05" y="252.67" width="1.22" height="189.59" transform="translate(33.97 732.8) rotate(-83.76)"/><rect class="cls-6" x="425.05" y="252.67" width="1.22" height="189.59" transform="translate(33.97 732.8) rotate(-83.76)"/><polygon class="cls-6" points="708.74 575.81 663.96 281.15 665.16 280.97 709.95 575.63 708.74 575.81"/><rect class="cls-6" x="549.38" y="404.74" width="341.4" height="1.22" transform="matrix(0.06, -1, 1, 0.06, 270.5, 1098.68)"/><rect class="cls-6" x="589.37" y="447.33" width="256.06" height="1.22" transform="matrix(0.06, -1, 1, 0.06, 225.48, 1135.93)"/><rect class="cls-6" x="614.01" y="322.36" width="1.22" height="288.77" transform="translate(-155.45 517.69) rotate(-41)"/><rect class="cls-6" x="614.01" y="322.36" width="1.22" height="288.77" transform="translate(-155.45 517.69) rotate(-41)"/><polygon class="cls-6" points="-22.01 684.63 -23.12 684.12 53.26 517.27 54.37 517.78 -22.01 684.63"/><polygon class="cls-6" points="52.74 605.74 -270.26 476.45 -269.8 475.31 53.2 604.61 52.74 605.74"/><polygon class="cls-6" points="53.74 518.13 -270.11 476.48 -269.96 475.27 53.89 516.92 53.74 518.13"/><rect class="cls-6" x="432.53" y="303.95" width="1.22" height="344.83" transform="translate(-197.62 347.23) rotate(-36.15)"/><polygon class="cls-6" points="535.42 615.81 534.28 615.37 663.99 280.84 665.13 281.28 535.42 615.81"/><rect class="cls-6" x="454.37" y="467.27" width="351.57" height="1.22" transform="translate(-104.83 743.21) rotate(-57.13)"/><rect class="cls-6" x="526.76" y="357.55" width="1.22" height="258.25" transform="translate(-27.3 31.36) rotate(-3.32)"/><rect class="cls-6" x="526.76" y="357.55" width="1.22" height="258.25" transform="translate(-27.3 31.36) rotate(-3.32)"/><polygon class="cls-6" points="664.71 281.65 664.41 280.47 908.87 220.04 909.16 221.22 664.71 281.65"/><polygon class="cls-6" points="730.88 235.6 730.78 234.38 908.97 220.03 909.06 221.24 730.88 235.6"/><rect class="cls-6" x="712.83" y="269.79" width="208.81" height="1.22" transform="translate(-30.1 422.09) rotate(-28.46)"/><polygon class="cls-6" points="904.48 621.14 724.93 320.48 725.98 319.86 905.53 620.51 904.48 621.14"/><rect class="cls-6" x="696.51" y="515.78" width="287.2" height="1.22" transform="translate(-138.47 394.61) rotate(-24.48)"/><polygon class="cls-6" points="970.58 457.59 664.26 281.59 664.87 280.53 971.19 456.53 970.58 457.59"/><rect class="cls-6" x="850.25" y="182.51" width="1.22" height="327.02" transform="translate(19.06 735.64) rotate(-47.23)"/><polygon class="cls-6" points="970.59 457.59 725.16 320.7 725.75 319.63 971.18 456.53 970.59 457.59"/><path class="cls-6" d="M520.92,361.27a3.65,3.65,0,1,1,2.48-4.53A3.64,3.64,0,0,1,520.92,361.27Z"/><path class="cls-6" d="M726.48,323.67a3.65,3.65,0,1,1,2.47-4.53A3.64,3.64,0,0,1,726.48,323.67Z"/><path class="cls-6" d="M520.92,361.27a3.65,3.65,0,1,1,2.48-4.53A3.64,3.64,0,0,1,520.92,361.27Z"/><path class="cls-6" d="M726.48,323.67a3.65,3.65,0,1,1,2.47-4.53A3.64,3.64,0,0,1,726.48,323.67Z"/><path class="cls-6" d="M726.48,323.67a3.65,3.65,0,1,1,2.47-4.53A3.64,3.64,0,0,1,726.48,323.67Z"/><path class="cls-6" d="M731.85,238.49a3.65,3.65,0,1,1,2.48-4.53A3.65,3.65,0,0,1,731.85,238.49Z"/><path class="cls-6" d="M520.92,361.27a3.65,3.65,0,1,1,2.48-4.53A3.64,3.64,0,0,1,520.92,361.27Z"/><path class="cls-6" d="M731.85,238.49a3.65,3.65,0,1,1,2.48-4.53A3.65,3.65,0,0,1,731.85,238.49Z"/><path class="cls-6" d="M520.92,361.27a3.65,3.65,0,1,1,2.48-4.53A3.64,3.64,0,0,1,520.92,361.27Z"/><path class="cls-6" d="M731.85,238.49a3.65,3.65,0,1,1,2.48-4.53A3.65,3.65,0,0,1,731.85,238.49Z"/><path class="cls-6" d="M54.85,521a3.64,3.64,0,1,1,2.46-4.52A3.64,3.64,0,0,1,54.85,521Z"/><path class="cls-6" d="M54.85,521a3.64,3.64,0,1,1,2.46-4.52A3.64,3.64,0,0,1,54.85,521Z"/><path class="cls-6" d="M54.85,521a3.64,3.64,0,1,1,2.46-4.52A3.64,3.64,0,0,1,54.85,521Z"/><path class="cls-6" d="M731.85,238.49a3.65,3.65,0,1,1,2.48-4.53A3.65,3.65,0,0,1,731.85,238.49Z"/><path class="cls-6" d="M665.59,284.56a3.65,3.65,0,1,1,2.47-4.53A3.66,3.66,0,0,1,665.59,284.56Z"/><path class="cls-6" d="M726.48,323.67a3.65,3.65,0,1,1,2.47-4.53A3.64,3.64,0,0,1,726.48,323.67Z"/><path class="cls-6" d="M665.59,284.56a3.65,3.65,0,1,1,2.47-4.53A3.66,3.66,0,0,1,665.59,284.56Z"/><path class="cls-6" d="M520.92,361.27a3.65,3.65,0,1,1,2.48-4.53A3.64,3.64,0,0,1,520.92,361.27Z"/><path class="cls-6" d="M665.59,284.56a3.65,3.65,0,1,1,2.47-4.53A3.66,3.66,0,0,1,665.59,284.56Z"/><path class="cls-6" d="M520.92,361.27a3.65,3.65,0,1,1,2.48-4.53A3.64,3.64,0,0,1,520.92,361.27Z"/><path class="cls-6" d="M665.59,284.56a3.65,3.65,0,1,1,2.47-4.53A3.66,3.66,0,0,1,665.59,284.56Z"/><path class="cls-6" d="M73.21,299a3.64,3.64,0,1,1,2.47-4.52A3.64,3.64,0,0,1,73.21,299Z"/><path class="cls-6" d="M73.21,299a3.64,3.64,0,1,1,2.47-4.52A3.64,3.64,0,0,1,73.21,299Z"/><path class="cls-6" d="M73.21,299a3.64,3.64,0,1,1,2.47-4.52A3.64,3.64,0,0,1,73.21,299Z"/><path class="cls-6" d="M54.85,521a3.64,3.64,0,1,1,2.46-4.52A3.64,3.64,0,0,1,54.85,521Z"/><path class="cls-6" d="M73.21,299a3.64,3.64,0,1,1,2.47-4.52A3.64,3.64,0,0,1,73.21,299Z"/><path class="cls-6" d="M73.21,299a3.64,3.64,0,1,1,2.47-4.52A3.64,3.64,0,0,1,73.21,299Z"/><path class="cls-6" d="M54.85,521a3.64,3.64,0,1,1,2.46-4.52A3.64,3.64,0,0,1,54.85,521Z"/><path class="cls-6" d="M520.92,361.27a3.65,3.65,0,1,1,2.48-4.53A3.64,3.64,0,0,1,520.92,361.27Z"/><path class="cls-6" d="M520.92,361.27a3.65,3.65,0,1,1,2.48-4.53A3.64,3.64,0,0,1,520.92,361.27Z"/><path class="cls-6" d="M332.46,340.65a3.65,3.65,0,1,1,2.47-4.53A3.66,3.66,0,0,1,332.46,340.65Z"/><path class="cls-6" d="M73.21,299a3.64,3.64,0,1,1,2.47-4.52A3.64,3.64,0,0,1,73.21,299Z"/><path class="cls-6" d="M332.46,340.65a3.65,3.65,0,1,1,2.47-4.53A3.66,3.66,0,0,1,332.46,340.65Z"/><path class="cls-6" d="M665.59,284.56a3.65,3.65,0,1,1,2.47-4.53A3.66,3.66,0,0,1,665.59,284.56Z"/><path class="cls-6" d="M332.46,340.65a3.65,3.65,0,1,1,2.47-4.53A3.66,3.66,0,0,1,332.46,340.65Z"/><path class="cls-6" d="M54.85,521a3.64,3.64,0,1,1,2.46-4.52A3.64,3.64,0,0,1,54.85,521Z"/><path class="cls-6" d="M332.46,340.65a3.65,3.65,0,1,1,2.47-4.53A3.66,3.66,0,0,1,332.46,340.65Z"/><path class="cls-6" d="M520.92,361.27a3.65,3.65,0,1,1,2.48-4.53A3.64,3.64,0,0,1,520.92,361.27Z"/><path class="cls-6" d="M332.46,340.65a3.65,3.65,0,1,1,2.47-4.53A3.66,3.66,0,0,1,332.46,340.65Z"/><path class="cls-6" d="M520.92,361.27a3.65,3.65,0,1,1,2.48-4.53A3.64,3.64,0,0,1,520.92,361.27Z"/><path class="cls-6" d="M332.46,340.65a3.65,3.65,0,1,1,2.47-4.53A3.66,3.66,0,0,1,332.46,340.65Z"/><path class="cls-6" d="M665.59,284.56a3.65,3.65,0,1,1,2.47-4.53A3.66,3.66,0,0,1,665.59,284.56Z"/><path class="cls-6" d="M731.85,238.49a3.65,3.65,0,1,1,2.48-4.53A3.65,3.65,0,0,1,731.85,238.49Z"/><path class="cls-6" d="M726.48,323.67a3.65,3.65,0,1,1,2.47-4.53A3.64,3.64,0,0,1,726.48,323.67Z"/><path class="cls-6" d="M520.92,361.27a3.65,3.65,0,1,1,2.48-4.53A3.64,3.64,0,0,1,520.92,361.27Z"/><path class="cls-6" d="M520.92,361.27a3.65,3.65,0,1,1,2.48-4.53A3.64,3.64,0,0,1,520.92,361.27Z"/><path class="cls-6" d="M54.85,521a3.64,3.64,0,1,1,2.46-4.52A3.64,3.64,0,0,1,54.85,521Z"/><path class="cls-6" d="M54.85,521a3.64,3.64,0,1,1,2.46-4.52A3.64,3.64,0,0,1,54.85,521Z"/><path class="cls-6" d="M332.46,340.65a3.65,3.65,0,1,1,2.47-4.53A3.66,3.66,0,0,1,332.46,340.65Z"/><path class="cls-6" d="M665.59,284.56a3.65,3.65,0,1,1,2.47-4.53A3.66,3.66,0,0,1,665.59,284.56Z"/><path class="cls-6" d="M726.48,323.67a3.65,3.65,0,1,1,2.47-4.53A3.64,3.64,0,0,1,726.48,323.67Z"/><path class="cls-6" d="M520.92,361.27a3.65,3.65,0,1,1,2.48-4.53A3.64,3.64,0,0,1,520.92,361.27Z"/><path class="cls-6" d="M520.92,361.27a3.65,3.65,0,1,1,2.48-4.53A3.64,3.64,0,0,1,520.92,361.27Z"/><path class="cls-6" d="M665.59,284.56a3.65,3.65,0,1,1,2.47-4.53A3.66,3.66,0,0,1,665.59,284.56Z"/><path class="cls-6" d="M731.85,238.49a3.65,3.65,0,1,1,2.48-4.53A3.65,3.65,0,0,1,731.85,238.49Z"/><path class="cls-6" d="M726.48,323.67a3.65,3.65,0,1,1,2.47-4.53A3.64,3.64,0,0,1,726.48,323.67Z"/><path class="cls-6" d="M726.48,323.67a3.65,3.65,0,1,1,2.47-4.53A3.64,3.64,0,0,1,726.48,323.67Z"/><path class="cls-6" d="M665.59,284.56a3.65,3.65,0,1,1,2.47-4.53A3.66,3.66,0,0,1,665.59,284.56Z"/><path class="cls-6" d="M731.85,238.49a3.65,3.65,0,1,1,2.48-4.53A3.65,3.65,0,0,1,731.85,238.49Z"/><path class="cls-6" d="M726.48,323.67a3.65,3.65,0,1,1,2.47-4.53A3.64,3.64,0,0,1,726.48,323.67Z"/></g><g class="cls-7"><path class="cls-8" d="M142.46,429a10.65,10.65,0,1,1-10.9-10.38A10.64,10.64,0,0,1,142.46,429Z"/></g><g class="cls-7"><path class="cls-9" d="M131.46,496.5a10.77,10.77,0,1,1-11-10.51A10.78,10.78,0,0,1,131.46,496.5Z"/></g><g class="cls-7"><path class="cls-10" d="M124.77,353.89a10.06,10.06,0,1,1-10.3-9.8A10.06,10.06,0,0,1,124.77,353.89Z"/></g><g class="cls-7"><path class="cls-11" d="M26.51,540.92a7.14,7.14,0,1,1-7.31-7A7.13,7.13,0,0,1,26.51,540.92Z"/></g><g class="cls-7"><path class="cls-12" d="M18.65,483.16a17.38,17.38,0,1,1-17.8-17A17.37,17.37,0,0,1,18.65,483.16Z"/></g><g class="cls-7"><path class="cls-13" d="M244.16,487.39a10,10,0,1,1-10.26-9.76A10,10,0,0,1,244.16,487.39Z"/></g><g class="cls-7"><path class="cls-14" d="M138.66,432.56a11.32,11.32,0,1,1-11.6-11A11.33,11.33,0,0,1,138.66,432.56Z"/></g><g class="cls-7"><path class="cls-15" d="M23.94,444.36a19.38,19.38,0,1,1-19.85-18.9A19.38,19.38,0,0,1,23.94,444.36Z"/></g><g class="cls-7"><path class="cls-16" d="M709.11,332.43a10,10,0,1,1-10.3-9.8A10.05,10.05,0,0,1,709.11,332.43Z"/></g><g class="cls-7"><path class="cls-17" d="M591.87,468.51a12.73,12.73,0,1,1-13-12.41A12.74,12.74,0,0,1,591.87,468.51Z"/></g><g class="cls-7"><path class="cls-18" d="M644.5,439.11a12.73,12.73,0,1,1-13-12.41A12.73,12.73,0,0,1,644.5,439.11Z"/></g><g class="cls-7"><path class="cls-19" d="M752.1,456.75a12.72,12.72,0,1,1-13-12.41A12.74,12.74,0,0,1,752.1,456.75Z"/></g><g class="cls-7"><path class="cls-20" d="M723.88,442.39a13.45,13.45,0,1,1-13.78-13.12A13.45,13.45,0,0,1,723.88,442.39Z"/></g><g class="cls-21"><g class="cls-5"><polygon class="cls-6" points="62.03 545.99 -233.96 148.48 -232.98 147.75 63.02 545.26 62.03 545.99"/><rect class="cls-6" x="-92.19" y="98.58" width="1.22" height="500.17" transform="translate(-234.31 17.63) rotate(-38.04)"/><polygon class="cls-6" points="60.52 699 -246.22 152 -245.15 151.41 61.58 698.41 60.52 699"/><rect class="cls-6" x="-86.82" y="111.21" width="1.22" height="624.41" transform="translate(-209.9 9.4) rotate(-28.14)"/><polygon class="cls-6" points="61.66 698.71 60.44 698.7 61.92 545.62 63.13 545.63 61.66 698.71"/><rect class="cls-6" x="-193.09" y="427.69" width="541.84" height="1.22" transform="translate(-354.49 479.31) rotate(-86.43)"/><polygon class="cls-6" points="94.6 158.51 -245.69 152.31 -245.68 151.1 94.62 157.29 94.6 158.51"/><polygon class="cls-6" points="94.59 158.51 -233.49 148.73 -233.45 147.51 94.63 157.29 94.59 158.51"/><polygon class="cls-6" points="63.13 545.68 61.92 545.58 94 157.85 95.22 157.95 63.13 545.68"/><rect class="cls-6" x="282.59" y="94.05" width="1.22" height="620.83" transform="translate(-187.47 255.27) rotate(-37.41)"/><rect class="cls-6" x="266.55" y="387.01" width="1.22" height="422.62" transform="translate(-378.88 707.83) rotate(-75.56)"/><polygon class="cls-6" points="472.21 651.46 471.38 650.58 876.09 266.18 876.93 267.07 472.21 651.46"/><polygon class="cls-6" points="472.21 651.46 471.38 650.58 876.09 266.18 876.93 267.07 472.21 651.46"/><rect class="cls-6" x="296.01" y="440.21" width="427.14" height="1.22" transform="translate(-13.87 865.06) rotate(-79.89)"/><polygon class="cls-6" points="547.27 231.22 94.51 158.51 94.7 157.3 547.46 230.01 547.27 231.22"/><polygon class="cls-6" points="547.47 231.21 547.26 230.01 1129.06 132.06 1129.27 133.25 547.47 231.21"/><polygon class="cls-6" points="62.85 546.14 62.2 545.11 547.03 230.1 547.7 231.13 62.85 546.14"/><polygon class="cls-6" points="876.45 267.23 547.3 231.22 547.43 230.01 876.58 266.02 876.45 267.23"/><polygon class="cls-6" points="876.45 267.23 547.3 231.22 547.43 230.01 876.58 266.02 876.45 267.23"/><rect class="cls-6" x="-164.41" y="690.71" width="320.47" height="1.22" transform="translate(-630.65 398.97) rotate(-65.33)"/><polygon class="cls-6" points="-378.37 522.15 -378.37 523.47 60.83 699.27 61.27 698.14 -378.37 522.15"/><polygon class="cls-6" points="-378.37 488.32 -378.37 489.55 62.45 546.23 62.61 545.02 -378.37 488.32"/><rect class="cls-6" x="724.39" y="172.64" width="1.22" height="602.23" transform="matrix(0.81, -0.59, 0.59, 0.81, -139.89, 518.9)"/><path class="cls-6" d="M64.32,551.74a6.37,6.37,0,1,1,4.31-7.91A6.36,6.36,0,0,1,64.32,551.74Z"/><path class="cls-6" d="M64.32,551.74a6.37,6.37,0,1,1,4.31-7.91A6.36,6.36,0,0,1,64.32,551.74Z"/><path class="cls-6" d="M64.32,551.74a6.37,6.37,0,1,1,4.31-7.91A6.36,6.36,0,0,1,64.32,551.74Z"/><path class="cls-6" d="M96.4,164a6.37,6.37,0,1,1,4.32-7.9A6.36,6.36,0,0,1,96.4,164Z"/><path class="cls-6" d="M96.4,164a6.37,6.37,0,1,1,4.32-7.9A6.36,6.36,0,0,1,96.4,164Z"/><path class="cls-6" d="M96.4,164a6.37,6.37,0,1,1,4.32-7.9A6.36,6.36,0,0,1,96.4,164Z"/><path class="cls-6" d="M64.32,551.74a6.37,6.37,0,1,1,4.31-7.91A6.36,6.36,0,0,1,64.32,551.74Z"/><path class="cls-6" d="M96.4,164a6.37,6.37,0,1,1,4.32-7.9A6.36,6.36,0,0,1,96.4,164Z"/><path class="cls-6" d="M96.4,164a6.37,6.37,0,1,1,4.32-7.9A6.36,6.36,0,0,1,96.4,164Z"/><path class="cls-6" d="M64.32,551.74a6.37,6.37,0,1,1,4.31-7.91A6.36,6.36,0,0,1,64.32,551.74Z"/><path class="cls-6" d="M549.16,236.72a6.37,6.37,0,1,1,4.31-7.9A6.37,6.37,0,0,1,549.16,236.72Z"/><path class="cls-6" d="M96.4,164a6.37,6.37,0,1,1,4.32-7.9A6.36,6.36,0,0,1,96.4,164Z"/><path class="cls-6" d="M549.16,236.72a6.37,6.37,0,1,1,4.31-7.9A6.37,6.37,0,0,1,549.16,236.72Z"/><path class="cls-6" d="M549.16,236.72a6.37,6.37,0,1,1,4.31-7.9A6.37,6.37,0,0,1,549.16,236.72Z"/><path class="cls-6" d="M64.32,551.74a6.37,6.37,0,1,1,4.31-7.91A6.36,6.36,0,0,1,64.32,551.74Z"/><path class="cls-6" d="M549.16,236.72a6.37,6.37,0,1,1,4.31-7.9A6.37,6.37,0,0,1,549.16,236.72Z"/><path class="cls-6" d="M549.16,236.72a6.37,6.37,0,1,1,4.31-7.9A6.37,6.37,0,0,1,549.16,236.72Z"/><path class="cls-6" d="M549.16,236.72a6.37,6.37,0,1,1,4.31-7.9A6.37,6.37,0,0,1,549.16,236.72Z"/><path class="cls-6" d="M64.32,551.74a6.37,6.37,0,1,1,4.31-7.91A6.36,6.36,0,0,1,64.32,551.74Z"/><path class="cls-6" d="M64.32,551.74a6.37,6.37,0,1,1,4.31-7.91A6.36,6.36,0,0,1,64.32,551.74Z"/><path class="cls-6" d="M549.16,236.72a6.37,6.37,0,1,1,4.31-7.9A6.37,6.37,0,0,1,549.16,236.72Z"/></g><g class="cls-5"><polygon class="cls-6" points="62.03 545.99 -233.96 148.48 -232.98 147.75 63.02 545.26 62.03 545.99"/><rect class="cls-6" x="-92.19" y="98.58" width="1.22" height="500.17" transform="translate(-234.31 17.63) rotate(-38.04)"/><polygon class="cls-6" points="60.52 699 -246.22 152 -245.15 151.41 61.58 698.41 60.52 699"/><rect class="cls-6" x="-86.82" y="111.21" width="1.22" height="624.41" transform="translate(-209.9 9.4) rotate(-28.14)"/><polygon class="cls-6" points="61.66 698.71 60.44 698.7 61.92 545.62 63.13 545.63 61.66 698.71"/><rect class="cls-6" x="-193.09" y="427.69" width="541.84" height="1.22" transform="translate(-354.49 479.31) rotate(-86.43)"/><polygon class="cls-6" points="94.6 158.51 -245.69 152.31 -245.68 151.1 94.62 157.29 94.6 158.51"/><polygon class="cls-6" points="94.59 158.51 -233.49 148.73 -233.45 147.51 94.63 157.29 94.59 158.51"/><polygon class="cls-6" points="63.13 545.68 61.92 545.58 94 157.85 95.22 157.95 63.13 545.68"/><rect class="cls-6" x="282.59" y="94.05" width="1.22" height="620.83" transform="translate(-187.47 255.27) rotate(-37.41)"/><rect class="cls-6" x="266.55" y="387.01" width="1.22" height="422.62" transform="translate(-378.88 707.83) rotate(-75.56)"/><polygon class="cls-6" points="472.21 651.46 471.38 650.58 876.09 266.18 876.93 267.07 472.21 651.46"/><polygon class="cls-6" points="472.21 651.46 471.38 650.58 876.09 266.18 876.93 267.07 472.21 651.46"/><rect class="cls-6" x="296.01" y="440.21" width="427.14" height="1.22" transform="translate(-13.87 865.06) rotate(-79.89)"/><polygon class="cls-6" points="547.27 231.22 94.51 158.51 94.7 157.3 547.46 230.01 547.27 231.22"/><polygon class="cls-6" points="547.47 231.21 547.26 230.01 1129.06 132.06 1129.27 133.25 547.47 231.21"/><polygon class="cls-6" points="62.85 546.14 62.2 545.11 547.03 230.1 547.7 231.13 62.85 546.14"/><polygon class="cls-6" points="876.45 267.23 547.3 231.22 547.43 230.01 876.58 266.02 876.45 267.23"/><polygon class="cls-6" points="876.45 267.23 547.3 231.22 547.43 230.01 876.58 266.02 876.45 267.23"/><rect class="cls-6" x="-164.41" y="690.71" width="320.47" height="1.22" transform="translate(-630.65 398.97) rotate(-65.33)"/><polygon class="cls-6" points="-378.37 522.15 -378.37 523.47 60.83 699.27 61.27 698.14 -378.37 522.15"/><polygon class="cls-6" points="-378.37 488.32 -378.37 489.55 62.45 546.23 62.61 545.02 -378.37 488.32"/><rect class="cls-6" x="724.39" y="172.64" width="1.22" height="602.23" transform="matrix(0.81, -0.59, 0.59, 0.81, -139.89, 518.9)"/><path class="cls-6" d="M64.32,551.74a6.37,6.37,0,1,1,4.31-7.91A6.36,6.36,0,0,1,64.32,551.74Z"/><path class="cls-6" d="M64.32,551.74a6.37,6.37,0,1,1,4.31-7.91A6.36,6.36,0,0,1,64.32,551.74Z"/><path class="cls-6" d="M64.32,551.74a6.37,6.37,0,1,1,4.31-7.91A6.36,6.36,0,0,1,64.32,551.74Z"/><path class="cls-6" d="M96.4,164a6.37,6.37,0,1,1,4.32-7.9A6.36,6.36,0,0,1,96.4,164Z"/><path class="cls-6" d="M96.4,164a6.37,6.37,0,1,1,4.32-7.9A6.36,6.36,0,0,1,96.4,164Z"/><path class="cls-6" d="M96.4,164a6.37,6.37,0,1,1,4.32-7.9A6.36,6.36,0,0,1,96.4,164Z"/><path class="cls-6" d="M64.32,551.74a6.37,6.37,0,1,1,4.31-7.91A6.36,6.36,0,0,1,64.32,551.74Z"/><path class="cls-6" d="M96.4,164a6.37,6.37,0,1,1,4.32-7.9A6.36,6.36,0,0,1,96.4,164Z"/><path class="cls-6" d="M96.4,164a6.37,6.37,0,1,1,4.32-7.9A6.36,6.36,0,0,1,96.4,164Z"/><path class="cls-6" d="M64.32,551.74a6.37,6.37,0,1,1,4.31-7.91A6.36,6.36,0,0,1,64.32,551.74Z"/><path class="cls-6" d="M549.16,236.72a6.37,6.37,0,1,1,4.31-7.9A6.37,6.37,0,0,1,549.16,236.72Z"/><path class="cls-6" d="M96.4,164a6.37,6.37,0,1,1,4.32-7.9A6.36,6.36,0,0,1,96.4,164Z"/><path class="cls-6" d="M549.16,236.72a6.37,6.37,0,1,1,4.31-7.9A6.37,6.37,0,0,1,549.16,236.72Z"/><path class="cls-6" d="M549.16,236.72a6.37,6.37,0,1,1,4.31-7.9A6.37,6.37,0,0,1,549.16,236.72Z"/><path class="cls-6" d="M64.32,551.74a6.37,6.37,0,1,1,4.31-7.91A6.36,6.36,0,0,1,64.32,551.74Z"/><path class="cls-6" d="M549.16,236.72a6.37,6.37,0,1,1,4.31-7.9A6.37,6.37,0,0,1,549.16,236.72Z"/><path class="cls-6" d="M549.16,236.72a6.37,6.37,0,1,1,4.31-7.9A6.37,6.37,0,0,1,549.16,236.72Z"/><path class="cls-6" d="M549.16,236.72a6.37,6.37,0,1,1,4.31-7.9A6.37,6.37,0,0,1,549.16,236.72Z"/><path class="cls-6" d="M64.32,551.74a6.37,6.37,0,1,1,4.31-7.91A6.36,6.36,0,0,1,64.32,551.74Z"/><path class="cls-6" d="M64.32,551.74a6.37,6.37,0,1,1,4.31-7.91A6.36,6.36,0,0,1,64.32,551.74Z"/><path class="cls-6" d="M549.16,236.72a6.37,6.37,0,1,1,4.31-7.9A6.37,6.37,0,0,1,549.16,236.72Z"/></g></g><g class="cls-22"><g class="cls-5"><rect class="cls-6" x="2.41" y="220.71" width="364.96" height="1.22" transform="translate(-36.71 36.76) rotate(-10.33)"/><rect class="cls-6" x="2.41" y="220.71" width="364.96" height="1.22" transform="translate(-36.71 36.76) rotate(-10.33)"/><rect class="cls-6" x="294.55" y="113.5" width="149.05" height="1.22" transform="translate(232.12 475.33) rotate(-86.42)"/><polygon class="cls-6" points="5.69 254.69 5.08 253.63 373.46 39.2 374.08 40.25 5.69 254.69"/><polygon class="cls-6" points="5.69 254.69 5.08 253.63 373.46 39.2 374.08 40.25 5.69 254.69"/><rect class="cls-6" x="245.42" y="79.35" width="140.96" height="1.22" transform="translate(10.89 194.66) rotate(-34.81)"/><rect class="cls-6" x="310.6" y="91.14" width="1.22" height="126.4" transform="translate(13.18 332.81) rotate(-57.29)"/><rect class="cls-6" x="-11.28" y="186.57" width="285.97" height="1.22" transform="translate(-72.4 83.64) rotate(-27.97)"/><rect class="cls-6" x="-11.28" y="186.57" width="285.97" height="1.22" transform="translate(-72.4 83.64) rotate(-27.97)"/><polygon class="cls-6" points="-378.37 619.49 5.8 254.6 4.96 253.72 -378.37 617.81 -378.37 619.49"/><polygon class="cls-6" points="-378.37 619.49 5.8 254.6 4.96 253.72 -378.37 617.81 -378.37 619.49"/><polygon class="cls-6" points="-323.66 218.75 -323.87 217.55 257.93 119.59 258.13 120.79 -323.66 218.75"/><rect class="cls-6" x="-159.8" y="70.6" width="1.22" height="331.11" transform="translate(-376.63 52.22) rotate(-83.76)"/><rect class="cls-6" x="-159.8" y="70.6" width="1.22" height="331.11" transform="translate(-376.63 52.22) rotate(-83.76)"/><polygon class="cls-6" points="335.64 634.88 257.43 120.28 258.64 120.1 336.85 634.7 335.64 634.88"/><rect class="cls-6" x="56.89" y="336.65" width="596.24" height="1.22" transform="translate(-3.84 670.43) rotate(-86.41)"/><rect class="cls-6" x="126.72" y="411.03" width="447.19" height="1.22" transform="matrix(0.06, -1, 1, 0.06, -82.55, 735.36)"/><rect class="cls-6" x="170.21" y="192.31" width="1.22" height="504.33" transform="translate(-249.7 221.08) rotate(-41)"/><rect class="cls-6" x="170.21" y="192.31" width="1.22" height="504.33" transform="translate(-249.7 221.08) rotate(-41)"/><polygon class="cls-6" points="31 704.79 -324.26 218.51 -323.27 217.79 32 704.07 31 704.79"/><polygon class="cls-6" points="32.07 704.65 30.93 704.21 257.47 119.97 258.6 120.41 32.07 704.65"/><polygon class="cls-6" points="32.01 704.76 30.98 704.1 363.88 188.16 364.9 188.82 32.01 704.76"/><rect class="cls-6" x="17.83" y="253.78" width="1.22" height="451.02" transform="translate(-27.72 1.87) rotate(-3.32)"/><rect class="cls-6" x="17.83" y="253.78" width="1.22" height="451.02" transform="translate(-27.72 1.87) rotate(-3.32)"/><polygon class="cls-6" points="1142.58 259.27 685.25 14.12 684.67 15.19 1142.58 260.66 1142.58 259.27"/><polygon class="cls-6" points="258.18 120.78 257.89 119.6 684.82 14.06 685.11 15.25 258.18 120.78"/><polygon class="cls-6" points="373.82 40.34 373.72 39.12 684.91 14.05 685.01 15.26 373.82 40.34"/><rect class="cls-6" x="342.34" y="100.96" width="364.67" height="1.22" transform="translate(15.04 262.41) rotate(-28.47)"/><rect class="cls-6" x="520.56" y="145.23" width="1.22" height="611.59" transform="translate(-157.54 331.01) rotate(-30.85)"/><rect class="cls-6" x="581.34" y="569.96" width="308.29" height="1.22" transform="translate(-68.89 1039.05) rotate(-68.02)"/><rect class="cls-6" x="738.38" y="7.7" width="1.22" height="426.81" transform="translate(-31.9 194.3) rotate(-14.67)"/><rect class="cls-6" x="313.84" y="530.57" width="501.58" height="1.22" transform="translate(-169.28 281.5) rotate(-24.46)"/><polygon class="cls-6" points="792.72 428.09 257.73 120.72 258.34 119.66 793.33 427.04 792.72 428.09"/><rect class="cls-6" x="582.78" y="-51.92" width="1.22" height="571.13" transform="translate(15.71 503.24) rotate(-47.23)"/><rect class="cls-6" x="578.09" y="62.63" width="1.22" height="490.8" transform="translate(27.8 663.38) rotate(-60.85)"/><path class="cls-6" d="M7.18,260.27a6.37,6.37,0,1,1,4.31-7.9A6.37,6.37,0,0,1,7.18,260.27Z"/><path class="cls-6" d="M366.18,194.6a6.36,6.36,0,1,1,4.31-7.9A6.38,6.38,0,0,1,366.18,194.6Z"/><path class="cls-6" d="M7.18,260.27a6.37,6.37,0,1,1,4.31-7.9A6.37,6.37,0,0,1,7.18,260.27Z"/><path class="cls-6" d="M366.18,194.6a6.36,6.36,0,1,1,4.31-7.9A6.38,6.38,0,0,1,366.18,194.6Z"/><path class="cls-6" d="M366.18,194.6a6.36,6.36,0,1,1,4.31-7.9A6.38,6.38,0,0,1,366.18,194.6Z"/><path class="cls-6" d="M375.56,45.84a6.37,6.37,0,1,1,4.32-7.91A6.36,6.36,0,0,1,375.56,45.84Z"/><path class="cls-6" d="M7.18,260.27a6.37,6.37,0,1,1,4.31-7.9A6.37,6.37,0,0,1,7.18,260.27Z"/><path class="cls-6" d="M375.56,45.84a6.37,6.37,0,1,1,4.32-7.91A6.36,6.36,0,0,1,375.56,45.84Z"/><path class="cls-6" d="M7.18,260.27a6.37,6.37,0,1,1,4.31-7.9A6.37,6.37,0,0,1,7.18,260.27Z"/><path class="cls-6" d="M375.56,45.84a6.37,6.37,0,1,1,4.32-7.91A6.36,6.36,0,0,1,375.56,45.84Z"/><path class="cls-6" d="M375.56,45.84a6.37,6.37,0,1,1,4.32-7.91A6.36,6.36,0,0,1,375.56,45.84Z"/><path class="cls-6" d="M259.83,126.3a6.37,6.37,0,1,1,4.32-7.9A6.36,6.36,0,0,1,259.83,126.3Z"/><path class="cls-6" d="M366.18,194.6a6.36,6.36,0,1,1,4.31-7.9A6.38,6.38,0,0,1,366.18,194.6Z"/><path class="cls-6" d="M259.83,126.3a6.37,6.37,0,1,1,4.32-7.9A6.36,6.36,0,0,1,259.83,126.3Z"/><path class="cls-6" d="M7.18,260.27a6.37,6.37,0,1,1,4.31-7.9A6.37,6.37,0,0,1,7.18,260.27Z"/><path class="cls-6" d="M259.83,126.3a6.37,6.37,0,1,1,4.32-7.9A6.36,6.36,0,0,1,259.83,126.3Z"/><path class="cls-6" d="M7.18,260.27a6.37,6.37,0,1,1,4.31-7.9A6.37,6.37,0,0,1,7.18,260.27Z"/><path class="cls-6" d="M259.83,126.3a6.37,6.37,0,1,1,4.32-7.9A6.36,6.36,0,0,1,259.83,126.3Z"/><path class="cls-6" d="M7.18,260.27a6.37,6.37,0,1,1,4.31-7.9A6.37,6.37,0,0,1,7.18,260.27Z"/><path class="cls-6" d="M7.18,260.27a6.37,6.37,0,1,1,4.31-7.9A6.37,6.37,0,0,1,7.18,260.27Z"/><path class="cls-6" d="M259.83,126.3a6.37,6.37,0,1,1,4.32-7.9A6.36,6.36,0,0,1,259.83,126.3Z"/><path class="cls-6" d="M7.18,260.27a6.37,6.37,0,1,1,4.31-7.9A6.37,6.37,0,0,1,7.18,260.27Z"/><path class="cls-6" d="M7.18,260.27a6.37,6.37,0,1,1,4.31-7.9A6.37,6.37,0,0,1,7.18,260.27Z"/><path class="cls-6" d="M259.83,126.3a6.37,6.37,0,1,1,4.32-7.9A6.36,6.36,0,0,1,259.83,126.3Z"/><path class="cls-6" d="M375.56,45.84a6.37,6.37,0,1,1,4.32-7.91A6.36,6.36,0,0,1,375.56,45.84Z"/><path class="cls-6" d="M366.18,194.6a6.36,6.36,0,1,1,4.31-7.9A6.38,6.38,0,0,1,366.18,194.6Z"/><path class="cls-6" d="M7.18,260.27a6.37,6.37,0,1,1,4.31-7.9A6.37,6.37,0,0,1,7.18,260.27Z"/><path class="cls-6" d="M7.18,260.27a6.37,6.37,0,1,1,4.31-7.9A6.37,6.37,0,0,1,7.18,260.27Z"/><path class="cls-6" d="M259.83,126.3a6.37,6.37,0,1,1,4.32-7.9A6.36,6.36,0,0,1,259.83,126.3Z"/><path class="cls-6" d="M366.18,194.6a6.36,6.36,0,1,1,4.31-7.9A6.38,6.38,0,0,1,366.18,194.6Z"/><path class="cls-6" d="M7.18,260.27a6.37,6.37,0,1,1,4.31-7.9A6.37,6.37,0,0,1,7.18,260.27Z"/><path class="cls-6" d="M7.18,260.27a6.37,6.37,0,1,1,4.31-7.9A6.37,6.37,0,0,1,7.18,260.27Z"/><path class="cls-6" d="M686.76,20.76a6.37,6.37,0,1,1,4.31-7.9A6.37,6.37,0,0,1,686.76,20.76Z"/><path class="cls-6" d="M259.83,126.3a6.37,6.37,0,1,1,4.32-7.9A6.36,6.36,0,0,1,259.83,126.3Z"/><path class="cls-6" d="M686.76,20.76a6.37,6.37,0,1,1,4.31-7.9A6.37,6.37,0,0,1,686.76,20.76Z"/><path class="cls-6" d="M375.56,45.84a6.37,6.37,0,1,1,4.32-7.91A6.36,6.36,0,0,1,375.56,45.84Z"/><path class="cls-6" d="M686.76,20.76a6.37,6.37,0,1,1,4.31-7.9A6.37,6.37,0,0,1,686.76,20.76Z"/><path class="cls-6" d="M366.18,194.6a6.36,6.36,0,1,1,4.31-7.9A6.38,6.38,0,0,1,366.18,194.6Z"/><path class="cls-6" d="M686.76,20.76a6.37,6.37,0,1,1,4.31-7.9A6.37,6.37,0,0,1,686.76,20.76Z"/><path class="cls-6" d="M366.18,194.6a6.36,6.36,0,1,1,4.31-7.9A6.38,6.38,0,0,1,366.18,194.6Z"/><path class="cls-6" d="M686.76,20.76a6.37,6.37,0,1,1,4.31-7.9A6.37,6.37,0,0,1,686.76,20.76Z"/><path class="cls-6" d="M259.83,126.3a6.37,6.37,0,1,1,4.32-7.9A6.36,6.36,0,0,1,259.83,126.3Z"/><path class="cls-6" d="M375.56,45.84a6.37,6.37,0,1,1,4.32-7.91A6.36,6.36,0,0,1,375.56,45.84Z"/><path class="cls-6" d="M366.18,194.6a6.36,6.36,0,1,1,4.31-7.9A6.38,6.38,0,0,1,366.18,194.6Z"/></g><g class="cls-5"><rect class="cls-6" x="2.41" y="220.71" width="364.96" height="1.22" transform="translate(-36.71 36.76) rotate(-10.33)"/><rect class="cls-6" x="2.41" y="220.71" width="364.96" height="1.22" transform="translate(-36.71 36.76) rotate(-10.33)"/><rect class="cls-6" x="294.55" y="113.5" width="149.05" height="1.22" transform="translate(232.12 475.33) rotate(-86.42)"/><polygon class="cls-6" points="5.69 254.69 5.08 253.63 373.46 39.2 374.08 40.25 5.69 254.69"/><polygon class="cls-6" points="5.69 254.69 5.08 253.63 373.46 39.2 374.08 40.25 5.69 254.69"/><rect class="cls-6" x="245.42" y="79.35" width="140.96" height="1.22" transform="translate(10.89 194.66) rotate(-34.81)"/><rect class="cls-6" x="310.6" y="91.14" width="1.22" height="126.4" transform="translate(13.18 332.81) rotate(-57.29)"/><rect class="cls-6" x="-11.28" y="186.57" width="285.97" height="1.22" transform="translate(-72.4 83.64) rotate(-27.97)"/><rect class="cls-6" x="-11.28" y="186.57" width="285.97" height="1.22" transform="translate(-72.4 83.64) rotate(-27.97)"/><polygon class="cls-6" points="-378.37 619.49 5.8 254.6 4.96 253.72 -378.37 617.81 -378.37 619.49"/><polygon class="cls-6" points="-378.37 619.49 5.8 254.6 4.96 253.72 -378.37 617.81 -378.37 619.49"/><polygon class="cls-6" points="-323.66 218.75 -323.87 217.55 257.93 119.59 258.13 120.79 -323.66 218.75"/><rect class="cls-6" x="-159.8" y="70.6" width="1.22" height="331.11" transform="translate(-376.63 52.22) rotate(-83.76)"/><rect class="cls-6" x="-159.8" y="70.6" width="1.22" height="331.11" transform="translate(-376.63 52.22) rotate(-83.76)"/><polygon class="cls-6" points="335.64 634.88 257.43 120.28 258.64 120.1 336.85 634.7 335.64 634.88"/><rect class="cls-6" x="56.89" y="336.65" width="596.24" height="1.22" transform="translate(-3.84 670.43) rotate(-86.41)"/><rect class="cls-6" x="126.72" y="411.03" width="447.19" height="1.22" transform="matrix(0.06, -1, 1, 0.06, -82.55, 735.36)"/><rect class="cls-6" x="170.21" y="192.31" width="1.22" height="504.33" transform="translate(-249.7 221.08) rotate(-41)"/><rect class="cls-6" x="170.21" y="192.31" width="1.22" height="504.33" transform="translate(-249.7 221.08) rotate(-41)"/><polygon class="cls-6" points="31 704.79 -324.26 218.51 -323.27 217.79 32 704.07 31 704.79"/><polygon class="cls-6" points="32.07 704.65 30.93 704.21 257.47 119.97 258.6 120.41 32.07 704.65"/><polygon class="cls-6" points="32.01 704.76 30.98 704.1 363.88 188.16 364.9 188.82 32.01 704.76"/><rect class="cls-6" x="17.83" y="253.78" width="1.22" height="451.02" transform="translate(-27.72 1.87) rotate(-3.32)"/><rect class="cls-6" x="17.83" y="253.78" width="1.22" height="451.02" transform="translate(-27.72 1.87) rotate(-3.32)"/><polygon class="cls-6" points="1142.58 259.27 685.25 14.12 684.67 15.19 1142.58 260.66 1142.58 259.27"/><polygon class="cls-6" points="258.18 120.78 257.89 119.6 684.82 14.06 685.11 15.25 258.18 120.78"/><polygon class="cls-6" points="373.82 40.34 373.72 39.12 684.91 14.05 685.01 15.26 373.82 40.34"/><rect class="cls-6" x="342.34" y="100.96" width="364.67" height="1.22" transform="translate(15.04 262.41) rotate(-28.47)"/><rect class="cls-6" x="520.56" y="145.23" width="1.22" height="611.59" transform="translate(-157.54 331.01) rotate(-30.85)"/><rect class="cls-6" x="581.34" y="569.96" width="308.29" height="1.22" transform="translate(-68.89 1039.05) rotate(-68.02)"/><rect class="cls-6" x="738.38" y="7.7" width="1.22" height="426.81" transform="translate(-31.9 194.3) rotate(-14.67)"/><rect class="cls-6" x="313.84" y="530.57" width="501.58" height="1.22" transform="translate(-169.28 281.5) rotate(-24.46)"/><polygon class="cls-6" points="792.72 428.09 257.73 120.72 258.34 119.66 793.33 427.04 792.72 428.09"/><rect class="cls-6" x="582.78" y="-51.92" width="1.22" height="571.13" transform="translate(15.71 503.24) rotate(-47.23)"/><rect class="cls-6" x="578.09" y="62.63" width="1.22" height="490.8" transform="translate(27.8 663.38) rotate(-60.85)"/><path class="cls-6" d="M7.18,260.27a6.37,6.37,0,1,1,4.31-7.9A6.37,6.37,0,0,1,7.18,260.27Z"/><path class="cls-6" d="M366.18,194.6a6.36,6.36,0,1,1,4.31-7.9A6.38,6.38,0,0,1,366.18,194.6Z"/><path class="cls-6" d="M7.18,260.27a6.37,6.37,0,1,1,4.31-7.9A6.37,6.37,0,0,1,7.18,260.27Z"/><path class="cls-6" d="M366.18,194.6a6.36,6.36,0,1,1,4.31-7.9A6.38,6.38,0,0,1,366.18,194.6Z"/><path class="cls-6" d="M366.18,194.6a6.36,6.36,0,1,1,4.31-7.9A6.38,6.38,0,0,1,366.18,194.6Z"/><path class="cls-6" d="M375.56,45.84a6.37,6.37,0,1,1,4.32-7.91A6.36,6.36,0,0,1,375.56,45.84Z"/><path class="cls-6" d="M7.18,260.27a6.37,6.37,0,1,1,4.31-7.9A6.37,6.37,0,0,1,7.18,260.27Z"/><path class="cls-6" d="M375.56,45.84a6.37,6.37,0,1,1,4.32-7.91A6.36,6.36,0,0,1,375.56,45.84Z"/><path class="cls-6" d="M7.18,260.27a6.37,6.37,0,1,1,4.31-7.9A6.37,6.37,0,0,1,7.18,260.27Z"/><path class="cls-6" d="M375.56,45.84a6.37,6.37,0,1,1,4.32-7.91A6.36,6.36,0,0,1,375.56,45.84Z"/><path class="cls-6" d="M375.56,45.84a6.37,6.37,0,1,1,4.32-7.91A6.36,6.36,0,0,1,375.56,45.84Z"/><path class="cls-6" d="M259.83,126.3a6.37,6.37,0,1,1,4.32-7.9A6.36,6.36,0,0,1,259.83,126.3Z"/><path class="cls-6" d="M366.18,194.6a6.36,6.36,0,1,1,4.31-7.9A6.38,6.38,0,0,1,366.18,194.6Z"/><path class="cls-6" d="M259.83,126.3a6.37,6.37,0,1,1,4.32-7.9A6.36,6.36,0,0,1,259.83,126.3Z"/><path class="cls-6" d="M7.18,260.27a6.37,6.37,0,1,1,4.31-7.9A6.37,6.37,0,0,1,7.18,260.27Z"/><path class="cls-6" d="M259.83,126.3a6.37,6.37,0,1,1,4.32-7.9A6.36,6.36,0,0,1,259.83,126.3Z"/><path class="cls-6" d="M7.18,260.27a6.37,6.37,0,1,1,4.31-7.9A6.37,6.37,0,0,1,7.18,260.27Z"/><path class="cls-6" d="M259.83,126.3a6.37,6.37,0,1,1,4.32-7.9A6.36,6.36,0,0,1,259.83,126.3Z"/><path class="cls-6" d="M7.18,260.27a6.37,6.37,0,1,1,4.31-7.9A6.37,6.37,0,0,1,7.18,260.27Z"/><path class="cls-6" d="M7.18,260.27a6.37,6.37,0,1,1,4.31-7.9A6.37,6.37,0,0,1,7.18,260.27Z"/><path class="cls-6" d="M259.83,126.3a6.37,6.37,0,1,1,4.32-7.9A6.36,6.36,0,0,1,259.83,126.3Z"/><path class="cls-6" d="M7.18,260.27a6.37,6.37,0,1,1,4.31-7.9A6.37,6.37,0,0,1,7.18,260.27Z"/><path class="cls-6" d="M7.18,260.27a6.37,6.37,0,1,1,4.31-7.9A6.37,6.37,0,0,1,7.18,260.27Z"/><path class="cls-6" d="M259.83,126.3a6.37,6.37,0,1,1,4.32-7.9A6.36,6.36,0,0,1,259.83,126.3Z"/><path class="cls-6" d="M375.56,45.84a6.37,6.37,0,1,1,4.32-7.91A6.36,6.36,0,0,1,375.56,45.84Z"/><path class="cls-6" d="M366.18,194.6a6.36,6.36,0,1,1,4.31-7.9A6.38,6.38,0,0,1,366.18,194.6Z"/><path class="cls-6" d="M7.18,260.27a6.37,6.37,0,1,1,4.31-7.9A6.37,6.37,0,0,1,7.18,260.27Z"/><path class="cls-6" d="M7.18,260.27a6.37,6.37,0,1,1,4.31-7.9A6.37,6.37,0,0,1,7.18,260.27Z"/><path class="cls-6" d="M259.83,126.3a6.37,6.37,0,1,1,4.32-7.9A6.36,6.36,0,0,1,259.83,126.3Z"/><path class="cls-6" d="M366.18,194.6a6.36,6.36,0,1,1,4.31-7.9A6.38,6.38,0,0,1,366.18,194.6Z"/><path class="cls-6" d="M7.18,260.27a6.37,6.37,0,1,1,4.31-7.9A6.37,6.37,0,0,1,7.18,260.27Z"/><path class="cls-6" d="M7.18,260.27a6.37,6.37,0,1,1,4.31-7.9A6.37,6.37,0,0,1,7.18,260.27Z"/><path class="cls-6" d="M686.76,20.76a6.37,6.37,0,1,1,4.31-7.9A6.37,6.37,0,0,1,686.76,20.76Z"/><path class="cls-6" d="M259.83,126.3a6.37,6.37,0,1,1,4.32-7.9A6.36,6.36,0,0,1,259.83,126.3Z"/><path class="cls-6" d="M686.76,20.76a6.37,6.37,0,1,1,4.31-7.9A6.37,6.37,0,0,1,686.76,20.76Z"/><path class="cls-6" d="M375.56,45.84a6.37,6.37,0,1,1,4.32-7.91A6.36,6.36,0,0,1,375.56,45.84Z"/><path class="cls-6" d="M686.76,20.76a6.37,6.37,0,1,1,4.31-7.9A6.37,6.37,0,0,1,686.76,20.76Z"/><path class="cls-6" d="M366.18,194.6a6.36,6.36,0,1,1,4.31-7.9A6.38,6.38,0,0,1,366.18,194.6Z"/><path class="cls-6" d="M686.76,20.76a6.37,6.37,0,1,1,4.31-7.9A6.37,6.37,0,0,1,686.76,20.76Z"/><path class="cls-6" d="M366.18,194.6a6.36,6.36,0,1,1,4.31-7.9A6.38,6.38,0,0,1,366.18,194.6Z"/><path class="cls-6" d="M686.76,20.76a6.37,6.37,0,1,1,4.31-7.9A6.37,6.37,0,0,1,686.76,20.76Z"/><path class="cls-6" d="M259.83,126.3a6.37,6.37,0,1,1,4.32-7.9A6.36,6.36,0,0,1,259.83,126.3Z"/><path class="cls-6" d="M375.56,45.84a6.37,6.37,0,1,1,4.32-7.91A6.36,6.36,0,0,1,375.56,45.84Z"/><path class="cls-6" d="M366.18,194.6a6.36,6.36,0,1,1,4.31-7.9A6.38,6.38,0,0,1,366.18,194.6Z"/></g></g></g></g></g></g></svg>