<?xml version="1.0" encoding="utf-8"?>
<!-- Generator: Adobe Illustrator 28.0.0, SVG Export Plug-In . SVG Version: 6.00 Build 0)  -->
<svg version="1.1" id="Layer_1" xmlns="http://www.w3.org/2000/svg" xmlns:xlink="http://www.w3.org/1999/xlink" x="0px" y="0px"
	 viewBox="0 0 1334.4 340.2" style="enable-background:new 0 0 1334.4 340.2;" xml:space="preserve">
<style type="text/css">
	.st0{fill:#FFFFFF;}
	.st1{fill:#0066B1;}
	.st2{fill:#003D78;}
	.st3{fill:#E22718;}
</style>
<g>
	<path class="st0" d="M170.1,0C76.1,0,0,76.1,0,170.1s76.1,170.1,170.1,170.1S340.2,264,340.2,170.1S264,0,170.1,0L170.1,0z
		 M329.1,170.1c0,87.8-71.2,159-159,159s-159-71.2-159-159s71.2-159,159-159S329.1,82.3,329.1,170.1z"/>
	<g>
		<path id="W_60_" class="st0" d="M252.5,97.9c2.3,2.5,5.6,6.5,7.5,8.9L294.5,85c-1.7-2.3-4.5-5.7-6.5-8.1l-21.8,14.4l-1.5,1.3
			l1.1-1.6l9.6-19.2l-6.8-6.8l-19.2,9.6l-1.6,1.1l1.3-1.5l14.4-21.8c-2.5-2.2-5-4.1-8.1-6.5l-21.9,34.4c2.8,2.1,6.4,5.3,8.7,7.4
			L262.8,77l1.3-1l-1,1.3L252.5,97.9z"/>
		<path id="M_60_" class="st0" d="M174.4,54.3l9.4-21.1l0.6-1.9l-0.2,2l1,28.2c3.3,0.3,6.7,0.8,10.1,1.3l-1.5-41.7
			c-4.7-0.5-9.4-0.9-14.1-1.1l-9.3,23l-0.3,1.7l-0.3-1.7l-9.3-23c-4.7,0.2-9.4,0.6-14.1,1.1l-1.5,41.7c3.4-0.6,6.8-1,10.1-1.3
			l1-28.2l-0.2-2l0.6,1.9l9.4,21.1H174.4z"/>
		<path id="B_x5F_22d_60_" class="st0" d="M98.2,87.6c5.4-5.7,8.5-12.4,3.1-18.7c-3-3.4-7.9-4.2-12.1-2.5l-0.4,0.2l0.1-0.4
			c0.6-1.6,1-6.8-3.4-10.4c-2.2-1.7-4.9-2.4-7.6-2.1c-5.1,0.5-9,4-19.7,15.9c-3.2,3.6-7.9,9.3-10.8,13c0,0,29.4,27.9,29.4,27.9
			C86.6,99.7,90.6,95.6,98.2,87.6z M59.9,80.7c5.9-7.2,12.2-13.8,15.1-16.4c0.9-0.8,1.9-1.6,3.1-2c1.9-0.5,3.9,0.8,4.4,2.8
			c0.5,2-0.8,3.9-2.2,5.4c-3.1,3.5-14.6,15.5-14.6,15.5S59.9,80.7,59.9,80.7z M71.4,91.7c0,0,11.2-11.8,14.8-15.6
			c1.4-1.5,2.4-2.4,3.4-2.9c1.3-0.6,2.7-0.8,4,0.1c1.2,0.8,1.8,2.3,1.5,3.7c-0.4,1.7-1.7,3.3-2.9,4.5c-1.5,1.7-14.8,15.8-14.8,15.9
			L71.4,91.7z"/>
	</g>
	<path class="st0" d="M270.9,170.1H170.1V69.2C225.8,69.2,270.9,114.3,270.9,170.1z"/>
	<path class="st0" d="M170.1,170.1v100.9c-55.7,0-100.9-45.1-100.9-100.9H170.1z"/>
	<path class="st1" d="M170.1,69.2v100.9H69.2C69.2,114.3,114.3,69.2,170.1,69.2z"/>
	<path class="st1" d="M270.9,170.1c0,55.7-45.1,100.9-100.9,100.9V170.1H270.9z"/>
</g>
<g>
	<path class="st0" d="M623.6,85l-99.2,170.1h115.7c16.1,0,31-8.6,39.2-22.5L765.4,85H623.6z M660.1,225.5c-4.6,7.8-13,12.7-22,12.7
		h-27.9L658,156c3-5.2,8.6-8.4,14.7-8.4h32.8L660.1,225.5z M702.5,136.1h-32.8L686,108h42.6l-11.5,19.6
		C714.1,132.8,708.5,136.1,702.5,136.1z"/>
	<g id="Blau_x5F_Verlauf_x5F_hell_17_">
		<path class="st1" d="M623.6,85l-99.2,170.1h-70.9l86.1-147.6c8.1-13.9,23-22.5,39.2-22.5H623.6z"/>
	</g>
</g>
<g>
	<g id="Weiss_24_">
		<polygon class="st0" points="1227.4,85 1227.4,155.3 1268.4,85 1332.4,85 1332.4,255.1 1272.5,255.1 1272.5,184.8 1231.5,255.1 
			1175,255.1 1175,184.8 1134,255.1 1063.1,255.1 1162.3,85 		"/>
	</g>
	<polygon id="Blau_x5F_Verlauf_x5F_hell_87_" class="st1" points="1020.6,85 921.4,255.1 850.5,255.1 949.7,85 	"/>
	<polygon id="Blau_x5F_Verlauf_x5F_hell_86_" class="st2" points="1091.4,85 992.2,255.1 921.4,255.1 1020.6,85 	"/>
	<polygon id="Blau_x5F_Verlauf_x5F_hell_78_" class="st3" points="1162.3,85 1063.1,255.1 992.2,255.1 1091.4,85 	"/>
</g>
</svg>
