<svg id="icon_logo" data-name="icon logo" xmlns="http://www.w3.org/2000/svg" viewBox="0 0 220 50">
    <title>logo_header</title>
    <path id="icon" fill="#fff"
        d="M25.07,50A25,25,0,1,1,50,24.93V25A25,25,0,0,1,25.07,50Zm0-42.62A17.62,17.62,0,1,0,42.64,25.05V25A17.62,17.62,0,0,0,25.07,7.38Zm11,11.75-5.2-5.21-5.85,5.87-5.85-5.87L14,19.13,19.87,25,14,30.87l5.2,5.21,5.85-5.87,5.85,5.87,5.2-5.21L30.28,25Z" />
    <path id="letters" fill="#fff"
        d="M64,14.15,58.36,5.8h4.35l3.56,5.51L69.88,5.8h4.23l-5.66,8.3,5.91,8.69H70L66.18,17l-3.83,5.82H58.11Zm11.69,4.91v0c0-2.84,2.16-4.16,5.23-4.16a8.86,8.86,0,0,1,3.18.54v-.22c0-1.53-1-2.38-2.79-2.38a9.55,9.55,0,0,0-3.58.7l-.92-2.81a11.24,11.24,0,0,1,5-1,6,6,0,0,1,4.44,1.46,5.71,5.71,0,0,1,1.4,4.15v7.55H84.09v-1.4A5,5,0,0,1,80.17,23C77.72,23,75.71,21.63,75.71,19.06Zm8.45-.85v-.69A5.55,5.55,0,0,0,81.82,17c-1.58,0-2.55.64-2.55,1.8v.05c0,1,.83,1.58,2,1.58C83,20.52,84.16,19.52,84.16,18.21Zm5-8.43h3.89L96,18.52,98.91,9.8h3.82L97.62,22.91H94.27Zm15.76-4.71h3.87V8.35h-3.87ZM105,9.78h3.68v13H105Zm6.51,6.58v-.05a6.47,6.47,0,0,1,6.14-6.79H118c4.31,0,6.31,3.39,6.31,7.08a7.25,7.25,0,0,1,0,1h-9a3,3,0,0,0,3.17,2.55,4.3,4.3,0,0,0,3.15-1.33l2.1,1.87a6.86,6.86,0,0,1-12.08-4.3Zm9.16-1.09c-.22-1.65-1.19-2.77-2.74-2.77s-2.52,1.09-2.81,2.77ZM127,9.78h3.68V12.4c.75-1.79,2-3,4.14-2.86V13.4h-.19c-2.45,0-4,1.48-4,4.59v4.8H127Zm17,4.56h0a8.72,8.72,0,0,1,8.6-8.83h.29a9.18,9.18,0,0,1,6.65,2.33l-2.3,2.83A6.23,6.23,0,0,0,152.84,9a5.09,5.09,0,0,0-4.87,5.3h0a5.09,5.09,0,0,0,4.78,5.38h.35a6,6,0,0,0,3.51-1v-2.4h-3.75V13h7.36v7.38a11.06,11.06,0,0,1-7.24,2.7,8.5,8.5,0,0,1-8.94-8C144,14.81,144,14.57,144,14.34Zm18.81,4.72v0c0-2.84,2.16-4.16,5.23-4.16a8.81,8.81,0,0,1,3.17.54v-.22c0-1.53-.94-2.38-2.78-2.38a9.55,9.55,0,0,0-3.58.7L164,10.68a11.24,11.24,0,0,1,5-1,6,6,0,0,1,4.38,1.46,5.62,5.62,0,0,1,1.41,4.15v7.55h-3.48v-1.4a5,5,0,0,1-4,1.65C164.85,23,162.84,21.63,162.84,19.06Zm8.45-.85v-.69a5.6,5.6,0,0,0-2.35-.49c-1.57,0-2.54.64-2.54,1.8v.05c0,1,.82,1.58,2,1.58,1.73.06,2.87-.94,2.87-2.25ZM178,9.78h3.68V12.4c.75-1.79,2-3,4.14-2.86V13.4h-.19c-2.45,0-4,1.48-4,4.59v4.8H178Zm9.13,6.58v-.05a6.67,6.67,0,0,1,6.55-6.8h.25a6.33,6.33,0,0,1,5.18,2.18l-2.25,2.43a3.8,3.8,0,0,0-3-1.43,3.29,3.29,0,0,0-3.14,3.46v.08h0a3.33,3.33,0,0,0,3.05,3.58l.24,0a4.15,4.15,0,0,0,3-1.39l2.15,2.19a6.85,6.85,0,0,1-12-4.15ZM201.6,5.07h3.87V8.35H201.6Zm.1,4.71h3.68v13H201.7Zm6.36,9.28v0c0-2.84,2.16-4.16,5.23-4.16a8.86,8.86,0,0,1,3.18.54v-.22c0-1.53-.95-2.38-2.79-2.38a9.55,9.55,0,0,0-3.58.7l-.92-2.81a11.24,11.24,0,0,1,5-1,6,6,0,0,1,4.39,1.46,5.71,5.71,0,0,1,1.4,4.15v7.55h-3.56v-1.4A5,5,0,0,1,212.49,23C210.07,23,208.06,21.63,208.06,19.06Zm8.45-.85v-.69a5.55,5.55,0,0,0-2.34-.49c-1.58,0-2.55.64-2.55,1.8v.05c0,1,.83,1.58,2,1.58,1.73.06,2.89-.94,2.89-2.25ZM58.27,36.46h0A6.29,6.29,0,0,1,69,32.21L67.34,34.1a4.26,4.26,0,0,0-3-1.32A3.45,3.45,0,0,0,61,36.32v.11h0a3.48,3.48,0,0,0,3.27,3.67h.12a4.22,4.22,0,0,0,3.07-1.37l1.64,1.66a6.17,6.17,0,0,1-10.78-3.94Zm12.56-3.14h2.54v1.8a2.75,2.75,0,0,1,2.85-2v2.66h-.13c-1.69,0-2.72,1-2.72,3.17v3.31H70.83Zm6.29,4.53h0a4.45,4.45,0,0,1,4.24-4.67h.19c3,0,4.36,2.33,4.36,4.87v.67H79.65a2.08,2.08,0,0,0,2.18,1.76,3,3,0,0,0,2.17-1l1.46,1.29a4.73,4.73,0,0,1-8.34-3Zm6.32-.75a1.92,1.92,0,0,0-1.89-1.91,2,2,0,0,0-1.94,1.91Zm3.83,2.61h0c0-2,1.49-2.87,3.61-2.87a6.25,6.25,0,0,1,2.18.37v-.16c0-1-.65-1.63-1.92-1.63a6.52,6.52,0,0,0-2.47.49l-.63-2a7.84,7.84,0,0,1,3.47-.72,4,4,0,0,1,3,1,4,4,0,0,1,1,2.86v5.21H93v-1a3.44,3.44,0,0,1-2.71,1.13,2.77,2.77,0,0,1-3-2.46C87.28,39.86,87.27,39.78,87.27,39.71Zm5.83-.59v-.45a3.92,3.92,0,0,0-1.62-.34c-1.09,0-1.75.43-1.75,1.25h0c0,.68.56,1.09,1.38,1.09,1.16,0,2-.62,2-1.54Zm4.92.63V35.52H97v-2.2H98V31h2.53v2.3h2.11v2.2h-2.11v3.84c0,.58.25.87.82.87a2.58,2.58,0,0,0,1.25-.32v2a3.79,3.79,0,0,1-2,.52C99.07,42.44,98,41.82,98,39.75Zm6.56-9.68h2.69v2.26H104.6Zm.06,3.25h2.54v9h-2.54Zm4.13,0h2.69l2,6,2-6h2.64l-3.52,9h-2.31Zm9.89,4.53h0a4.45,4.45,0,0,1,4.24-4.67h.18c3,0,4.36,2.33,4.36,4.87v.67h-6.22a2.08,2.08,0,0,0,2.18,1.76,3,3,0,0,0,2.17-.92L127,40.85a4.73,4.73,0,0,1-8.33-3ZM125,37.1a1.92,1.92,0,0,0-1.89-1.91,2,2,0,0,0-1.94,1.91Zm9.63-6.53h4.56c3.67,0,6.21,2.53,6.21,5.82h0a5.86,5.86,0,0,1-5.85,5.88H134.6ZM139.16,40a3.34,3.34,0,0,0,3.52-3.13,2.28,2.28,0,0,0,0-.37h0a3.35,3.35,0,0,0-3.18-3.53h-2.34V40Zm7.8-2.11h0a4.45,4.45,0,0,1,4.24-4.67h.18c3,0,4.36,2.33,4.36,4.87v.67h-6.23a2.08,2.08,0,0,0,2.19,1.76,3,3,0,0,0,2.17-.92l1.4,1.26a4.73,4.73,0,0,1-8.33-3Zm6.31-.75a1.92,1.92,0,0,0-1.89-1.91c-1,0-1.73.75-1.93,1.91Zm3.14-3.78h2.69l2,6,2-6h2.64l-3.52,9h-2.31Zm9.86,4.53h0a4.45,4.45,0,0,1,4.24-4.67h.18c3,0,4.36,2.33,4.36,4.87v.67h-6.23A2.08,2.08,0,0,0,171,40.48a3,3,0,0,0,2.17-.92l1.45,1.29a4.73,4.73,0,0,1-8.33-3Zm6.31-.75a1.92,1.92,0,0,0-1.89-1.91,2,2,0,0,0-1.93,1.91Zm4.5-7h2.54V42.29h-2.54Zm4.5,7.78h0a4.84,4.84,0,1,1,9.68,0h0a4.84,4.84,0,0,1-9.68,0Zm7.18,0h0a2.39,2.39,0,0,0-2.3-2.48h-.06a2.29,2.29,0,0,0-2.32,2.27,1.08,1.08,0,0,0,0,.18h0a2.37,2.37,0,0,0,2.28,2.47h.08A2.3,2.3,0,0,0,188.76,38a1,1,0,0,0,0-.17Zm4.34-4.53h2.54V34.6a3.28,3.28,0,0,1,2.79-1.46c2.08,0,4.07,1.64,4.07,4.64h0c0,3-1.95,4.64-4.07,4.64a3.39,3.39,0,0,1-2.79-1.34v3.85H193.1Zm6.86,4.5h0a2.2,2.2,0,0,0-4.36-.6,2,2,0,0,0,0,.6h0a2.2,2.2,0,0,0,4.36.59A1.94,1.94,0,0,0,200,37.82Zm4,0h0a4.45,4.45,0,0,1,4.24-4.67h.18c3,0,4.36,2.33,4.36,4.87v.67h-6.23a2.08,2.08,0,0,0,2.18,1.76,3,3,0,0,0,2.18-.92l1.42,1.26a4.73,4.73,0,0,1-8.33-3Zm6.31-.75a1.92,1.92,0,0,0-1.89-1.91,2,2,0,0,0-1.94,1.91Zm4.36-3.78h2.54v1.8a2.75,2.75,0,0,1,2.85-2v2.66h-.13c-1.69,0-2.72,1-2.72,3.17v3.31h-2.54Z" />
</svg>