<svg xmlns="http://www.w3.org/2000/svg" viewBox="0 0 116.17 51.02">
  <g>
    <path style="fill:#fff"
          d="M42.89,31.28H40.63V19.74H44L46.93,29l2.92-9.22H53.2V31.28H50.88V22.74l-2.7,8.54H45.66l-2.77-8.6Zm15.32,0H55.82V19.74h2.39Zm4.91,0h-2.3V19.74h2.82l4.6,8.37V19.74h2.29V31.28H67.71L63.12,23Zm12.42,0H73.15V19.74h2.39Zm16.95,4.25H81.54a24.29,24.29,0,0,0,1.39-4.25H96.74l3.65-3.64H83.5c.06-.7.1-1.41.1-2.13s0-1.42-.1-2.12h21.14l3.64-3.65H82.93a24.57,24.57,0,0,0-1.39-4.25h31l3.64-3.64H79.61a25.47,25.47,0,0,0-43,0H0l3.64,3.64h31a24.57,24.57,0,0,0-1.39,4.25H7.89l3.64,3.65H32.67c-.06.7-.1,1.41-.1,2.12s0,1.43.1,2.13H15.79l3.64,3.64H33.24a24.29,24.29,0,0,0,1.39,4.25h-11l3.64,3.65h9.24a25.49,25.49,0,0,0,43.05,0h9.24ZM58.09,47.38A21.87,21.87,0,1,1,80,25.51,21.89,21.89,0,0,1,58.09,47.38"/>
  </g>
</svg>
