<svg id="Layer_1" data-name="Layer 1" xmlns="http://www.w3.org/2000/svg" viewBox="0 0 600 1200"><defs><style>.fill_yellow{fill:#ffd200;}</style></defs><title>win_title</title><path id="win_title" class="fill_yellow" d="M488.38,600.33ZM76.11,561.84H43.42v32.68H76.11Zm9.9,0v42.59H43.42v32.68H118.7V561.84Zm89.77,6c3.4,3.58,5.12,8.58,5.12,14.85v33.49c0,7.17-1.82,12.59-5.42,16.11s-8.72,5.28-15.27,5.28H144.14V562.42h17C167.42,562.42,172.36,564.24,175.78,567.85ZM158,624.36h2.94c2.32,0,3.92-.51,4.77-1.52s1.39-3,1.39-5.64V582.7a9.14,9.14,0,0,0-1.36-5.47c-.78-1.06-2.39-1.59-4.8-1.59H158Zm53.44-61.94,16.79,75.16H214.25l-3-15.38h-11l-3,15.38H183.22L200,562.42Zm-5.75,31.25-3,15.31h5.94Zm57.64-26.19a19,19,0,0,0-6-4.1,18.81,18.81,0,0,0-7.71-1.57,20,20,0,0,0-8.51,1.73,17.53,17.53,0,0,0-6.09,4.65,19.66,19.66,0,0,0-3.6,6.85,27.79,27.79,0,0,0-1.19,8.17,26.54,26.54,0,0,0,2.46,12c1.7,3.37,5,6.07,9.81,8l7.33,3a22.71,22.71,0,0,1,2.83,1.39,3.34,3.34,0,0,1,1.2,1.19,5.67,5.67,0,0,1,.62,2.21,41,41,0,0,1,.19,4.43,42.37,42.37,0,0,1-.19,4.24,6.94,6.94,0,0,1-.74,2.68,3.38,3.38,0,0,1-1.47,1.4,7.28,7.28,0,0,1-3.26.55c-2,0-3.38-.5-4.14-1.53a6.62,6.62,0,0,1-1.32-4v-5H229.72v5.61a18.46,18.46,0,0,0,11.67,17.34,20.28,20.28,0,0,0,7.61,1.44,21.39,21.39,0,0,0,9.11-1.78,16,16,0,0,0,6.15-4.93,19.53,19.53,0,0,0,3.27-7.29,38.86,38.86,0,0,0,1-8.8,58.13,58.13,0,0,0-.41-7.23,19.42,19.42,0,0,0-1.73-6,14.31,14.31,0,0,0-3.73-4.71,21.29,21.29,0,0,0-6-3.35L248.76,591a14.51,14.51,0,0,1-2.81-1.41,3.93,3.93,0,0,1-1.23-1.29,4.44,4.44,0,0,1-.53-1.81c-.09-.9-.14-2-.14-3.38a17.68,17.68,0,0,1,.27-3.15,6.85,6.85,0,0,1,.83-2.32,4.15,4.15,0,0,1,1.49-1.45,5.07,5.07,0,0,1,2.56-.55c2,0,3.33.57,4.09,1.75a9.16,9.16,0,0,1,1.37,5.11v4.1h13.82v-6.81a17,17,0,0,0-1.34-6.58A18.32,18.32,0,0,0,263.3,567.48ZM335,598.83l-6.52-36.41H317.59l-6.28,35.49-4-35.49H292.79L304,637.58h12.7L323,599.52l6.43,38.06h12.7l11.19-75.16H338.81Zm23.79,38.75h13.82V562.42H358.74Zm47.86-39.93L394,562.42H381.06v75.16h13.82V602.3l12.86,35.28h12.69V562.42H406.6Zm47.16,0-12.65-35.23H428.22v75.16h13.83V602.3l12.85,35.28h12.69V562.42H453.76Zm22,39.93h34.13V623.76H489.61V606.31h17.7V593.09h-17.7V575.64h20.31V562.42H475.79Zm80.79,0H541.92L532.37,607h-3v30.57H515.51V562.42h18.27c9.07,0,19.89,4,19.89,22.8a28.42,28.42,0,0,1-2.12,11.42,16.45,16.45,0,0,1-6.37,7.27ZM529.33,594.4h4a8.66,8.66,0,0,0,3.57-.59,3.84,3.84,0,0,0,1.7-1.47,7.62,7.62,0,0,0,.91-2.81,36.54,36.54,0,0,0,0-9,6.82,6.82,0,0,0-1-2.8,3.9,3.9,0,0,0-1.86-1.49,10.39,10.39,0,0,0-3.84-.57h-3.55Z"/></svg>