<svg id="Layer_1" data-name="Layer 1" xmlns="http://www.w3.org/2000/svg" viewBox="0 0 762.23 150.27"><defs><style>.cls-1{fill:#f5821f;}.cls-2{fill:#fff;}</style></defs><title>mirae_logo</title><path class="cls-1" d="M534.52,26.75c-5,20.76-23,32.08-33.59,38.12l-.45-.62c4.34-3.52,19.22-14.5,24-32.72Z"/><path class="cls-2" d="M281.76,66.63h-8.59c-.28,1.89-4.12,28.69-4.47,31.19h8.58c.28-1.88,4.12-28.69,4.48-31.19"/><path class="cls-2" d="M360.12,91.09h-12.2l.82-5.77h11.08c.19-1.33.66-4.58.9-6.28H349.64l.82-5.69h11.88c.19-1.36.72-5,1-6.72H343.49c-.28,1.89-4.12,28.69-4.47,31.2h20.14c.19-1.38.71-5,1-6.74"/><path class="cls-2" d="M257.14,97.83h7.79c0-2.23,1.42-29,1.42-31.2H255.54c-.57,1.43-7.75,17.88-7.75,17.88l-2.45-17.88H234.92c-.46,1.6-6.39,28.41-7.21,31.2h7.75C237.06,91.56,240,77,240.19,76L243,97.83h6.14c.58-1.39,9.35-21.85,9.35-21.85Z"/><path class="cls-2" d="M316.1,97.83c.45-1,2.57-6.31,2.57-6.31h9.71s.55,5.08.75,6.32h8.24c-.46-2.58-5-29.38-5.28-31.2H321.65c-.59,1.3-12.5,28.13-13.91,31.2ZM326,73.5l1.61,11.57H321Z"/><path class="cls-2" d="M298.76,97.82h8.35L300.8,84.68c3.82-.71,6.8-1.85,7.56-7.76a18.16,18.16,0,0,0,.16-2.13,7.75,7.75,0,0,0-1.72-5.28c-2.07-2.39-5.62-2.88-8.24-2.88H286.77c-.28,1.89-4.12,28.7-4.48,31.19h7.83c.14-.95,1.22-8.52,2.16-15.14Zm-3.1-25.34a4.69,4.69,0,0,1,3.68,1.19A3.8,3.8,0,0,1,300,76.8s-.27,2.38-1.83,3.13a5.89,5.89,0,0,1-2.87.76h-2.75c.65-4.54,1.16-8.21,1.16-8.21Z"/><path class="cls-2" d="M442.83,79.67a11.3,11.3,0,0,0-1.47-.76l-2.27-1.15h0l0,0c-.73-.41-2.45-1.41-2.45-3.08a2.51,2.51,0,0,1,.91-2,3.5,3.5,0,0,1,3-.61,11,11,0,0,1,5,2.78c.89-1.7,2.57-5,3.19-6.11a14.4,14.4,0,0,0-7.29-3.24,13.47,13.47,0,0,0-10.08,2.2,10.21,10.21,0,0,0-3.88,7,12.3,12.3,0,0,0-.09,1.46,8.31,8.31,0,0,0,1,4.21c4.65-.11,9.53-.34,14.47-.73"/><path class="cls-2" d="M476.14,66.63c-.2,1.31-.79,5.4-1.08,7.43a124.58,124.58,0,0,0,20.17-7.43Z"/><path class="cls-2" d="M479.32,74.39l-2.65.85-.56.16-1.1.34-.59.18c-1.25.36-2.52.73-3.84,1.08l-.74.21-1.13.29-.83.22-1.12.28-1,.26-1.8.43-1.05.23-.09,0c-.14,0-.26,0-.39.09h0c-3.53.8-7.27,1.56-11.24,2.24a1.45,1.45,0,0,0-.28,0l-2.17.35-.54.09-2.32.36a.55.55,0,0,0-.18,0h0c-4.26.61-8.75,1.15-13.47,1.57h-.07l-2.17.17-.23,0-2.2.17h-.21c-.75.06-1.5.11-2.27.15h-.17c-.78,0-1.55.09-2.34.12h-.09c-4,.19-8.07.29-12.3.29H407l-.59,0c-3.41,0-6.91-.16-10.48-.35h-.07q-8.11-.42-16.79-1.39l6.65-6.25a93.45,93.45,0,0,0,9.21,2.12c-1-6-1.9-11.34-2-12.11H382.44c-.61,1.3-12.5,28.13-13.92,31.2h8.38l3.25-7.76h8.72s.85,6.53,1,7.77h8.25c-.18-1-1-5.72-1.89-11.18,5.86.33,11.76.4,17.25.3a3,3,0,0,1,.42,1.5,2.86,2.86,0,0,1-.06.58,2.49,2.49,0,0,1-1.05,1.68,5.3,5.3,0,0,1-3.88.42c-2.67-.47-4.78-2.48-6.49-4.15l-4,6.58a19,19,0,0,0,10.14,5.11,13.48,13.48,0,0,0,9.91-2.23,10.87,10.87,0,0,0,4.25-7.27,11.9,11.9,0,0,0,.17-2.48c5.88-.26,10.77-.63,13.9-.9a3.32,3.32,0,0,1,1.56,2.66,3.8,3.8,0,0,1-.06.58,2.56,2.56,0,0,1-1,1.68c-1.13.8-2.77.62-3.89.42-2.66-.47-4.79-2.48-6.48-4.15-1.07,1.74-3.31,5.4-4.05,6.58A19.07,19.07,0,0,0,433,98.67a13.42,13.42,0,0,0,9.9-2.23,10.82,10.82,0,0,0,4.27-7.27,10.11,10.11,0,0,0-.2-4.56l3.85-.59c-.93,6.54-1.81,12.67-2,13.81h20.15c.19-1.38.72-5,1-6.74H457.69l.82-5.76h11.08c.17-1.2.56-3.93.82-5.71,1.51-.47,2.26-.77,2.26-.77s3.75-1.12,8.6-2.92c-.7,4.9-2.83,19.83-3.13,21.9h8.72c.26-1.85,3.36-23.44,3.36-23.44h6.32c.19-1.34.79-5.63,1.07-7.57a111.77,111.77,0,0,1-18.29,7.57"/><path class="cls-2" d="M404.2,79.88c3.91.3,9.26.54,15.41.58A13.71,13.71,0,0,0,417,78.9l-2.26-1.13,0,0,0,0c-.72-.41-2.43-1.41-2.43-3.08a2.59,2.59,0,0,1,.88-2,3.61,3.61,0,0,1,3-.6,11,11,0,0,1,5,2.78c.88-1.7,2.58-4.94,3.18-6.1A14.42,14.42,0,0,0,417,65.47a13.49,13.49,0,0,0-10.06,2.21A10.15,10.15,0,0,0,403,74.74a12.07,12.07,0,0,0-.08,1.45,8.63,8.63,0,0,0,.73,3.66c.17,0,.36,0,.53,0"/><path class="cls-2" d="M460.23,73.35h11.88c.2-1.36.72-5,1-6.72H453.27c-.12.8-.89,6.12-1.75,12.15,2.74-.35,5.45-.76,8.11-1.23Z"/><path class="cls-2" d="M235.86,116.87h4.84a4.57,4.57,0,0,1-4.87,4.95c-3.37,0-5.2-2.89-5.2-6s1.53-6.44,5.2-6.44c2.26,0,4.1,1,4.51,3.34h2c-.57-3.55-3.2-5-6.52-5-4.79,0-7.22,3.82-7.22,8.24,0,3.95,2.7,7.65,7.22,7.65a6,6,0,0,0,4.87-2.25l.53,1.89h1.28v-8h-6.65Z"/><rect class="cls-2" x="245.28" y="107.99" width="1.81" height="15.17"/><path class="cls-2" d="M254.63,111.92c-3.48,0-5.33,2.53-5.33,5.76s1.85,5.73,5.33,5.73,5.33-2.53,5.33-5.73-1.84-5.76-5.33-5.76m0,9.9c-1.88,0-3.42-1.49-3.42-4.14s1.54-4.17,3.42-4.17,3.43,1.49,3.43,4.17-1.54,4.14-3.43,4.14"/><path class="cls-2" d="M267.51,111.92a3.71,3.71,0,0,0-3.51,1.74h0V108h-1.81v15.17H264v-1.47h0a4.21,4.21,0,0,0,3.55,1.72c3.36,0,5-2.61,5-5.71s-1.68-5.78-5.05-5.78m-.15,9.9c-2.49,0-3.46-2-3.46-4.16s.93-4.15,3.35-4.15,3.4,2,3.4,4.06-.82,4.25-3.29,4.25"/><path class="cls-2" d="M283.29,120.59v-5.65c0-2.57-2.15-3-4.12-3-2.44,0-4.55,1-4.66,3.67h1.81c.09-1.61,1.21-2.08,2.74-2.08,1.15,0,2.44.26,2.44,1.83,0,1.36-1.69,1.23-3.69,1.62s-3.72.89-3.72,3.37c0,2.19,1.64,3.08,3.64,3.08a4.84,4.84,0,0,0,3.86-1.7c0,1.19.6,1.7,1.53,1.7a2.48,2.48,0,0,0,1.3-.29v-1.41a1.51,1.51,0,0,1-.56.11c-.57,0-.57-.38-.57-1.23m-1.81-1.25c0,1-1,2.48-3.35,2.48-1.11,0-2.13-.43-2.13-1.62,0-1.34,1-1.76,2.21-2s2.58-.24,3.27-.74Z"/><rect class="cls-2" x="286.21" y="107.99" width="1.81" height="15.17"/><rect class="cls-2" x="297.1" y="107.99" width="2.01" height="15.17"/><path class="cls-2" d="M307.53,111.92a3.83,3.83,0,0,0-3.57,2h0v-1.75h-1.7v11H304V117c0-2,1.06-3.45,3.25-3.45a2.08,2.08,0,0,1,2.24,2.21v7.44h1.8v-7.22c0-2.36-.89-4-3.78-4"/><polygon class="cls-2" points="318.11 121.33 318.07 121.33 314.99 112.17 312.97 112.17 317.05 123.16 318.98 123.16 322.99 112.17 321.1 112.17 318.11 121.33"/><path class="cls-2" d="M329.22,111.92c-3,0-5.16,2.42-5.16,5.71s1.76,5.78,5.26,5.78a4.43,4.43,0,0,0,4.7-3.74h-1.79a2.63,2.63,0,0,1-2.84,2.15,3.24,3.24,0,0,1-3.42-3.61h8.22c.11-2.66-1.08-6.29-5-6.29m-3.25,4.7a3.13,3.13,0,0,1,3.14-3.11,3.18,3.18,0,0,1,3.17,3.11Z"/><path class="cls-2" d="M341.09,116.83c-1.67-.41-3.59-.61-3.59-1.91,0-1.11,1.26-1.41,2.34-1.41s2.42.45,2.55,1.85h1.81c-.15-2.67-2.09-3.44-4.51-3.44-1.91,0-4.1.92-4.1,3.12s1.81,2.7,3.59,3.11,3.59.63,3.59,2-1.53,1.64-2.65,1.64c-1.49,0-2.89-.51-2.95-2.13h-1.81c.1,2.72,2.18,3.72,4.65,3.72,2.23,0,4.67-.85,4.67-3.46,0-2.12-1.78-2.72-3.59-3.12"/><path class="cls-2" d="M349.19,108.88h-1.81v3.29h-1.87v1.6h1.87v7c0,2,.75,2.4,2.62,2.4h1.38v-1.59h-.84c-1.12,0-1.35-.15-1.35-1v-6.82h2.19v-1.6h-2.19Z"/><path class="cls-2" d="M365.11,111.92a4.08,4.08,0,0,0-3.44,1.87,2.9,2.9,0,0,0-3-1.87,4.06,4.06,0,0,0-3.55,1.87h0v-1.62h-1.69v11h1.8v-6.84a3,3,0,0,1,2.93-2.81c1.61,0,2.06,1,2.06,2.45v7.2H362v-6.84a2.67,2.67,0,0,1,2.87-2.81c1.76,0,2.13,1.08,2.13,2.45v7.2h1.8v-8c0-2.27-1.47-3.19-3.66-3.19"/><path class="cls-2" d="M376.06,111.92c-3,0-5.17,2.42-5.17,5.71s1.77,5.78,5.28,5.78a4.43,4.43,0,0,0,4.69-3.74h-1.78a2.65,2.65,0,0,1-2.85,2.15,3.23,3.23,0,0,1-3.42-3.61H381c.1-2.66-1.08-6.29-5-6.29m-3.25,4.7a3.14,3.14,0,0,1,3.14-3.11,3.17,3.17,0,0,1,3.17,3.11Z"/><path class="cls-2" d="M388.21,111.92a3.83,3.83,0,0,0-3.57,2h0v-1.75h-1.7v11h1.81V117c0-2,1.06-3.45,3.24-3.45a2.07,2.07,0,0,1,2.23,2.21v7.44H392v-7.22c0-2.36-.89-4-3.78-4"/><path class="cls-2" d="M397.22,108.88h-1.81v3.29h-1.87v1.6h1.87v7c0,2,.74,2.4,2.61,2.4h1.38v-1.59h-.82c-1.13,0-1.36-.15-1.36-1v-6.82h2.18v-1.6h-2.18Z"/><path class="cls-2" d="M406.44,116.83c-1.68-.41-3.59-.61-3.59-1.91,0-1.11,1.25-1.41,2.34-1.41s2.42.45,2.54,1.85h1.81c-.15-2.67-2.08-3.44-4.5-3.44-1.91,0-4.1.92-4.1,3.12s1.8,2.7,3.58,3.11,3.59.63,3.59,2-1.53,1.64-2.65,1.64c-1.49,0-2.89-.51-2.95-2.13h-1.8c.1,2.72,2.18,3.72,4.64,3.72,2.23,0,4.67-.85,4.67-3.46,0-2.12-1.78-2.72-3.58-3.12"/></svg>