<svg id="Layer_1" data-name="Layer 1" xmlns="http://www.w3.org/2000/svg" viewBox="0 0 762.23 150.27"><defs><style>.cls-1{fill:#fff;}</style></defs><title>samsonite_logo</title><path class="cls-1" d="M182.07,42.85H146.38v12.3h35.69a8.6,8.6,0,0,1,8.8,8.31v2.88H161.59c-11.89,0-21.54,9.24-21.54,20.59s9.65,20.6,21.54,20.6h42V63.47c0-11.36-9.61-20.62-21.54-20.62m8.8,52.51H161.59a8.42,8.42,0,1,1,0-16.83h29.28Zm99.91-52.51c11.88,0,21.51,9.26,21.51,20.62v44.09H299.55v-44a8.62,8.62,0,0,0-8.8-8.42h-22.2v52.41H255.82V55.14H235a8.63,8.63,0,0,0-8.81,8.42v44H213.42V63.47c0-11.36,9.68-20.62,21.56-20.62Zm86.08,0V55.15H339.55a4.31,4.31,0,0,0-4.4,4.21,4.2,4.2,0,0,0,3,4l20.09,6.1,13.89,4.2A17.54,17.54,0,0,1,383.66,90c0,9.7-8.25,17.59-18.39,17.59H322.1V95.36h43.17A5.53,5.53,0,0,0,370.9,90a5.43,5.43,0,0,0-3.78-5.1s0,0-33.94-10.16a16.46,16.46,0,0,1-10.9-15.34c0-9.11,7.75-16.52,17.27-16.52Zm120,48.38V63.47c0-11.35,9.67-20.59,21.54-20.59h22.14c11.88,0,21.54,9.24,21.54,20.59V76s0,30.36,0,31.54H549.29c0-1.24,0-44,0-44a8.63,8.63,0,0,0-8.81-8.41H518.35a8.61,8.61,0,0,0-8.8,8.41v44H496.81c0-1.2,0-16.34,0-16.34M607.13,30.53V42.85H627.3V55.13H607.13V86.92a8.62,8.62,0,0,0,8.8,8.42h17.78v12.18H615.93c-11.88,0-21.55-9.24-21.55-20.6l0-12.55s0-38.27,0-43.84ZM571.86,42.84h12.73v64.72H571.86ZM702.54,63.62C702.54,52.27,692.88,43,681,43H662.69c-11.88,0-21.54,9.24-21.54,20.59l0,23.34c0,11.36,9.67,20.59,21.54,20.59h33.44V95.34H662.71a8.63,8.63,0,0,1-8.8-8.42V80.17l48.64,0V63.62M689.81,68H653.89V63.62a8.62,8.62,0,0,1,8.8-8.41H681a8.63,8.63,0,0,1,8.81,8.41ZM111.22,95.35a8.3,8.3,0,0,0,8.47-8.11A8.15,8.15,0,0,0,114,79.57L72.1,67A18.84,18.84,0,0,1,59.7,49.47c0-10.44,8.88-18.94,19.8-18.94H126V42.84H79.5a6.88,6.88,0,0,0-7,6.63,6.67,6.67,0,0,0,4.67,6.28l21.33,6.47,20.57,6.26A20.15,20.15,0,0,1,132.4,87.24c0,11.17-9.5,20.3-21.18,20.3H59.69V95.35Zm332.45,3.24a32,32,0,0,0,8.6-29.23,29.67,29.67,0,0,1,7.87,5.06,27.56,27.56,0,0,1,1.32,40.15,30.72,30.72,0,0,1-42,1.27,28.06,28.06,0,0,1-5.78-7.19,35.37,35.37,0,0,0,30-10.06m20.08-27.71a35.58,35.58,0,0,0-30.58-8.23,28.66,28.66,0,0,1,5.3-7.52,30.73,30.73,0,0,1,42-1.27A27.57,27.57,0,0,1,481.79,94a29.49,29.49,0,0,1-7.52,5.53,32.14,32.14,0,0,0-10.52-28.66m-29-19.2a32,32,0,0,0-8.6,29.24,30,30,0,0,1-7.87-5.07A27.56,27.56,0,0,1,417,35.71a30.72,30.72,0,0,1,42-1.28,28.49,28.49,0,0,1,5.79,7.19,35.41,35.41,0,0,0-30,10.06M414.69,79.39a35.58,35.58,0,0,0,30.58,8.23,28.27,28.27,0,0,1-5.3,7.52,30.72,30.72,0,0,1-42,1.27,27.58,27.58,0,0,1-1.33-40.15,29.49,29.49,0,0,1,7.52-5.53,32.11,32.11,0,0,0,10.52,28.66"/></svg>