<svg id="Layer_1" data-name="Layer 1" xmlns="http://www.w3.org/2000/svg" viewBox="0 0 762.23 150.27"><defs><style>.cls-1{fill:#c2a04a;}</style></defs><title>ac_logo</title><g id="layer7"><path id="path54841" class="cls-1" d="M381.12,15.44,359.18,70.57c-4.24,10.65-9.89,14.77-14.89,15.34s-10-2.5-10-2.5,2.61,6.48,2.61,11.7a32.14,32.14,0,0,1-2.38,10.8s1.36-1.48,4.77-.91,4.09,3.64,14.66,10.46,23.41,8,23.41,8-10.58-3.52-17-8.5a18.84,18.84,0,0,0,9.94-1,48,48,0,0,0,10.79-5.3A43.8,43.8,0,0,0,392.8,97.77c.11,2.77-.95,7.25-2,10.78s-.11,7.1.32,7.1,2.88-4.59,3.89-8.22,3.69-4.27,3.69-4.27-3-.48-2.88-4.49a6.74,6.74,0,0,1,1-2.8,17.38,17.38,0,0,0,2.74-2.05c.87-.79,2.53-1.07,4.24-1.1,4.13,10.81,4.93,16.32-1.12,21.49-6.25,5.34-17.84,9.2-17.84,9.2s12.84-1.13,23.41-8,11.25-9.89,14.66-10.46,4.78.91,4.78.91a32,32,0,0,1-2.39-10.8c0-5.22,2.61-11.7,2.61-11.7s-5,3.06-10,2.5-10.65-4.69-14.89-15.34Zm0,19,19.09,49a52.32,52.32,0,0,0-19.09-4.48h0l-1,0a33.51,33.51,0,0,0-3.48.18,45.93,45.93,0,0,0-14.56,4.21Zm0,47.84c1.61,0,3.29.06,5.12.24a39.21,39.21,0,0,1,15.54,5l.83,2.11c-7.84-.49-12.31-5-21.18-4.94l-.31,0c-8.37.16-17.83,3.49-21.49,4.9l.8-2C367.19,84.34,373,82.24,381.12,82.26ZM384.67,88a47.57,47.57,0,0,1,12.14,3.92s-4.91,4.27-15.38,4l-.31,0a51.3,51.3,0,0,1-17.94-3.93s7.26-2,13.88-3.74h0a4.3,4.3,0,0,0-.17,1.2,4.07,4.07,0,0,0,4,4.12l.21,0h0a4.06,4.06,0,0,0,3.79-4.1,3.93,3.93,0,0,0-.24-1.38Zm-26.51,5.4a66.23,66.23,0,0,0,23,5.52c.86,0,1.73.08,2.56,0,1.11,0,2.14-.1,3.11-.19a34.85,34.85,0,0,1-5.67,5.66c-.4.33-.73.63-1.18,1-5.77,4.64-11.42,6.41-15.64,6.62s-6.88-2-7-5.07a3.9,3.9,0,0,1,2.66-4,1.79,1.79,0,0,0,.27,2.18c1,1.29,3.36.75,3.74-.37s1.12-5-3.68-4.8a9,9,0,0,0-4.65,1.5A57.79,57.79,0,0,1,358.16,93.37Zm-22.37,18a71.27,71.27,0,0,0,15.59,14.23c9.64,6.42,18.32,9.24,29.74,9.24s20.09-2.82,29.73-9.24a71.27,71.27,0,0,0,15.59-14.23s-3.21,3.22-9.4,8.6-19,10.77-26.52,10.13-9.4-4.26-9.4-4.26-1.85,3.61-9.41,4.26-20.33-4.74-26.52-10.13-9.4-8.6-9.4-8.6Z"/></g></svg>