<svg id="Layer_1" data-name="Layer 1" xmlns="http://www.w3.org/2000/svg" viewBox="0 0 762.2 150.3"><defs><style>.cls-1{fill:#fff;}</style></defs><title>split_logo</title><path class="cls-1" d="M278.1,78.1V72.4c.6-.8,0-1.6,0-2.4-.1-3.4,0-6.8,0-10.4H303V71.5h8.6c.2,0,.4.2.7.3a1.48,1.48,0,0,0,.7.1,7.37,7.37,0,0,1,1.4-.4c5.9,0,11.8,0,17.7-.1a33.76,33.76,0,0,0,6.3-.7c4.7-1,7.4-4.1,8-8.8a17.85,17.85,0,0,0,.2-2.3h25.7c-.1,1.3-.2,2.6-.4,4A30.94,30.94,0,0,1,368,75.5a23,23,0,0,1-7.9,8.2c-.3.2-.6.5-1,.1-.1-.1-.6.2-.7.4-.1.6-.5.7-.8.9a33,33,0,0,1-9.6,2.8,94,94,0,0,1-11.9.4H325.6l.2-1.4-.2-.1a7.1,7.1,0,0,0-1.4,1,1.35,1.35,0,0,1-1.2.5H303V99.9l-25,.5V79.9a1.24,1.24,0,0,1,1.1-1.4h.3c.1,0,.3.1.3,0s.5-.4.5-.6-.3-.4-.5-.5a1.88,1.88,0,0,0-.8.2C278.8,77.8,278.5,77.9,278.1,78.1Zm4.2,9.7.1.3a20.16,20.16,0,0,0,2.3-.7c1.1-.5,1.1-2,2.2-2.4.1,0,.1-.2.1-.2a1.34,1.34,0,0,1,1.2-1.5c.3-.1.5-.5.7-.8a2.2,2.2,0,0,0-2.9,1.1c0,.1-.1.2-.1.3-.1.4-.1.9-.2,1.3a.85.85,0,0,1-.3.5c-.9.6-1.8,1.1-2.6,1.7C282.7,87.4,282.5,87.6,282.3,87.8Zm-.7-15.9A15.26,15.26,0,0,0,280,73c-.1.1,0,.4.1.5a.75.75,0,0,0,.5.1c.8-.2,1.5-.5,2.2-.7l.3-.3s-.1-.2-.2-.2c-.4-.2-.8-.3-1.3-.5Zm-1,16.4c-.6,0-1,.3-.8.8a.8.8,0,0,1-.3,1.1.1.1,0,0,0-.1.1.6.6,0,0,0-.3.6.41.41,0,0,0,.5.2c.2,0,.4-.2.6-.4.3-.6.5-1.2.8-1.8s-.1-.6-.4-.6Zm12.6-7.5a1.91,1.91,0,0,0,2.2-1.2.76.76,0,0,0-.2-.5.44.44,0,0,0-.5.1,11.72,11.72,0,0,0-1.5,1.6Zm53.7,2a1.92,1.92,0,0,0-1.6.9c-.1.2.1.6.1.9.3-.1.7-.1.8-.3A6.89,6.89,0,0,0,346.9,82.8Zm-35-2.9h-.1l.4.9.5-.6c.1-.1.3-.2.3-.4a1.7,1.7,0,0,0-.1-.7.68.68,0,0,0-.5-.3c-.1,0-.3.4-.4.6a1.09,1.09,0,0,0-.1.5Zm13.6,6c.6-.4,1.1-.7.9-1.5q-1.65.15-.9,1.5Zm12.9-6.6-.6.6.6.6.7-.7Zm27.5-14.7-.7.7.6.6a1.79,1.79,0,0,0,.5-.7c.1-.1-.1-.4-.4-.6ZM305.1,74.8c-.2.4-.4.6-.4.8s.3.3.4.5c.1-.2.4-.3.4-.5s-.2-.4-.4-.8Zm16.6,11.1c-.3-.2-.5-.5-.7-.5s-.4.3-.4.4.2.4.4.4a1.33,1.33,0,0,0,.7-.3Zm11.9-12.8.2.3.4.4c.1-.2.3-.3.3-.4a.68.68,0,0,0-.3-.5c-.2.1-.4.1-.6.2ZM301.1,93.6l-.2-.3c-.1-.1-.3-.3-.4-.3a.55.55,0,0,0-.3.5.32.32,0,0,0,.3.3A.85.85,0,0,0,301.1,93.6Zm27.4-6.7.3-.6c0-.1-.1-.2-.2-.3-.2.1-.3.3-.4.4S328.4,86.6,328.5,86.9ZM290.2,65.1c-.2-.1-.4-.3-.5-.3a1,1,0,0,0-.5.4c.1.1.3.3.4.3A2.09,2.09,0,0,0,290.2,65.1Zm-16.3-6.6v-.6h-.6V33.8c0-.2.2-.3.3-.4s.3-.1.4-.2l.6-.6c-.2-.1-.5-.1-.7-.2s-.5-.3-.5-.5c-.1-.9-.1-1.9-.2-2.8h2.2l-.1,1.2c.2,0,.5.1.5,0a5.36,5.36,0,0,0,.5-1.1l-.2-.2h59.6a42.58,42.58,0,0,1,15,2.5A24.94,24.94,0,0,1,367.1,53c.2,1.8.2,3.7.4,5.6H341.7c-.1-1.2-.2-2.4-.4-3.7a10.31,10.31,0,0,0-2.4-5.3,9.49,9.49,0,0,0-6.9-3.3q-4.5-.3-9-.3h-7.2a3.81,3.81,0,0,1-1-.3h-.5c-.4.1-.8.2-1.3.3H298.1V58.5Zm5.5-23.4a1.27,1.27,0,0,0,.6-.1.57.57,0,0,0,0-1c-.9-.2-1.6-1.1-2.6-.7-.1.1-.3-.1-.5-.1s-.6-.1-1-.2c0,.1-.1.2-.1.3a1.69,1.69,0,0,0,1,.3c.5,0,.8.2.8.7a.77.77,0,0,0,.8.7Zm4.5-4.1c-.3-1.1-.4-1.1-1.3-1-.7.1-1.4.1-2.1.2s-.5.5-.6.9c0,.2.2.5.3.5.6,0,1.3.1,1.7-.2A2.39,2.39,0,0,1,283.9,31Zm-8.8,20.1a1.54,1.54,0,0,0-.6-.4c-.5-.1-1,.7-1,1.3a1.21,1.21,0,0,0,.5.5c.6.1,1.1-.6,1.1-1.4Zm67.2,0c.1.1.4.4.5.3a4.44,4.44,0,0,0,1.1-.8.48.48,0,0,0,0-.7.37.37,0,0,0-.3-.1,1.59,1.59,0,0,0-1.3,1.3ZM284.6,34c.2.3.3.7.5.8.4.1.9-.4.9-.8s0-1-.6-1S284.7,33.4,284.6,34Zm75,11.6a1.21,1.21,0,0,0-.5-.5c-.4-.1-1,.5-.9.9s.4.8.6.8c.6,0,.6-.7.8-1.2Zm-82-13.4a5.39,5.39,0,0,0,1.3-.7c.1-.1.2-.4.3-.5-.2,0-.4-.1-.6-.1a6.12,6.12,0,0,0-1.2.5c-.2.1-.3.3-.4.4Zm77.1,4a5,5,0,0,0-.8,1.2c0,.1.3.3.5.5a3.59,3.59,0,0,0,.7-1c.1-.1-.2-.3-.4-.7Zm-61.3-2-.5-.8a3,3,0,0,0-.5.7.89.89,0,0,0,.4.5c.2.1.4-.2.6-.4Zm50.7,19a10.91,10.91,0,0,0,.6-1.1l-.3-.3a2.18,2.18,0,0,0-.5.8c-.2.1,0,.3.2.6Zm-.1,1.2-.5-.5a2.09,2.09,0,0,0-.4.6c0,.1.2.3.3.5Zm-.3-15c-.2.3-.4.5-.4.7s.2.3.3.5c.1-.2.4-.3.4-.5s-.2-.4-.3-.7Zm5.9,13.5c.2-.2.4-.4.4-.5a2.18,2.18,0,0,0-.4-.5c-.1.1-.4.2-.3.3a1.33,1.33,0,0,0,.3.7Zm-67.9,1.2a2.18,2.18,0,0,0-.5.8c0,.1.2.2.3.3l.5-.5q-.15,0-.3-.6Zm-6.8-7.2c-.3.8-.2,1,.6,1.2Zm76.7-4.2c.2-.3.3-.5.5-.8,0-.1-.1-.2-.2-.3-.2.2-.3.4-.5.6a1.19,1.19,0,0,1,.2.5Zm15,8.5c-.2-.2-.4-.4-.5-.3a.78.78,0,0,0-.4.4s.2.3.3.3.3-.2.6-.4Zm-30-12.4a1.55,1.55,0,0,0,.3-.6c0-.1-.2-.3-.3-.4-.1.1-.3.2-.3.4s.1.3.3.6Zm1.3,4.6c.2-.2.4-.4.3-.5s-.2-.3-.3-.4c-.1.1-.3.2-.4.4s.2.2.4.5ZM187.5,78.1a10.38,10.38,0,0,0,1.2-1.7,2.05,2.05,0,0,0,0-1.1c-.1-.3-.3-.6-.4-.9s-.1-.8-.6-.7a.85.85,0,0,0-.8,1h0a2,2,0,0,0,.4.8c.4.6.3.7-.3.9a6.38,6.38,0,0,0-1.4.8c0-1-.7-1-1.4-1-1.3,0-2.2-.8-3.4-1.5.3-.1.6-.3.9-.4a.66.66,0,0,0,.4-.5,1,1,0,0,0-.4-.5c-.7-.3-.8-.6-.3-1.2l.4-.5c.6-.7,1.1-.6,1.5.2a1.42,1.42,0,0,0,.9.8.52.52,0,0,0,.8-.4c.1-.4.1-1.1.2-1.7a.69.69,0,0,0-.5-.8h0l-1.2-.3a.76.76,0,0,0-.5.2c-.8.8-.8.8-1.4,0s-.7-1,0-1.9a1.36,1.36,0,0,0-1.6-.2c-.5.2-.4.7-.3,1.2a4.87,4.87,0,0,1,.1,1.2,6.6,6.6,0,0,1-1.4.1c-.5-.1-1.1-.1-1.4-.8-.1-.2-.6-.3-1-.3-.2,0-.4.3-.5.5s-.2.3-.2.5a1.6,1.6,0,0,1-.8-1.4c0-.2-.2-.4-.4-.6s-.5-.3-.6-.5a20.42,20.42,0,0,1-2.2-5.5v-.4c.6.1.8.6,1.1,1l.6.6a2.7,2.7,0,0,0,.7-.8,2.92,2.92,0,0,0,.2-.9c.1-.9-.1-1.1-1-1.3l-.6-.3v-.2a1.27,1.27,0,0,1,.6-.1h4.7a.84.84,0,0,1,.7.4c.3.5.5.3.8,0a1,1,0,0,1,.7-.4c2.9,0,5.9-.1,8.8-.1a6.75,6.75,0,0,1,1.4.2h.6c.3,0,.6-.2.9-.2,1.4.3,2.7-.1,4.1,0s2.8,0,4.2,0a1.49,1.49,0,0,1,.9.2,21.28,21.28,0,0,0,7.4,2.3c.3,0,.5.1.8.1.7.1,1.1.3,1.1,1.1a.91.91,0,0,0,.4.8,2.85,2.85,0,0,0,1.3,0,1.48,1.48,0,0,0,.1-.7c-.1-.3-.1-.5-.2-.8l13.2,2.1v.2c-.2,0-.4.1-.6.1a1.05,1.05,0,0,0-.8,1.1c.1.4.6.6,1.2.4a1.67,1.67,0,0,0,1.2-1.1.54.54,0,0,1,.4-.3c1.5.2,3,.5,4.4.7a.1.1,0,0,0,.1.1c-.2.2-.6.2-.7.5a2.92,2.92,0,0,0-.2.9c0,.1.3.3.4.3a2.65,2.65,0,0,0,.6-.5,1.49,1.49,0,0,1,2-1l10.7,1.8a47.68,47.68,0,0,1,5.1,1.3c.4.1.7.2.7.7a.66.66,0,0,0,.7.6.76.76,0,0,0,.4-.2,1.26,1.26,0,0,1,1.3-.2l1.5.6a4.31,4.31,0,0,1,1.3,1.7,2.18,2.18,0,0,0,.5.8c.2-.2.4-.3.5-.5a.84.84,0,0,1,1.1-.4.1.1,0,0,1,.1.1c8,4.4,11.8,11.2,11.7,20.3a33.59,33.59,0,0,1-.8,7.1c-.1.5-.3.7-.9.7-9,.1-18.1.3-27.1.5h-1c0-.1.1-.2.1-.3a9.3,9.3,0,0,0,1.5-6.5,7.6,7.6,0,0,0-3-5.4,14.85,14.85,0,0,0-5.9-2.6c-3.2-.7-6.5-1.2-9.8-1.8L213.7,83a1.56,1.56,0,0,1-.8-.6,4.35,4.35,0,0,1-.6-.7c-.5-.5-.8-.4-1,.2a.58.58,0,0,1-.8.5c-3-.4-5.9-.8-8.9-1.3-3.7-.7-7.3-1.5-10.9-2.3A14.28,14.28,0,0,1,187.5,78.1Zm1.2-8.5a2.54,2.54,0,0,1,.2-.7c.1-.4.2-.8-.2-1a.88.88,0,0,1-.5-1.2.78.78,0,0,1,.4-.4,1.19,1.19,0,0,0,.5-1.4,1.58,1.58,0,0,0-1.6-1.6,1.7,1.7,0,0,0-.7.1,4.33,4.33,0,0,1-1.6.1c-.1,0-.2-.5-.4-.8-.1-.1-.2-.1-.3-.2a4.35,4.35,0,0,1-.6-.7.81.81,0,0,0-1.1-.5.82.82,0,0,0-.5.5,1.38,1.38,0,0,1-.4.3,3.92,3.92,0,0,0-1,.8c-.9,1.1-.9,1.3-.1,2.5a1,1,0,0,0,1,.5,1.45,1.45,0,0,1,.7.2,1.51,1.51,0,0,0,2,.8c.1,0,.1,0,.1-.1a1.51,1.51,0,0,1,1.9.2c.8.4.9.5.4,1.3-.3.6-.2.8.4,1l.6.3c-.2.2-.4.3-.6.5s.1.3.1.4c.5-.4,1.1-.2,1.6-.2.1,0,.2-.2.4-.4Zm23.2-2.1c0,.9-.1,1.1-.9,1.2h-.8a1.72,1.72,0,0,0-1.3,1.8.35.35,0,0,0,.1.2,9.7,9.7,0,0,0,1.7.1c.5-.1,1.1-.3,1.1-1,0-.5.2-.7.7-.4.2.1.3.2.5.2s.4.1.6.1v-.6a2,2,0,0,1,0-1.1,1.84,1.84,0,0,0-.2-1.6c-.2-.5-.6-.5-1-.2A1,1,0,0,0,211.9,67.5Zm19,15.3a1.24,1.24,0,0,0,1.3-1.2,1.45,1.45,0,0,0-.2-.7.9.9,0,0,1-.1-.5c.1-.9-.1-1-1-.9l-.5.1c-.8.2-.9.4-.5,1.1a1.13,1.13,0,0,1,.1.8c-.4,1-.2,1.3.9,1.3Zm-5.3-6.7a5.55,5.55,0,0,0-.8-.6.84.84,0,0,0-.7.2,5.8,5.8,0,0,0-1,1.2,4.05,4.05,0,0,0-.5.9.44.44,0,0,0,.1.5.64.64,0,0,0,.6,0,6.94,6.94,0,0,0,1.3-.5,1.59,1.59,0,0,0,1-1.7Zm-20.2-3.7a16.25,16.25,0,0,0,.4-1.9c0-.2.1-.5,0-.6s-.4-.1-.6-.1c-.5,0-.7.2-.8.8,0,.4-.1.7-.1,1.1a1.27,1.27,0,0,0,.1.6,9,9,0,0,0,.9,1c.3.3.7.5,1.1,0,.2-.3.5-.6.7-.9s.3-.5-.2-.7c-.7-.2-.8.3-.8.8Zm19.8-2.6a4.35,4.35,0,0,0-.7-.6c-.2,0-.3,0-.4.1-.6.9-1.1,1.8-1.6,2.7-.1.1.1.4.2.6a4.84,4.84,0,0,0,1.8-.7,17.23,17.23,0,0,0,.7-2.1Zm-45.5-2.5c-.2-.7-.4-1.2-.6-1.8A.75.75,0,0,0,178,65c-.2.1-.5.5-.4.6a1.41,1.41,0,0,1-.1,1.4c-.2.5-.1.8.5.8a8.45,8.45,0,0,1,1.7-.5Zm38,5,.2.2A16,16,0,0,0,220,72a1.58,1.58,0,0,0,.7-.7c-.2-.2-.5-.4-.7-.6-.9-.8-1.2-.2-1.6.5a10.54,10.54,0,0,1-.7,1.1Zm4.5,3a2.77,2.77,0,0,1,.9-.1,1.82,1.82,0,0,0,1.6-.8.49.49,0,0,0,.1-.7c-.1-.1-.2-.2-.3-.2a1.7,1.7,0,0,0-1,0c-.8.2-.8,1-1.3,1.8ZM209.8,67c.4-.2.9-.5,1.3-.7a.66.66,0,0,0,.1-.6,1.29,1.29,0,0,0-1.4-.8c-.2,0-.4.3-.4.4A5.26,5.26,0,0,0,209.8,67Zm-3.2,11.9-1.8-.3h-.3a.86.86,0,0,0-.7.6v.2c0,.1.4.2.7.2s.5-.1.7,0c.9.3,1.1.2,1.4-.7ZM179.2,61.8a2.65,2.65,0,0,0-.5-.6,4.88,4.88,0,0,0-.7-.3c0,.3-.2.6-.1.9.2.5.1.7-.3.9a.76.76,0,0,0-.2.4.76.76,0,0,0,.4.2A1.8,1.8,0,0,0,179.2,61.8ZM209,78.9c.7,0,1.6-.6,1.6-1,0-.6-.5-.7-.9-.7a.89.89,0,0,0-1,.8v.2A.91.91,0,0,0,209,78.9Zm1.6-6.3a1.76,1.76,0,0,0,2.1-.7,3.29,3.29,0,0,0,.3-.6.82.82,0,0,0-.6-.4.91.91,0,0,0-.7.3,7.55,7.55,0,0,0-1.1,1.4Zm4.8,7.6.3.7a1.34,1.34,0,0,0,.6-.7,2.54,2.54,0,0,0,.2-1.2c-.1-.3-.1-.6-.3-.8-.2.2-.5.3-.6.6a7.84,7.84,0,0,1-.2,1.4ZM185.8,62c1,0,1.2-.2,1.2-.7s-.1-.9-.7-1c-.4-.1-1,.7-1,1.2A1.1,1.1,0,0,0,185.8,62Zm31.6,15c.5,0,1-.3,1-.7a.77.77,0,0,0-.7-.8h-.1c-.5,0-.9.2-.9.8C216.6,76.6,216.7,77,217.4,77Zm-17.3-1.5q-.45-1.2-1.2-.9a.72.72,0,0,0-.5.9v.1c.2.4.8.4,1.7-.1Zm6.1-1a10.59,10.59,0,0,1-1.2,1,1.27,1.27,0,0,0-.1.6c0,.1.2.2.4.2.7,0,1.2-1.1.9-1.8Zm23.6,4.2c.7-.1,1.1-.3,1-.8,0-.2-.4-.5-.7-.5-.6-.1-.7.4-.6.8-.1.2.2.3.3.5Zm-3-11.8c.7,0,1.1-.2,1.1-.7,0-.2-.6-.6-.7-.5a2,2,0,0,0-.8.8Zm.1,16.1c0-.7-.4-.9-.8-.8-.2,0-.6.3-.6.5,0,.4.2.7.6.7h.2C226.5,83.4,226.8,83.1,226.9,83Zm-4.6-14.8-.1-.1a2.19,2.19,0,0,0-.5.3c-.3.6-.6,1.3-.9,1.9-.1.1.1.3.1.5.1-.1.4-.2.4-.4a2.5,2.5,0,0,1,.8-1.8.4.4,0,0,0,.2-.4Zm10,17.3.9-1.1c-.2-.2-.5-.5-.6-.4a1.78,1.78,0,0,0-.7.8c-.1,0,.2.3.4.7ZM219,68.2c-.3.3-.6.6-.6.8s.4.5.5.5a1.34,1.34,0,0,0,.7-.6C219.6,68.8,219.3,68.5,219,68.2Zm-44.5-3.7a5.55,5.55,0,0,0,.6.8c.1.1.5,0,.5-.1v-.9l-.4-.5Zm40.7,13.3c-.4-.2-.5-.3-.7-.3a.77.77,0,0,0-.8.7v.1c0,.1.4.4.4.4.3-.2.6-.5,1.1-.9Zm.8-11.2c-.2-.7-.5-1.1-1.2-1.1-.2,0-.3.1-.5.2.1.1.1.3.3.4C215.1,66.3,215.5,66.4,216,66.6Zm44.9,28.5.1.1a4.44,4.44,0,0,0,1.1-.8c.1-.1,0-.4,0-.6-.2,0-.5-.1-.6,0-.2.4-.4.8-.6,1.3ZM174.1,65.2c-.2.3-.4.5-.4.6a3.39,3.39,0,0,0,.6.6c.1-.2.5-.4.4-.5A3.19,3.19,0,0,0,174.1,65.2Zm59.1,11.9v-.2c-.2-.1-.4-.3-.6-.3s-.3.3-.5.5c.2.1.3.4.5.4s.4-.3.6-.4Zm.1,2.7a2,2,0,0,0-.4.8.78.78,0,0,0,.4.4.82.82,0,0,0,.5-.5c.1-.1-.2-.3-.5-.7Zm-6.7-7.2-.5-.5c-.1.2-.4.3-.4.5a.66.66,0,0,0,.4.5C226.3,73.2,226.4,72.8,226.6,72.6Zm12.2-2,.1-.2-1.1-.3c-.1,0-.2.2-.3.3.1.1.2.2.3.2a1.7,1.7,0,0,0,1,0ZM190,74.2a1.61,1.61,0,0,0-.4.7s.2.2.3.2a2.18,2.18,0,0,0,.5-.4Zm72.5,24a.65.65,0,0,0,.9.2l.1-.1v-.4a.63.63,0,0,0-.9.1.35.35,0,0,1-.1.2ZM233.3,79l-.4-.4c-.1.2-.3.3-.4.4s.1.3.2.4Zm-11.1-5.8-.1-.3-.7.3c0,.1.1.2.1.3a4.88,4.88,0,0,0,.7-.3Zm.9-6.6-.3-.3-.6.7.2.2Zm-24,10.7.3.2.5-.6-.2-.2ZM580.4,29.2a3.55,3.55,0,0,0,.2,1c0,.1.4.1.5,0a3.58,3.58,0,0,0,.4-1.1h15.1V46.6h-17a14.16,14.16,0,0,1-2-.4H577a2.66,2.66,0,0,1-1.2.3c-1,.1-2,0-3.2,0,.4-.4.7-.6,1-.9.1-.2.2-.3.2-.5-.2-.1-.5-.3-.6-.2a6.15,6.15,0,0,0-1.9,1.2,1.07,1.07,0,0,1-1.1.5h-7.7V58.5h-25V46.7h-1.3c-2.3-.1-4.6,0-7,0a2.62,2.62,0,0,1-1.9-.5c-.6-.5-.8-.4-1.4.3a1,1,0,0,1-.7.2H503.5V29.2h40.3c.7,0,1,.2,1,.9v.3a.51.51,0,1,0,1,0c.1-1.1.1-1.1,1.3-1.1h7.1l.9.3h.7a3.81,3.81,0,0,1,1-.3h19.6Zm-32.2,12,.2-.1a2.2,2.2,0,0,0-.1-.8c0-.1-.2-.2-.3-.3-.1.1-.3.2-.3.3-.2,1.2-.4,2.5-.5,3.7,0,.2.2.5.3.5.4,0,1,0,1.2-.3a1.5,1.5,0,0,0,.1-1.7,5.17,5.17,0,0,1-.6-1.3Zm-14-6c-.8,0-1.1.5-.9,1.2a3.55,3.55,0,0,1,.4.9c.1.7.7.6,1.1.7s.7-.3,1-.6,0-.7-.3-1c-.1-.1-.2-.4-.4-.5a7.61,7.61,0,0,0-.9-.7ZM505.4,37c.3.3.4.6.7.6a.68.68,0,0,0,.6-.4,1.63,1.63,0,0,1,1.2-1.2c.2-.1.5-.2.5-.3a1.1,1.1,0,0,0,0-.8,1.5,1.5,0,0,0-1.8,0C506.2,35.5,505.9,36.2,505.4,37Zm36.9,5.5a2.62,2.62,0,0,0,1.2-2.9,3.51,3.51,0,0,0-.5-.8c-.2.3-.5.5-.7.8,0,.1-.1.2-.1.3A22.6,22.6,0,0,0,542.3,42.5Zm39.1-8c0-.3-.2-.6-.6-.4a4.51,4.51,0,0,0-1,1.4c-.2.2,0,.5.4.5a2.24,2.24,0,0,0,1.2-1.5ZM595,33a1.84,1.84,0,0,0,1.6-1.3c0-.2-.2-.5-.3-.5s-.5,0-.6.2a4.44,4.44,0,0,0-.8,1.1C594.8,32.6,595,32.8,595,33Zm-63.8.2a4.24,4.24,0,0,0,.6,1.4c.2.2.9-.7.8-1.2a1.58,1.58,0,0,0-.7-.7c-.1-.1-.4.3-.7.5Zm8.3,20.9v-.3a4.88,4.88,0,0,0-.3-.7.62.62,0,0,0-.7.2,1.7,1.7,0,0,0-.1.7,1.42,1.42,0,0,0,.2.6c.1.1.2.3.4.3s.3-.1.4-.3a1.09,1.09,0,0,1,.1-.5Zm48.2-9.4-.3-.1a5.5,5.5,0,0,0-.9.7.75.75,0,0,0,.1.8,1.1,1.1,0,0,0,.8,0c.1-.5.2-.9.3-1.4ZM516,37.8c-.3-.2-.5-.4-.6-.4a4.74,4.74,0,0,0-1,1,2.31,2.31,0,0,0,.7.5A10.63,10.63,0,0,0,516,37.8Zm25.2-1.4a.77.77,0,0,0-.8.7v.2c0,.2.2.6.4.6a.79.79,0,0,0,.8-.8V37c-.1-.2-.3-.4-.4-.6Zm39.9,1.1q1.2-.3,1.2-1.2c0-.2-.2-.3-.3-.5-.2.1-.4.2-.4.3a3.36,3.36,0,0,0-.5,1.4Zm7.4,4.8V42c-.2-.1-.5-.4-.6-.3a2.7,2.7,0,0,0-.8.7s.4.5.5.5a3.49,3.49,0,0,0,.9-.6Zm-30.8.5.6.6c.2-.3.4-.5.6-.8a1.52,1.52,0,0,0-.4-.6Zm-29.1-4a3,3,0,0,0,.4-.8v-.7c-.2.1-.6.2-.7.4-.3.4-.3.8.3,1.1Zm66,4.4-.6-.7c-.1.2-.4.4-.4.5a4.18,4.18,0,0,0,.4,1Zm-49.8-5.9c-.4-.2-.6-.5-.7-.4a2.34,2.34,0,0,0-.7.7c.1.1.3.4.4.4.4-.3.7-.5,1-.7Zm-8,4.2v-.2a.76.76,0,0,0-.4-.2c-.4.1-.8.1-.8.6a.78.78,0,0,0,.4.4,2.76,2.76,0,0,1,.8-.6Zm-27.4,3.7.2-.4c-.4-.2-.7-.5-1.1-.7a.76.76,0,0,0-.4.2.6.6,0,0,0,.1.4c.4.2.8.3,1.2.5Zm26.2-10.8a10.91,10.91,0,0,0,.6-1.1s-.3-.3-.4-.3a1.34,1.34,0,0,0-.6.7c-.1.2.2.4.4.7Zm3.3,6.4-.5-.6-.6.6c0,.1.3.5.3.4a3,3,0,0,0,.8-.4Zm3.6,14.3-.1-.3-1.1.3.4.6Zm4.9-17.9c-.2.3-.4.5-.4.7s.3.5.4.4a1,1,0,0,0,.5-.4c-.1-.2-.3-.4-.5-.7ZM538.6,34l.5.5a4.23,4.23,0,0,0,.5-.7c0-.1-.2-.3-.4-.5Zm23.6,18.5-.7-.6c-.1.2-.4.4-.4.5s.3.4.4.6Zm-25.3-14a3.55,3.55,0,0,0-.9-.4c-.1,0-.3.2-.5.3a1.79,1.79,0,0,0,.7.5c.1.1.3-.1.7-.4Zm6.6,7c-.3-.2-.4-.4-.6-.4s-.4.3-.4.4a1,1,0,0,0,.4.5c.1.1.3-.2.6-.5Zm6.7-4.3.3.1a3.55,3.55,0,0,0,.2-1,1,1,0,0,0-.3-.1l-.3.9c-.1.1,0,.1.1.1Zm.1-7.7a1.38,1.38,0,0,0-.4-.3l-.6.6c.1.1.1.2.2.3.3-.2.5-.4.8-.6Zm9.2,23.8-.5-.5c-.1.1-.4.3-.3.4s.3.3.4.4c-.1.1.1-.1.4-.3ZM541.2,44c.2-.2.4-.4.3-.4-.1-.2-.3-.3-.5-.5,0,0-.2.2-.3.2Zm11.9,7.8c-.3-.1-.5-.3-.6-.3s-.3.3-.4.4c.2.1.3.3.4.3s.3-.1.6-.4ZM530.3,35.6c-.2-.2-.4-.4-.5-.4s-.3.2-.4.4c.1.1.2.3.4.4s.2-.2.5-.4ZM255.5,42.3l1.3,2.2c-.6.3-1.1.5-1.6.7-.2.1-.3.3-.4.4.2.1.4.3.6.3a8.24,8.24,0,0,0,1.9-.6,5.94,5.94,0,0,1,.4.8c.1.3.1.5-.3.7a1.88,1.88,0,0,0-1.2,2c.1.5.4.4.7.4,1.2-.3,1.9.1,2.1,1.3.4,1.7.6,3.5.9,5.3H235.1l1.1-1.1h.2c1.2,1,1.8.9,2.6-.5a1.1,1.1,0,0,0,0-.8c0-.1-.4-.2-.6-.1-.8.2-1.6.1-2.2.8,0,.1-.4,0-.5-.1s-.3-.5-.2-.6c.2-.3.4-.5.6-.8a7.27,7.27,0,0,0,.9-.8c.2-.3,0-.7,0-1-.3.1-.5.1-.8.2a7.72,7.72,0,0,1-1.5.2c-.5,0-.8-.1-.9.5-.1.2-.2.3-.4.3s-.3-.2-.4-.3-.2-.5-.1-.6c.3-.6,0-1-.1-1.5a2.18,2.18,0,0,0-1.4-1.8c-.4-.2-.3-1,.2-1.6a3,3,0,0,0,.4-1c.1-.5,0-1,.6-1.2.1,0,.2-.4.2-.4a4.05,4.05,0,0,0-.9-.5,1.14,1.14,0,0,0-.8.3,1.68,1.68,0,0,0-.3,1.9c.2.4.1.7-.4.7a1.79,1.79,0,0,0-.7.5c-.1.2.1.5.3.7s.7.4.7.5a10.91,10.91,0,0,1-.6,1.1c-.1.1-.1.2-.1.1l-2.7-2.5h1.2c.7-.2.8-.4.3-1a.91.91,0,0,1,0-1.2,1.88,1.88,0,0,0,.2-.8,2.77,2.77,0,0,0-.9.1,6.89,6.89,0,0,0-.8.3,17.39,17.39,0,0,0-1.8,1.1.76.76,0,0,1-.9.2l-2.1-.9a8.79,8.79,0,0,1-1-.6c-.2-.1-.3-.1-.5-.2h-1.5c-2.1-.2-4.1-.5-6.2-.7-.5,0-.9,0-.8-.7a.6.6,0,0,0-.1-.4c-.2-.5-.1-.8.4-.9a.75.75,0,0,0,.5-.1c.1,0,.2-.2.3-.3-.1-.1-.2-.3-.3-.3a15.52,15.52,0,0,0-2.1-.4,1.07,1.07,0,0,0-.6.2c-.2.5-.7.5-1.1.6-.8.1-1.2.7-1,1.2.1.3.5.5.7.8l-3.1.2a19.08,19.08,0,0,0-10.5,3.7,8.79,8.79,0,0,0-3.5,5.6,7,7,0,0,0,1.7,6.2.77.77,0,0,1,.2.3h-7.8c.2-.6,0-.8-.5-.9l-1.7-.1.6,1c-.4,0-.6.1-.9.1h-10l-2-.3h-.9a12.25,12.25,0,0,1-1.9-.2h-.4c-.4.7-1.1.5-1.7.5h-1.4V54.2a27.72,27.72,0,0,1,1.9-9.5,22.68,22.68,0,0,1,9.5-11c1-.6,1.9-1.1,2.9-1.6a1.1,1.1,0,0,1,.8,0c.4.1.6.1.7-.4a.66.66,0,0,1,.4-.5,46.81,46.81,0,0,1,9.7-2.8c1.3-.2,2.6-.5,3.9-.8.3,0,.7-.1,1-.1.3.4.5.9.7.9a1.12,1.12,0,0,0,1.4-.7c.2-.7.7-.6,1.2-.5a4.1,4.1,0,0,0,1.1-.1c.2,0,.4-.1.7-.1l7.3-.3c1.1,0,2.3-.1,3.4,0a1.08,1.08,0,0,1,.7.3,1.21,1.21,0,0,1-.5.5c-.4.2-.8.2-1.1.4a2.65,2.65,0,0,0-.6.5l.1.3a2.2,2.2,0,0,0,.8-.1c.2-.1.4-.3.5-.3,1,.3,1.3-.5,1.7-1.1a.88.88,0,0,1,1-.5c2.5.1,4.9.2,7.4.4a94.26,94.26,0,0,1,11.7,1.7,44.09,44.09,0,0,1,14.7,6.1c1.1.8,2.1,1.7,3.2,2.5a1,1,0,0,1,.4,1,.77.77,0,0,0,.7,1,6.11,6.11,0,0,1,1.4.7c.4.3.9.7.5,1.4a2.77,2.77,0,0,0-.1.9Zm-68.6,7.9c.1-.1.2-.2.2-.3s.1-.4.2-.5c.6-.6.6-.9.1-1.5a1.1,1.1,0,0,1-.3-1.2c.2-.5,0-.7-.6-.7-.2,0-.4.1-.6.1a.76.76,0,0,1,.2-.5c.7-.5,1.4-.1,2,.3.2-.5.3-.9-.4-1.1-.5-.1-1-.3-1.5-.4s-1-.3-1.2-.2a3.36,3.36,0,0,0-1,1.6c-.1.5.4.6.9.7a1,1,0,0,1,.5.4,1.42,1.42,0,0,1-.2.6.64.64,0,0,1-.6,0c-.1,0-.2-.1-.3-.2-.3-.4-.7-.3-1.2.1a3,3,0,0,1,.8.4,1.52,1.52,0,0,1,.4.6c-.4.8.2.9.7,1.1Zm-6.7,2.5c-.2-.3-.2-.4-.3-.5a2.18,2.18,0,0,1-.4-.5q-.75-.75.3-1.2a6.73,6.73,0,0,0,1.1-.7L180,48c-1.1.4-2.3.9-3.4,1.4a1,1,0,0,0-.5.8c0,1.1,1.9,2.8,3,2.8C179.4,52.9,179.8,52.8,180.2,52.7Zm-2.8,5.1c.9.1,1.2-.2,1.4-1.1a1.45,1.45,0,0,1,.2-.7c.3-.5.4-1,0-1.3-.2-.2-.7-.1-1.1-.2a3.59,3.59,0,0,1-.2,1.1,2.93,2.93,0,0,1-.4.8c-.1.1-.6-.2-.9-.4-.1,0,0-.3-.1-.4s-.4-.3-.5-.2a3.38,3.38,0,0,0-1.2.6,1.61,1.61,0,0,0-.4.7c.4.4.2,1.3,1,1.3A16.35,16.35,0,0,0,177.4,57.8Zm75.4-8.7a2.8,2.8,0,0,0-2.2,1.6c-.1.3-.3.6.2.7s.6,0,.7-.4a.66.66,0,0,1,.7-.6,2.08,2.08,0,0,1,2.2,1.7l.3.9q.3.45.6,0a2.15,2.15,0,0,0-.2-1.9.66.66,0,0,1-.1-.6,2.56,2.56,0,0,0-.4-1.9c-.2-.4-.5-.5-.7,0A.89.89,0,0,1,252.8,49.1ZM241,48.4a3.12,3.12,0,0,1,2.9,1,.57.57,0,0,0,.9-.3c.2-.5.4-.6.5-.9a1.06,1.06,0,0,0,.1-.8c-.1-.6-.4-.6-1.3-.2-.4-.8-1-.2-1.7-.1a5.9,5.9,0,0,0,.4-.8,2.2,2.2,0,0,0,.1-.8,2.54,2.54,0,0,0-.7.2c-.2,0-.3.1-.5.2s-.4.6-.3.7c.6.8.3,1.2-.4,1.6C241.1,48.1,241.1,48.2,241,48.4Zm-5-3.3c-.6-.3-.7-.6-.2-1.2a.93.93,0,0,0-.1-1.3h0a1.1,1.1,0,0,0-.8,0,1,1,0,0,0-.5,1.3,4.87,4.87,0,0,1,.1,1.2,1.08,1.08,0,0,0,.7,1.5c.1.1.2.1.2.2.4.8.8.9,1.7.7.5-.1.9-.4.7-.9s-.6-.2-.9-.2c-.8.2-1.2-.2-1.1-1C235.9,45.4,235.9,45.2,236,45.1Zm-63.2,4.1a1.71,1.71,0,0,0-1.9,1.5v.1c0,.2.2.5.3.5a6.47,6.47,0,0,0,2-.4c.5-.2.9-.5,1.3.1.1.1.3,0,.5.1v-.4a4.18,4.18,0,0,0-.4-1c-.2-.3-.5-.8-1.1-.5Zm45.6-9.4h.3a.76.76,0,0,0,.2-.4c.3-.9.6-1,1.5-.9a2,2,0,0,0,1.1-.3,14.31,14.31,0,0,0,1.5-1.1c.2-.2.5-.6.4-.7a.89.89,0,0,0-.8-.5c-.8-.1-1,.1-1.1.9s-.3,1-.9.7a1.17,1.17,0,0,0-1.6.6,4.7,4.7,0,0,0-.6.9c0,.3-.1.6,0,.8ZM182.1,51.5a17.88,17.88,0,0,1,1.3-1.4,1.72,1.72,0,0,0,0-1.7,1.75,1.75,0,0,0-1.7.3A2.17,2.17,0,0,0,182.1,51.5ZM171.6,42a2.2,2.2,0,0,0,.1.8l.3.6.6-.3a10.1,10.1,0,0,0,1.3-1.6,1.18,1.18,0,0,0,.1-1c-.2-.4-.6-.2-.9,0s-.3.2-.5.3c-.8.1-1.1.6-1,1.2C171.5,41.9,171.5,42,171.6,42Zm78.2,7.9a5.94,5.94,0,0,1-.8-.4c-.4-.1-.8-.1-1.2-.2s-.5,0-.4.3c.2.7.5,1.4.7,2.2.1.2.3.2.4.4.1-.1.2-.3.3-.4l.7-1.3a1.55,1.55,0,0,1,.3-.6Zm-78,5a2.92,2.92,0,0,0,.9-.2,1,1,0,0,0,.7-1.2c-.1-.6-.5-.6-.9-.6a1.67,1.67,0,0,0-1.1.4c-.2.2-.5.7-.4.9a1.85,1.85,0,0,0,.8.7Zm22.8-12.1.1.1c.3-.2.8-.4.9-.7s-.3-.7-.6-.9a1.06,1.06,0,0,0-.8-.1c-.3.1-.8.3-.8.4a1.49,1.49,0,0,0,.4.9.83.83,0,0,0,.8.3Zm48.1,6.4-.6.3c-.1.1.1.4.2.6l.1.2c.4.8.4.9,1.2.4.2-.1.5-.4.5-.6a1,1,0,0,0-.4-.7,3.55,3.55,0,0,1-1-.2Zm-60.6,5.3c-.1-.2-.3-.4-.4-.4a1.47,1.47,0,0,0-1.1.2,2.66,2.66,0,0,0-.6,1l.1.2c.4.1.9.3,1.2.1a3.13,3.13,0,0,0,.8-1.1Zm30.2-24.1c.1-.4,0-.7-.4-.5a2.73,2.73,0,0,0-1.2.9.85.85,0,0,0,0,.7,1.07,1.07,0,0,0,.6.2c.6,0,.9-.3,1-1.3Zm-16.9,9.5.5-.2c-.1-.2-.1-.4-.3-.6a4.13,4.13,0,0,0-1.1-.7.66.66,0,0,0-.6.1,1.27,1.27,0,0,0-.1.6C194,39.9,194.7,39.8,195.4,39.9Zm1.2-6,1.3-1.3a.75.75,0,0,0,.1-.5h-.6a5.36,5.36,0,0,0-1.1.5,2.65,2.65,0,0,0-.6.5Zm-7.4,17.8c-.6.2-1,.3-1,.8s.6.7,1,.7a.9.9,0,0,0,.6-.6,2.36,2.36,0,0,0-.6-.9Zm17.7-15c-.1.1-.2.1-.3.2a5,5,0,0,0-.2,1.2c.1.3.5.5.8.7a1,1,0,0,0,.3-.1c-.1-.5-.3-1.1-.4-1.6,0-.2-.1-.4-.2-.4Zm23.4-5.9c0-.5-.9-1.2-1.3-1.1s-.5.4-.2.7a2.65,2.65,0,0,0,.5.6c.1.1.4.3.5.2s.4-.4.5-.4ZM239,49.9c.3-.4.6-.6.6-.9s-.2-.6-.5-.7h-.3c-.3.1-.6.5-.8.7Zm-2.1-.3a1.28,1.28,0,0,0-1.7-.7c-.2.1-.2.3-.4.4.1.1.3.3.4.3a4.85,4.85,0,0,0,1.7,0Zm-54.4,6.3-.7.7a3.59,3.59,0,0,0,1,.7,1.52,1.52,0,0,0,.6-.4ZM212,33.8a2.7,2.7,0,0,0,.7-.8s-.3-.5-.4-.4a5.36,5.36,0,0,0-1.1.5ZM192,47.4c.3.3.6.6.7.6a2.34,2.34,0,0,0,.7-.7c0-.1-.3-.4-.4-.6Zm-3.2-4.6a6.47,6.47,0,0,0,.9-.8c.1-.1,0-.5-.1-.7a.45.45,0,0,0-.5,0,1.12,1.12,0,0,0-.3,1.5Zm61.1,11.7.3.3c.4-.5.9-1,1.3-1.5,0,0,0-.3-.1-.3H251c-.4.4-.7,1-1.1,1.5Zm-7.3-19.7a5.5,5.5,0,0,0,.7-.9l-.3-.4c-.3.2-.7.5-1,.7ZM186,54c-.3-.2-.6-.5-.7-.5s-.4.3-.6.5c.2.2.4.4.6.4S185.7,54.2,186,54Zm6.6-23.5-.7.7c.1.1.3.4.4.3a2.18,2.18,0,0,0,.8-.5Zm10.5,2.2-.6.7c.2.1.4.4.6.4a1,1,0,0,0,.5-.4c0-.2-.2-.4-.5-.7Zm3.7,9.7c.2-.3.4-.5.4-.7s-.3-.4-.4-.4a2.65,2.65,0,0,0-.6.5Zm8.1-10.1c-.2.2-.4.5-.6.7a.76.76,0,0,0,.2.4,2.2,2.2,0,0,0,.8-.1Zm-37.4,5.8v-.2c-.1,0-.3-.2-.4-.1s-.4.3-.6.5c.1.1.3.3.4.3a2.65,2.65,0,0,0,.6-.5Zm33.4-2c-.2-.2-.3-.3-.5-.3a.32.32,0,0,0-.3.3c.1.2.2.3.3.5Zm4.8-1a.91.91,0,0,0-.5-.3.32.32,0,0,0-.3.3c0,.1.2.3.3.4ZM391.5,100a7.6,7.6,0,0,0-.4,1.1,1.47,1.47,0,0,0,.4.2c.3-.3.6-.7,1-1.1l-.1-.3,13.2-.3c.1.5.1.9-.4,1.2-.2.1-.2.5-.2.8,0,.1.3.2.6.3l.1.8h56V121h-7.9c-.6,0-1.3.3-1.5-.9-.5,1.2-1.3.9-1.9.9H385.2l-1.3-.3c-.1,0-.3-.1-.4,0-.8.7-1.8.2-2.8.4v-5c.3-.1.7-.2.7-.4a1.08,1.08,0,0,0-.2-.8,1.65,1.65,0,0,1-.5-1.5V100.3Zm12.2,5.9c.5-.9.4-1.6-.1-2a1.42,1.42,0,0,0,.1,2Zm4.1,5h-.3a8.79,8.79,0,0,0-.6,1c0,.1.3.4.4.6a3.92,3.92,0,0,0,.8-1c.1-.1-.2-.3-.3-.5Zm-18.4-3.7c-.7,0-1.1.4-1,.8.1.2.2.4.4.4.4.1,1-.5,1-.9-.2-.1-.4-.2-.4-.3Zm53.4-2.6a3.4,3.4,0,0,0,.1,1c.1.2.3.3.5.5.1-.2.3-.5.2-.7a2,2,0,0,0-.4-.8c-.1-.1-.2-.1-.3-.2l-.1.2ZM408.3,116l-.6-.6c-.2.2-.6.4-.5.6s.4.4.5.7ZM383,104c.3-.3.6-.5.6-.7a1,1,0,0,0-.5-.6c-.1,0-.5.3-.5.4a1.63,1.63,0,0,0,.4.9Zm2.1,5a2.09,2.09,0,0,0-.6-.4,1.79,1.79,0,0,0-.5.7c0,.1.2.3.3.4Zm57.2,11-.5-.4c-.2.3-.4.5-.6.8l.2.3a2.76,2.76,0,0,0,.9-.7Zm1.8-7.1-.3.1c0,.4.1.8.1,1.2,0,.1.2.2.3.3.1-.1.2-.2.2-.3a5,5,0,0,0-.3-1.3ZM414.5,119a3.61,3.61,0,0,1-.5-.4c-.2.1-.4.3-.6.4.1.1.3.4.4.4A1.26,1.26,0,0,0,414.5,119Zm9,.3.2-.4a1.42,1.42,0,0,0-.6-.2,1,1,0,0,0-.5.6c0,.1.3.4.3.4a.92.92,0,0,0,.6-.4Zm-36.6,1c-.2-.2-.4-.4-.5-.4-.2.2-.4.3-.6.5l.3.3a1.51,1.51,0,0,0,.8-.4Zm19.4-7a1.61,1.61,0,0,0-.7-.4c-.1,0-.2.2-.4.3a2.65,2.65,0,0,0,.6.5,2.22,2.22,0,0,0,.5-.4Zm16.7-6.4a2.19,2.19,0,0,1,.3-.5c0-.1-.2-.2-.2-.2a.78.78,0,0,0-.4.4.75.75,0,0,0,.3.3ZM193.6,121.5l2.1-1.2a1.53,1.53,0,0,0-1.6,0l-1.1.3c-.5.1-1,.1-.5.9-.4-.1-.7-.1-1-.2-.9-.2-1.1-.8-.6-1.5s.2-1-.1-1.5a2.28,2.28,0,0,1-.3-1.1c-.1-.3-.1-.6-.2-.9a6.94,6.94,0,0,0-.5-1.3,1,1,0,0,0-.5-.6c-.1-.1-.4,0-.5.1a2.49,2.49,0,0,0-.1.8,1.61,1.61,0,0,0,.3.9,7.46,7.46,0,0,0,.7,1.2c.6.5.6.7.1,1.3-.3.4-.5,1-.9,1.5a.91.91,0,0,1-.7.3,35.48,35.48,0,0,1-12.6-5.9,25.49,25.49,0,0,1-6.5-7c-.5-.8-.5-.8.4-1.2a3.11,3.11,0,0,0,.7-.9,2.61,2.61,0,0,1,2.1-1.1l6.1-.1,19.2-.4a8.08,8.08,0,0,0,1.6-.1,4.1,4.1,0,0,1,2.6.7,1.85,1.85,0,0,0-.2.7c0,.2.2.3.4.5.4-1,.4-1,1.4-.7a48.88,48.88,0,0,0,16.6,1.6,30.91,30.91,0,0,0,9.6-1.9c.8-.4,1.7-.8,2.5-1.3a1.69,1.69,0,0,1,1-.3c1.2-.1,2.4-.1,3.6-.1a1.42,1.42,0,0,1,.6.2c-.1.2-.1.5-.3.6-.3.3-.8.5-1.1.8l-.5.5a1.79,1.79,0,0,0,.7.5c.1,0,.3-.2.4-.3l.4-.4c.9-.3,1.1-.9.9-1.8l25.3-.5c-.3.8-.6,1.6-.9,2.3a26.07,26.07,0,0,1-11.9,12.2,48.86,48.86,0,0,1-12.5,4.4,89.79,89.79,0,0,1-17.2,2c-3.1.1-6.1,0-9.2-.1s-5.9-.2-8.9-.4-5.7-.7-8.5-1.1a1.42,1.42,0,0,1-.6-.2Zm-7.4-9.8a3.7,3.7,0,0,0,1.1-.5,12,12,0,0,0,1.1-1.2c.4-.4.3-.7-.2-.9a3.51,3.51,0,0,1-.8-.5c-.2-.1-.4-.3-.6-.4a4.18,4.18,0,0,0-1-.4.85.85,0,0,0-.7,0,1.1,1.1,0,0,0,0,.8,1.42,1.42,0,0,1,.4,1.9A.82.82,0,0,0,186.2,111.7Zm18.7-.4.2.2c.3-.2.8-.3.9-.6a1.67,1.67,0,0,0,.1-1.2c-.2-.5-.6-.5-.8,0A9.36,9.36,0,0,0,204.9,111.3Zm-5,.5c-.8,0-1,.3-1,.8s.2.7.6.7a.88.88,0,0,0,.9-.8c0-.3-.4-.6-.5-.7Zm-10.9.7a3.4,3.4,0,0,0-1,.1c-.2.1-.3.5-.5.7.2.1.4.3.6.3a1.61,1.61,0,0,0,.9-.3c.2-.1.3-.4.4-.6Zm-7.4-.4a1.38,1.38,0,0,0-.3-.4,1.4,1.4,0,0,0-1.5.3c-.1.1-.2.4-.1.5.5.6.9-.1,1.4-.1a.85.85,0,0,0,.5-.3Zm21.5-4.3c-.4.3-.7.5-.7.7a1.7,1.7,0,0,0,0,1l.3.1a2.18,2.18,0,0,0,.5-.8,3.08,3.08,0,0,0-.1-1Zm-28,5.7,1.2-.7a1.08,1.08,0,0,0-.7-.3.78.78,0,0,0-.9.6v.1a1.73,1.73,0,0,1,.4.3Zm60.6,6.2c.5-.1,1-.7.9-1.1a1,1,0,0,0-.5-.4c-.1.2-.3.3-.3.5a2.79,2.79,0,0,0-.1,1Zm-53.9-10.2.1.3a3.4,3.4,0,0,0,1-.1c.2-.1.2-.4.4-.7l-.2-.2Zm15.4,10.3-.1-.3c-.4-.2-.8-.2-1,.3,0,.1.1.3.1.4Zm-5.9-9.6c-.4-.3-.6-.5-.8-.5s-.3.2-.5.4c.2.2.3.4.5.4a1.6,1.6,0,0,0,.8-.3Zm40.1-1.7a1.79,1.79,0,0,0-.5.7c0,.1.3.4.4.3a1,1,0,0,0,.5-.4c.1-.1-.1-.3-.4-.6Zm-31.1,10c-.1.2-.3.3-.4.5,0,0,.2.3.3.3s.3-.3.4-.4a1.73,1.73,0,0,0-.3-.4ZM409.1,97.9l-24.9.5V59.6h24.9Zm-7.9-7c-.2-.2-.4-.5-.7-.6a1,1,0,0,0-1.2.9v.3a3.4,3.4,0,0,1-.1,1l-.1,1.2c.4-.2.9-.3,1.3-.5.1-.1.1-.3.2-.5s.2-.6.3-.8a9.25,9.25,0,0,1,.3-1ZM386.4,65.3c-1.5.6-2,1.9-1.2,3a1,1,0,0,0,.9.4c.5-.2.2-.6,0-.9a1.2,1.2,0,0,1,0-1.4C386.2,66.1,386.3,65.7,386.4,65.3Zm4.5,23c1.1,0,1.5-.3,1.5-1a.59.59,0,0,0-.5-.7h-.2c-.5,0-1.3.7-1.2,1.1s.3.5.4.6Zm5.8-10.1a5.24,5.24,0,0,0,1.1-1c.1-.2,0-.6,0-.8a2.77,2.77,0,0,0-.9.1,2.7,2.7,0,0,0-.7.8.64.64,0,0,0,0,.6.91.91,0,0,1,.5.3Zm-10.5-16c-.3-.3-.5-.7-.8-.7-.5-.1-.5.4-.5.8s0,.9.6.9c.2-.2.4-.7.7-1Zm8,1-.5-.6a4.44,4.44,0,0,0-.8,1.1,1.33,1.33,0,0,0,.3.5h.2a3.92,3.92,0,0,1,.8-1Zm.7,13.8c-.3-.2-.5-.5-.8-.5s-.5.4-.4.5a2.1,2.1,0,0,0,.6.8Zm-7.6,18.3.5.5a6.07,6.07,0,0,0,.7-1c0-.1-.2-.3-.3-.4Zm-.4-9.2a5.5,5.5,0,0,0-.7.9c0,.1.4.5.5.4a.9.9,0,0,0,.6-.6c.1-.2-.2-.5-.5-.9Zm3.8,5.1.2.3c.3-.3.7-.6,1-.9.1-.1,0-.3,0-.4-.2,0-.4-.1-.5,0s-.4.5-.7,1Zm2.3-6.7c-.6.1-.8.5-.7.9,0,.1.4.3.5.3C393.2,85.4,393.1,85,393,84.5Zm-2.4-17.4c-.3-.3-.5-.5-.6-.5a1.21,1.21,0,0,0-.5.5c0,.1.2.5.3.5a5.58,5.58,0,0,1,.8-.5Zm5.6,11.5-.3-.3-.8.6.4.5Zm-.5-13.4.2-.4a4.71,4.71,0,0,0-.5-.2,5.55,5.55,0,0,0-.6.8c0,.1.2.3.3.4Zm12,17.3.3.2a6.47,6.47,0,0,0,.8-.9v-.3c0-.1-.2-.1-.3-.1-.3.4-.6.8-.8,1.1Zm-15-8.3a5.58,5.58,0,0,0,.5-.8c0-.1-.2-.2-.3-.3a2.65,2.65,0,0,0-.5.6,2.23,2.23,0,0,1,.3.5ZM392.1,92a.91.91,0,0,0-.3.5.45.45,0,0,0,.3.3.32.32,0,0,0,.3-.3C392.5,92.4,392.3,92.3,392.1,92Zm100,4.3-16.7.3V59.4h25V71.7c0,4.1.3,8.1-.3,12.2.7,4,0,8.1.3,12.3a12.92,12.92,0,0,1-3.4-.1c-1.1-.3-2,.2-3,.1h-1c-.1-.5-.1-.8-.2-1.2h-.4c-.1.4-.2.8-.3,1.3ZM477.3,74.2c-.4.9-.8,1.6-1.1,2.4a.45.45,0,0,0,0,.5.41.41,0,0,0,.8.2c.2-.7.4-1.4.6-2.2A9.2,9.2,0,0,0,477.3,74.2Zm20,18.2c.1.1.3.5.5.6s1.1-.9,1.1-1.3a1.21,1.21,0,0,0-.5-.5c-.6-.2-1.1.5-1.1,1.2Zm-2.7-.7.6.6a6.38,6.38,0,0,0,.8-1.4c0-.1-.3-.4-.5-.5-.5,0-.9.6-.9,1.3Zm-2.2-5h.2A8.47,8.47,0,0,0,493,85c0-.2-.2-.5-.2-.7-.2.2-.7.3-.7.5.1.7.2,1.3.3,1.9Zm-10.2-4.5c-.4.5-.7.7-.7,1s.4.5.6.7a2.7,2.7,0,0,0,.7-.8c.1-.1-.3-.4-.6-.9Zm3.4-10.4.6.7a5.5,5.5,0,0,0,.7-.9c0-.1-.3-.3-.4-.5Zm11.8-8.1c-.3-.2-.4-.4-.6-.5-.4-.1-.8.5-.8.9a.78.78,0,0,0,.4.4,3.14,3.14,0,0,0,1-.8Zm.2,25.5c-.3.4-.6.6-.6.8s.3.5.5.7l.6-.9c-.1,0-.3-.2-.5-.6Zm-1.5-1,1-2.3a1.77,1.77,0,0,0-1,2.3ZM491.9,77a1.73,1.73,0,0,0-.4-.3,2.7,2.7,0,0,0-.7.8c0,.1.2.3.4.5ZM481.2,92l.2.2c.3-.2.7-.5,1-.7.1-.1,0-.3-.1-.5s-.3,0-.4,0c-.2.3-.4.6-.7,1Zm7.9-10.5-.8-.7c-.1.2-.4.4-.4.5a1,1,0,0,0,.5.6c.1.1.4-.2.7-.4ZM485.8,83c-.4-.2-.6-.5-.8-.4a2.65,2.65,0,0,0-.6.5c.2.1.3.4.5.4S485.4,83.2,485.8,83Zm-8.1,2.5-.5-.5a4.05,4.05,0,0,0-.5.9c0,.1.1.2.2.3ZM479.3,70a3.51,3.51,0,0,0,.5-.8c0-.1-.2-.2-.3-.4a2.65,2.65,0,0,0-.5.6C478.8,69.5,479,69.7,479.3,70Zm9.9,17.8.4.5a2.65,2.65,0,0,0,.5-.6c0-.1-.2-.3-.3-.5Zm9.2,6.9c-.2.2-.3.5-.5.7,0,.1.2.2.3.4l.6-.6c0,.1-.2-.2-.4-.5ZM478,66.5a2.51,2.51,0,0,0-.4.7c0,.1.1.2.2.4l.4-.4C478.3,67.1,478.2,66.9,478,66.5Zm18,9a1.55,1.55,0,0,0,.3-.6c0-.1-.2-.2-.3-.4a1.38,1.38,0,0,0-.3.4C495.6,75.1,495.9,75.2,496,75.5Zm46.6,4.8V59.4h24.9V68a8.45,8.45,0,0,1-.5,1.7c-.2.4-.2.8.5.7,0,.3.1.5.1.7V85.4c0,.7.1,1.1-.5,1.6s-.2.7.4.9a28.05,28.05,0,0,1,0,4.1,3.79,3.79,0,0,0,0,1.5c.3,1.1-.2,1.6-1.4,1.6h-7.6c-3.5.1-6.9.2-10.3.2h-3.3V95c-.1-.2-.2-.3-.3-.5-.2.1-.5.2-.5.3-.2.8-.8.7-1.5.6V85.8a13.13,13.13,0,0,1,.1-2.8,11,11,0,0,1,.9-2.3c.1-.2.2-.3.3-.5l-.1-.2Zm6.2.7c.2.2.3.7.4.7.9-.1.9.3.8,1-.1.5.2.5.6.3a.8.8,0,0,0,.3-1.1l-.1-.1c-.4-.8-1.2-.7-2-.8a5.16,5.16,0,0,0-.2-1.1,3.55,3.55,0,0,0-.2-1,1.45,1.45,0,0,1-.2-.7,2.09,2.09,0,0,0-.4.6c-.1.3-.2.7-.3,1-.3.5-.1.9.4,1,.3.1.7.1.9.2Zm16.9,4.5c.1-.1.2-.1.2-.2l.8-.8a1.42,1.42,0,0,0,.2-.6c-.2-1.2-1-2.4,0-3.6a.19.19,0,0,0,0-.3.3.3,0,0,0-.4,0c-.3.3-.8.7-.8,1a3.08,3.08,0,0,1-.3,1.9,4.18,4.18,0,0,0-.4,1v.4a6.12,6.12,0,0,0,.5,1.2c.1-.1.2-.1.2,0Zm-11-8.1c-1,.8-1.2,1.7-.6,2.5.4.5.6.9,0,1.4a.3.3,0,0,0,0,.4.37.37,0,0,0,.3.1,1.7,1.7,0,0,0,1-2.2,7.84,7.84,0,0,1-.5-1.4c-.1-.2-.1-.5-.2-.8ZM549,87.7v-.3a2.12,2.12,0,0,0-.7-.3,3.67,3.67,0,0,0-2.5,1.5,1.39,1.39,0,0,0,0,.9.52.52,0,0,0,.8,0l.2-.2a2.07,2.07,0,0,1,1.4-1C548.5,88.2,548.7,87.9,549,87.7ZM563.8,81a2,2,0,0,0-.4-.8.85.85,0,0,0-.7,0,5,5,0,0,0-.4,2.7c0,.1.2.3.2.3s.3,0,.3-.2A12.44,12.44,0,0,0,563.8,81Zm.3,4.8c-.5.1-1.3.9-1.2,1.3a1,1,0,0,0,.6.5,2.25,2.25,0,0,0,1.4-.1c.2-.1.2-.8.1-1.2s-.6-.3-.9-.5Zm-18.1-9L544.8,78c-.1.2,0,.5,0,.7.2,0,.5.1.7,0a4.26,4.26,0,0,0,1.1-1.2C546.8,77.2,546.6,76.9,546,76.8ZM548.7,91c.7,0,1.2-.4,1.2-.9a.9.9,0,0,0-.7-1c-.5-.1-.8.6-.7,1.3A.56.56,0,0,0,548.7,91Zm-1.8-7a1,1,0,0,0-1.4-.4.22.22,0,0,0-.2.2c-.2.2-.3.5-.5.7.3.1.7.3,1,.2a4.13,4.13,0,0,0,1.1-.7Zm5.2,5c.6.4.9.3,1.7-.3a.91.91,0,0,0,.3-.7s-.2-.3-.3-.3a1.45,1.45,0,0,0-.7.2,10,10,0,0,1-1,1.1Zm11.5-21.6h0v-.5l-.3-.6c-.2.2-.4.3-.5.5a4.87,4.87,0,0,0-.1,1.2c0,.2.2.3.4.5a1,1,0,0,0,.5-.4.85.85,0,0,0,0-.7Zm-6.5,22.2a.85.85,0,0,0,.3-.5c0-.4-.7-1.1-1-1a1,1,0,0,0-.5.4,1.28,1.28,0,0,0,1.2,1.1ZM563,75a1.43,1.43,0,0,0,1-1.8.52.52,0,0,0-.2-.4A2.1,2.1,0,0,0,563,75Zm-1.5,19a2.39,2.39,0,0,0,.7-.3,3.18,3.18,0,0,0,.3-.9h-.8c-.2,0-.3.1-.4.3a1.76,1.76,0,0,0-.4.5ZM553,85.1c-.3-.3-.5-.8-.6-.7-.6.1-.7.6-.7,1.1a2.12,2.12,0,0,0,.3.7Zm9.5-14.7h-.3a2.31,2.31,0,0,0-.5.7,1.56,1.56,0,0,0,.8.6,1.21,1.21,0,0,0,.5-.5c-.2-.3-.3-.5-.5-.8Zm0,21.4a6.07,6.07,0,0,0-1-.7c-.1,0-.5.5-.4.5a1.34,1.34,0,0,0,.7.6,7.23,7.23,0,0,1,.7-.4Zm-3.4-16h.3c.2-.3.4-.7.6-1,0-.1-.2-.3-.3-.4a6.47,6.47,0,0,0-.8.9c-.1,0,.1.3.2.5Zm-3,7.2a1.11,1.11,0,0,0,1.4-.4c.1-.1,0-.4,0-.7-.2,0-.5,0-.6.1a3.92,3.92,0,0,1-.8,1Zm8.2-6.4c-.5-.3-.8-.6-1.1-.8,0,0-.3.2-.3.3a1,1,0,0,0,.8.9c.2,0,.3-.2.6-.4ZM554,68.9c1,0,1.3-.3,1-1.1C554.5,68,554,68.1,554,68.9Zm0,25.2-.5-.7a1,1,0,0,0-.4.7,1.49,1.49,0,0,0,.3.7Zm10.8-15.7.6-.5c-.2-.2-.4-.4-.5-.4s-.4.3-.7.4Zm-3.2,2.4-.5-.6c-.1.2-.3.4-.4.6s.2.4.4.4.2-.2.5-.4Zm-17.3-5.9.2.2.8-.7c-.1-.1-.2-.3-.3-.3a.68.68,0,0,0-.7.7v.1Zm7,12.8-.2-.4-.8.4c.1.1.2.4.2.3a6.89,6.89,0,0,1,.8-.3Zm2.6,1.8v.2c.5.3.7,0,1-.2l-.1-.3Zm-4.4,4.8a6.89,6.89,0,0,0,.3-.8c0-.1-.2-.2-.3-.4a3.33,3.33,0,0,0-.3.6q-.15.15.3.6Zm14.7-2.5c-.2-.2-.4-.4-.5-.3a1.38,1.38,0,0,0-.4.3,1.47,1.47,0,0,0,.2.4,5.74,5.74,0,0,0,.7-.4ZM555,72.6l-.4-.3c-.1.1-.3.3-.3.4s.2.2.3.4Zm-5.1-.8-.3-.2-.5.7c.1.1.2.1.3.2a2.31,2.31,0,0,1,.5-.7Zm.1,11.9c-.2-.2-.4-.4-.5-.3s-.3.2-.4.3c.1.1.2.3.4.3s.1-.1.5-.3ZM495.4,29.2V58.5H482.9c-2.1,0-4.1.1-6.2,0s-4.1.2-6.2,0V29.2ZM475.7,55.8l.1-.1a3.7,3.7,0,0,0-.5-1.1c-.1-.2-.7.9-.5,1.4a1.56,1.56,0,0,0,.6.8,2,2,0,0,1,.4-.8C475.7,56,475.7,55.9,475.7,55.8Zm17.6-11,.9-1c-.2-.1-.3-.4-.5-.3-.4,0-.9.1-1,.6a3.19,3.19,0,0,0,.6.7Zm-17.4,1.4a4.23,4.23,0,0,0-.5.7c0,.1.2.2.3.4a2.18,2.18,0,0,0,.5-.4c0-.1-.2-.4-.3-.7Zm-71.7-17V51.3c0,.5.1,1-.4,1.4-.1.1,0,.3,0,.5a4.51,4.51,0,0,1,.3,1.1v4.2H379.2V29.2Zm-8.7,6.6c.3-.4.6-.7.7-.9s-.3-.4-.5-.6a4.62,4.62,0,0,0-.7.7,2.8,2.8,0,0,0,.5.8Zm3.1,15.7.1.2h1.1c.1,0,.3-.3.4-.4-.2-.1-.4-.3-.5-.3a5.36,5.36,0,0,0-1.1.5Zm-4.7,4.2c-.2.3-.4.5-.4.7s.2.2.4.4c.1-.2.4-.3.4-.5s-.2-.3-.4-.6Zm3.2-15.4c-.4-.1-.5-.2-.6-.2s-.3.3-.5.4c.1.1.2.2.3.2a2,2,0,0,0,.8-.4ZM384.5,52.2c-.2-.2-.3-.4-.4-.3a.78.78,0,0,0-.4.4s.2.4.3.3S384.3,52.4,384.5,52.2Zm156.6,68.9-.2-.8c-.6.3-1,1.2-1.8.7V104.1c0-.4,0-.6.4-.8s.4-.5,0-.7a.66.66,0,0,1-.4-.5V97h3.8c2.1,0,4.2-.1,6.2-.1.9,0,1,0,.9.9a4.12,4.12,0,0,0,.3.8c.2-.2.5-.4.6-.6a1.7,1.7,0,0,0,0-1c4.3-.3,8.7-.1,13.2-.3-.1.7-.2,1.3-.3,1.9,0,.2-.1.4-.1.6.1.9.2,1.8.3,2.6v4.7a1,1,0,0,1-.4.7.63.63,0,0,0-.1.9l.1.1a2.09,2.09,0,0,1,.4.6v6.4a2.54,2.54,0,0,1-.2.7v.9a3.89,3.89,0,0,1-.2,3,1.42,1.42,0,0,0-.2.6c.1.9-.4.9-1,.9h-1a6.37,6.37,0,0,0,.2-.7c0-.2,0-.5-.1-.5a.75.75,0,0,0-.5.1.35.35,0,0,0-.1.2c-.2.3-.2.7-.5.8a3.79,3.79,0,0,1-1.5,0c-.2,0-.3-.2-.4-.3a.53.53,0,0,0-.9-.2c-.7.8-1.7.4-2.5.5-.1,0-.3-.2-.4-.3-.3-.5-.7-.5-1.1,0a1,1,0,0,1-.7.4c-1.1,0-2.2-.2-3.2-.2-.3,0-.7.2-1,.2C546.2,121.1,543.7,121.1,541.1,121.1Zm9.5-18.3.2-.1c-.2-.2-.4-.4-.6-.4a5.07,5.07,0,0,0-1.3.2,1.28,1.28,0,0,0-.5.7.55.55,0,0,0,.3.5c.8.2.8.5.3,1.1-.1.1.1.4.1.7.2-.1.5,0,.6-.2C550.3,104.6,551.1,103.9,550.6,102.8Zm-1.6,9.5a1.33,1.33,0,0,1,.3.7c0,.2.2.4.2.6s.2.4.3.7l1.2-.6c.1-.1,0-.6-.1-.7-.3-.3-.6-.6-.3-1.1.1-.2,0-.3-.1-.5s-.5-.2-.5-.1A9.43,9.43,0,0,1,549,112.3Zm.9-11.8-.1.1c.2.3.3.7.5.7a8.75,8.75,0,0,0,1.6.2V101c-.5-.2-.6-.5-.7-1-.1-.3-.4-.5-.6-.7-.2.2-.4.5-.6.7a.75.75,0,0,0-.1.5Zm-9.6,9.7c1,0,1.1-.7,1.3-1.3V108c-.3.2-.5.3-.8.5a2.7,2.7,0,0,0-.7.8c-.2.3-.4.3-.5.5Zm8.8-12.1c-.4-.1-.6-.3-.7-.2s-.5.3-.7.5-.5.4-.8.6a2.65,2.65,0,0,0-.6.5,2.57,2.57,0,0,0,.2.5,1.33,1.33,0,0,0,.8-.3,5.55,5.55,0,0,0,.8-.6,3.14,3.14,0,0,0,1-1Zm-6.8,7-.9.5.8.5h1.1c.1,0,.2-.6.1-.6-.4-.1-.7-.3-1.1-.4Zm14.3-4.3c-.4-.4-.6-.9-1-1s-.7.3-.7.7c0,.6.5.6.9.7.2.1.4-.1.8-.4Zm2.6,11.9-.5-.6c-.1.2-.4.3-.4.5a.87.87,0,0,1-.6.9c-.1,0-.1.4-.2.6a2,2,0,0,1,.5.1,15.76,15.76,0,0,0,1.2-1.5Zm2.2,4c0-.1-.1-.4-.2-.4a.73.73,0,0,0-.6.2,1.14,1.14,0,0,0-.3.8c0,.3.3.5.5.7a2.65,2.65,0,0,0,.5-.6,1.48,1.48,0,0,0,.1-.7Zm-14-12.8c-.8-.1-1.3,0-1.3.6a.66.66,0,0,0,.4.5c.6.1.9-.4.9-1.1Zm-7-4.9-.5-.7a3.74,3.74,0,0,0-.6.7c-.1.2.2.4.4.7Zm3.2.1-.6-.6c-.2.2-.5.3-.5.6s.2.4.4.6Zm17,12.5c.6-.2,1-.5.9-1,0-.1-.2-.3-.3-.4s-.3.1-.3.2a10.38,10.38,0,0,0-.3,1.2Zm-5,5.4-.5-.9c-.1.2-.4.3-.4.4a5.94,5.94,0,0,0,.4.8Zm8-4.8c-.3-.2-.5-.4-.6-.4a1,1,0,0,0-.4.5c0,.1.2.3.3.4ZM545,120.1l.7-.7-.3-.3a1.47,1.47,0,0,0-.6.5A.76.76,0,0,0,545,120.1Zm-5.4-15.7.1.4c.3-.1.6-.2,1-.3a.49.49,0,0,0-.1-.3Zm5.2-6.3.6-.5c-.2-.1-.3-.3-.5-.3a2.19,2.19,0,0,0-.5.3Zm16.5,17.2c-.2-.2-.4-.3-.6-.5-.1,0-.2.2-.3.3.1.2.3.3.4.4s.2-.1.5-.2Zm-4.2,4a2.51,2.51,0,0,0,.4-.7c0-.1-.2-.2-.2-.3-.1.1-.3.3-.3.4a1.76,1.76,0,0,0,.1.6ZM555.4,103l-.1-.4-.8.1.1.5Zm-9.2,13.2c-.1.2-.3.3-.3.5s.2.2.3.2.3-.2.3-.3S546.4,116.4,546.2,116.2Zm-49.4,4.9h-2.6c-.1,0-.3,0-.3-.1-.4-.7-.8-.5-1.3,0a.37.37,0,0,1-.3.1H487c.6-.9,1-1.6,1.5-2.3a1.27,1.27,0,0,0,.1-.6c-.2,0-.5-.1-.6,0-.8.8-2.1,1.2-2.3,2.6,0,.1-.5.3-.7.3H474.3c1.2-.9.7-1.8.3-2.8a.66.66,0,0,0-.5-.4c-.1,0-.3.2-.4.4a1.38,1.38,0,0,0-.2,1.8,3.4,3.4,0,0,1,.1,1H472V98.3a3.33,3.33,0,0,1,.6.3c.4.4.6.4,1,.1a2,2,0,0,1,.8-.4c2.8,0,5.5,0,8.3-.1,2.2,0,4.5-.2,6.7-.2.5,0,1.1-.1,1.3.7a.49.49,0,0,0,.6.3c.1,0,.2-.1.3-.2a2.53,2.53,0,0,1,2.7-.8,3.94,3.94,0,0,0,2.4-.1h.2a6.7,6.7,0,0,1,0,2,5.8,5.8,0,0,0,0,3.2,4.1,4.1,0,0,1,.1,1.1v16A1.64,1.64,0,0,0,496.8,121.1Zm-14-5.7.3.1a2.21,2.21,0,0,0,.6-1.9,21.05,21.05,0,0,0-.2-2.5c0-.2-.3-.4-.5-.6-.2.2-.5.4-.6.6a2.35,2.35,0,0,0,.2.8,1.84,1.84,0,0,1,.2,1.6v1.9Zm-7.3-16.6c-.2.1-.3.2-.5.3-.8.8-.8,1.8-1.1,2.8-.1.2.2.5.3.7.2-.2.6-.2.7-.5a15.46,15.46,0,0,0,.7-2.3c0-.2-.1-.6-.1-1Zm4.7,9.7a1.71,1.71,0,0,0,1.2-1.6c0-.4-.3-.5-.6-.3a1.71,1.71,0,0,0-.6,1.9Zm-2.2,9.8c-.4-.3-.6-.7-.8-.7-.5,0-.6.5-.6.9,0,.2.3.5.4.7Zm13.6-17.9c0,.7.2,1.1.7,1.1.2,0,.5-.4.4-.5a3.92,3.92,0,0,0-.8-1Zm-7.9,16.9.2.2c.9-.1,1.2-.9,1.7-1.6,0-.1,0-.3-.1-.3h-.2a6.37,6.37,0,0,0-1.6,1.7Zm-1.9-.6c-.3-.3-.5-.5-.6-.5-.4-.1-1,.5-.9.9,0,.2.4.4.4.4a7.63,7.63,0,0,0,1.1-.8Zm6.2-16.5c0,.1.1.2.2.3s.3-.1.3-.2c0-.6.4-.7.8-.8.1,0,.1-.3.2-.4a.76.76,0,0,0-.5-.2,1.2,1.2,0,0,0-1,1.3Zm-3.4.1a1.25,1.25,0,0,0-.5-1.7c-.1,0-.3,0-.3.1a.3.3,0,0,0,0,.4,2.8,2.8,0,0,0,.8,1.2Zm2.4,10.3-.7-.7c-.2.2-.5.4-.5.7a.54.54,0,0,0,.5.5C486.5,111.1,486.6,110.8,487,110.6Zm.6,4.8-.8.9a.85.85,0,0,0,.5.3.76.76,0,0,0,.8-.6v-.1a2.25,2.25,0,0,1-.5-.5Zm8,2.9-.7-.7c-.2.2-.5.4-.5.5a2.18,2.18,0,0,0,.5.8Zm-2.8-10.1V108c-.4.1-.7.2-1,.3s-.3.2-.3.4.1.3.2.3h.4c.2-.2.4-.5.7-.8Zm-14.2-5.5c.2-.3.5-.5.5-.7s-.3-.3-.5-.5c-.2.2-.3.4-.5.6s.2.3.5.6ZM496.4,113a2.19,2.19,0,0,0-.5-.3,4.62,4.62,0,0,0-.7.7l.3.3C495.8,113.6,496,113.3,496.4,113Zm-13-11.3a1.55,1.55,0,0,0-.6-.3,1.21,1.21,0,0,0-.5.5s.2.3.3.3a1.77,1.77,0,0,0,.8-.5Zm11.7,5.9.4.1c.1-.3.1-.6.2-.9l-.3-.1-.3.9ZM483.8,109l.3.1.2-.8h-.4A1.7,1.7,0,0,1,483.8,109ZM299.5,121H274.6V102.4l24.9-.5Zm-16.3-10h.3l.2-.7h-.5ZM168.9,92.1h20.9c.7,0,1,.3.7,1-.2.4-.4.7-.6,1.1v.6c.2,0,.5.1.6,0,.4-.4.7-.2,1.1-.1h.6a1.42,1.42,0,0,0-.2-.6c-.5-.5-.2-1.1-.2-1.7,0-.1.2-.2.4-.2h4.7a13,13,0,0,0,4.1,9.6c-.3,0-.4.1-.6.1l-6.1.1c-.7,0-1-.2-.9-.9v-.4c-.3-.3-.6-.7-.9-.7s-.6.4-.7.8c-.3,1.3-.3,1.3-1.7,1.4-3.7.1-7.5.1-11.2.2-2.4,0-4.8.2-7.1.2-1.5,0-1.2.1-1.6-1.2A27.52,27.52,0,0,1,168.9,92.1ZM182,95.8c.2-.1.5-.2.5-.4A2.32,2.32,0,0,1,184,94a.22.22,0,0,0,.2-.2c.3-.4.2-.7-.2-.8-.7-.2-1.4-.5-2.1-.7-.4-.1-.8-.2-.9.4s.1.7.7.8a.46.46,0,0,1,.4.5c0,.1-.1.2-.2.3a2.51,2.51,0,0,1-.7.4c-.2.1-.5.2-.5.3a2.09,2.09,0,0,0,.4.6A3.71,3.71,0,0,0,182,95.8Zm-6.5.5c-.1-.1-.2-.6-.5-.7a.81.81,0,0,0-.9.3c-.2.2-.4.8-.2.9a1.85,1.85,0,0,1,.5,1.2c0,.2.4.4.6.6.1-.2.4-.4.4-.6A11.56,11.56,0,0,1,175.5,96.3Zm11.8.6.1-.1c-.5-.3-.7-1.1-1.5-1a4.92,4.92,0,0,0-1.7.6,1,1,0,0,0-.4.5c.2.1.4.3.6.3Zm-6.8,2.5c.1,0,.2.1.3.1a2,2,0,0,0,2.1-1.3c.1-.4-.1-.4-.4-.4A3,3,0,0,0,180.5,99.4Zm9-3.8-.2-.4a.76.76,0,0,0-.4-.2,1.79,1.79,0,0,0-.5.7s.2.3.3.3a3,3,0,0,0,.8-.4Zm43.6-41.4c.2.2.4.5.6.6a1.73,1.73,0,0,0,1,.1.78.78,0,0,0,.4-.4c0-.1-.2-.3-.3-.4a3.55,3.55,0,0,0-1-.2Zm-.8.8a16.6,16.6,0,0,0,.3-2.2c0-.1-.3-.2-.4-.4a2.19,2.19,0,0,0-.3.5,2.77,2.77,0,0,0-.1.9A5,5,0,0,0,232,55ZM180.6,72c-.1-.1-.3-.3-.4-.3a1.61,1.61,0,0,0-.7.4l.5.5Zm-4.2-1a1.34,1.34,0,0,0,.7-.6l-.1-.2-1.3.4c.3.3.5.5.7.4Zm81.5-23.2v.7c0,.1.3.1.4.1v-.8ZM182.4,64.1c.1.2.4.3.6.5a1.42,1.42,0,0,0,.2-.6c.1-.3.1-.5.2-.8a.9.9,0,0,0-.1-.5C182.8,62.7,182.2,63.7,182.4,64.1Zm4.3,1.2a5.36,5.36,0,0,0-1.1-.5c-.1,0-.3.3-.5.4l.9.8Z"/></svg>